M48
; DRILL file {KiCad 7.0.7} date Tue Oct 31 22:36:59 2023
; FORMAT={-:-/ absolute / metric / decimal}
; #@! TF.CreationDate,2023-10-31T22:36:59+07:00
; #@! TF.GenerationSoftware,Kicad,Pcbnew,7.0.7
; #@! TF.FileFunction,Plated,1,2,PTH
FMAT,2
METRIC
; #@! TA.AperFunction,Plated,PTH,ViaDrill
T1C0.300
; #@! TA.AperFunction,Plated,PTH,ViaDrill
T2C0.400
; #@! TA.AperFunction,Plated,PTH,ComponentDrill
T3C0.600
; #@! TA.AperFunction,Plated,PTH,ComponentDrill
T4C1.000
; #@! TA.AperFunction,Plated,PTH,ComponentDrill
T5C1.500
; #@! TA.AperFunction,Plated,PTH,ComponentDrill
T6C2.100
; #@! TA.AperFunction,Plated,PTH,ComponentDrill
T7C3.000
%
G90
G05
T1
X41.35Y-18.95
X65.162Y-18.95
X255.72Y-8.14
X259.23Y-8.84
X290.1Y-1.57
T2
X15.875Y-109.631
X15.875Y-128.681
X23.812Y-36.512
X24.606Y-37.306
X25.4Y-38.1
X26.194Y-38.894
X26.987Y-39.688
X27.781Y-40.481
X33.337Y-35.719
X34.131Y-36.512
X34.925Y-37.306
X34.925Y-109.631
X34.925Y-128.681
X35.719Y-38.1
X36.512Y-38.894
X37.306Y-39.688
X41.35Y-42.762
X43.731Y-118.962
X46.112Y-61.812
X48.494Y-80.862
X53.256Y-99.912
X60.4Y-42.762
X67.544Y-118.962
X69.925Y-61.812
X74.688Y-80.862
X79.45Y-42.762
X84.212Y-18.95
X84.212Y-99.912
X88.975Y-61.812
X91.356Y-118.962
X93.737Y-80.862
X98.5Y-42.762
X103.262Y-18.95
X103.262Y-99.912
X108.025Y-61.812
X112.787Y-80.862
X117.55Y-42.762
X122.312Y-18.95
X122.312Y-99.912
X127.075Y-61.812
X131.838Y-80.862
X136.6Y-42.762
X141.362Y-99.912
X146.125Y-18.95
X146.125Y-61.812
X150.887Y-80.862
X155.65Y-42.762
X160.412Y-99.912
X162.794Y-118.962
X165.175Y-18.95
X165.175Y-61.812
X169.938Y-80.862
X174.7Y-42.762
X179.463Y-99.912
X184.225Y-18.95
X184.225Y-61.812
X188.987Y-80.862
X193.75Y-42.762
X198.512Y-99.912
X203.275Y-18.95
X203.275Y-61.812
X208.037Y-80.862
X212.8Y-42.762
X217.562Y-99.912
X222.325Y-61.812
X227.087Y-18.95
X227.087Y-80.862
X231.85Y-42.762
X231.85Y-118.962
X236.612Y-99.912
X241.375Y-61.812
X246.137Y-18.95
X246.137Y-80.862
X250.9Y-42.762
X250.9Y-118.962
X255.662Y-99.912
X260.35Y-39.688
X260.425Y-61.812
X261.144Y-38.894
X262.731Y-28.669
X263.292Y-7.839
X263.525Y-29.462
X263.906Y-6.586
X264.04Y-0.78
X265.113Y-38.1
X265.188Y-18.95
X265.188Y-80.862
X265.906Y-37.306
X266.7Y-36.512
X267.494Y-35.719
X269.95Y-42.762
X269.95Y-118.962
X277.812Y-24.7
X279.475Y-61.812
X280.194Y-24.7
X280.87Y-4.43
X280.97Y-5.424
X281.476Y-28.416
X281.781Y-29.462
X281.856Y-99.912
X283.354Y-30.466
X283.513Y-29.462
X284.238Y-18.95
X293.762Y-123.725
X296.144Y-80.862
X298.525Y-42.762
X303.287Y-61.812
X304.09Y-1.67
X304.45Y-14.34
X307.73Y-14.31
X308.05Y-18.95
X309.94Y-12.54
X312.812Y-104.675
X312.812Y-123.725
X313.06Y-9.46
X317.56Y-10.41
X318.294Y-33.431
X319.087Y-10.412
X320.675Y-57.244
X320.675Y-76.294
X322.262Y-94.55
X323.782Y-5.933
X324.644Y-30.256
X325.438Y-29.462
X325.61Y-76.92
X326.02Y-73.98
X326.02Y-96.63
X326.231Y-28.669
X326.231Y-136.619
X326.5Y-93.77
X327.025Y-27.875
X327.025Y-113.6
X327.19Y-20.01
X327.68Y-12.73
X327.819Y-27.081
X328.613Y-26.287
X330.994Y-27.081
X331.787Y-27.875
X331.863Y-123.725
X332.581Y-28.669
X333.375Y-29.462
X333.433Y-15.352
X333.47Y-4.74
X333.95Y-2.583
X334.09Y-14.46
X334.169Y-30.256
X334.169Y-54.069
X334.169Y-73.119
X334.169Y-92.169
X334.169Y-111.219
X334.169Y-135.825
X335.045Y-11.309
X335.081Y-14.329
X335.99Y-5.96
X336.625Y-18.95
X336.625Y-42.762
X336.625Y-61.812
X336.625Y-80.862
X336.625Y-99.912
X336.71Y-3.01
X337.55Y-13.89
X338.3Y-10.11
X338.525Y-13.479
X339.65Y-13.47
X340.017Y-6.147
X340.13Y-7.69
X342.652Y-13.842
X346.66Y-3.21
X346.71Y-4.43
X346.71Y-5.68
T4
X7.025Y-17.2
X7.025Y-31.7
X9.525Y-17.2
X12.025Y-17.2
X12.025Y-31.7
X26.075Y-17.2
X26.075Y-31.7
X28.575Y-17.2
X31.075Y-17.2
X31.075Y-31.7
X287.972Y-12.0
X290.512Y-12.0
X293.053Y-12.0
X295.592Y-12.0
X298.132Y-12.0
T6
X8.2Y-44.762
X8.2Y-90.362
X29.9Y-44.762
X29.9Y-90.362
T7
X45.025Y-18.95
X45.025Y-42.762
X47.406Y-118.962
X49.787Y-61.812
X52.025Y-20.0
X52.025Y-43.812
X52.169Y-80.862
X54.406Y-120.012
X56.787Y-62.862
X56.931Y-99.912
X59.169Y-81.912
X63.931Y-100.962
X64.075Y-42.762
X68.837Y-18.95
X71.075Y-43.812
X71.219Y-118.962
X73.6Y-61.812
X75.837Y-20.0
X78.219Y-120.012
X78.362Y-80.862
X80.6Y-62.862
X83.125Y-42.762
X85.362Y-81.912
X87.888Y-18.95
X87.888Y-99.912
X90.125Y-43.812
X92.65Y-61.812
X94.887Y-20.0
X94.887Y-100.962
X95.031Y-118.962
X97.412Y-80.862
X99.65Y-62.862
X102.031Y-120.012
X102.175Y-42.762
X104.412Y-81.912
X106.938Y-18.95
X106.938Y-99.912
X109.175Y-43.812
X111.7Y-61.812
X113.938Y-20.0
X113.938Y-100.962
X116.462Y-80.862
X118.7Y-62.862
X121.225Y-42.762
X123.462Y-81.912
X125.987Y-18.95
X125.987Y-99.912
X128.225Y-43.812
X130.75Y-61.812
X132.987Y-20.0
X132.987Y-100.962
X135.512Y-80.862
X137.75Y-62.862
X140.275Y-42.762
X142.512Y-81.912
X145.037Y-99.912
X147.275Y-43.812
X149.8Y-18.95
X149.8Y-61.812
X152.037Y-100.962
X154.562Y-80.862
X156.8Y-20.0
X156.8Y-62.862
X159.325Y-42.762
X161.562Y-81.912
X164.088Y-99.912
X166.325Y-43.812
X166.469Y-118.962
X168.85Y-18.95
X168.85Y-61.812
X171.088Y-100.962
X173.469Y-120.012
X173.612Y-80.862
X175.85Y-20.0
X175.85Y-62.862
X178.375Y-42.762
X180.612Y-81.912
X183.137Y-99.912
X185.375Y-43.812
X187.9Y-18.95
X187.9Y-61.812
X190.137Y-100.962
X192.662Y-80.862
X194.9Y-20.0
X194.9Y-62.862
X197.425Y-42.762
X199.662Y-81.912
X202.188Y-99.912
X204.425Y-43.812
X206.95Y-18.95
X206.95Y-61.812
X209.188Y-100.962
X211.712Y-80.862
X213.95Y-20.0
X213.95Y-62.862
X216.475Y-42.762
X218.712Y-81.912
X221.237Y-99.912
X223.475Y-43.812
X226.0Y-61.812
X228.237Y-100.962
X230.762Y-18.95
X230.762Y-80.862
X233.0Y-62.862
X235.525Y-42.762
X235.525Y-118.962
X237.762Y-20.0
X237.762Y-81.912
X240.287Y-99.912
X242.525Y-43.812
X242.525Y-120.012
X245.05Y-61.812
X247.287Y-100.962
X249.812Y-18.95
X249.812Y-80.862
X252.05Y-62.862
X254.575Y-42.762
X254.575Y-118.962
X256.812Y-20.0
X256.812Y-81.912
X259.337Y-99.912
X261.575Y-43.812
X261.575Y-120.012
X264.1Y-61.812
X266.337Y-100.962
X268.863Y-18.95
X268.863Y-80.862
X271.1Y-62.862
X273.625Y-42.762
X273.625Y-118.962
X275.863Y-20.0
X275.863Y-81.912
X280.625Y-43.812
X280.625Y-120.012
X283.15Y-61.812
X285.531Y-99.912
X287.912Y-18.95
X290.15Y-62.862
X292.531Y-100.962
X294.912Y-20.0
X297.438Y-123.725
X299.819Y-80.862
X302.2Y-42.762
X304.438Y-124.775
X306.819Y-81.912
X306.962Y-61.812
X309.2Y-43.812
X311.725Y-18.95
X313.962Y-62.862
X316.488Y-104.675
X316.488Y-123.725
X318.725Y-20.0
X323.488Y-105.725
X323.488Y-124.775
X335.537Y-123.725
X340.3Y-18.95
X340.3Y-42.762
X340.3Y-61.812
X340.3Y-80.862
X340.3Y-99.912
X342.537Y-124.775
X347.3Y-20.0
X347.3Y-43.812
X347.3Y-62.862
X347.3Y-81.912
X347.3Y-100.962
T3
G00X253.373Y-1.649
M15
G01X253.373Y-1.049
M16
G05
G00X253.373Y-6.079
M15
G01X253.373Y-4.979
M16
G05
G00X262.012Y-1.649
M15
G01X262.012Y-1.049
M16
G05
G00X262.012Y-6.079
M15
G01X262.012Y-4.979
M16
G05
T5
G00X3.925Y-24.05
M15
G01X3.925Y-25.35
M16
G05
G00X15.125Y-24.05
M15
G01X15.125Y-25.35
M16
G05
G00X22.975Y-24.05
M15
G01X22.975Y-25.35
M16
G05
G00X34.175Y-24.05
M15
G01X34.175Y-25.35
M16
G05
T0
M30
