%TF.GenerationSoftware,KiCad,Pcbnew,7.0.7*%
%TF.CreationDate,2023-10-31T22:36:57+07:00*%
%TF.ProjectId,Pixelette,50697865-6c65-4747-9465-2e6b69636164,rev?*%
%TF.SameCoordinates,Original*%
%TF.FileFunction,Paste,Bot*%
%TF.FilePolarity,Positive*%
%FSLAX46Y46*%
G04 Gerber Fmt 4.6, Leading zero omitted, Abs format (unit mm)*
G04 Created by KiCad (PCBNEW 7.0.7) date 2023-10-31 22:36:57*
%MOMM*%
%LPD*%
G01*
G04 APERTURE LIST*
G04 Aperture macros list*
%AMRoundRect*
0 Rectangle with rounded corners*
0 $1 Rounding radius*
0 $2 $3 $4 $5 $6 $7 $8 $9 X,Y pos of 4 corners*
0 Add a 4 corners polygon primitive as box body*
4,1,4,$2,$3,$4,$5,$6,$7,$8,$9,$2,$3,0*
0 Add four circle primitives for the rounded corners*
1,1,$1+$1,$2,$3*
1,1,$1+$1,$4,$5*
1,1,$1+$1,$6,$7*
1,1,$1+$1,$8,$9*
0 Add four rect primitives between the rounded corners*
20,1,$1+$1,$2,$3,$4,$5,0*
20,1,$1+$1,$4,$5,$6,$7,0*
20,1,$1+$1,$6,$7,$8,$9,0*
20,1,$1+$1,$8,$9,$2,$3,0*%
G04 Aperture macros list end*
%ADD10RoundRect,0.500000X0.750000X0.775000X-0.750000X0.775000X-0.750000X-0.775000X0.750000X-0.775000X0*%
%ADD11RoundRect,0.218750X0.256250X-0.218750X0.256250X0.218750X-0.256250X0.218750X-0.256250X-0.218750X0*%
%ADD12RoundRect,0.135000X-0.135000X-0.185000X0.135000X-0.185000X0.135000X0.185000X-0.135000X0.185000X0*%
%ADD13RoundRect,0.140000X-0.170000X0.140000X-0.170000X-0.140000X0.170000X-0.140000X0.170000X0.140000X0*%
%ADD14RoundRect,0.140000X0.140000X0.170000X-0.140000X0.170000X-0.140000X-0.170000X0.140000X-0.170000X0*%
%ADD15RoundRect,0.140000X0.170000X-0.140000X0.170000X0.140000X-0.170000X0.140000X-0.170000X-0.140000X0*%
%ADD16RoundRect,0.150000X0.150000X0.700000X-0.150000X0.700000X-0.150000X-0.700000X0.150000X-0.700000X0*%
%ADD17RoundRect,0.500000X0.500000X1.000000X-0.500000X1.000000X-0.500000X-1.000000X0.500000X-1.000000X0*%
%ADD18RoundRect,0.140000X-0.140000X-0.170000X0.140000X-0.170000X0.140000X0.170000X-0.140000X0.170000X0*%
%ADD19RoundRect,0.249999X0.395001X-0.395001X0.395001X0.395001X-0.395001X0.395001X-0.395001X-0.395001X0*%
%ADD20RoundRect,0.050000X0.050000X-0.387500X0.050000X0.387500X-0.050000X0.387500X-0.050000X-0.387500X0*%
%ADD21RoundRect,0.050000X0.387500X-0.050000X0.387500X0.050000X-0.387500X0.050000X-0.387500X-0.050000X0*%
%ADD22RoundRect,0.150000X0.512500X0.150000X-0.512500X0.150000X-0.512500X-0.150000X0.512500X-0.150000X0*%
%ADD23RoundRect,0.250000X0.375000X0.625000X-0.375000X0.625000X-0.375000X-0.625000X0.375000X-0.625000X0*%
%ADD24RoundRect,0.135000X0.135000X0.185000X-0.135000X0.185000X-0.135000X-0.185000X0.135000X-0.185000X0*%
%ADD25RoundRect,0.150000X-0.650000X-0.150000X0.650000X-0.150000X0.650000X0.150000X-0.650000X0.150000X0*%
%ADD26R,1.400000X1.200000*%
%ADD27R,1.800000X1.100000*%
%ADD28RoundRect,0.135000X-0.185000X0.135000X-0.185000X-0.135000X0.185000X-0.135000X0.185000X0.135000X0*%
G04 APERTURE END LIST*
D10*
%TO.C,SW2*%
X55700000Y-20000000D03*
X41350000Y-18950000D03*
%TD*%
%TO.C,SW24*%
X189050000Y-43812500D03*
X174700000Y-42762500D03*
%TD*%
%TO.C,SW9*%
X198575000Y-20000000D03*
X184225000Y-18950000D03*
%TD*%
%TO.C,SW62*%
X62843750Y-81912500D03*
X48493750Y-80862500D03*
%TD*%
%TO.C,SW40*%
X179525000Y-62862500D03*
X165175000Y-61812500D03*
%TD*%
%TO.C,SW86*%
X105706250Y-120012500D03*
X91356250Y-118962500D03*
%TD*%
%TO.C,SW70*%
X174762500Y-100962500D03*
X160412500Y-99912500D03*
%TD*%
%TO.C,SW49*%
X350975000Y-81912500D03*
X336625000Y-80862500D03*
%TD*%
%TO.C,SW56*%
X184287500Y-81912500D03*
X169937500Y-80862500D03*
%TD*%
%TO.C,SW51*%
X279537500Y-81912500D03*
X265187500Y-80862500D03*
%TD*%
%TO.C,SW37*%
X122375000Y-62862500D03*
X108025000Y-61812500D03*
%TD*%
%TO.C,SW41*%
X198575000Y-62862500D03*
X184225000Y-61812500D03*
%TD*%
%TO.C,SW25*%
X170000000Y-43812500D03*
X155650000Y-42762500D03*
%TD*%
%TO.C,SW46*%
X293825000Y-62862500D03*
X279475000Y-61812500D03*
%TD*%
%TO.C,SW79*%
X346212500Y-124775000D03*
X331862500Y-123725000D03*
%TD*%
%TO.C,SW82*%
X284300000Y-120012500D03*
X269950000Y-118962500D03*
%TD*%
%TO.C,SW59*%
X127137500Y-81912500D03*
X112787500Y-80862500D03*
%TD*%
%TO.C,SW29*%
X93800000Y-43812500D03*
X79450000Y-42762500D03*
%TD*%
%TO.C,SW36*%
X103325000Y-62862500D03*
X88975000Y-61812500D03*
%TD*%
%TO.C,SW22*%
X227150000Y-43812500D03*
X212800000Y-42762500D03*
%TD*%
%TO.C,SW55*%
X203337500Y-81912500D03*
X188987500Y-80862500D03*
%TD*%
%TO.C,SW43*%
X236675000Y-62862500D03*
X222325000Y-61812500D03*
%TD*%
%TO.C,SW81*%
X308112500Y-124775000D03*
X293762500Y-123725000D03*
%TD*%
%TO.C,SW31*%
X55700000Y-43812500D03*
X41350000Y-42762500D03*
%TD*%
%TO.C,SW53*%
X241437500Y-81912500D03*
X227087500Y-80862500D03*
%TD*%
%TO.C,SW50*%
X310493750Y-81912500D03*
X296143750Y-80862500D03*
%TD*%
%TO.C,SW11*%
X241437500Y-20000000D03*
X227087500Y-18950000D03*
%TD*%
%TO.C,SW88*%
X58081250Y-120012500D03*
X43731250Y-118962500D03*
%TD*%
%TO.C,SW87*%
X81893750Y-120012500D03*
X67543750Y-118962500D03*
%TD*%
%TO.C,SW19*%
X284300000Y-43812500D03*
X269950000Y-42762500D03*
%TD*%
%TO.C,SW38*%
X141425000Y-62862500D03*
X127075000Y-61812500D03*
%TD*%
%TO.C,SW60*%
X108087500Y-81912500D03*
X93737500Y-80862500D03*
%TD*%
%TO.C,SW16*%
X350975000Y-20000000D03*
X336625000Y-18950000D03*
%TD*%
%TO.C,SW67*%
X117612500Y-100962500D03*
X103262500Y-99912500D03*
%TD*%
%TO.C,SW73*%
X231912500Y-100962500D03*
X217562500Y-99912500D03*
%TD*%
%TO.C,SW15*%
X322400000Y-20000000D03*
X308050000Y-18950000D03*
%TD*%
%TO.C,SW74*%
X250962500Y-100962500D03*
X236612500Y-99912500D03*
%TD*%
%TO.C,SW12*%
X260487500Y-20000000D03*
X246137500Y-18950000D03*
%TD*%
%TO.C,SW77*%
X327162500Y-105725000D03*
X312812500Y-104675000D03*
%TD*%
%TO.C,SW8*%
X179525000Y-20000000D03*
X165175000Y-18950000D03*
%TD*%
%TO.C,SW57*%
X165237500Y-81912500D03*
X150887500Y-80862500D03*
%TD*%
%TO.C,SW48*%
X350975000Y-62862500D03*
X336625000Y-61812500D03*
%TD*%
%TO.C,SW4*%
X98562500Y-20000000D03*
X84212500Y-18950000D03*
%TD*%
%TO.C,SW80*%
X327162500Y-124775000D03*
X312812500Y-123725000D03*
%TD*%
%TO.C,SW7*%
X160475000Y-20000000D03*
X146125000Y-18950000D03*
%TD*%
%TO.C,SW78*%
X350975000Y-100962500D03*
X336625000Y-99912500D03*
%TD*%
%TO.C,SW69*%
X155712500Y-100962500D03*
X141362500Y-99912500D03*
%TD*%
%TO.C,SW28*%
X112850000Y-43812500D03*
X98500000Y-42762500D03*
%TD*%
%TO.C,SW17*%
X350975000Y-43812500D03*
X336625000Y-42762500D03*
%TD*%
%TO.C,SW10*%
X217625000Y-20000000D03*
X203275000Y-18950000D03*
%TD*%
%TO.C,SW68*%
X122312500Y-99912500D03*
X136662500Y-100962500D03*
%TD*%
%TO.C,SW54*%
X222387500Y-81912500D03*
X208037500Y-80862500D03*
%TD*%
%TO.C,SW65*%
X67606250Y-100962500D03*
X53256250Y-99912500D03*
%TD*%
%TO.C,SW84*%
X246200000Y-120012500D03*
X231850000Y-118962500D03*
%TD*%
%TO.C,SW27*%
X131900000Y-43812500D03*
X117550000Y-42762500D03*
%TD*%
%TO.C,SW21*%
X246200000Y-43812500D03*
X231850000Y-42762500D03*
%TD*%
%TO.C,SW5*%
X117612500Y-20000000D03*
X103262500Y-18950000D03*
%TD*%
%TO.C,SW39*%
X160475000Y-62862500D03*
X146125000Y-61812500D03*
%TD*%
%TO.C,SW47*%
X317637500Y-62862500D03*
X303287500Y-61812500D03*
%TD*%
%TO.C,SW42*%
X217625000Y-62862500D03*
X203275000Y-61812500D03*
%TD*%
%TO.C,SW75*%
X270012500Y-100962500D03*
X255662500Y-99912500D03*
%TD*%
%TO.C,SW85*%
X177143750Y-120012500D03*
X162793750Y-118962500D03*
%TD*%
%TO.C,SW26*%
X150950000Y-43812500D03*
X136600000Y-42762500D03*
%TD*%
%TO.C,SW61*%
X89037500Y-81912500D03*
X74687500Y-80862500D03*
%TD*%
%TO.C,SW76*%
X296206250Y-100962500D03*
X281856250Y-99912500D03*
%TD*%
%TO.C,SW66*%
X98562500Y-100962500D03*
X84212500Y-99912500D03*
%TD*%
%TO.C,SW58*%
X146187500Y-81912500D03*
X131837500Y-80862500D03*
%TD*%
%TO.C,SW52*%
X260487500Y-81912500D03*
X246137500Y-80862500D03*
%TD*%
%TO.C,SW71*%
X193812500Y-100962500D03*
X179462500Y-99912500D03*
%TD*%
%TO.C,SW45*%
X274775000Y-62862500D03*
X260425000Y-61812500D03*
%TD*%
%TO.C,SW14*%
X298587500Y-20000000D03*
X284237500Y-18950000D03*
%TD*%
%TO.C,SW83*%
X265250000Y-120012500D03*
X250900000Y-118962500D03*
%TD*%
%TO.C,SW72*%
X212862500Y-100962500D03*
X198512500Y-99912500D03*
%TD*%
%TO.C,SW35*%
X84275000Y-62862500D03*
X69925000Y-61812500D03*
%TD*%
%TO.C,SW18*%
X312875000Y-43812500D03*
X298525000Y-42762500D03*
%TD*%
%TO.C,SW30*%
X74750000Y-43812500D03*
X60400000Y-42762500D03*
%TD*%
%TO.C,SW3*%
X79512500Y-20000000D03*
X65162500Y-18950000D03*
%TD*%
%TO.C,SW20*%
X265250000Y-43812500D03*
X250900000Y-42762500D03*
%TD*%
%TO.C,SW44*%
X255725000Y-62862500D03*
X241375000Y-61812500D03*
%TD*%
%TO.C,SW13*%
X279537500Y-20000000D03*
X265187500Y-18950000D03*
%TD*%
%TO.C,SW34*%
X60462500Y-62862500D03*
X46112500Y-61812500D03*
%TD*%
%TO.C,SW23*%
X208100000Y-43812500D03*
X193750000Y-42762500D03*
%TD*%
%TO.C,SW6*%
X136662500Y-20000000D03*
X122312500Y-18950000D03*
%TD*%
D11*
%TO.C,D13*%
X290512500Y-32637500D03*
X290512500Y-31062500D03*
%TD*%
%TO.C,D87*%
X34925000Y-114387500D03*
X34925000Y-112812500D03*
%TD*%
D12*
%TO.C,R3*%
X260330000Y-8840000D03*
X261350000Y-8840000D03*
%TD*%
D11*
%TO.C,D27*%
X104775000Y-57237500D03*
X104775000Y-55662500D03*
%TD*%
D12*
%TO.C,R2*%
X288415000Y-14381250D03*
X289435000Y-14381250D03*
%TD*%
D11*
%TO.C,D8*%
X189706250Y-33431250D03*
X189706250Y-31856250D03*
%TD*%
%TO.C,D52*%
X195262500Y-95337500D03*
X195262500Y-93762500D03*
%TD*%
%TO.C,D36*%
X153193750Y-76287500D03*
X153193750Y-74712500D03*
%TD*%
D13*
%TO.C,C1*%
X339280000Y-3150000D03*
X339280000Y-4110000D03*
%TD*%
D11*
%TO.C,D22*%
X200025000Y-56450000D03*
X200025000Y-54875000D03*
%TD*%
%TO.C,D54*%
X157162500Y-95337500D03*
X157162500Y-93762500D03*
%TD*%
%TO.C,D61*%
X90487500Y-114387500D03*
X90487500Y-112812500D03*
%TD*%
%TO.C,D88*%
X15875000Y-33425000D03*
X15875000Y-31850000D03*
%TD*%
%TO.C,D43*%
X285750000Y-75500000D03*
X285750000Y-73925000D03*
%TD*%
D14*
%TO.C,C10*%
X315182500Y-10422500D03*
X314222500Y-10422500D03*
%TD*%
D15*
%TO.C,C14*%
X332810000Y-6617500D03*
X332810000Y-5657500D03*
%TD*%
D11*
%TO.C,D50*%
X233362500Y-95337500D03*
X233362500Y-93762500D03*
%TD*%
%TO.C,D53*%
X176212500Y-94550000D03*
X176212500Y-92975000D03*
%TD*%
%TO.C,D75*%
X319087500Y-137406250D03*
X319087500Y-135831250D03*
%TD*%
%TO.C,D49*%
X252412500Y-94550000D03*
X252412500Y-92975000D03*
%TD*%
D14*
%TO.C,C16*%
X293782500Y-2110000D03*
X292822500Y-2110000D03*
%TD*%
D11*
%TO.C,D63*%
X128587500Y-114387500D03*
X128587500Y-112812500D03*
%TD*%
%TO.C,D70*%
X261937500Y-113593750D03*
X261937500Y-112018750D03*
%TD*%
D16*
%TO.C,J3*%
X23460000Y-45335000D03*
X22210000Y-45335000D03*
X20960000Y-45335000D03*
X19710000Y-45335000D03*
X18460000Y-45335000D03*
X17210000Y-45335000D03*
X15960000Y-45335000D03*
X14710000Y-45335000D03*
D17*
X26050000Y-48535000D03*
X12050000Y-48535000D03*
%TD*%
D11*
%TO.C,D42*%
X266700000Y-76287500D03*
X266700000Y-74712500D03*
%TD*%
D18*
%TO.C,C13*%
X336492500Y-10430000D03*
X337452500Y-10430000D03*
%TD*%
D11*
%TO.C,D39*%
X209550000Y-75493750D03*
X209550000Y-73918750D03*
%TD*%
D14*
%TO.C,C11*%
X325672500Y-5932500D03*
X324712500Y-5932500D03*
%TD*%
D19*
%TO.C,U1*%
X327812500Y-12537500D03*
X329412500Y-12537500D03*
X327812500Y-10937500D03*
X329412500Y-10937500D03*
D20*
X331212500Y-15175000D03*
X330812500Y-15175000D03*
X330412500Y-15175000D03*
X330012500Y-15175000D03*
X329612500Y-15175000D03*
X329212500Y-15175000D03*
X328812500Y-15175000D03*
X328412500Y-15175000D03*
X328012500Y-15175000D03*
X327612500Y-15175000D03*
X327212500Y-15175000D03*
X326812500Y-15175000D03*
X326412500Y-15175000D03*
X326012500Y-15175000D03*
D21*
X325175000Y-14337500D03*
X325175000Y-13937500D03*
X325175000Y-13537500D03*
X325175000Y-13137500D03*
X325175000Y-12737500D03*
X325175000Y-12337500D03*
X325175000Y-11937500D03*
X325175000Y-11537500D03*
X325175000Y-11137500D03*
X325175000Y-10737500D03*
X325175000Y-10337500D03*
X325175000Y-9937500D03*
X325175000Y-9537500D03*
X325175000Y-9137500D03*
D20*
X326012500Y-8300000D03*
X326412500Y-8300000D03*
X326812500Y-8300000D03*
X327212500Y-8300000D03*
X327612500Y-8300000D03*
X328012500Y-8300000D03*
X328412500Y-8300000D03*
X328812500Y-8300000D03*
X329212500Y-8300000D03*
X329612500Y-8300000D03*
X330012500Y-8300000D03*
X330412500Y-8300000D03*
X330812500Y-8300000D03*
X331212500Y-8300000D03*
D21*
X332050000Y-9137500D03*
X332050000Y-9537500D03*
X332050000Y-9937500D03*
X332050000Y-10337500D03*
X332050000Y-10737500D03*
X332050000Y-11137500D03*
X332050000Y-11537500D03*
X332050000Y-11937500D03*
X332050000Y-12337500D03*
X332050000Y-12737500D03*
X332050000Y-13137500D03*
X332050000Y-13537500D03*
X332050000Y-13937500D03*
X332050000Y-14337500D03*
%TD*%
D22*
%TO.C,U4*%
X267647500Y-4208750D03*
X267647500Y-5158750D03*
X267647500Y-6108750D03*
X265372500Y-6108750D03*
X265372500Y-5158750D03*
X265372500Y-4208750D03*
%TD*%
D11*
%TO.C,D21*%
X219075000Y-57237500D03*
X219075000Y-55662500D03*
%TD*%
%TO.C,D69*%
X242887500Y-114387500D03*
X242887500Y-112812500D03*
%TD*%
D14*
%TO.C,C6*%
X315182500Y-9462500D03*
X314222500Y-9462500D03*
%TD*%
D15*
%TO.C,C9*%
X331772500Y-6632500D03*
X331772500Y-5672500D03*
%TD*%
D11*
%TO.C,D45*%
X342900000Y-75493750D03*
X342900000Y-73918750D03*
%TD*%
%TO.C,D66*%
X185737500Y-113593750D03*
X185737500Y-112018750D03*
%TD*%
%TO.C,D19*%
X257181250Y-57237500D03*
X257181250Y-55662500D03*
%TD*%
%TO.C,D6*%
X152400000Y-33431250D03*
X152400000Y-31856250D03*
%TD*%
%TO.C,D9*%
X209550000Y-32637500D03*
X209550000Y-31062500D03*
%TD*%
D14*
%TO.C,C8*%
X332830000Y-3550000D03*
X331870000Y-3550000D03*
%TD*%
D11*
%TO.C,D81*%
X97631250Y-132650000D03*
X97631250Y-131075000D03*
%TD*%
%TO.C,D85*%
X15875000Y-133437500D03*
X15875000Y-131862500D03*
%TD*%
%TO.C,D64*%
X147637500Y-113593750D03*
X147637500Y-112018750D03*
%TD*%
%TO.C,D16*%
X342900000Y-56450000D03*
X342900000Y-54875000D03*
%TD*%
%TO.C,D47*%
X302418750Y-94550000D03*
X302418750Y-92975000D03*
%TD*%
%TO.C,D5*%
X128587500Y-32637500D03*
X128587500Y-31062500D03*
%TD*%
%TO.C,D67*%
X204787500Y-114387500D03*
X204787500Y-112812500D03*
%TD*%
D18*
%TO.C,C15*%
X332480000Y-16420000D03*
X333440000Y-16420000D03*
%TD*%
D11*
%TO.C,D55*%
X138112500Y-94550000D03*
X138112500Y-92975000D03*
%TD*%
%TO.C,D40*%
X228600000Y-76287500D03*
X228600000Y-74712500D03*
%TD*%
%TO.C,D60*%
X59531250Y-113593750D03*
X59531250Y-112018750D03*
%TD*%
%TO.C,D76*%
X300037500Y-138206250D03*
X300037500Y-136631250D03*
%TD*%
%TO.C,D2*%
X71443750Y-33431250D03*
X71443750Y-31856250D03*
%TD*%
D23*
%TO.C,F1*%
X268470000Y-1778750D03*
X265670000Y-1778750D03*
%TD*%
D11*
%TO.C,D32*%
X76200000Y-76287500D03*
X76200000Y-74712500D03*
%TD*%
%TO.C,D73*%
X342900000Y-114387500D03*
X342900000Y-112812500D03*
%TD*%
D13*
%TO.C,C3*%
X306090000Y-12550000D03*
X306090000Y-13510000D03*
%TD*%
D11*
%TO.C,D12*%
X271462500Y-33431250D03*
X271462500Y-31856250D03*
%TD*%
%TO.C,D71*%
X288131250Y-114387500D03*
X288131250Y-112812500D03*
%TD*%
D14*
%TO.C,C4*%
X332830000Y-2560000D03*
X331870000Y-2560000D03*
%TD*%
D11*
%TO.C,D46*%
X342900000Y-95337500D03*
X342900000Y-93762500D03*
%TD*%
%TO.C,D58*%
X80962500Y-95337500D03*
X80962500Y-93762500D03*
%TD*%
%TO.C,D59*%
X54768750Y-94543750D03*
X54768750Y-92968750D03*
%TD*%
%TO.C,D15*%
X342900000Y-32637500D03*
X342900000Y-31062500D03*
%TD*%
%TO.C,D33*%
X95250000Y-75500000D03*
X95250000Y-73925000D03*
%TD*%
%TO.C,D51*%
X214312500Y-94550000D03*
X214312500Y-92975000D03*
%TD*%
%TO.C,D7*%
X171450000Y-32637500D03*
X171450000Y-31062500D03*
%TD*%
%TO.C,D4*%
X109537500Y-33431250D03*
X109537500Y-31856250D03*
%TD*%
%TO.C,D10*%
X233362500Y-33431250D03*
X233362500Y-31856250D03*
%TD*%
%TO.C,D18*%
X276225000Y-56443750D03*
X276225000Y-54868750D03*
%TD*%
%TO.C,D35*%
X133350000Y-75500000D03*
X133350000Y-73925000D03*
%TD*%
D12*
%TO.C,R1*%
X341630000Y-8490000D03*
X342650000Y-8490000D03*
%TD*%
D18*
%TO.C,C5*%
X336492500Y-11682500D03*
X337452500Y-11682500D03*
%TD*%
D24*
%TO.C,R5*%
X337410000Y-4280000D03*
X336390000Y-4280000D03*
%TD*%
D11*
%TO.C,D82*%
X73818750Y-133437500D03*
X73818750Y-131862500D03*
%TD*%
%TO.C,D79*%
X238125000Y-132650000D03*
X238125000Y-131075000D03*
%TD*%
%TO.C,D65*%
X166687500Y-114387500D03*
X166687500Y-112812500D03*
%TD*%
%TO.C,D57*%
X100012500Y-94543750D03*
X100012500Y-92968750D03*
%TD*%
D15*
%TO.C,C17*%
X301700000Y-2130000D03*
X301700000Y-1170000D03*
%TD*%
D11*
%TO.C,D86*%
X15875000Y-114387500D03*
X15875000Y-112812500D03*
%TD*%
%TO.C,D3*%
X90487500Y-32637500D03*
X90487500Y-31062500D03*
%TD*%
D25*
%TO.C,U3*%
X341632500Y-6957500D03*
X341632500Y-5687500D03*
X341632500Y-4417500D03*
X341632500Y-3147500D03*
X348832500Y-3147500D03*
X348832500Y-4417500D03*
X348832500Y-5687500D03*
X348832500Y-6957500D03*
%TD*%
D11*
%TO.C,D41*%
X247650000Y-75493750D03*
X247650000Y-73918750D03*
%TD*%
%TO.C,D56*%
X119856250Y-95337500D03*
X119856250Y-93762500D03*
%TD*%
%TO.C,D28*%
X85725000Y-56450000D03*
X85725000Y-54875000D03*
%TD*%
D15*
%TO.C,C7*%
X300612500Y-2130000D03*
X300612500Y-1170000D03*
%TD*%
D11*
%TO.C,D48*%
X271462500Y-95337500D03*
X271462500Y-93762500D03*
%TD*%
%TO.C,D84*%
X34925000Y-133437500D03*
X34925000Y-131862500D03*
%TD*%
%TO.C,D23*%
X180975000Y-57237500D03*
X180975000Y-55662500D03*
%TD*%
%TO.C,D20*%
X238125000Y-56443750D03*
X238125000Y-54868750D03*
%TD*%
%TO.C,D30*%
X47625000Y-56450000D03*
X47625000Y-54875000D03*
%TD*%
D26*
%TO.C,Y1*%
X307682500Y-12532500D03*
X309882500Y-12532500D03*
X309882500Y-14232500D03*
X307682500Y-14232500D03*
%TD*%
D11*
%TO.C,D68*%
X223837500Y-113593750D03*
X223837500Y-112018750D03*
%TD*%
%TO.C,D26*%
X123825000Y-56450000D03*
X123825000Y-54875000D03*
%TD*%
D15*
%TO.C,C2*%
X311740000Y-13070000D03*
X311740000Y-12110000D03*
%TD*%
D11*
%TO.C,D89*%
X34131250Y-33431250D03*
X34131250Y-31856250D03*
%TD*%
%TO.C,D74*%
X338137500Y-138200000D03*
X338137500Y-136625000D03*
%TD*%
D27*
%TO.C,SW90*%
X348852500Y-10142500D03*
X342652500Y-10142500D03*
X348852500Y-13842500D03*
X342652500Y-13842500D03*
%TD*%
D11*
%TO.C,D34*%
X114300000Y-76287500D03*
X114300000Y-74712500D03*
%TD*%
%TO.C,D72*%
X323850000Y-113593750D03*
X323850000Y-112018750D03*
%TD*%
%TO.C,D77*%
X276225000Y-132650000D03*
X276225000Y-131075000D03*
%TD*%
D22*
%TO.C,U2*%
X298630000Y-1140000D03*
X298630000Y-3040000D03*
X296355000Y-2090000D03*
%TD*%
D11*
%TO.C,D80*%
X169068750Y-133437500D03*
X169068750Y-131862500D03*
%TD*%
D24*
%TO.C,R4*%
X255570000Y-9160000D03*
X254550000Y-9160000D03*
%TD*%
D11*
%TO.C,D44*%
X309562500Y-76287500D03*
X309562500Y-74712500D03*
%TD*%
D28*
%TO.C,R7*%
X307680000Y-10070000D03*
X307680000Y-11090000D03*
%TD*%
D11*
%TO.C,D24*%
X161925000Y-56450000D03*
X161925000Y-54875000D03*
%TD*%
%TO.C,D17*%
X305593750Y-57237500D03*
X305593750Y-55662500D03*
%TD*%
%TO.C,D25*%
X142875000Y-57237500D03*
X142875000Y-55662500D03*
%TD*%
%TO.C,D62*%
X109537500Y-113593750D03*
X109537500Y-112018750D03*
%TD*%
%TO.C,D1*%
X47625000Y-32637500D03*
X47625000Y-31062500D03*
%TD*%
%TO.C,D14*%
X314325000Y-33431250D03*
X314325000Y-31856250D03*
%TD*%
%TO.C,D37*%
X171450000Y-75493750D03*
X171450000Y-73918750D03*
%TD*%
%TO.C,D29*%
X66675000Y-57237500D03*
X66675000Y-55662500D03*
%TD*%
D24*
%TO.C,R6*%
X337550000Y-5280000D03*
X336530000Y-5280000D03*
%TD*%
D11*
%TO.C,D38*%
X190500000Y-76287500D03*
X190500000Y-74712500D03*
%TD*%
D13*
%TO.C,C12*%
X327190000Y-17610000D03*
X327190000Y-18570000D03*
%TD*%
D11*
%TO.C,D11*%
X252412500Y-32637500D03*
X252412500Y-31062500D03*
%TD*%
%TO.C,D31*%
X52387500Y-75493750D03*
X52387500Y-73918750D03*
%TD*%
%TO.C,D78*%
X257175000Y-133437500D03*
X257175000Y-131862500D03*
%TD*%
%TO.C,D83*%
X50006250Y-132650000D03*
X50006250Y-131075000D03*
%TD*%
M02*
