%TF.GenerationSoftware,KiCad,Pcbnew,7.0.7*%
%TF.CreationDate,2023-10-31T22:36:57+07:00*%
%TF.ProjectId,Pixelette,50697865-6c65-4747-9465-2e6b69636164,rev?*%
%TF.SameCoordinates,Original*%
%TF.FileFunction,Profile,NP*%
%FSLAX46Y46*%
G04 Gerber Fmt 4.6, Leading zero omitted, Abs format (unit mm)*
G04 Created by KiCad (PCBNEW 7.0.7) date 2023-10-31 22:36:57*
%MOMM*%
%LPD*%
G01*
G04 APERTURE LIST*
%TA.AperFunction,Profile*%
%ADD10C,0.100000*%
%TD*%
%TA.AperFunction,Profile*%
%ADD11C,0.120000*%
%TD*%
G04 APERTURE END LIST*
D10*
X352425000Y-6000000D02*
G75*
G03*
X346425000Y0I-6000000J0D01*
G01*
X0Y-136000000D02*
G75*
G03*
X3000000Y-139000000I3000000J0D01*
G01*
X346425000Y0D02*
X6000000Y0D01*
X352425000Y-136000000D02*
X352425000Y-6000000D01*
X0Y-6000000D02*
X0Y-136000000D01*
X349425000Y-139000000D02*
G75*
G03*
X352425000Y-136000000I0J3000000D01*
G01*
X3000000Y-139000000D02*
X349425000Y-139000000D01*
X6000000Y0D02*
G75*
G03*
X0Y-6000000I-4J-5999996D01*
G01*
D11*
%TO.C,S1*%
X289875000Y-39012500D02*
X295725000Y-39012500D01*
X295725000Y-39012500D02*
X295725000Y-54162500D01*
X295725000Y-54162500D02*
X289875000Y-54162500D01*
X289875000Y-54162500D02*
X289875000Y-39012500D01*
X313875000Y-39012500D02*
X319725000Y-39012500D01*
X319725000Y-39012500D02*
X319725000Y-54162500D01*
X319725000Y-54162500D02*
X313875000Y-54162500D01*
X313875000Y-54162500D02*
X313875000Y-39012500D01*
%TO.C,S2*%
X287493750Y-77112500D02*
X293343750Y-77112500D01*
X293343750Y-77112500D02*
X293343750Y-92262500D01*
X293343750Y-92262500D02*
X287493750Y-92262500D01*
X287493750Y-92262500D02*
X287493750Y-77112500D01*
X311493750Y-77112500D02*
X317343750Y-77112500D01*
X317343750Y-77112500D02*
X317343750Y-92262500D01*
X317343750Y-92262500D02*
X311493750Y-92262500D01*
X311493750Y-92262500D02*
X311493750Y-77112500D01*
%TO.C,S4*%
X44606250Y-96162500D02*
X50456250Y-96162500D01*
X50456250Y-96162500D02*
X50456250Y-111312500D01*
X50456250Y-111312500D02*
X44606250Y-111312500D01*
X44606250Y-111312500D02*
X44606250Y-96162500D01*
X68606250Y-96162500D02*
X74456250Y-96162500D01*
X74456250Y-96162500D02*
X74456250Y-111312500D01*
X74456250Y-111312500D02*
X68606250Y-111312500D01*
X68606250Y-111312500D02*
X68606250Y-96162500D01*
%TO.C,S3*%
X116143750Y-115212500D02*
X121993750Y-115212500D01*
X121993750Y-115212500D02*
X121993750Y-130362500D01*
X121993750Y-130362500D02*
X116143750Y-130362500D01*
X116143750Y-130362500D02*
X116143750Y-115212500D01*
X216143750Y-115212500D02*
X221993750Y-115212500D01*
X221993750Y-115212500D02*
X221993750Y-130362500D01*
X221993750Y-130362500D02*
X216143750Y-130362500D01*
X216143750Y-130362500D02*
X216143750Y-115212500D01*
%TO.C,S5*%
X9050000Y-74562500D02*
X29050000Y-74562500D01*
X9050000Y-83562500D02*
X9050000Y-74562500D01*
X10950000Y-83562500D02*
X9050000Y-83562500D01*
X10950000Y-92962500D02*
X10950000Y-83562500D01*
X27150000Y-83562500D02*
X27150000Y-92962500D01*
X27150000Y-92962500D02*
X10950000Y-92962500D01*
X29050000Y-74562500D02*
X29050000Y-83562500D01*
X29050000Y-83562500D02*
X27150000Y-83562500D01*
%TD*%
M02*
