M48
; DRILL file {KiCad 7.0.7} date Tue Oct 31 22:36:59 2023
; FORMAT={-:-/ absolute / metric / decimal}
; #@! TF.CreationDate,2023-10-31T22:36:59+07:00
; #@! TF.GenerationSoftware,Kicad,Pcbnew,7.0.7
; #@! TF.FileFunction,NonPlated,1,2,NPTH
FMAT,2
METRIC
; #@! TA.AperFunction,NonPlated,NPTH,ComponentDrill
T1C0.650
; #@! TA.AperFunction,NonPlated,NPTH,ComponentDrill
T2C5.250
%
G90
G05
T1
X254.802Y-4.999
X260.582Y-4.999
T2
X47.625Y-24.7
X47.625Y-48.512
X50.006Y-124.712
X52.387Y-67.562
X54.769Y-86.612
X59.531Y-105.662
X66.675Y-48.512
X71.438Y-24.7
X73.819Y-124.712
X76.2Y-67.562
X80.962Y-86.612
X85.725Y-48.512
X90.487Y-24.7
X90.487Y-105.662
X95.25Y-67.562
X97.631Y-124.712
X100.012Y-86.612
X104.775Y-48.512
X109.537Y-24.7
X109.537Y-105.662
X114.3Y-67.562
X119.062Y-86.612
X123.825Y-48.512
X128.588Y-24.7
X128.588Y-105.662
X133.35Y-67.562
X138.112Y-86.612
X142.875Y-48.512
X147.637Y-105.662
X152.4Y-24.7
X152.4Y-67.562
X157.162Y-86.612
X161.925Y-48.512
X166.688Y-105.662
X169.069Y-124.712
X171.45Y-24.7
X171.45Y-67.562
X176.213Y-86.612
X180.975Y-48.512
X185.737Y-105.662
X190.5Y-24.7
X190.5Y-67.562
X195.262Y-86.612
X200.025Y-48.512
X204.787Y-105.662
X209.55Y-24.7
X209.55Y-67.562
X214.312Y-86.612
X219.075Y-48.512
X223.837Y-105.662
X228.6Y-67.562
X233.362Y-24.7
X233.362Y-86.612
X238.125Y-48.512
X238.125Y-124.712
X242.887Y-105.662
X247.65Y-67.562
X252.412Y-24.7
X252.412Y-86.612
X257.175Y-48.512
X257.175Y-124.712
X261.938Y-105.662
X266.7Y-67.562
X271.462Y-24.7
X271.462Y-86.612
X276.225Y-48.512
X276.225Y-124.712
X285.75Y-67.562
X288.131Y-105.662
X290.512Y-24.7
X300.037Y-129.475
X302.419Y-86.612
X304.8Y-48.512
X309.562Y-67.562
X314.325Y-24.7
X319.087Y-110.425
X319.087Y-129.475
X338.137Y-129.475
X342.9Y-24.7
X342.9Y-48.512
X342.9Y-67.562
X342.9Y-86.612
X342.9Y-105.662
T0
M30
