%TF.GenerationSoftware,KiCad,Pcbnew,7.0.7*%
%TF.CreationDate,2023-10-31T22:36:57+07:00*%
%TF.ProjectId,Pixelette,50697865-6c65-4747-9465-2e6b69636164,rev?*%
%TF.SameCoordinates,Original*%
%TF.FileFunction,Soldermask,Top*%
%TF.FilePolarity,Negative*%
%FSLAX46Y46*%
G04 Gerber Fmt 4.6, Leading zero omitted, Abs format (unit mm)*
G04 Created by KiCad (PCBNEW 7.0.7) date 2023-10-31 22:36:57*
%MOMM*%
%LPD*%
G01*
G04 APERTURE LIST*
%ADD10C,5.250000*%
%ADD11R,2.000000X2.000000*%
%ADD12C,2.000000*%
%ADD13R,2.000000X3.200000*%
%ADD14R,1.300000X1.550000*%
%ADD15R,1.700000X1.700000*%
%ADD16O,1.700000X1.700000*%
%ADD17C,0.650000*%
%ADD18R,0.600000X1.450000*%
%ADD19R,0.300000X1.450000*%
%ADD20O,1.000000X2.100000*%
%ADD21O,1.000000X1.600000*%
%ADD22C,3.500000*%
G04 APERTURE END LIST*
D10*
%TO.C,SW2*%
X47625000Y-24700000D03*
%TD*%
%TO.C,SW24*%
X180975000Y-48512500D03*
%TD*%
%TO.C,SW9*%
X190500000Y-24700000D03*
%TD*%
%TO.C,SW62*%
X54768750Y-86612500D03*
%TD*%
%TO.C,SW40*%
X171450000Y-67562500D03*
%TD*%
%TO.C,SW86*%
X97631250Y-124712500D03*
%TD*%
%TO.C,SW70*%
X166687500Y-105662500D03*
%TD*%
%TO.C,SW49*%
X342900000Y-86612500D03*
%TD*%
%TO.C,SW56*%
X176212500Y-86612500D03*
%TD*%
%TO.C,SW51*%
X271462500Y-86612500D03*
%TD*%
%TO.C,SW37*%
X114300000Y-67562500D03*
%TD*%
%TO.C,SW41*%
X190500000Y-67562500D03*
%TD*%
%TO.C,SW25*%
X161925000Y-48512500D03*
%TD*%
%TO.C,SW46*%
X285750000Y-67562500D03*
%TD*%
D11*
%TO.C,SW1*%
X31075000Y-17200000D03*
D12*
X26075000Y-17200000D03*
X28575000Y-17200000D03*
D13*
X34175000Y-24700000D03*
X22975000Y-24700000D03*
D12*
X26075000Y-31700000D03*
X31075000Y-31700000D03*
%TD*%
D10*
%TO.C,SW79*%
X338137500Y-129475000D03*
%TD*%
D14*
%TO.C,SW63*%
X11775000Y-120737500D03*
X11775000Y-128687500D03*
X7275000Y-120737500D03*
X7275000Y-128687500D03*
%TD*%
D10*
%TO.C,SW82*%
X276225000Y-124712500D03*
%TD*%
%TO.C,SW59*%
X119062500Y-86612500D03*
%TD*%
%TO.C,SW29*%
X85725000Y-48512500D03*
%TD*%
%TO.C,SW36*%
X95250000Y-67562500D03*
%TD*%
%TO.C,SW22*%
X219075000Y-48512500D03*
%TD*%
%TO.C,SW55*%
X195262500Y-86612500D03*
%TD*%
D14*
%TO.C,SW64*%
X30825000Y-101687500D03*
X30825000Y-109637500D03*
X26325000Y-101687500D03*
X26325000Y-109637500D03*
%TD*%
D10*
%TO.C,SW43*%
X228600000Y-67562500D03*
%TD*%
D14*
%TO.C,SW89*%
X30825000Y-120737500D03*
X30825000Y-128687500D03*
X26325000Y-120737500D03*
X26325000Y-128687500D03*
%TD*%
D10*
%TO.C,SW81*%
X300037500Y-129475000D03*
%TD*%
%TO.C,SW31*%
X47625000Y-48512500D03*
%TD*%
%TO.C,SW53*%
X233362500Y-86612500D03*
%TD*%
%TO.C,SW50*%
X302418750Y-86612500D03*
%TD*%
%TO.C,SW11*%
X233362500Y-24700000D03*
%TD*%
%TO.C,SW88*%
X50006250Y-124712500D03*
%TD*%
%TO.C,SW87*%
X73818750Y-124712500D03*
%TD*%
%TO.C,SW19*%
X276225000Y-48512500D03*
%TD*%
%TO.C,SW38*%
X133350000Y-67562500D03*
%TD*%
%TO.C,SW60*%
X100012500Y-86612500D03*
%TD*%
%TO.C,SW16*%
X342900000Y-24700000D03*
%TD*%
%TO.C,SW67*%
X109537500Y-105662500D03*
%TD*%
%TO.C,SW73*%
X223837500Y-105662500D03*
%TD*%
%TO.C,SW15*%
X314325000Y-24700000D03*
%TD*%
%TO.C,SW74*%
X242887500Y-105662500D03*
%TD*%
%TO.C,SW12*%
X252412500Y-24700000D03*
%TD*%
%TO.C,SW77*%
X319087500Y-110425000D03*
%TD*%
%TO.C,SW8*%
X171450000Y-24700000D03*
%TD*%
%TO.C,SW57*%
X157162500Y-86612500D03*
%TD*%
%TO.C,SW48*%
X342900000Y-67562500D03*
%TD*%
%TO.C,SW4*%
X90487500Y-24700000D03*
%TD*%
%TO.C,SW80*%
X319087500Y-129475000D03*
%TD*%
%TO.C,SW7*%
X152400000Y-24700000D03*
%TD*%
%TO.C,SW78*%
X342900000Y-105662500D03*
%TD*%
D15*
%TO.C,J2*%
X287972500Y-12000000D03*
D16*
X290512500Y-12000000D03*
X293052500Y-12000000D03*
X295592500Y-12000000D03*
X298132500Y-12000000D03*
%TD*%
D10*
%TO.C,SW69*%
X147637500Y-105662500D03*
%TD*%
%TO.C,SW28*%
X104775000Y-48512500D03*
%TD*%
%TO.C,SW17*%
X342900000Y-48512500D03*
%TD*%
%TO.C,SW10*%
X209550000Y-24700000D03*
%TD*%
%TO.C,SW68*%
X128587500Y-105662500D03*
%TD*%
%TO.C,SW54*%
X214312500Y-86612500D03*
%TD*%
%TO.C,SW65*%
X59531250Y-105662500D03*
%TD*%
D11*
%TO.C,SW32*%
X12025000Y-17200000D03*
D12*
X7025000Y-17200000D03*
X9525000Y-17200000D03*
D13*
X15125000Y-24700000D03*
X3925000Y-24700000D03*
D12*
X7025000Y-31700000D03*
X12025000Y-31700000D03*
%TD*%
D10*
%TO.C,SW84*%
X238125000Y-124712500D03*
%TD*%
%TO.C,SW27*%
X123825000Y-48512500D03*
%TD*%
%TO.C,SW21*%
X238125000Y-48512500D03*
%TD*%
%TO.C,SW5*%
X109537500Y-24700000D03*
%TD*%
%TO.C,SW39*%
X152400000Y-67562500D03*
%TD*%
%TO.C,SW47*%
X309562500Y-67562500D03*
%TD*%
%TO.C,SW42*%
X209550000Y-67562500D03*
%TD*%
%TO.C,SW75*%
X261937500Y-105662500D03*
%TD*%
%TO.C,SW85*%
X169068750Y-124712500D03*
%TD*%
D14*
%TO.C,SW33*%
X11775000Y-101687500D03*
X11775000Y-109637500D03*
X7275000Y-101687500D03*
X7275000Y-109637500D03*
%TD*%
D10*
%TO.C,SW26*%
X142875000Y-48512500D03*
%TD*%
%TO.C,SW61*%
X80962500Y-86612500D03*
%TD*%
%TO.C,SW76*%
X288131250Y-105662500D03*
%TD*%
%TO.C,SW66*%
X90487500Y-105662500D03*
%TD*%
%TO.C,SW58*%
X138112500Y-86612500D03*
%TD*%
%TO.C,SW52*%
X252412500Y-86612500D03*
%TD*%
%TO.C,SW71*%
X185737500Y-105662500D03*
%TD*%
%TO.C,SW45*%
X266700000Y-67562500D03*
%TD*%
%TO.C,SW14*%
X290512500Y-24700000D03*
%TD*%
%TO.C,SW83*%
X257175000Y-124712500D03*
%TD*%
%TO.C,SW72*%
X204787500Y-105662500D03*
%TD*%
%TO.C,SW35*%
X76200000Y-67562500D03*
%TD*%
%TO.C,SW18*%
X304800000Y-48512500D03*
%TD*%
%TO.C,SW30*%
X66675000Y-48512500D03*
%TD*%
D17*
%TO.C,J1*%
X260582500Y-4998750D03*
X254802500Y-4998750D03*
D18*
X260942500Y-6443750D03*
X260142500Y-6443750D03*
D19*
X258942500Y-6443750D03*
X257942500Y-6443750D03*
X257442500Y-6443750D03*
X256442500Y-6443750D03*
D18*
X255242500Y-6443750D03*
X254442500Y-6443750D03*
X254442500Y-6443750D03*
X255242500Y-6443750D03*
D19*
X255942500Y-6443750D03*
X256942500Y-6443750D03*
X258442500Y-6443750D03*
X259442500Y-6443750D03*
D18*
X260142500Y-6443750D03*
X260942500Y-6443750D03*
D20*
X262012500Y-5528750D03*
D21*
X262012500Y-1348750D03*
D20*
X253372500Y-5528750D03*
D21*
X253372500Y-1348750D03*
%TD*%
D10*
%TO.C,SW3*%
X71437500Y-24700000D03*
%TD*%
%TO.C,SW20*%
X257175000Y-48512500D03*
%TD*%
%TO.C,SW44*%
X247650000Y-67562500D03*
%TD*%
%TO.C,SW13*%
X271462500Y-24700000D03*
%TD*%
D22*
%TO.C,S5*%
X29900000Y-44762500D03*
X8200000Y-44762500D03*
X8200000Y-90362500D03*
X29900000Y-90362500D03*
%TD*%
D10*
%TO.C,SW34*%
X52387500Y-67562500D03*
%TD*%
%TO.C,SW23*%
X200025000Y-48512500D03*
%TD*%
%TO.C,SW6*%
X128587500Y-24700000D03*
%TD*%
M02*
