999
FreeCAD v0.20 29177 +426 (Git)
  0
SECTION
  2
HEADER
  9
$ACADVER
  1
AC1014
  9
$ACADMAINTVER
 70
     9
  9
$DWGCODEPAGE
  3
ANSI_1252
  9
$TEXTSTYLE
  7
STANDARD
  9
$DIMSTYLE
  2
STANDARD
  9
$DIMTXSTY
  7
STANDARD
  9
$CMLSTYLE
  2
STANDARD
  9
$LUNITS
 70
2
  9
$INSUNITS
 70
4
  9
$PEXTMAX
 10
50
 20
50
 30
50
  9
$PEXTMIN
 10
0
 20
0
 30
0
  9
$HANDSEED
  5
FFFF
  0
ENDSEC
  0
SECTION
  2
CLASSES
  0
CLASS
  1
ACDBDICTIONARYWDFLT
  2
AcDbDictionaryWithDefault
  3
ObjectDBX Classes
 90
        0
280
     0
281
     0
  0
CLASS
  1
XRECORD
  2
AcDbXrecord
  3
ObjectDBX Classes
 90
        0
280
     0
281
     0
  0
CLASS
  1
LWPOLYLINE
  2
AcDbPolyline
  3
ObjectDBX Classes
 90
        0
280
     0
281
     1
  0
ENDSEC
  0
SECTION
  2
TABLES
  0
TABLE
  2
VPORT
  5
20
330
0
100
AcDbSymbolTable
 70
     1
  0
VPORT
  5
21
330
20
100
AcDbSymbolTableRecord
100
AcDbViewportTableRecord
  2
*ACTIVE
 70
     0
  0
ENDTAB
  0
TABLE
  2
LTYPE
  5
22
330
0
100
AcDbSymbolTable
 70
     1
  0
LTYPE
  5
23
330
21
100
AcDbSymbolTableRecord
100
AcDbLinetypeTableRecord
  2
BYBLOCK
 70
     0
  3

 72
    65
 73
     0
 40
0.0
  0
LTYPE
  5
24
330
21
100
AcDbSymbolTableRecord
100
AcDbLinetypeTableRecord
  2
BYLAYER
 70
     0
  3

 72
    65
 73
     0
 40
0.0
  0
LTYPE
  5
25
330
21
100
AcDbSymbolTableRecord
100
AcDbLinetypeTableRecord
  2
CONTINUOUS
 70
     0
  3
Solid line
 72
    65
 73
     0
 40
0.0
  0
ENDTAB
  0
TABLE
  2
LAYER
  5
A7C
330
0
100
AcDbSymbolTable
 70
2
  0
LAYER
  5
A7D
330
A7C
100
AcDbSymbolTableRecord
100
AcDbLayerTableRecord
  2
0
 70
   0
 62
   7
  6
CONTINUOUS
  0
LAYER
  5
A7E
330
A7C
100
AcDbSymbolTableRecord
100
AcDbLayerTableRecord
  2
View011
 70
    0
 62
    7
  6
CONTINUOUS
  0
ENDTAB
  0
TABLE
  2
STYLE
  5
70
330
0
100
AcDbSymbolTable
 70
     2
  0
STYLE
  5
71
330
70
100
AcDbSymbolTableRecord
100
AcDbTextStyleTableRecord
  2
STANDARD
 70
     0
 40
0.0
 41
1.0
 50
0.0
 71
     0
 42
2.5
  3
arial.ttf
  4

  0
STYLE
  5
72
330
70
100
AcDbSymbolTableRecord
100
AcDbTextStyleTableRecord
  2
ANNOTATIVE
 70
     0
 40
0.0
 41
1.0
 50
0.0
 71
     0
 42
2.5
  3
arial.ttf
  4

  0
ENDTAB
  0
TABLE
  2
VIEW
  5
73
330
0
100
AcDbSymbolTable
 70
     0
  0
ENDTAB
  0
TABLE
  2
UCS
  5
74
330
0
100
AcDbSymbolTable
 70
     0
  0
ENDTAB
  0
TABLE
  2
APPID
  5
75
330
0
100
AcDbSymbolTable
 70
     2
  0
APPID
  5
76
330
75
100
AcDbSymbolTableRecord
100
AcDbRegAppTableRecord
  2
ACAD
 70
     0
  0
APPID
  5
77
330
75
100
AcDbSymbolTableRecord
100
AcDbRegAppTableRecord
  2
ACADANNOTATIVE
 70
     0
  0
ENDTAB
  0
TABLE
  2
DIMSTYLE
  5
78
330
0
100
AcDbSymbolTable
 70
     2
  0
DIMSTYLE
105
79
330
78
100
AcDbSymbolTableRecord
100
AcDbDimStyleTableRecord
  2
STANDARD
 70
     0
  3

  4

  5

  6

  7

 40
0.0
 41
2.5
 42
0.625
 43
3.75
 44
1.25
 45
0.0
 46
0.0
 47
0.0
 48
0.0
140
2.5
141
2.5
142
0.0
143
0.03937007874016
144
1.0
145
0.0
146
1.0
147
0.625
 71
     0
 72
     0
 73
     0
 74
     0
 75
     0
 76
     0
 77
     1
 78
     8
170
     0
171
     3
172
     1
173
     0
174
     0
175
     0
176
     0
177
     0
178
     0
270
     2
271
     2
272
     2
273
     2
274
     3
340
71
275
     0
280
     0
281
     0
282
     0
283
     0
284
     8
285
     0
286
     0
287
     3
288
     0
  0
ENDTAB
  0
TABLE
  2
BLOCK_RECORD
  5
A01
330
0
100
AcDbSymbolTable
  70
5
  0
BLOCK_RECORD
  5
A02
330
A01
100
AcDbSymbolTableRecord
100
AcDbBlockTableRecord
  2
*MODEL_SPACE
  0
BLOCK_RECORD
  5
A03
330
A01
100
AcDbSymbolTableRecord
100
AcDbBlockTableRecord
  2
*PAPER_SPACE
  0
ENDTAB
  0
ENDSEC
  0
SECTION
  2
BLOCKS
  0
BLOCK
  5
A04
330
A02
100
AcDbEntity
  8
0
100
AcDbBlockBegin
  2
*MODEL_SPACE
 70
   0
 10
0
 20
0
 30
0
  3
*MODEL_SPACE
  1
 
  0
ENDBLK
  5
A05
330
A02
100
AcDbEntity
  8
0
100
AcDbBlockEnd
  0
BLOCK
  5
A06
330
A03
100
AcDbEntity
 67
1
  8
0
100
AcDbBlockBegin
  2
*PAPER_SPACE
 70
   0
 10
0
 20
0
 30
0
  3
*PAPER_SPACE
  1
 
  0
ENDBLK
  5
A07
330
A03
100
AcDbEntity
 67
    1
  8
0
100
AcDbBlockEnd
  0
ENDSEC
  0
SECTION
  2
ENTITIES
  0
LINE
  5
A08
330
A02
100
AcDbEntity
  8
View011
100
AcDbLine
 10
0.826323
 20
290.173
 30
0
 11
0.826323
 21
147.173
 31
0
  0
ARC
  5
A09
330
A02
100
AcDbEntity
  8
View011
100
AcDbCircle
 10
6.82632
 20
290.173
 30
0
 40
6
100
AcDbArc
 50
90
 51
180
  0
ARC
  5
A0A
330
A02
100
AcDbEntity
  8
View011
100
AcDbCircle
 10
3.82632
 20
147.173
 30
0
 40
3
100
AcDbArc
 50
180
 51
-90
  0
LINE
  5
A0B
330
A02
100
AcDbEntity
  8
View011
100
AcDbLine
 10
360.251
 20
296.173
 30
0
 11
6.82632
 21
296.173
 31
0
  0
LINE
  5
A0C
330
A02
100
AcDbEntity
  8
View011
100
AcDbLine
 10
3.82632
 20
144.173
 30
0
 11
363.251
 21
144.173
 31
0
  0
ARC
  5
A0D
330
A02
100
AcDbEntity
  8
View011
100
AcDbCircle
 10
360.251
 20
290.173
 30
0
 40
6
100
AcDbArc
 50
0
 51
90
  0
ARC
  5
A0E
330
A02
100
AcDbEntity
  8
View011
100
AcDbCircle
 10
363.251
 20
147.173
 30
0
 40
3
100
AcDbArc
 50
-90
 51
-1.08563e-12
  0
LINE
  5
A0F
330
A02
100
AcDbEntity
  8
View011
100
AcDbLine
 10
366.251
 20
147.173
 30
0
 11
366.251
 21
290.173
 31
0
  0
CIRCLE
  5
A10
330
A02
100
AcDbEntity
  8
View011
100
AcDbCircle
 10
362.373
 20
148.052
 40
1.05
  0
ARC
  5
A11
330
A02
100
AcDbEntity
  8
View011
100
AcDbCircle
 10
298.839
 20
151.673
 30
0
 40
1.5
100
AcDbArc
 50
180
 51
-90
  0
LINE
  5
A12
330
A02
100
AcDbEntity
  8
View011
100
AcDbLine
 10
297.339
 20
151.673
 30
0
 11
297.339
 21
168.723
 31
0
  0
LINE
  5
A13
330
A02
100
AcDbEntity
  8
View011
100
AcDbLine
 10
298.839
 20
150.173
 30
0
 11
353.989
 21
150.173
 31
0
  0
ARC
  5
A14
330
A02
100
AcDbEntity
  8
View011
100
AcDbCircle
 10
298.839
 20
168.723
 30
0
 40
1.5
100
AcDbArc
 50
90
 51
180
  0
ARC
  5
A15
330
A02
100
AcDbEntity
  8
View011
100
AcDbCircle
 10
353.989
 20
151.673
 30
0
 40
1.5
100
AcDbArc
 50
-90
 51
0
  0
LINE
  5
A16
330
A02
100
AcDbEntity
  8
View011
100
AcDbLine
 10
298.839
 20
170.223
 30
0
 11
314.889
 21
170.223
 31
0
  0
LINE
  5
A17
330
A02
100
AcDbEntity
  8
View011
100
AcDbLine
 10
355.489
 20
151.673
 30
0
 11
355.489
 21
168.723
 31
0
  0
ARC
  5
A18
330
A02
100
AcDbEntity
  8
View011
100
AcDbCircle
 10
314.889
 20
171.723
 30
0
 40
1.5
100
AcDbArc
 50
-90
 51
0
  0
ARC
  5
A19
330
A02
100
AcDbEntity
  8
View011
100
AcDbCircle
 10
353.989
 20
168.723
 30
0
 40
1.5
100
AcDbArc
 50
0
 51
90
  0
LINE
  5
A1A
330
A02
100
AcDbEntity
  8
View011
100
AcDbLine
 10
316.389
 20
171.723
 30
0
 11
316.389
 21
187.773
 31
0
  0
LINE
  5
A1B
330
A02
100
AcDbEntity
  8
View011
100
AcDbLine
 10
337.939
 20
170.223
 30
0
 11
353.989
 21
170.223
 31
0
  0
ARC
  5
A1C
330
A02
100
AcDbEntity
  8
View011
100
AcDbCircle
 10
317.889
 20
187.773
 30
0
 40
1.5
100
AcDbArc
 50
90
 51
180
  0
ARC
  5
A1D
330
A02
100
AcDbEntity
  8
View011
100
AcDbCircle
 10
337.939
 20
171.723
 30
0
 40
1.5
100
AcDbArc
 50
180
 51
-90
  0
LINE
  5
A1E
330
A02
100
AcDbEntity
  8
View011
100
AcDbLine
 10
317.889
 20
189.273
 30
0
 11
334.939
 21
189.273
 31
0
  0
LINE
  5
A1F
330
A02
100
AcDbEntity
  8
View011
100
AcDbLine
 10
336.439
 20
187.773
 30
0
 11
336.439
 21
171.723
 31
0
  0
ARC
  5
A20
330
A02
100
AcDbEntity
  8
View011
100
AcDbCircle
 10
334.939
 20
187.773
 30
0
 40
1.5
100
AcDbArc
 50
0
 51
90
  0
CIRCLE
  5
A21
330
A02
100
AcDbEntity
  8
View011
100
AcDbCircle
 10
274.895
 20
147.173
 40
1.05
  0
LINE
  5
A22
330
A02
100
AcDbEntity
  8
View011
100
AcDbLine
 10
340.201
 20
249.686
 30
0
 11
340.201
 21
175.486
 31
0
  0
ARC
  5
A23
330
A02
100
AcDbEntity
  8
View011
100
AcDbCircle
 10
341.701
 20
249.686
 30
0
 40
1.5
100
AcDbArc
 50
90
 51
180
  0
ARC
  5
A24
330
A02
100
AcDbEntity
  8
View011
100
AcDbCircle
 10
341.701
 20
175.486
 30
0
 40
1.5
100
AcDbArc
 50
180
 51
-90
  0
LINE
  5
A25
330
A02
100
AcDbEntity
  8
View011
100
AcDbLine
 10
358.751
 20
251.186
 30
0
 11
341.701
 21
251.186
 31
0
  0
LINE
  5
A26
330
A02
100
AcDbEntity
  8
View011
100
AcDbLine
 10
341.701
 20
173.986
 30
0
 11
358.751
 21
173.986
 31
0
  0
ARC
  5
A27
330
A02
100
AcDbEntity
  8
View011
100
AcDbCircle
 10
358.751
 20
249.686
 30
0
 40
1.5
100
AcDbArc
 50
0
 51
90
  0
ARC
  5
A28
330
A02
100
AcDbEntity
  8
View011
100
AcDbCircle
 10
358.751
 20
175.486
 30
0
 40
1.5
100
AcDbArc
 50
-90
 51
0
  0
LINE
  5
A29
330
A02
100
AcDbEntity
  8
View011
100
AcDbLine
 10
360.251
 20
175.486
 30
0
 11
360.251
 21
249.686
 31
0
  0
ARC
  5
A2A
330
A02
100
AcDbEntity
  8
View011
100
AcDbCircle
 10
46.4263
 20
249.686
 30
0
 40
1.5
100
AcDbArc
 50
90
 51
180
  0
LINE
  5
A2B
330
A02
100
AcDbEntity
  8
View011
100
AcDbLine
 10
46.4263
 20
251.186
 30
0
 11
330.176
 21
251.186
 31
0
  0
LINE
  5
A2C
330
A02
100
AcDbEntity
  8
View011
100
AcDbLine
 10
44.9263
 20
249.686
 30
0
 11
44.9263
 21
156.436
 31
0
  0
ARC
  5
A2D
330
A02
100
AcDbEntity
  8
View011
100
AcDbCircle
 10
330.176
 20
249.686
 30
0
 40
1.5
100
AcDbArc
 50
0
 51
90
  0
ARC
  5
A2E
330
A02
100
AcDbEntity
  8
View011
100
AcDbCircle
 10
46.4263
 20
156.436
 30
0
 40
1.5
100
AcDbArc
 50
180
 51
-90
  0
LINE
  5
A2F
330
A02
100
AcDbEntity
  8
View011
100
AcDbLine
 10
331.676
 20
249.686
 30
0
 11
331.676
 21
194.536
 31
0
  0
LINE
  5
A30
330
A02
100
AcDbEntity
  8
View011
100
AcDbLine
 10
46.4263
 20
154.936
 30
0
 11
292.076
 21
154.936
 31
0
  0
ARC
  5
A31
330
A02
100
AcDbEntity
  8
View011
100
AcDbCircle
 10
330.176
 20
194.536
 30
0
 40
1.5
100
AcDbArc
 50
-90
 51
0
  0
ARC
  5
A32
330
A02
100
AcDbEntity
  8
View011
100
AcDbCircle
 10
292.076
 20
156.436
 30
0
 40
1.5
100
AcDbArc
 50
-90
 51
0
  0
LINE
  5
A33
330
A02
100
AcDbEntity
  8
View011
100
AcDbLine
 10
330.176
 20
193.036
 30
0
 11
314.126
 21
193.036
 31
0
  0
LINE
  5
A34
330
A02
100
AcDbEntity
  8
View011
100
AcDbLine
 10
293.576
 20
156.436
 30
0
 11
293.576
 21
172.486
 31
0
  0
ARC
  5
A35
330
A02
100
AcDbEntity
  8
View011
100
AcDbCircle
 10
314.126
 20
191.536
 30
0
 40
1.5
100
AcDbArc
 50
90
 51
180
  0
ARC
  5
A36
330
A02
100
AcDbEntity
  8
View011
100
AcDbCircle
 10
295.076
 20
172.486
 30
0
 40
1.5
100
AcDbArc
 50
90
 51
180
  0
LINE
  5
A37
330
A02
100
AcDbEntity
  8
View011
100
AcDbLine
 10
312.626
 20
191.536
 30
0
 11
312.626
 21
175.486
 31
0
  0
LINE
  5
A38
330
A02
100
AcDbEntity
  8
View011
100
AcDbLine
 10
295.076
 20
173.986
 30
0
 11
311.126
 21
173.986
 31
0
  0
ARC
  5
A39
330
A02
100
AcDbEntity
  8
View011
100
AcDbCircle
 10
311.126
 20
175.486
 30
0
 40
1.5
100
AcDbArc
 50
-90
 51
0
  0
LINE
  5
A3A
330
A02
100
AcDbEntity
  8
View011
100
AcDbLine
 10
340.201
 20
273.498
 30
0
 11
340.201
 21
256.448
 31
0
  0
ARC
  5
A3B
330
A02
100
AcDbEntity
  8
View011
100
AcDbCircle
 10
341.701
 20
273.498
 30
0
 40
1.5
100
AcDbArc
 50
90
 51
180
  0
ARC
  5
A3C
330
A02
100
AcDbEntity
  8
View011
100
AcDbCircle
 10
341.701
 20
256.448
 30
0
 40
1.5
100
AcDbArc
 50
180
 51
-90
  0
LINE
  5
A3D
330
A02
100
AcDbEntity
  8
View011
100
AcDbLine
 10
358.751
 20
274.998
 30
0
 11
341.701
 21
274.998
 31
0
  0
LINE
  5
A3E
330
A02
100
AcDbEntity
  8
View011
100
AcDbLine
 10
341.701
 20
254.948
 30
0
 11
358.751
 21
254.948
 31
0
  0
ARC
  5
A3F
330
A02
100
AcDbEntity
  8
View011
100
AcDbCircle
 10
358.751
 20
273.498
 30
0
 40
1.5
100
AcDbArc
 50
0
 51
90
  0
ARC
  5
A40
330
A02
100
AcDbEntity
  8
View011
100
AcDbCircle
 10
358.751
 20
256.448
 30
0
 40
1.5
100
AcDbArc
 50
-90
 51
0
  0
LINE
  5
A41
330
A02
100
AcDbEntity
  8
View011
100
AcDbLine
 10
360.251
 20
256.448
 30
0
 11
360.251
 21
273.498
 31
0
  0
LINE
  5
A42
330
A02
100
AcDbEntity
  8
View011
100
AcDbLine
 10
311.626
 20
273.498
 30
0
 11
311.626
 21
256.448
 31
0
  0
ARC
  5
A43
330
A02
100
AcDbEntity
  8
View011
100
AcDbCircle
 10
313.126
 20
273.498
 30
0
 40
1.5
100
AcDbArc
 50
90
 51
180
  0
ARC
  5
A44
330
A02
100
AcDbEntity
  8
View011
100
AcDbCircle
 10
313.126
 20
256.448
 30
0
 40
1.5
100
AcDbArc
 50
180
 51
-90
  0
LINE
  5
A45
330
A02
100
AcDbEntity
  8
View011
100
AcDbLine
 10
330.176
 20
274.998
 30
0
 11
313.126
 21
274.998
 31
0
  0
LINE
  5
A46
330
A02
100
AcDbEntity
  8
View011
100
AcDbLine
 10
313.126
 20
254.948
 30
0
 11
330.176
 21
254.948
 31
0
  0
ARC
  5
A47
330
A02
100
AcDbEntity
  8
View011
100
AcDbCircle
 10
330.176
 20
273.498
 30
0
 40
1.5
100
AcDbArc
 50
0
 51
90
  0
ARC
  5
A48
330
A02
100
AcDbEntity
  8
View011
100
AcDbCircle
 10
330.176
 20
256.448
 30
0
 40
1.5
100
AcDbArc
 50
-90
 51
0
  0
LINE
  5
A49
330
A02
100
AcDbEntity
  8
View011
100
AcDbLine
 10
331.676
 20
256.448
 30
0
 11
331.676
 21
273.498
 31
0
  0
CIRCLE
  5
A4A
330
A02
100
AcDbEntity
  8
View011
100
AcDbCircle
 10
361.494
 20
291.416
 40
1.05
  0
CIRCLE
  5
A4B
330
A02
100
AcDbEntity
  8
View011
100
AcDbCircle
 10
274.895
 20
293.173
 40
1.05
  0
LINE
  5
A4C
330
A02
100
AcDbEntity
  8
View011
100
AcDbLine
 10
230.664
 20
273.498
 30
0
 11
230.664
 21
256.448
 31
0
  0
ARC
  5
A4D
330
A02
100
AcDbEntity
  8
View011
100
AcDbCircle
 10
232.164
 20
273.498
 30
0
 40
1.5
100
AcDbArc
 50
90
 51
180
  0
ARC
  5
A4E
330
A02
100
AcDbEntity
  8
View011
100
AcDbCircle
 10
232.164
 20
256.448
 30
0
 40
1.5
100
AcDbArc
 50
180
 51
-90
  0
LINE
  5
A4F
330
A02
100
AcDbEntity
  8
View011
100
AcDbLine
 10
306.364
 20
274.998
 30
0
 11
232.164
 21
274.998
 31
0
  0
LINE
  5
A50
330
A02
100
AcDbEntity
  8
View011
100
AcDbLine
 10
232.164
 20
254.948
 30
0
 11
306.364
 21
254.948
 31
0
  0
ARC
  5
A51
330
A02
100
AcDbEntity
  8
View011
100
AcDbCircle
 10
306.364
 20
273.498
 30
0
 40
1.5
100
AcDbArc
 50
0
 51
90
  0
ARC
  5
A52
330
A02
100
AcDbEntity
  8
View011
100
AcDbCircle
 10
306.364
 20
256.448
 30
0
 40
1.5
100
AcDbArc
 50
-90
 51
0
  0
LINE
  5
A53
330
A02
100
AcDbEntity
  8
View011
100
AcDbLine
 10
307.864
 20
256.448
 30
0
 11
307.864
 21
273.498
 31
0
  0
LINE
  5
A54
330
A02
100
AcDbEntity
  8
View011
100
AcDbLine
 10
149.701
 20
273.498
 30
0
 11
149.701
 21
256.448
 31
0
  0
ARC
  5
A55
330
A02
100
AcDbEntity
  8
View011
100
AcDbCircle
 10
151.201
 20
273.498
 30
0
 40
1.5
100
AcDbArc
 50
90
 51
180
  0
ARC
  5
A56
330
A02
100
AcDbEntity
  8
View011
100
AcDbCircle
 10
151.201
 20
256.448
 30
0
 40
1.5
100
AcDbArc
 50
180
 51
-90
  0
LINE
  5
A57
330
A02
100
AcDbEntity
  8
View011
100
AcDbLine
 10
225.401
 20
274.998
 30
0
 11
151.201
 21
274.998
 31
0
  0
LINE
  5
A58
330
A02
100
AcDbEntity
  8
View011
100
AcDbLine
 10
151.201
 20
254.948
 30
0
 11
225.401
 21
254.948
 31
0
  0
ARC
  5
A59
330
A02
100
AcDbEntity
  8
View011
100
AcDbCircle
 10
225.401
 20
273.498
 30
0
 40
1.5
100
AcDbArc
 50
0
 51
90
  0
ARC
  5
A5A
330
A02
100
AcDbEntity
  8
View011
100
AcDbCircle
 10
225.401
 20
256.448
 30
0
 40
1.5
100
AcDbArc
 50
-90
 51
0
  0
LINE
  5
A5B
330
A02
100
AcDbEntity
  8
View011
100
AcDbLine
 10
226.901
 20
256.448
 30
0
 11
226.901
 21
273.498
 31
0
  0
CIRCLE
  5
A5C
330
A02
100
AcDbEntity
  8
View011
100
AcDbCircle
 10
183.539
 20
147.173
 40
1.05
  0
CIRCLE
  5
A5D
330
A02
100
AcDbEntity
  8
View011
100
AcDbCircle
 10
92.1826
 20
147.173
 40
1.05
  0
CIRCLE
  5
A5E
330
A02
100
AcDbEntity
  8
View011
100
AcDbCircle
 10
4.705
 20
148.052
 40
1.05
  0
CIRCLE
  5
A5F
330
A02
100
AcDbEntity
  8
View011
100
AcDbCircle
 10
35.9013
 20
164.961
 40
3.25
  0
CIRCLE
  5
A60
330
A02
100
AcDbEntity
  8
View011
100
AcDbCircle
 10
16.8513
 20
164.961
 40
3.25
  0
CIRCLE
  5
A61
330
A02
100
AcDbEntity
  8
View011
100
AcDbCircle
 10
35.9013
 20
184.011
 40
3.25
  0
CIRCLE
  5
A62
330
A02
100
AcDbEntity
  8
View011
100
AcDbCircle
 10
16.8513
 20
184.011
 40
3.25
  0
CIRCLE
  5
A63
330
A02
100
AcDbEntity
  8
View011
100
AcDbCircle
 10
183.539
 20
293.173
 40
1.05
  0
LINE
  5
A64
330
A02
100
AcDbEntity
  8
View011
100
AcDbLine
 10
68.7388
 20
273.498
 30
0
 11
68.7388
 21
256.448
 31
0
  0
ARC
  5
A65
330
A02
100
AcDbEntity
  8
View011
100
AcDbCircle
 10
70.2388
 20
273.498
 30
0
 40
1.5
100
AcDbArc
 50
90
 51
180
  0
ARC
  5
A66
330
A02
100
AcDbEntity
  8
View011
100
AcDbCircle
 10
70.2388
 20
256.448
 30
0
 40
1.5
100
AcDbArc
 50
180
 51
-90
  0
LINE
  5
A67
330
A02
100
AcDbEntity
  8
View011
100
AcDbLine
 10
144.439
 20
274.998
 30
0
 11
70.2388
 21
274.998
 31
0
  0
LINE
  5
A68
330
A02
100
AcDbEntity
  8
View011
100
AcDbLine
 10
70.2388
 20
254.948
 30
0
 11
144.439
 21
254.948
 31
0
  0
ARC
  5
A69
330
A02
100
AcDbEntity
  8
View011
100
AcDbCircle
 10
144.439
 20
273.498
 30
0
 40
1.5
100
AcDbArc
 50
0
 51
90
  0
ARC
  5
A6A
330
A02
100
AcDbEntity
  8
View011
100
AcDbCircle
 10
144.439
 20
256.448
 30
0
 40
1.5
100
AcDbArc
 50
-90
 51
0
  0
LINE
  5
A6B
330
A02
100
AcDbEntity
  8
View011
100
AcDbLine
 10
145.939
 20
256.448
 30
0
 11
145.939
 21
273.498
 31
0
  0
LINE
  5
A6C
330
A02
100
AcDbEntity
  8
View011
100
AcDbLine
 10
14.5263
 20
245.981
 30
0
 11
14.5263
 21
202.261
 31
0
  0
LINE
  5
A6D
330
A02
100
AcDbEntity
  8
View011
100
AcDbLine
 10
14.5263
 20
202.261
 30
0
 11
38.2263
 21
202.261
 31
0
  0
LINE
  5
A6E
330
A02
100
AcDbEntity
  8
View011
100
AcDbLine
 10
38.2263
 20
202.261
 30
0
 11
38.2263
 21
245.981
 31
0
  0
LINE
  5
A6F
330
A02
100
AcDbEntity
  8
View011
100
AcDbLine
 10
38.2263
 20
245.981
 30
0
 11
14.5263
 21
245.981
 31
0
  0
LINE
  5
A70
330
A02
100
AcDbEntity
  8
View011
100
AcDbLine
 10
44.9263
 20
273.498
 30
0
 11
44.9263
 21
256.448
 31
0
  0
ARC
  5
A71
330
A02
100
AcDbEntity
  8
View011
100
AcDbCircle
 10
46.4263
 20
273.498
 30
0
 40
1.5
100
AcDbArc
 50
90
 51
180
  0
ARC
  5
A72
330
A02
100
AcDbEntity
  8
View011
100
AcDbCircle
 10
46.4263
 20
256.448
 30
0
 40
1.5
100
AcDbArc
 50
180
 51
-90
  0
LINE
  5
A73
330
A02
100
AcDbEntity
  8
View011
100
AcDbLine
 10
63.4763
 20
274.998
 30
0
 11
46.4263
 21
274.998
 31
0
  0
LINE
  5
A74
330
A02
100
AcDbEntity
  8
View011
100
AcDbLine
 10
46.4263
 20
254.948
 30
0
 11
63.4763
 21
254.948
 31
0
  0
ARC
  5
A75
330
A02
100
AcDbEntity
  8
View011
100
AcDbCircle
 10
63.4763
 20
273.498
 30
0
 40
1.5
100
AcDbArc
 50
0
 51
90
  0
ARC
  5
A76
330
A02
100
AcDbEntity
  8
View011
100
AcDbCircle
 10
63.4763
 20
256.448
 30
0
 40
1.5
100
AcDbArc
 50
-90
 51
0
  0
LINE
  5
A77
330
A02
100
AcDbEntity
  8
View011
100
AcDbLine
 10
64.9763
 20
256.448
 30
0
 11
64.9763
 21
273.498
 31
0
  0
CIRCLE
  5
A78
330
A02
100
AcDbEntity
  8
View011
100
AcDbCircle
 10
92.1826
 20
293.173
 40
1.05
  0
CIRCLE
  5
A79
330
A02
100
AcDbEntity
  8
View011
100
AcDbCircle
 10
35.9013
 20
264.973
 40
6.75
  0
CIRCLE
  5
A7A
330
A02
100
AcDbEntity
  8
View011
100
AcDbCircle
 10
16.8513
 20
264.973
 40
6.75
  0
CIRCLE
  5
A7B
330
A02
100
AcDbEntity
  8
View011
100
AcDbCircle
 10
5.58368
 20
291.416
 40
1.05
  0
ENDSEC
  0
SECTION
  2
OBJECTS
  0
DICTIONARY
  5
F000
330
0
100
AcDbDictionary
  3
ACAD_GROUP
350
F001
  0
DICTIONARY
  5
F001
330
F000
100
AcDbDictionary
  0
ENDSEC
  0
EOF