999
FreeCAD v0.20 29177 +426 (Git)
  0
SECTION
  2
HEADER
  9
$ACADVER
  1
AC1014
  9
$ACADMAINTVER
 70
     9
  9
$DWGCODEPAGE
  3
ANSI_1252
  9
$TEXTSTYLE
  7
STANDARD
  9
$DIMSTYLE
  2
STANDARD
  9
$DIMTXSTY
  7
STANDARD
  9
$CMLSTYLE
  2
STANDARD
  9
$LUNITS
 70
2
  9
$INSUNITS
 70
4
  9
$PEXTMAX
 10
50
 20
50
 30
50
  9
$PEXTMIN
 10
0
 20
0
 30
0
  9
$HANDSEED
  5
FFFF
  0
ENDSEC
  0
SECTION
  2
CLASSES
  0
CLASS
  1
ACDBDICTIONARYWDFLT
  2
AcDbDictionaryWithDefault
  3
ObjectDBX Classes
 90
        0
280
     0
281
     0
  0
CLASS
  1
XRECORD
  2
AcDbXrecord
  3
ObjectDBX Classes
 90
        0
280
     0
281
     0
  0
CLASS
  1
LWPOLYLINE
  2
AcDbPolyline
  3
ObjectDBX Classes
 90
        0
280
     0
281
     1
  0
ENDSEC
  0
SECTION
  2
TABLES
  0
TABLE
  2
VPORT
  5
20
330
0
100
AcDbSymbolTable
 70
     1
  0
VPORT
  5
21
330
20
100
AcDbSymbolTableRecord
100
AcDbViewportTableRecord
  2
*ACTIVE
 70
     0
  0
ENDTAB
  0
TABLE
  2
LTYPE
  5
22
330
0
100
AcDbSymbolTable
 70
     1
  0
LTYPE
  5
23
330
21
100
AcDbSymbolTableRecord
100
AcDbLinetypeTableRecord
  2
BYBLOCK
 70
     0
  3

 72
    65
 73
     0
 40
0.0
  0
LTYPE
  5
24
330
21
100
AcDbSymbolTableRecord
100
AcDbLinetypeTableRecord
  2
BYLAYER
 70
     0
  3

 72
    65
 73
     0
 40
0.0
  0
LTYPE
  5
25
330
21
100
AcDbSymbolTableRecord
100
AcDbLinetypeTableRecord
  2
CONTINUOUS
 70
     0
  3
Solid line
 72
    65
 73
     0
 40
0.0
  0
ENDTAB
  0
TABLE
  2
LAYER
  5
BF6
330
0
100
AcDbSymbolTable
 70
2
  0
LAYER
  5
BF7
330
BF6
100
AcDbSymbolTableRecord
100
AcDbLayerTableRecord
  2
0
 70
   0
 62
   7
  6
CONTINUOUS
  0
LAYER
  5
BF8
330
BF6
100
AcDbSymbolTableRecord
100
AcDbLayerTableRecord
  2
View
 70
    0
 62
    7
  6
CONTINUOUS
  0
ENDTAB
  0
TABLE
  2
STYLE
  5
70
330
0
100
AcDbSymbolTable
 70
     2
  0
STYLE
  5
71
330
70
100
AcDbSymbolTableRecord
100
AcDbTextStyleTableRecord
  2
STANDARD
 70
     0
 40
0.0
 41
1.0
 50
0.0
 71
     0
 42
2.5
  3
arial.ttf
  4

  0
STYLE
  5
72
330
70
100
AcDbSymbolTableRecord
100
AcDbTextStyleTableRecord
  2
ANNOTATIVE
 70
     0
 40
0.0
 41
1.0
 50
0.0
 71
     0
 42
2.5
  3
arial.ttf
  4

  0
ENDTAB
  0
TABLE
  2
VIEW
  5
73
330
0
100
AcDbSymbolTable
 70
     0
  0
ENDTAB
  0
TABLE
  2
UCS
  5
74
330
0
100
AcDbSymbolTable
 70
     0
  0
ENDTAB
  0
TABLE
  2
APPID
  5
75
330
0
100
AcDbSymbolTable
 70
     2
  0
APPID
  5
76
330
75
100
AcDbSymbolTableRecord
100
AcDbRegAppTableRecord
  2
ACAD
 70
     0
  0
APPID
  5
77
330
75
100
AcDbSymbolTableRecord
100
AcDbRegAppTableRecord
  2
ACADANNOTATIVE
 70
     0
  0
ENDTAB
  0
TABLE
  2
DIMSTYLE
  5
78
330
0
100
AcDbSymbolTable
 70
     2
  0
DIMSTYLE
105
79
330
78
100
AcDbSymbolTableRecord
100
AcDbDimStyleTableRecord
  2
STANDARD
 70
     0
  3

  4

  5

  6

  7

 40
0.0
 41
2.5
 42
0.625
 43
3.75
 44
1.25
 45
0.0
 46
0.0
 47
0.0
 48
0.0
140
2.5
141
2.5
142
0.0
143
0.03937007874016
144
1.0
145
0.0
146
1.0
147
0.625
 71
     0
 72
     0
 73
     0
 74
     0
 75
     0
 76
     0
 77
     1
 78
     8
170
     0
171
     3
172
     1
173
     0
174
     0
175
     0
176
     0
177
     0
178
     0
270
     2
271
     2
272
     2
273
     2
274
     3
340
71
275
     0
280
     0
281
     0
282
     0
283
     0
284
     8
285
     0
286
     0
287
     3
288
     0
  0
ENDTAB
  0
TABLE
  2
BLOCK_RECORD
  5
A01
330
0
100
AcDbSymbolTable
  70
5
  0
BLOCK_RECORD
  5
A02
330
A01
100
AcDbSymbolTableRecord
100
AcDbBlockTableRecord
  2
*MODEL_SPACE
  0
BLOCK_RECORD
  5
A03
330
A01
100
AcDbSymbolTableRecord
100
AcDbBlockTableRecord
  2
*PAPER_SPACE
  0
ENDTAB
  0
ENDSEC
  0
SECTION
  2
BLOCKS
  0
BLOCK
  5
A04
330
A02
100
AcDbEntity
  8
0
100
AcDbBlockBegin
  2
*MODEL_SPACE
 70
   0
 10
0
 20
0
 30
0
  3
*MODEL_SPACE
  1
 
  0
ENDBLK
  5
A05
330
A02
100
AcDbEntity
  8
0
100
AcDbBlockEnd
  0
BLOCK
  5
A06
330
A03
100
AcDbEntity
 67
1
  8
0
100
AcDbBlockBegin
  2
*PAPER_SPACE
 70
   0
 10
0
 20
0
 30
0
  3
*PAPER_SPACE
  1
 
  0
ENDBLK
  5
A07
330
A03
100
AcDbEntity
 67
    1
  8
0
100
AcDbBlockEnd
  0
ENDSEC
  0
SECTION
  2
ENTITIES
  0
LINE
  5
A08
330
A02
100
AcDbEntity
  8
View
100
AcDbLine
 10
3.08812
 20
288.4
 30
0
 11
3.08812
 21
145.4
 31
0
  0
ARC
  5
A09
330
A02
100
AcDbEntity
  8
View
100
AcDbCircle
 10
9.08812
 20
288.4
 30
0
 40
6
100
AcDbArc
 50
90
 51
180
  0
ARC
  5
A0A
330
A02
100
AcDbEntity
  8
View
100
AcDbCircle
 10
6.08812
 20
145.4
 30
0
 40
3
100
AcDbArc
 50
180
 51
-90
  0
LINE
  5
A0B
330
A02
100
AcDbEntity
  8
View
100
AcDbLine
 10
259.013
 20
294.4
 30
0
 11
9.08812
 21
294.4
 31
0
  0
ARC
  5
A0C
330
A02
100
AcDbEntity
  8
View
100
AcDbCircle
 10
259.013
 20
292.4
 30
0
 40
2
100
AcDbArc
 50
0
 51
90
  0
LINE
  5
A0D
330
A02
100
AcDbEntity
  8
View
100
AcDbLine
 10
261.013
 20
281.9
 30
0
 11
261.013
 21
292.4
 31
0
  0
ARC
  5
A0E
330
A02
100
AcDbEntity
  8
View
100
AcDbCircle
 10
263.013
 20
281.9
 30
0
 40
2
100
AcDbArc
 50
180
 51
-90
  0
LINE
  5
A0F
330
A02
100
AcDbEntity
  8
View
100
AcDbLine
 10
263.013
 20
279.9
 30
0
 11
271.513
 21
279.9
 31
0
  0
ARC
  5
A10
330
A02
100
AcDbEntity
  8
View
100
AcDbCircle
 10
271.513
 20
281.9
 30
0
 40
2
100
AcDbArc
 50
-90
 51
0
  0
LINE
  5
A11
330
A02
100
AcDbEntity
  8
View
100
AcDbLine
 10
273.513
 20
281.9
 30
0
 11
273.513
 21
292.4
 31
0
  0
ARC
  5
A12
330
A02
100
AcDbEntity
  8
View
100
AcDbCircle
 10
275.513
 20
292.4
 30
0
 40
2
100
AcDbArc
 50
90
 51
180
  0
LINE
  5
A13
330
A02
100
AcDbEntity
  8
View
100
AcDbLine
 10
362.513
 20
294.4
 30
0
 11
275.513
 21
294.4
 31
0
  0
ARC
  5
A14
330
A02
100
AcDbEntity
  8
View
100
AcDbCircle
 10
362.513
 20
288.4
 30
0
 40
6
100
AcDbArc
 50
0
 51
90
  0
LINE
  5
A15
330
A02
100
AcDbEntity
  8
View
100
AcDbLine
 10
368.513
 20
145.4
 30
0
 11
368.513
 21
288.4
 31
0
  0
ARC
  5
A16
330
A02
100
AcDbEntity
  8
View
100
AcDbCircle
 10
365.513
 20
145.4
 30
0
 40
3
100
AcDbArc
 50
-90
 51
0
  0
LINE
  5
A17
330
A02
100
AcDbEntity
  8
View
100
AcDbLine
 10
6.08812
 20
142.4
 30
0
 11
365.513
 21
142.4
 31
0
  0
CIRCLE
  5
A18
330
A02
100
AcDbEntity
  8
View
100
AcDbCircle
 10
364.634
 20
146.279
 40
1.7
  0
LINE
  5
A19
330
A02
100
AcDbEntity
  8
View
100
AcDbLine
 10
340.726
 20
165.425
 30
0
 11
340.726
 21
151.425
 31
0
  0
LINE
  5
A1A
330
A02
100
AcDbEntity
  8
View
100
AcDbLine
 10
354.726
 20
165.425
 30
0
 11
340.726
 21
165.425
 31
0
  0
LINE
  5
A1B
330
A02
100
AcDbEntity
  8
View
100
AcDbLine
 10
340.726
 20
151.425
 30
0
 11
354.726
 21
151.425
 31
0
  0
LINE
  5
A1C
330
A02
100
AcDbEntity
  8
View
100
AcDbLine
 10
354.726
 20
151.425
 30
0
 11
354.726
 21
165.425
 31
0
  0
LINE
  5
A1D
330
A02
100
AcDbEntity
  8
View
100
AcDbLine
 10
321.676
 20
165.425
 30
0
 11
321.676
 21
151.425
 31
0
  0
LINE
  5
A1E
330
A02
100
AcDbEntity
  8
View
100
AcDbLine
 10
335.676
 20
165.425
 30
0
 11
321.676
 21
165.425
 31
0
  0
LINE
  5
A1F
330
A02
100
AcDbEntity
  8
View
100
AcDbLine
 10
321.676
 20
151.425
 30
0
 11
335.676
 21
151.425
 31
0
  0
LINE
  5
A20
330
A02
100
AcDbEntity
  8
View
100
AcDbLine
 10
335.676
 20
151.425
 30
0
 11
335.676
 21
165.425
 31
0
  0
LINE
  5
A21
330
A02
100
AcDbEntity
  8
View
100
AcDbLine
 10
321.676
 20
184.475
 30
0
 11
321.676
 21
170.475
 31
0
  0
LINE
  5
A22
330
A02
100
AcDbEntity
  8
View
100
AcDbLine
 10
335.676
 20
184.475
 30
0
 11
321.676
 21
184.475
 31
0
  0
LINE
  5
A23
330
A02
100
AcDbEntity
  8
View
100
AcDbLine
 10
321.676
 20
170.475
 30
0
 11
335.676
 21
170.475
 31
0
  0
LINE
  5
A24
330
A02
100
AcDbEntity
  8
View
100
AcDbLine
 10
335.676
 20
170.475
 30
0
 11
335.676
 21
184.475
 31
0
  0
LINE
  5
A25
330
A02
100
AcDbEntity
  8
View
100
AcDbLine
 10
302.626
 20
165.425
 30
0
 11
302.626
 21
151.425
 31
0
  0
LINE
  5
A26
330
A02
100
AcDbEntity
  8
View
100
AcDbLine
 10
316.626
 20
165.425
 30
0
 11
302.626
 21
165.425
 31
0
  0
LINE
  5
A27
330
A02
100
AcDbEntity
  8
View
100
AcDbLine
 10
302.626
 20
151.425
 30
0
 11
316.626
 21
151.425
 31
0
  0
LINE
  5
A28
330
A02
100
AcDbEntity
  8
View
100
AcDbLine
 10
316.626
 20
151.425
 30
0
 11
316.626
 21
165.425
 31
0
  0
CIRCLE
  5
A29
330
A02
100
AcDbEntity
  8
View
100
AcDbCircle
 10
277.157
 20
145.4
 40
1.7
  0
LINE
  5
A2A
330
A02
100
AcDbEntity
  8
View
100
AcDbLine
 10
278.813
 20
170.187
 30
0
 11
278.813
 21
156.187
 31
0
  0
LINE
  5
A2B
330
A02
100
AcDbEntity
  8
View
100
AcDbLine
 10
292.813
 20
170.187
 30
0
 11
278.813
 21
170.187
 31
0
  0
LINE
  5
A2C
330
A02
100
AcDbEntity
  8
View
100
AcDbLine
 10
278.813
 20
156.187
 30
0
 11
292.813
 21
156.187
 31
0
  0
LINE
  5
A2D
330
A02
100
AcDbEntity
  8
View
100
AcDbLine
 10
292.813
 20
156.187
 30
0
 11
292.813
 21
170.187
 31
0
  0
LINE
  5
A2E
330
A02
100
AcDbEntity
  8
View
100
AcDbLine
 10
345.488
 20
189.237
 30
0
 11
345.488
 21
175.237
 31
0
  0
LINE
  5
A2F
330
A02
100
AcDbEntity
  8
View
100
AcDbLine
 10
359.488
 20
189.237
 30
0
 11
345.488
 21
189.237
 31
0
  0
LINE
  5
A30
330
A02
100
AcDbEntity
  8
View
100
AcDbLine
 10
345.488
 20
175.237
 30
0
 11
359.488
 21
175.237
 31
0
  0
LINE
  5
A31
330
A02
100
AcDbEntity
  8
View
100
AcDbLine
 10
359.488
 20
175.237
 30
0
 11
359.488
 21
189.237
 31
0
  0
LINE
  5
A32
330
A02
100
AcDbEntity
  8
View
100
AcDbLine
 10
345.488
 20
208.287
 30
0
 11
345.488
 21
194.287
 31
0
  0
LINE
  5
A33
330
A02
100
AcDbEntity
  8
View
100
AcDbLine
 10
359.488
 20
208.287
 30
0
 11
345.488
 21
208.287
 31
0
  0
LINE
  5
A34
330
A02
100
AcDbEntity
  8
View
100
AcDbLine
 10
345.488
 20
194.287
 30
0
 11
359.488
 21
194.287
 31
0
  0
LINE
  5
A35
330
A02
100
AcDbEntity
  8
View
100
AcDbLine
 10
359.488
 20
194.287
 30
0
 11
359.488
 21
208.287
 31
0
  0
LINE
  5
A36
330
A02
100
AcDbEntity
  8
View
100
AcDbLine
 10
290.719
 20
189.237
 30
0
 11
290.719
 21
175.237
 31
0
  0
LINE
  5
A37
330
A02
100
AcDbEntity
  8
View
100
AcDbLine
 10
304.719
 20
189.237
 30
0
 11
290.719
 21
189.237
 31
0
  0
LINE
  5
A38
330
A02
100
AcDbEntity
  8
View
100
AcDbLine
 10
290.719
 20
175.237
 30
0
 11
304.719
 21
175.237
 31
0
  0
LINE
  5
A39
330
A02
100
AcDbEntity
  8
View
100
AcDbLine
 10
304.719
 20
175.237
 30
0
 11
304.719
 21
189.237
 31
0
  0
LINE
  5
A3A
330
A02
100
AcDbEntity
  8
View
100
AcDbLine
 10
305.007
 20
208.287
 30
0
 11
305.007
 21
202.197
 31
0
  0
LINE
  5
A3B
330
A02
100
AcDbEntity
  8
View
100
AcDbLine
 10
319.007
 20
208.287
 30
0
 11
305.007
 21
208.287
 31
0
  0
LINE
  5
A3C
330
A02
100
AcDbEntity
  8
View
100
AcDbLine
 10
303.057
 20
202.197
 30
0
 11
305.007
 21
202.197
 31
0
  0
LINE
  5
A3D
330
A02
100
AcDbEntity
  8
View
100
AcDbLine
 10
319.007
 20
202.197
 30
0
 11
319.007
 21
208.287
 31
0
  0
LINE
  5
A3E
330
A02
100
AcDbEntity
  8
View
100
AcDbLine
 10
303.057
 20
208.207
 30
0
 11
303.057
 21
202.197
 31
0
  0
LINE
  5
A3F
330
A02
100
AcDbEntity
  8
View
100
AcDbLine
 10
319.007
 20
202.197
 30
0
 11
320.957
 21
202.197
 31
0
  0
LINE
  5
A40
330
A02
100
AcDbEntity
  8
View
100
AcDbLine
 10
303.057
 20
208.207
 30
0
 11
302.007
 21
208.207
 31
0
  0
LINE
  5
A41
330
A02
100
AcDbEntity
  8
View
100
AcDbLine
 10
320.957
 20
202.197
 30
0
 11
320.957
 21
208.207
 31
0
  0
LINE
  5
A42
330
A02
100
AcDbEntity
  8
View
100
AcDbLine
 10
302.007
 20
210.207
 30
0
 11
302.007
 21
208.207
 31
0
  0
LINE
  5
A43
330
A02
100
AcDbEntity
  8
View
100
AcDbLine
 10
322.007
 20
208.207
 30
0
 11
320.957
 21
208.207
 31
0
  0
LINE
  5
A44
330
A02
100
AcDbEntity
  8
View
100
AcDbLine
 10
298.007
 20
210.207
 30
0
 11
302.007
 21
210.207
 31
0
  0
LINE
  5
A45
330
A02
100
AcDbEntity
  8
View
100
AcDbLine
 10
322.007
 20
208.207
 30
0
 11
322.007
 21
210.207
 31
0
  0
LINE
  5
A46
330
A02
100
AcDbEntity
  8
View
100
AcDbLine
 10
298.007
 20
208.207
 30
0
 11
298.007
 21
210.207
 31
0
  0
LINE
  5
A47
330
A02
100
AcDbEntity
  8
View
100
AcDbLine
 10
322.007
 20
210.207
 30
0
 11
326.007
 21
210.207
 31
0
  0
LINE
  5
A48
330
A02
100
AcDbEntity
  8
View
100
AcDbLine
 10
298.007
 20
208.207
 30
0
 11
296.957
 21
208.207
 31
0
  0
LINE
  5
A49
330
A02
100
AcDbEntity
  8
View
100
AcDbLine
 10
326.007
 20
210.207
 30
0
 11
326.007
 21
208.207
 31
0
  0
LINE
  5
A4A
330
A02
100
AcDbEntity
  8
View
100
AcDbLine
 10
296.957
 20
208.207
 30
0
 11
296.957
 21
195.607
 31
0
  0
LINE
  5
A4B
330
A02
100
AcDbEntity
  8
View
100
AcDbLine
 10
327.057
 20
208.207
 30
0
 11
326.007
 21
208.207
 31
0
  0
LINE
  5
A4C
330
A02
100
AcDbEntity
  8
View
100
AcDbLine
 10
296.957
 20
195.607
 30
0
 11
303.057
 21
195.607
 31
0
  0
LINE
  5
A4D
330
A02
100
AcDbEntity
  8
View
100
AcDbLine
 10
327.057
 20
195.607
 30
0
 11
327.057
 21
208.207
 31
0
  0
LINE
  5
A4E
330
A02
100
AcDbEntity
  8
View
100
AcDbLine
 10
303.057
 20
198.997
 30
0
 11
303.057
 21
195.607
 31
0
  0
LINE
  5
A4F
330
A02
100
AcDbEntity
  8
View
100
AcDbLine
 10
320.957
 20
195.607
 30
0
 11
327.057
 21
195.607
 31
0
  0
LINE
  5
A50
330
A02
100
AcDbEntity
  8
View
100
AcDbLine
 10
305.007
 20
198.997
 30
0
 11
303.057
 21
198.997
 31
0
  0
LINE
  5
A51
330
A02
100
AcDbEntity
  8
View
100
AcDbLine
 10
320.957
 20
195.607
 30
0
 11
320.957
 21
198.997
 31
0
  0
LINE
  5
A52
330
A02
100
AcDbEntity
  8
View
100
AcDbLine
 10
305.007
 20
198.997
 30
0
 11
305.007
 21
194.287
 31
0
  0
LINE
  5
A53
330
A02
100
AcDbEntity
  8
View
100
AcDbLine
 10
320.957
 20
198.997
 30
0
 11
319.007
 21
198.997
 31
0
  0
LINE
  5
A54
330
A02
100
AcDbEntity
  8
View
100
AcDbLine
 10
305.007
 20
194.287
 30
0
 11
319.007
 21
194.287
 31
0
  0
LINE
  5
A55
330
A02
100
AcDbEntity
  8
View
100
AcDbLine
 10
319.007
 20
194.287
 30
0
 11
319.007
 21
198.997
 31
0
  0
LINE
  5
A56
330
A02
100
AcDbEntity
  8
View
100
AcDbLine
 10
274.051
 20
208.287
 30
0
 11
274.051
 21
194.287
 31
0
  0
LINE
  5
A57
330
A02
100
AcDbEntity
  8
View
100
AcDbLine
 10
288.051
 20
208.287
 30
0
 11
274.051
 21
208.287
 31
0
  0
LINE
  5
A58
330
A02
100
AcDbEntity
  8
View
100
AcDbLine
 10
274.051
 20
194.287
 30
0
 11
288.051
 21
194.287
 31
0
  0
LINE
  5
A59
330
A02
100
AcDbEntity
  8
View
100
AcDbLine
 10
288.051
 20
194.287
 30
0
 11
288.051
 21
208.287
 31
0
  0
LINE
  5
A5A
330
A02
100
AcDbEntity
  8
View
100
AcDbLine
 10
259.763
 20
170.187
 30
0
 11
259.763
 21
156.187
 31
0
  0
LINE
  5
A5B
330
A02
100
AcDbEntity
  8
View
100
AcDbLine
 10
273.763
 20
170.187
 30
0
 11
259.763
 21
170.187
 31
0
  0
LINE
  5
A5C
330
A02
100
AcDbEntity
  8
View
100
AcDbLine
 10
259.763
 20
156.187
 30
0
 11
273.763
 21
156.187
 31
0
  0
LINE
  5
A5D
330
A02
100
AcDbEntity
  8
View
100
AcDbLine
 10
273.763
 20
156.187
 30
0
 11
273.763
 21
170.187
 31
0
  0
LINE
  5
A5E
330
A02
100
AcDbEntity
  8
View
100
AcDbLine
 10
240.713
 20
170.187
 30
0
 11
240.713
 21
156.187
 31
0
  0
LINE
  5
A5F
330
A02
100
AcDbEntity
  8
View
100
AcDbLine
 10
254.713
 20
170.187
 30
0
 11
240.713
 21
170.187
 31
0
  0
LINE
  5
A60
330
A02
100
AcDbEntity
  8
View
100
AcDbLine
 10
240.713
 20
156.187
 30
0
 11
254.713
 21
156.187
 31
0
  0
LINE
  5
A61
330
A02
100
AcDbEntity
  8
View
100
AcDbLine
 10
254.713
 20
156.187
 30
0
 11
254.713
 21
170.187
 31
0
  0
LINE
  5
A62
330
A02
100
AcDbEntity
  8
View
100
AcDbLine
 10
264.526
 20
189.237
 30
0
 11
264.526
 21
175.237
 31
0
  0
LINE
  5
A63
330
A02
100
AcDbEntity
  8
View
100
AcDbLine
 10
278.526
 20
189.237
 30
0
 11
264.526
 21
189.237
 31
0
  0
LINE
  5
A64
330
A02
100
AcDbEntity
  8
View
100
AcDbLine
 10
264.526
 20
175.237
 30
0
 11
278.526
 21
175.237
 31
0
  0
LINE
  5
A65
330
A02
100
AcDbEntity
  8
View
100
AcDbLine
 10
278.526
 20
175.237
 30
0
 11
278.526
 21
189.237
 31
0
  0
LINE
  5
A66
330
A02
100
AcDbEntity
  8
View
100
AcDbLine
 10
245.476
 20
189.237
 30
0
 11
245.476
 21
175.237
 31
0
  0
LINE
  5
A67
330
A02
100
AcDbEntity
  8
View
100
AcDbLine
 10
259.476
 20
189.237
 30
0
 11
245.476
 21
189.237
 31
0
  0
LINE
  5
A68
330
A02
100
AcDbEntity
  8
View
100
AcDbLine
 10
245.476
 20
175.237
 30
0
 11
259.476
 21
175.237
 31
0
  0
LINE
  5
A69
330
A02
100
AcDbEntity
  8
View
100
AcDbLine
 10
259.476
 20
175.237
 30
0
 11
259.476
 21
189.237
 31
0
  0
LINE
  5
A6A
330
A02
100
AcDbEntity
  8
View
100
AcDbLine
 10
226.426
 20
189.237
 30
0
 11
226.426
 21
175.237
 31
0
  0
LINE
  5
A6B
330
A02
100
AcDbEntity
  8
View
100
AcDbLine
 10
240.426
 20
189.237
 30
0
 11
226.426
 21
189.237
 31
0
  0
LINE
  5
A6C
330
A02
100
AcDbEntity
  8
View
100
AcDbLine
 10
226.426
 20
175.237
 30
0
 11
240.426
 21
175.237
 31
0
  0
LINE
  5
A6D
330
A02
100
AcDbEntity
  8
View
100
AcDbLine
 10
240.426
 20
175.237
 30
0
 11
240.426
 21
189.237
 31
0
  0
LINE
  5
A6E
330
A02
100
AcDbEntity
  8
View
100
AcDbLine
 10
255.001
 20
208.287
 30
0
 11
255.001
 21
194.287
 31
0
  0
LINE
  5
A6F
330
A02
100
AcDbEntity
  8
View
100
AcDbLine
 10
269.001
 20
208.287
 30
0
 11
255.001
 21
208.287
 31
0
  0
LINE
  5
A70
330
A02
100
AcDbEntity
  8
View
100
AcDbLine
 10
255.001
 20
194.287
 30
0
 11
269.001
 21
194.287
 31
0
  0
LINE
  5
A71
330
A02
100
AcDbEntity
  8
View
100
AcDbLine
 10
269.001
 20
194.287
 30
0
 11
269.001
 21
208.287
 31
0
  0
LINE
  5
A72
330
A02
100
AcDbEntity
  8
View
100
AcDbLine
 10
235.951
 20
208.287
 30
0
 11
235.951
 21
194.287
 31
0
  0
LINE
  5
A73
330
A02
100
AcDbEntity
  8
View
100
AcDbLine
 10
249.951
 20
208.287
 30
0
 11
235.951
 21
208.287
 31
0
  0
LINE
  5
A74
330
A02
100
AcDbEntity
  8
View
100
AcDbLine
 10
235.951
 20
194.287
 30
0
 11
249.951
 21
194.287
 31
0
  0
LINE
  5
A75
330
A02
100
AcDbEntity
  8
View
100
AcDbLine
 10
249.951
 20
194.287
 30
0
 11
249.951
 21
208.287
 31
0
  0
LINE
  5
A76
330
A02
100
AcDbEntity
  8
View
100
AcDbLine
 10
207.376
 20
189.237
 30
0
 11
207.376
 21
175.237
 31
0
  0
LINE
  5
A77
330
A02
100
AcDbEntity
  8
View
100
AcDbLine
 10
221.376
 20
189.237
 30
0
 11
207.376
 21
189.237
 31
0
  0
LINE
  5
A78
330
A02
100
AcDbEntity
  8
View
100
AcDbLine
 10
207.376
 20
175.237
 30
0
 11
221.376
 21
175.237
 31
0
  0
LINE
  5
A79
330
A02
100
AcDbEntity
  8
View
100
AcDbLine
 10
221.376
 20
175.237
 30
0
 11
221.376
 21
189.237
 31
0
  0
LINE
  5
A7A
330
A02
100
AcDbEntity
  8
View
100
AcDbLine
 10
188.326
 20
189.237
 30
0
 11
188.326
 21
175.237
 31
0
  0
LINE
  5
A7B
330
A02
100
AcDbEntity
  8
View
100
AcDbLine
 10
202.326
 20
189.237
 30
0
 11
188.326
 21
189.237
 31
0
  0
LINE
  5
A7C
330
A02
100
AcDbEntity
  8
View
100
AcDbLine
 10
188.326
 20
175.237
 30
0
 11
202.326
 21
175.237
 31
0
  0
LINE
  5
A7D
330
A02
100
AcDbEntity
  8
View
100
AcDbLine
 10
202.326
 20
175.237
 30
0
 11
202.326
 21
189.237
 31
0
  0
LINE
  5
A7E
330
A02
100
AcDbEntity
  8
View
100
AcDbLine
 10
216.901
 20
208.287
 30
0
 11
216.901
 21
194.287
 31
0
  0
LINE
  5
A7F
330
A02
100
AcDbEntity
  8
View
100
AcDbLine
 10
230.901
 20
208.287
 30
0
 11
216.901
 21
208.287
 31
0
  0
LINE
  5
A80
330
A02
100
AcDbEntity
  8
View
100
AcDbLine
 10
216.901
 20
194.287
 30
0
 11
230.901
 21
194.287
 31
0
  0
LINE
  5
A81
330
A02
100
AcDbEntity
  8
View
100
AcDbLine
 10
230.901
 20
194.287
 30
0
 11
230.901
 21
208.287
 31
0
  0
LINE
  5
A82
330
A02
100
AcDbEntity
  8
View
100
AcDbLine
 10
197.851
 20
208.287
 30
0
 11
197.851
 21
194.287
 31
0
  0
LINE
  5
A83
330
A02
100
AcDbEntity
  8
View
100
AcDbLine
 10
211.851
 20
208.287
 30
0
 11
197.851
 21
208.287
 31
0
  0
LINE
  5
A84
330
A02
100
AcDbEntity
  8
View
100
AcDbLine
 10
197.851
 20
194.287
 30
0
 11
211.851
 21
194.287
 31
0
  0
LINE
  5
A85
330
A02
100
AcDbEntity
  8
View
100
AcDbLine
 10
211.851
 20
194.287
 30
0
 11
211.851
 21
208.287
 31
0
  0
LINE
  5
A86
330
A02
100
AcDbEntity
  8
View
100
AcDbLine
 10
345.488
 20
227.337
 30
0
 11
345.488
 21
213.337
 31
0
  0
LINE
  5
A87
330
A02
100
AcDbEntity
  8
View
100
AcDbLine
 10
359.488
 20
227.337
 30
0
 11
345.488
 21
227.337
 31
0
  0
LINE
  5
A88
330
A02
100
AcDbEntity
  8
View
100
AcDbLine
 10
345.488
 20
213.337
 30
0
 11
359.488
 21
213.337
 31
0
  0
LINE
  5
A89
330
A02
100
AcDbEntity
  8
View
100
AcDbLine
 10
359.488
 20
213.337
 30
0
 11
359.488
 21
227.337
 31
0
  0
LINE
  5
A8A
330
A02
100
AcDbEntity
  8
View
100
AcDbLine
 10
345.488
 20
246.387
 30
0
 11
345.488
 21
232.387
 31
0
  0
LINE
  5
A8B
330
A02
100
AcDbEntity
  8
View
100
AcDbLine
 10
359.488
 20
246.387
 30
0
 11
345.488
 21
246.387
 31
0
  0
LINE
  5
A8C
330
A02
100
AcDbEntity
  8
View
100
AcDbLine
 10
345.488
 20
232.387
 30
0
 11
359.488
 21
232.387
 31
0
  0
LINE
  5
A8D
330
A02
100
AcDbEntity
  8
View
100
AcDbLine
 10
359.488
 20
232.387
 30
0
 11
359.488
 21
246.387
 31
0
  0
LINE
  5
A8E
330
A02
100
AcDbEntity
  8
View
100
AcDbLine
 10
312.151
 20
227.337
 30
0
 11
312.151
 21
213.337
 31
0
  0
LINE
  5
A8F
330
A02
100
AcDbEntity
  8
View
100
AcDbLine
 10
326.151
 20
227.337
 30
0
 11
312.151
 21
227.337
 31
0
  0
LINE
  5
A90
330
A02
100
AcDbEntity
  8
View
100
AcDbLine
 10
312.151
 20
213.337
 30
0
 11
326.151
 21
213.337
 31
0
  0
LINE
  5
A91
330
A02
100
AcDbEntity
  8
View
100
AcDbLine
 10
326.151
 20
213.337
 30
0
 11
326.151
 21
227.337
 31
0
  0
LINE
  5
A92
330
A02
100
AcDbEntity
  8
View
100
AcDbLine
 10
288.338
 20
227.337
 30
0
 11
288.338
 21
213.337
 31
0
  0
LINE
  5
A93
330
A02
100
AcDbEntity
  8
View
100
AcDbLine
 10
302.338
 20
227.337
 30
0
 11
288.338
 21
227.337
 31
0
  0
LINE
  5
A94
330
A02
100
AcDbEntity
  8
View
100
AcDbLine
 10
288.338
 20
213.337
 30
0
 11
302.338
 21
213.337
 31
0
  0
LINE
  5
A95
330
A02
100
AcDbEntity
  8
View
100
AcDbLine
 10
302.338
 20
213.337
 30
0
 11
302.338
 21
227.337
 31
0
  0
LINE
  5
A96
330
A02
100
AcDbEntity
  8
View
100
AcDbLine
 10
269.288
 20
227.337
 30
0
 11
269.288
 21
213.337
 31
0
  0
LINE
  5
A97
330
A02
100
AcDbEntity
  8
View
100
AcDbLine
 10
283.288
 20
227.337
 30
0
 11
269.288
 21
227.337
 31
0
  0
LINE
  5
A98
330
A02
100
AcDbEntity
  8
View
100
AcDbLine
 10
269.288
 20
213.337
 30
0
 11
283.288
 21
213.337
 31
0
  0
LINE
  5
A99
330
A02
100
AcDbEntity
  8
View
100
AcDbLine
 10
283.288
 20
213.337
 30
0
 11
283.288
 21
227.337
 31
0
  0
LINE
  5
A9A
330
A02
100
AcDbEntity
  8
View
100
AcDbLine
 10
307.388
 20
246.387
 30
0
 11
307.388
 21
240.297
 31
0
  0
LINE
  5
A9B
330
A02
100
AcDbEntity
  8
View
100
AcDbLine
 10
321.388
 20
246.387
 30
0
 11
307.388
 21
246.387
 31
0
  0
LINE
  5
A9C
330
A02
100
AcDbEntity
  8
View
100
AcDbLine
 10
307.388
 20
240.297
 30
0
 11
305.438
 21
240.297
 31
0
  0
LINE
  5
A9D
330
A02
100
AcDbEntity
  8
View
100
AcDbLine
 10
321.388
 20
240.297
 30
0
 11
321.388
 21
246.387
 31
0
  0
LINE
  5
A9E
330
A02
100
AcDbEntity
  8
View
100
AcDbLine
 10
305.438
 20
246.307
 30
0
 11
305.438
 21
240.297
 31
0
  0
LINE
  5
A9F
330
A02
100
AcDbEntity
  8
View
100
AcDbLine
 10
323.338
 20
240.297
 30
0
 11
321.388
 21
240.297
 31
0
  0
LINE
  5
AA0
330
A02
100
AcDbEntity
  8
View
100
AcDbLine
 10
305.438
 20
246.307
 30
0
 11
304.388
 21
246.307
 31
0
  0
LINE
  5
AA1
330
A02
100
AcDbEntity
  8
View
100
AcDbLine
 10
323.338
 20
246.307
 30
0
 11
323.338
 21
240.297
 31
0
  0
LINE
  5
AA2
330
A02
100
AcDbEntity
  8
View
100
AcDbLine
 10
304.388
 20
248.307
 30
0
 11
304.388
 21
246.307
 31
0
  0
LINE
  5
AA3
330
A02
100
AcDbEntity
  8
View
100
AcDbLine
 10
324.388
 20
246.307
 30
0
 11
323.338
 21
246.307
 31
0
  0
LINE
  5
AA4
330
A02
100
AcDbEntity
  8
View
100
AcDbLine
 10
300.388
 20
248.307
 30
0
 11
304.388
 21
248.307
 31
0
  0
LINE
  5
AA5
330
A02
100
AcDbEntity
  8
View
100
AcDbLine
 10
324.388
 20
246.307
 30
0
 11
324.388
 21
248.307
 31
0
  0
LINE
  5
AA6
330
A02
100
AcDbEntity
  8
View
100
AcDbLine
 10
300.388
 20
246.307
 30
0
 11
300.388
 21
248.307
 31
0
  0
LINE
  5
AA7
330
A02
100
AcDbEntity
  8
View
100
AcDbLine
 10
324.388
 20
248.307
 30
0
 11
328.388
 21
248.307
 31
0
  0
LINE
  5
AA8
330
A02
100
AcDbEntity
  8
View
100
AcDbLine
 10
300.388
 20
246.307
 30
0
 11
299.338
 21
246.307
 31
0
  0
LINE
  5
AA9
330
A02
100
AcDbEntity
  8
View
100
AcDbLine
 10
328.388
 20
248.307
 30
0
 11
328.388
 21
246.307
 31
0
  0
LINE
  5
AAA
330
A02
100
AcDbEntity
  8
View
100
AcDbLine
 10
299.338
 20
246.307
 30
0
 11
299.338
 21
233.707
 31
0
  0
LINE
  5
AAB
330
A02
100
AcDbEntity
  8
View
100
AcDbLine
 10
329.438
 20
246.307
 30
0
 11
328.388
 21
246.307
 31
0
  0
LINE
  5
AAC
330
A02
100
AcDbEntity
  8
View
100
AcDbLine
 10
299.338
 20
233.707
 30
0
 11
305.438
 21
233.707
 31
0
  0
LINE
  5
AAD
330
A02
100
AcDbEntity
  8
View
100
AcDbLine
 10
329.438
 20
233.707
 30
0
 11
329.438
 21
246.307
 31
0
  0
LINE
  5
AAE
330
A02
100
AcDbEntity
  8
View
100
AcDbLine
 10
305.438
 20
233.707
 30
0
 11
305.438
 21
237.097
 31
0
  0
LINE
  5
AAF
330
A02
100
AcDbEntity
  8
View
100
AcDbLine
 10
323.338
 20
233.707
 30
0
 11
329.438
 21
233.707
 31
0
  0
LINE
  5
AB0
330
A02
100
AcDbEntity
  8
View
100
AcDbLine
 10
305.438
 20
237.097
 30
0
 11
307.388
 21
237.097
 31
0
  0
LINE
  5
AB1
330
A02
100
AcDbEntity
  8
View
100
AcDbLine
 10
323.338
 20
237.097
 30
0
 11
323.338
 21
233.707
 31
0
  0
LINE
  5
AB2
330
A02
100
AcDbEntity
  8
View
100
AcDbLine
 10
307.388
 20
237.097
 30
0
 11
307.388
 21
232.387
 31
0
  0
LINE
  5
AB3
330
A02
100
AcDbEntity
  8
View
100
AcDbLine
 10
321.388
 20
237.097
 30
0
 11
323.338
 21
237.097
 31
0
  0
LINE
  5
AB4
330
A02
100
AcDbEntity
  8
View
100
AcDbLine
 10
307.388
 20
232.387
 30
0
 11
321.388
 21
232.387
 31
0
  0
LINE
  5
AB5
330
A02
100
AcDbEntity
  8
View
100
AcDbLine
 10
321.388
 20
232.387
 30
0
 11
321.388
 21
237.097
 31
0
  0
LINE
  5
AB6
330
A02
100
AcDbEntity
  8
View
100
AcDbLine
 10
278.813
 20
246.387
 30
0
 11
278.813
 21
232.387
 31
0
  0
LINE
  5
AB7
330
A02
100
AcDbEntity
  8
View
100
AcDbLine
 10
292.813
 20
246.387
 30
0
 11
278.813
 21
246.387
 31
0
  0
LINE
  5
AB8
330
A02
100
AcDbEntity
  8
View
100
AcDbLine
 10
278.813
 20
232.387
 30
0
 11
292.813
 21
232.387
 31
0
  0
LINE
  5
AB9
330
A02
100
AcDbEntity
  8
View
100
AcDbLine
 10
292.813
 20
232.387
 30
0
 11
292.813
 21
246.387
 31
0
  0
LINE
  5
ABA
330
A02
100
AcDbEntity
  8
View
100
AcDbLine
 10
345.488
 20
270.2
 30
0
 11
345.488
 21
256.2
 31
0
  0
LINE
  5
ABB
330
A02
100
AcDbEntity
  8
View
100
AcDbLine
 10
359.488
 20
270.2
 30
0
 11
345.488
 21
270.2
 31
0
  0
LINE
  5
ABC
330
A02
100
AcDbEntity
  8
View
100
AcDbLine
 10
345.488
 20
256.2
 30
0
 11
359.488
 21
256.2
 31
0
  0
LINE
  5
ABD
330
A02
100
AcDbEntity
  8
View
100
AcDbLine
 10
359.488
 20
256.2
 30
0
 11
359.488
 21
270.2
 31
0
  0
LINE
  5
ABE
330
A02
100
AcDbEntity
  8
View
100
AcDbLine
 10
316.913
 20
270.2
 30
0
 11
316.913
 21
256.2
 31
0
  0
LINE
  5
ABF
330
A02
100
AcDbEntity
  8
View
100
AcDbLine
 10
330.913
 20
270.2
 30
0
 11
316.913
 21
270.2
 31
0
  0
LINE
  5
AC0
330
A02
100
AcDbEntity
  8
View
100
AcDbLine
 10
316.913
 20
256.2
 30
0
 11
330.913
 21
256.2
 31
0
  0
LINE
  5
AC1
330
A02
100
AcDbEntity
  8
View
100
AcDbLine
 10
330.913
 20
256.2
 30
0
 11
330.913
 21
270.2
 31
0
  0
CIRCLE
  5
AC2
330
A02
100
AcDbEntity
  8
View
100
AcDbCircle
 10
363.756
 20
289.643
 40
1.7
  0
LINE
  5
AC3
330
A02
100
AcDbEntity
  8
View
100
AcDbLine
 10
293.101
 20
270.2
 30
0
 11
293.101
 21
256.2
 31
0
  0
LINE
  5
AC4
330
A02
100
AcDbEntity
  8
View
100
AcDbLine
 10
307.101
 20
270.2
 30
0
 11
293.101
 21
270.2
 31
0
  0
LINE
  5
AC5
330
A02
100
AcDbEntity
  8
View
100
AcDbLine
 10
293.101
 20
256.2
 30
0
 11
307.101
 21
256.2
 31
0
  0
LINE
  5
AC6
330
A02
100
AcDbEntity
  8
View
100
AcDbLine
 10
307.101
 20
256.2
 30
0
 11
307.101
 21
270.2
 31
0
  0
LINE
  5
AC7
330
A02
100
AcDbEntity
  8
View
100
AcDbLine
 10
274.051
 20
270.2
 30
0
 11
274.051
 21
256.2
 31
0
  0
LINE
  5
AC8
330
A02
100
AcDbEntity
  8
View
100
AcDbLine
 10
288.051
 20
270.2
 30
0
 11
274.051
 21
270.2
 31
0
  0
LINE
  5
AC9
330
A02
100
AcDbEntity
  8
View
100
AcDbLine
 10
274.051
 20
256.2
 30
0
 11
288.051
 21
256.2
 31
0
  0
LINE
  5
ACA
330
A02
100
AcDbEntity
  8
View
100
AcDbLine
 10
288.051
 20
256.2
 30
0
 11
288.051
 21
270.2
 31
0
  0
CIRCLE
  5
ACB
330
A02
100
AcDbEntity
  8
View
100
AcDbCircle
 10
277.157
 20
291.4
 40
1.7
  0
LINE
  5
ACC
330
A02
100
AcDbEntity
  8
View
100
AcDbLine
 10
250.238
 20
227.337
 30
0
 11
250.238
 21
213.337
 31
0
  0
LINE
  5
ACD
330
A02
100
AcDbEntity
  8
View
100
AcDbLine
 10
264.238
 20
227.337
 30
0
 11
250.238
 21
227.337
 31
0
  0
LINE
  5
ACE
330
A02
100
AcDbEntity
  8
View
100
AcDbLine
 10
250.238
 20
213.337
 30
0
 11
264.238
 21
213.337
 31
0
  0
LINE
  5
ACF
330
A02
100
AcDbEntity
  8
View
100
AcDbLine
 10
264.238
 20
213.337
 30
0
 11
264.238
 21
227.337
 31
0
  0
LINE
  5
AD0
330
A02
100
AcDbEntity
  8
View
100
AcDbLine
 10
231.188
 20
227.337
 30
0
 11
231.188
 21
213.337
 31
0
  0
LINE
  5
AD1
330
A02
100
AcDbEntity
  8
View
100
AcDbLine
 10
245.188
 20
227.337
 30
0
 11
231.188
 21
227.337
 31
0
  0
LINE
  5
AD2
330
A02
100
AcDbEntity
  8
View
100
AcDbLine
 10
231.188
 20
213.337
 30
0
 11
245.188
 21
213.337
 31
0
  0
LINE
  5
AD3
330
A02
100
AcDbEntity
  8
View
100
AcDbLine
 10
245.188
 20
213.337
 30
0
 11
245.188
 21
227.337
 31
0
  0
LINE
  5
AD4
330
A02
100
AcDbEntity
  8
View
100
AcDbLine
 10
259.763
 20
246.387
 30
0
 11
259.763
 21
232.387
 31
0
  0
LINE
  5
AD5
330
A02
100
AcDbEntity
  8
View
100
AcDbLine
 10
273.763
 20
246.387
 30
0
 11
259.763
 21
246.387
 31
0
  0
LINE
  5
AD6
330
A02
100
AcDbEntity
  8
View
100
AcDbLine
 10
259.763
 20
232.387
 30
0
 11
273.763
 21
232.387
 31
0
  0
LINE
  5
AD7
330
A02
100
AcDbEntity
  8
View
100
AcDbLine
 10
273.763
 20
232.387
 30
0
 11
273.763
 21
246.387
 31
0
  0
LINE
  5
AD8
330
A02
100
AcDbEntity
  8
View
100
AcDbLine
 10
240.713
 20
246.387
 30
0
 11
240.713
 21
232.387
 31
0
  0
LINE
  5
AD9
330
A02
100
AcDbEntity
  8
View
100
AcDbLine
 10
254.713
 20
246.387
 30
0
 11
240.713
 21
246.387
 31
0
  0
LINE
  5
ADA
330
A02
100
AcDbEntity
  8
View
100
AcDbLine
 10
240.713
 20
232.387
 30
0
 11
254.713
 21
232.387
 31
0
  0
LINE
  5
ADB
330
A02
100
AcDbEntity
  8
View
100
AcDbLine
 10
254.713
 20
232.387
 30
0
 11
254.713
 21
246.387
 31
0
  0
LINE
  5
ADC
330
A02
100
AcDbEntity
  8
View
100
AcDbLine
 10
212.138
 20
227.337
 30
0
 11
212.138
 21
213.337
 31
0
  0
LINE
  5
ADD
330
A02
100
AcDbEntity
  8
View
100
AcDbLine
 10
226.138
 20
227.337
 30
0
 11
212.138
 21
227.337
 31
0
  0
LINE
  5
ADE
330
A02
100
AcDbEntity
  8
View
100
AcDbLine
 10
212.138
 20
213.337
 30
0
 11
226.138
 21
213.337
 31
0
  0
LINE
  5
ADF
330
A02
100
AcDbEntity
  8
View
100
AcDbLine
 10
226.138
 20
213.337
 30
0
 11
226.138
 21
227.337
 31
0
  0
LINE
  5
AE0
330
A02
100
AcDbEntity
  8
View
100
AcDbLine
 10
193.088
 20
227.337
 30
0
 11
193.088
 21
213.337
 31
0
  0
LINE
  5
AE1
330
A02
100
AcDbEntity
  8
View
100
AcDbLine
 10
207.088
 20
227.337
 30
0
 11
193.088
 21
227.337
 31
0
  0
LINE
  5
AE2
330
A02
100
AcDbEntity
  8
View
100
AcDbLine
 10
193.088
 20
213.337
 30
0
 11
207.088
 21
213.337
 31
0
  0
LINE
  5
AE3
330
A02
100
AcDbEntity
  8
View
100
AcDbLine
 10
207.088
 20
213.337
 30
0
 11
207.088
 21
227.337
 31
0
  0
LINE
  5
AE4
330
A02
100
AcDbEntity
  8
View
100
AcDbLine
 10
221.663
 20
246.387
 30
0
 11
221.663
 21
232.387
 31
0
  0
LINE
  5
AE5
330
A02
100
AcDbEntity
  8
View
100
AcDbLine
 10
235.663
 20
246.387
 30
0
 11
221.663
 21
246.387
 31
0
  0
LINE
  5
AE6
330
A02
100
AcDbEntity
  8
View
100
AcDbLine
 10
221.663
 20
232.387
 30
0
 11
235.663
 21
232.387
 31
0
  0
LINE
  5
AE7
330
A02
100
AcDbEntity
  8
View
100
AcDbLine
 10
235.663
 20
232.387
 30
0
 11
235.663
 21
246.387
 31
0
  0
LINE
  5
AE8
330
A02
100
AcDbEntity
  8
View
100
AcDbLine
 10
202.613
 20
246.387
 30
0
 11
202.613
 21
232.387
 31
0
  0
LINE
  5
AE9
330
A02
100
AcDbEntity
  8
View
100
AcDbLine
 10
216.613
 20
246.387
 30
0
 11
202.613
 21
246.387
 31
0
  0
LINE
  5
AEA
330
A02
100
AcDbEntity
  8
View
100
AcDbLine
 10
202.613
 20
232.387
 30
0
 11
216.613
 21
232.387
 31
0
  0
LINE
  5
AEB
330
A02
100
AcDbEntity
  8
View
100
AcDbLine
 10
216.613
 20
232.387
 30
0
 11
216.613
 21
246.387
 31
0
  0
LINE
  5
AEC
330
A02
100
AcDbEntity
  8
View
100
AcDbLine
 10
183.563
 20
246.387
 30
0
 11
183.563
 21
232.387
 31
0
  0
LINE
  5
AED
330
A02
100
AcDbEntity
  8
View
100
AcDbLine
 10
197.563
 20
246.387
 30
0
 11
183.563
 21
246.387
 31
0
  0
LINE
  5
AEE
330
A02
100
AcDbEntity
  8
View
100
AcDbLine
 10
183.563
 20
232.387
 30
0
 11
197.563
 21
232.387
 31
0
  0
LINE
  5
AEF
330
A02
100
AcDbEntity
  8
View
100
AcDbLine
 10
197.563
 20
232.387
 30
0
 11
197.563
 21
246.387
 31
0
  0
LINE
  5
AF0
330
A02
100
AcDbEntity
  8
View
100
AcDbLine
 10
255.001
 20
270.2
 30
0
 11
255.001
 21
256.2
 31
0
  0
LINE
  5
AF1
330
A02
100
AcDbEntity
  8
View
100
AcDbLine
 10
269.001
 20
270.2
 30
0
 11
255.001
 21
270.2
 31
0
  0
LINE
  5
AF2
330
A02
100
AcDbEntity
  8
View
100
AcDbLine
 10
255.001
 20
256.2
 30
0
 11
269.001
 21
256.2
 31
0
  0
LINE
  5
AF3
330
A02
100
AcDbEntity
  8
View
100
AcDbLine
 10
269.001
 20
256.2
 30
0
 11
269.001
 21
270.2
 31
0
  0
LINE
  5
AF4
330
A02
100
AcDbEntity
  8
View
100
AcDbLine
 10
235.951
 20
270.2
 30
0
 11
235.951
 21
256.2
 31
0
  0
LINE
  5
AF5
330
A02
100
AcDbEntity
  8
View
100
AcDbLine
 10
249.951
 20
270.2
 30
0
 11
235.951
 21
270.2
 31
0
  0
LINE
  5
AF6
330
A02
100
AcDbEntity
  8
View
100
AcDbLine
 10
235.951
 20
256.2
 30
0
 11
249.951
 21
256.2
 31
0
  0
LINE
  5
AF7
330
A02
100
AcDbEntity
  8
View
100
AcDbLine
 10
249.951
 20
256.2
 30
0
 11
249.951
 21
270.2
 31
0
  0
LINE
  5
AF8
330
A02
100
AcDbEntity
  8
View
100
AcDbLine
 10
212.138
 20
270.2
 30
0
 11
212.138
 21
256.2
 31
0
  0
LINE
  5
AF9
330
A02
100
AcDbEntity
  8
View
100
AcDbLine
 10
226.138
 20
270.2
 30
0
 11
212.138
 21
270.2
 31
0
  0
LINE
  5
AFA
330
A02
100
AcDbEntity
  8
View
100
AcDbLine
 10
212.138
 20
256.2
 30
0
 11
226.138
 21
256.2
 31
0
  0
LINE
  5
AFB
330
A02
100
AcDbEntity
  8
View
100
AcDbLine
 10
226.138
 20
256.2
 30
0
 11
226.138
 21
270.2
 31
0
  0
LINE
  5
AFC
330
A02
100
AcDbEntity
  8
View
100
AcDbLine
 10
193.088
 20
270.2
 30
0
 11
193.088
 21
256.2
 31
0
  0
LINE
  5
AFD
330
A02
100
AcDbEntity
  8
View
100
AcDbLine
 10
207.088
 20
270.2
 30
0
 11
193.088
 21
270.2
 31
0
  0
LINE
  5
AFE
330
A02
100
AcDbEntity
  8
View
100
AcDbLine
 10
193.088
 20
256.2
 30
0
 11
207.088
 21
256.2
 31
0
  0
LINE
  5
AFF
330
A02
100
AcDbEntity
  8
View
100
AcDbLine
 10
207.088
 20
256.2
 30
0
 11
207.088
 21
270.2
 31
0
  0
CIRCLE
  5
B00
330
A02
100
AcDbEntity
  8
View
100
AcDbCircle
 10
185.801
 20
145.4
 40
1.7
  0
LINE
  5
B01
330
A02
100
AcDbEntity
  8
View
100
AcDbLine
 10
171.657
 20
170.187
 30
0
 11
171.657
 21
164.097
 31
0
  0
LINE
  5
B02
330
A02
100
AcDbEntity
  8
View
100
AcDbLine
 10
185.657
 20
170.187
 30
0
 11
171.657
 21
170.187
 31
0
  0
LINE
  5
B03
330
A02
100
AcDbEntity
  8
View
100
AcDbLine
 10
131.707
 20
164.097
 30
0
 11
171.657
 21
164.097
 31
0
  0
LINE
  5
B04
330
A02
100
AcDbEntity
  8
View
100
AcDbLine
 10
185.657
 20
164.097
 30
0
 11
185.657
 21
170.187
 31
0
  0
LINE
  5
B05
330
A02
100
AcDbEntity
  8
View
100
AcDbLine
 10
131.707
 20
164.097
 30
0
 11
131.707
 21
170.107
 31
0
  0
LINE
  5
B06
330
A02
100
AcDbEntity
  8
View
100
AcDbLine
 10
185.657
 20
164.097
 30
0
 11
225.607
 21
164.097
 31
0
  0
LINE
  5
B07
330
A02
100
AcDbEntity
  8
View
100
AcDbLine
 10
131.707
 20
170.107
 30
0
 11
130.657
 21
170.107
 31
0
  0
LINE
  5
B08
330
A02
100
AcDbEntity
  8
View
100
AcDbLine
 10
225.607
 20
170.107
 30
0
 11
225.607
 21
164.097
 31
0
  0
LINE
  5
B09
330
A02
100
AcDbEntity
  8
View
100
AcDbLine
 10
130.657
 20
170.107
 30
0
 11
130.657
 21
172.107
 31
0
  0
LINE
  5
B0A
330
A02
100
AcDbEntity
  8
View
100
AcDbLine
 10
226.657
 20
170.107
 30
0
 11
225.607
 21
170.107
 31
0
  0
LINE
  5
B0B
330
A02
100
AcDbEntity
  8
View
100
AcDbLine
 10
130.657
 20
172.107
 30
0
 11
126.657
 21
172.107
 31
0
  0
LINE
  5
B0C
330
A02
100
AcDbEntity
  8
View
100
AcDbLine
 10
226.657
 20
170.107
 30
0
 11
226.657
 21
172.107
 31
0
  0
LINE
  5
B0D
330
A02
100
AcDbEntity
  8
View
100
AcDbLine
 10
126.657
 20
172.107
 30
0
 11
126.657
 21
170.107
 31
0
  0
LINE
  5
B0E
330
A02
100
AcDbEntity
  8
View
100
AcDbLine
 10
226.657
 20
172.107
 30
0
 11
230.657
 21
172.107
 31
0
  0
LINE
  5
B0F
330
A02
100
AcDbEntity
  8
View
100
AcDbLine
 10
126.657
 20
170.107
 30
0
 11
125.607
 21
170.107
 31
0
  0
LINE
  5
B10
330
A02
100
AcDbEntity
  8
View
100
AcDbLine
 10
230.657
 20
172.107
 30
0
 11
230.657
 21
170.107
 31
0
  0
LINE
  5
B11
330
A02
100
AcDbEntity
  8
View
100
AcDbLine
 10
125.607
 20
170.107
 30
0
 11
125.607
 21
157.507
 31
0
  0
LINE
  5
B12
330
A02
100
AcDbEntity
  8
View
100
AcDbLine
 10
231.707
 20
170.107
 30
0
 11
230.657
 21
170.107
 31
0
  0
LINE
  5
B13
330
A02
100
AcDbEntity
  8
View
100
AcDbLine
 10
125.607
 20
157.507
 30
0
 11
131.707
 21
157.507
 31
0
  0
LINE
  5
B14
330
A02
100
AcDbEntity
  8
View
100
AcDbLine
 10
231.707
 20
157.507
 30
0
 11
231.707
 21
170.107
 31
0
  0
LINE
  5
B15
330
A02
100
AcDbEntity
  8
View
100
AcDbLine
 10
131.707
 20
157.507
 30
0
 11
131.707
 21
160.897
 31
0
  0
LINE
  5
B16
330
A02
100
AcDbEntity
  8
View
100
AcDbLine
 10
225.607
 20
157.507
 30
0
 11
231.707
 21
157.507
 31
0
  0
LINE
  5
B17
330
A02
100
AcDbEntity
  8
View
100
AcDbLine
 10
171.657
 20
160.897
 30
0
 11
131.707
 21
160.897
 31
0
  0
LINE
  5
B18
330
A02
100
AcDbEntity
  8
View
100
AcDbLine
 10
225.607
 20
160.897
 30
0
 11
225.607
 21
157.507
 31
0
  0
LINE
  5
B19
330
A02
100
AcDbEntity
  8
View
100
AcDbLine
 10
171.657
 20
160.897
 30
0
 11
171.657
 21
156.187
 31
0
  0
LINE
  5
B1A
330
A02
100
AcDbEntity
  8
View
100
AcDbLine
 10
225.607
 20
160.897
 30
0
 11
185.657
 21
160.897
 31
0
  0
LINE
  5
B1B
330
A02
100
AcDbEntity
  8
View
100
AcDbLine
 10
171.657
 20
156.187
 30
0
 11
185.657
 21
156.187
 31
0
  0
LINE
  5
B1C
330
A02
100
AcDbEntity
  8
View
100
AcDbLine
 10
185.657
 20
156.187
 30
0
 11
185.657
 21
160.897
 31
0
  0
LINE
  5
B1D
330
A02
100
AcDbEntity
  8
View
100
AcDbLine
 10
100.219
 20
170.187
 30
0
 11
100.219
 21
156.187
 31
0
  0
LINE
  5
B1E
330
A02
100
AcDbEntity
  8
View
100
AcDbLine
 10
114.219
 20
170.187
 30
0
 11
100.219
 21
170.187
 31
0
  0
LINE
  5
B1F
330
A02
100
AcDbEntity
  8
View
100
AcDbLine
 10
100.219
 20
156.187
 30
0
 11
114.219
 21
156.187
 31
0
  0
LINE
  5
B20
330
A02
100
AcDbEntity
  8
View
100
AcDbLine
 10
114.219
 20
156.187
 30
0
 11
114.219
 21
170.187
 31
0
  0
LINE
  5
B21
330
A02
100
AcDbEntity
  8
View
100
AcDbLine
 10
169.276
 20
189.237
 30
0
 11
169.276
 21
175.237
 31
0
  0
LINE
  5
B22
330
A02
100
AcDbEntity
  8
View
100
AcDbLine
 10
183.276
 20
189.237
 30
0
 11
169.276
 21
189.237
 31
0
  0
LINE
  5
B23
330
A02
100
AcDbEntity
  8
View
100
AcDbLine
 10
169.276
 20
175.237
 30
0
 11
183.276
 21
175.237
 31
0
  0
LINE
  5
B24
330
A02
100
AcDbEntity
  8
View
100
AcDbLine
 10
183.276
 20
175.237
 30
0
 11
183.276
 21
189.237
 31
0
  0
LINE
  5
B25
330
A02
100
AcDbEntity
  8
View
100
AcDbLine
 10
150.226
 20
189.237
 30
0
 11
150.226
 21
175.237
 31
0
  0
LINE
  5
B26
330
A02
100
AcDbEntity
  8
View
100
AcDbLine
 10
164.226
 20
189.237
 30
0
 11
150.226
 21
189.237
 31
0
  0
LINE
  5
B27
330
A02
100
AcDbEntity
  8
View
100
AcDbLine
 10
150.226
 20
175.237
 30
0
 11
164.226
 21
175.237
 31
0
  0
LINE
  5
B28
330
A02
100
AcDbEntity
  8
View
100
AcDbLine
 10
164.226
 20
175.237
 30
0
 11
164.226
 21
189.237
 31
0
  0
LINE
  5
B29
330
A02
100
AcDbEntity
  8
View
100
AcDbLine
 10
178.801
 20
208.287
 30
0
 11
178.801
 21
194.287
 31
0
  0
LINE
  5
B2A
330
A02
100
AcDbEntity
  8
View
100
AcDbLine
 10
192.801
 20
208.287
 30
0
 11
178.801
 21
208.287
 31
0
  0
LINE
  5
B2B
330
A02
100
AcDbEntity
  8
View
100
AcDbLine
 10
178.801
 20
194.287
 30
0
 11
192.801
 21
194.287
 31
0
  0
LINE
  5
B2C
330
A02
100
AcDbEntity
  8
View
100
AcDbLine
 10
192.801
 20
194.287
 30
0
 11
192.801
 21
208.287
 31
0
  0
LINE
  5
B2D
330
A02
100
AcDbEntity
  8
View
100
AcDbLine
 10
159.751
 20
208.287
 30
0
 11
159.751
 21
194.287
 31
0
  0
LINE
  5
B2E
330
A02
100
AcDbEntity
  8
View
100
AcDbLine
 10
173.751
 20
208.287
 30
0
 11
159.751
 21
208.287
 31
0
  0
LINE
  5
B2F
330
A02
100
AcDbEntity
  8
View
100
AcDbLine
 10
159.751
 20
194.287
 30
0
 11
173.751
 21
194.287
 31
0
  0
LINE
  5
B30
330
A02
100
AcDbEntity
  8
View
100
AcDbLine
 10
173.751
 20
194.287
 30
0
 11
173.751
 21
208.287
 31
0
  0
LINE
  5
B31
330
A02
100
AcDbEntity
  8
View
100
AcDbLine
 10
140.701
 20
208.287
 30
0
 11
140.701
 21
194.287
 31
0
  0
LINE
  5
B32
330
A02
100
AcDbEntity
  8
View
100
AcDbLine
 10
154.701
 20
208.287
 30
0
 11
140.701
 21
208.287
 31
0
  0
LINE
  5
B33
330
A02
100
AcDbEntity
  8
View
100
AcDbLine
 10
140.701
 20
194.287
 30
0
 11
154.701
 21
194.287
 31
0
  0
LINE
  5
B34
330
A02
100
AcDbEntity
  8
View
100
AcDbLine
 10
154.701
 20
194.287
 30
0
 11
154.701
 21
208.287
 31
0
  0
LINE
  5
B35
330
A02
100
AcDbEntity
  8
View
100
AcDbLine
 10
131.176
 20
189.237
 30
0
 11
131.176
 21
175.237
 31
0
  0
LINE
  5
B36
330
A02
100
AcDbEntity
  8
View
100
AcDbLine
 10
145.176
 20
189.237
 30
0
 11
131.176
 21
189.237
 31
0
  0
LINE
  5
B37
330
A02
100
AcDbEntity
  8
View
100
AcDbLine
 10
131.176
 20
175.237
 30
0
 11
145.176
 21
175.237
 31
0
  0
LINE
  5
B38
330
A02
100
AcDbEntity
  8
View
100
AcDbLine
 10
145.176
 20
175.237
 30
0
 11
145.176
 21
189.237
 31
0
  0
LINE
  5
B39
330
A02
100
AcDbEntity
  8
View
100
AcDbLine
 10
112.126
 20
189.237
 30
0
 11
112.126
 21
175.237
 31
0
  0
LINE
  5
B3A
330
A02
100
AcDbEntity
  8
View
100
AcDbLine
 10
126.126
 20
189.237
 30
0
 11
112.126
 21
189.237
 31
0
  0
LINE
  5
B3B
330
A02
100
AcDbEntity
  8
View
100
AcDbLine
 10
112.126
 20
175.237
 30
0
 11
126.126
 21
175.237
 31
0
  0
LINE
  5
B3C
330
A02
100
AcDbEntity
  8
View
100
AcDbLine
 10
126.126
 20
175.237
 30
0
 11
126.126
 21
189.237
 31
0
  0
LINE
  5
B3D
330
A02
100
AcDbEntity
  8
View
100
AcDbLine
 10
93.0756
 20
189.237
 30
0
 11
93.0756
 21
175.237
 31
0
  0
LINE
  5
B3E
330
A02
100
AcDbEntity
  8
View
100
AcDbLine
 10
107.076
 20
189.237
 30
0
 11
93.0756
 21
189.237
 31
0
  0
LINE
  5
B3F
330
A02
100
AcDbEntity
  8
View
100
AcDbLine
 10
93.0756
 20
175.237
 30
0
 11
107.076
 21
175.237
 31
0
  0
LINE
  5
B40
330
A02
100
AcDbEntity
  8
View
100
AcDbLine
 10
107.076
 20
175.237
 30
0
 11
107.076
 21
189.237
 31
0
  0
LINE
  5
B41
330
A02
100
AcDbEntity
  8
View
100
AcDbLine
 10
121.651
 20
208.287
 30
0
 11
121.651
 21
194.287
 31
0
  0
LINE
  5
B42
330
A02
100
AcDbEntity
  8
View
100
AcDbLine
 10
135.651
 20
208.287
 30
0
 11
121.651
 21
208.287
 31
0
  0
LINE
  5
B43
330
A02
100
AcDbEntity
  8
View
100
AcDbLine
 10
121.651
 20
194.287
 30
0
 11
135.651
 21
194.287
 31
0
  0
LINE
  5
B44
330
A02
100
AcDbEntity
  8
View
100
AcDbLine
 10
135.651
 20
194.287
 30
0
 11
135.651
 21
208.287
 31
0
  0
LINE
  5
B45
330
A02
100
AcDbEntity
  8
View
100
AcDbLine
 10
102.601
 20
208.287
 30
0
 11
102.601
 21
194.287
 31
0
  0
LINE
  5
B46
330
A02
100
AcDbEntity
  8
View
100
AcDbLine
 10
116.601
 20
208.287
 30
0
 11
102.601
 21
208.287
 31
0
  0
LINE
  5
B47
330
A02
100
AcDbEntity
  8
View
100
AcDbLine
 10
102.601
 20
194.287
 30
0
 11
116.601
 21
194.287
 31
0
  0
LINE
  5
B48
330
A02
100
AcDbEntity
  8
View
100
AcDbLine
 10
116.601
 20
194.287
 30
0
 11
116.601
 21
208.287
 31
0
  0
CIRCLE
  5
B49
330
A02
100
AcDbEntity
  8
View
100
AcDbCircle
 10
94.4444
 20
145.4
 40
1.7
  0
LINE
  5
B4A
330
A02
100
AcDbEntity
  8
View
100
AcDbLine
 10
76.4069
 20
170.187
 30
0
 11
76.4069
 21
156.187
 31
0
  0
LINE
  5
B4B
330
A02
100
AcDbEntity
  8
View
100
AcDbLine
 10
90.4069
 20
170.187
 30
0
 11
76.4069
 21
170.187
 31
0
  0
LINE
  5
B4C
330
A02
100
AcDbEntity
  8
View
100
AcDbLine
 10
76.4069
 20
156.187
 30
0
 11
90.4069
 21
156.187
 31
0
  0
LINE
  5
B4D
330
A02
100
AcDbEntity
  8
View
100
AcDbLine
 10
90.4069
 20
156.187
 30
0
 11
90.4069
 21
170.187
 31
0
  0
LINE
  5
B4E
330
A02
100
AcDbEntity
  8
View
100
AcDbLine
 10
52.5944
 20
170.187
 30
0
 11
52.5944
 21
156.187
 31
0
  0
LINE
  5
B4F
330
A02
100
AcDbEntity
  8
View
100
AcDbLine
 10
66.5944
 20
170.187
 30
0
 11
52.5944
 21
170.187
 31
0
  0
LINE
  5
B50
330
A02
100
AcDbEntity
  8
View
100
AcDbLine
 10
52.5944
 20
156.187
 30
0
 11
66.5944
 21
156.187
 31
0
  0
LINE
  5
B51
330
A02
100
AcDbEntity
  8
View
100
AcDbLine
 10
66.5944
 20
156.187
 30
0
 11
66.5944
 21
170.187
 31
0
  0
CIRCLE
  5
B52
330
A02
100
AcDbEntity
  8
View
100
AcDbCircle
 10
6.96681
 20
146.279
 40
1.7
  0
LINE
  5
B53
330
A02
100
AcDbEntity
  8
View
100
AcDbLine
 10
34.6631
 20
166.687
 30
0
 11
34.6631
 21
159.687
 31
0
  0
LINE
  5
B54
330
A02
100
AcDbEntity
  8
View
100
AcDbLine
 10
41.6631
 20
166.687
 30
0
 11
34.6631
 21
166.687
 31
0
  0
LINE
  5
B55
330
A02
100
AcDbEntity
  8
View
100
AcDbLine
 10
34.6631
 20
159.687
 30
0
 11
41.6631
 21
159.687
 31
0
  0
LINE
  5
B56
330
A02
100
AcDbEntity
  8
View
100
AcDbLine
 10
41.6631
 20
159.687
 30
0
 11
41.6631
 21
166.687
 31
0
  0
LINE
  5
B57
330
A02
100
AcDbEntity
  8
View
100
AcDbLine
 10
15.6131
 20
166.687
 30
0
 11
15.6131
 21
159.687
 31
0
  0
LINE
  5
B58
330
A02
100
AcDbEntity
  8
View
100
AcDbLine
 10
22.6131
 20
166.687
 30
0
 11
15.6131
 21
166.687
 31
0
  0
LINE
  5
B59
330
A02
100
AcDbEntity
  8
View
100
AcDbLine
 10
15.6131
 20
159.687
 30
0
 11
22.6131
 21
159.687
 31
0
  0
LINE
  5
B5A
330
A02
100
AcDbEntity
  8
View
100
AcDbLine
 10
22.6131
 20
159.687
 30
0
 11
22.6131
 21
166.687
 31
0
  0
LINE
  5
B5B
330
A02
100
AcDbEntity
  8
View
100
AcDbLine
 10
62.1194
 20
189.237
 30
0
 11
62.1194
 21
183.147
 31
0
  0
LINE
  5
B5C
330
A02
100
AcDbEntity
  8
View
100
AcDbLine
 10
76.1194
 20
189.237
 30
0
 11
62.1194
 21
189.237
 31
0
  0
LINE
  5
B5D
330
A02
100
AcDbEntity
  8
View
100
AcDbLine
 10
60.1694
 20
183.147
 30
0
 11
62.1194
 21
183.147
 31
0
  0
LINE
  5
B5E
330
A02
100
AcDbEntity
  8
View
100
AcDbLine
 10
76.1194
 20
183.147
 30
0
 11
76.1194
 21
189.237
 31
0
  0
LINE
  5
B5F
330
A02
100
AcDbEntity
  8
View
100
AcDbLine
 10
60.1694
 20
183.147
 30
0
 11
60.1694
 21
189.157
 31
0
  0
LINE
  5
B60
330
A02
100
AcDbEntity
  8
View
100
AcDbLine
 10
76.1194
 20
183.147
 30
0
 11
78.0694
 21
183.147
 31
0
  0
LINE
  5
B61
330
A02
100
AcDbEntity
  8
View
100
AcDbLine
 10
60.1694
 20
189.157
 30
0
 11
59.1194
 21
189.157
 31
0
  0
LINE
  5
B62
330
A02
100
AcDbEntity
  8
View
100
AcDbLine
 10
78.0694
 20
189.157
 30
0
 11
78.0694
 21
183.147
 31
0
  0
LINE
  5
B63
330
A02
100
AcDbEntity
  8
View
100
AcDbLine
 10
59.1194
 20
191.157
 30
0
 11
59.1194
 21
189.157
 31
0
  0
LINE
  5
B64
330
A02
100
AcDbEntity
  8
View
100
AcDbLine
 10
79.1194
 20
189.157
 30
0
 11
78.0694
 21
189.157
 31
0
  0
LINE
  5
B65
330
A02
100
AcDbEntity
  8
View
100
AcDbLine
 10
55.1194
 20
191.157
 30
0
 11
59.1194
 21
191.157
 31
0
  0
LINE
  5
B66
330
A02
100
AcDbEntity
  8
View
100
AcDbLine
 10
79.1194
 20
189.157
 30
0
 11
79.1194
 21
191.157
 31
0
  0
LINE
  5
B67
330
A02
100
AcDbEntity
  8
View
100
AcDbLine
 10
55.1194
 20
189.157
 30
0
 11
55.1194
 21
191.157
 31
0
  0
LINE
  5
B68
330
A02
100
AcDbEntity
  8
View
100
AcDbLine
 10
79.1194
 20
191.157
 30
0
 11
83.1194
 21
191.157
 31
0
  0
LINE
  5
B69
330
A02
100
AcDbEntity
  8
View
100
AcDbLine
 10
55.1194
 20
189.157
 30
0
 11
54.0694
 21
189.157
 31
0
  0
LINE
  5
B6A
330
A02
100
AcDbEntity
  8
View
100
AcDbLine
 10
83.1194
 20
191.157
 30
0
 11
83.1194
 21
189.157
 31
0
  0
LINE
  5
B6B
330
A02
100
AcDbEntity
  8
View
100
AcDbLine
 10
54.0694
 20
189.157
 30
0
 11
54.0694
 21
176.557
 31
0
  0
LINE
  5
B6C
330
A02
100
AcDbEntity
  8
View
100
AcDbLine
 10
84.1694
 20
189.157
 30
0
 11
83.1194
 21
189.157
 31
0
  0
LINE
  5
B6D
330
A02
100
AcDbEntity
  8
View
100
AcDbLine
 10
54.0694
 20
176.557
 30
0
 11
60.1694
 21
176.557
 31
0
  0
LINE
  5
B6E
330
A02
100
AcDbEntity
  8
View
100
AcDbLine
 10
84.1694
 20
176.557
 30
0
 11
84.1694
 21
189.157
 31
0
  0
LINE
  5
B6F
330
A02
100
AcDbEntity
  8
View
100
AcDbLine
 10
60.1694
 20
176.557
 30
0
 11
60.1694
 21
179.947
 31
0
  0
LINE
  5
B70
330
A02
100
AcDbEntity
  8
View
100
AcDbLine
 10
78.0694
 20
176.557
 30
0
 11
84.1694
 21
176.557
 31
0
  0
LINE
  5
B71
330
A02
100
AcDbEntity
  8
View
100
AcDbLine
 10
62.1194
 20
179.947
 30
0
 11
60.1694
 21
179.947
 31
0
  0
LINE
  5
B72
330
A02
100
AcDbEntity
  8
View
100
AcDbLine
 10
78.0694
 20
179.947
 30
0
 11
78.0694
 21
176.557
 31
0
  0
LINE
  5
B73
330
A02
100
AcDbEntity
  8
View
100
AcDbLine
 10
62.1194
 20
179.947
 30
0
 11
62.1194
 21
175.237
 31
0
  0
LINE
  5
B74
330
A02
100
AcDbEntity
  8
View
100
AcDbLine
 10
78.0694
 20
179.947
 30
0
 11
76.1194
 21
179.947
 31
0
  0
LINE
  5
B75
330
A02
100
AcDbEntity
  8
View
100
AcDbLine
 10
62.1194
 20
175.237
 30
0
 11
76.1194
 21
175.237
 31
0
  0
LINE
  5
B76
330
A02
100
AcDbEntity
  8
View
100
AcDbLine
 10
76.1194
 20
175.237
 30
0
 11
76.1194
 21
179.947
 31
0
  0
LINE
  5
B77
330
A02
100
AcDbEntity
  8
View
100
AcDbLine
 10
83.5506
 20
208.287
 30
0
 11
83.5506
 21
194.287
 31
0
  0
LINE
  5
B78
330
A02
100
AcDbEntity
  8
View
100
AcDbLine
 10
97.5506
 20
208.287
 30
0
 11
83.5506
 21
208.287
 31
0
  0
LINE
  5
B79
330
A02
100
AcDbEntity
  8
View
100
AcDbLine
 10
83.5506
 20
194.287
 30
0
 11
97.5506
 21
194.287
 31
0
  0
LINE
  5
B7A
330
A02
100
AcDbEntity
  8
View
100
AcDbLine
 10
97.5506
 20
194.287
 30
0
 11
97.5506
 21
208.287
 31
0
  0
LINE
  5
B7B
330
A02
100
AcDbEntity
  8
View
100
AcDbLine
 10
57.3569
 20
208.287
 30
0
 11
57.3569
 21
194.287
 31
0
  0
LINE
  5
B7C
330
A02
100
AcDbEntity
  8
View
100
AcDbLine
 10
71.3569
 20
208.287
 30
0
 11
57.3569
 21
208.287
 31
0
  0
LINE
  5
B7D
330
A02
100
AcDbEntity
  8
View
100
AcDbLine
 10
57.3569
 20
194.287
 30
0
 11
71.3569
 21
194.287
 31
0
  0
LINE
  5
B7E
330
A02
100
AcDbEntity
  8
View
100
AcDbLine
 10
71.3569
 20
194.287
 30
0
 11
71.3569
 21
208.287
 31
0
  0
LINE
  5
B7F
330
A02
100
AcDbEntity
  8
View
100
AcDbLine
 10
34.6631
 20
185.737
 30
0
 11
34.6631
 21
178.737
 31
0
  0
LINE
  5
B80
330
A02
100
AcDbEntity
  8
View
100
AcDbLine
 10
41.6631
 20
185.737
 30
0
 11
34.6631
 21
185.737
 31
0
  0
LINE
  5
B81
330
A02
100
AcDbEntity
  8
View
100
AcDbLine
 10
34.6631
 20
178.737
 30
0
 11
41.6631
 21
178.737
 31
0
  0
LINE
  5
B82
330
A02
100
AcDbEntity
  8
View
100
AcDbLine
 10
41.6631
 20
178.737
 30
0
 11
41.6631
 21
185.737
 31
0
  0
LINE
  5
B83
330
A02
100
AcDbEntity
  8
View
100
AcDbLine
 10
15.6131
 20
185.737
 30
0
 11
15.6131
 21
178.737
 31
0
  0
LINE
  5
B84
330
A02
100
AcDbEntity
  8
View
100
AcDbLine
 10
22.6131
 20
185.737
 30
0
 11
15.6131
 21
185.737
 31
0
  0
LINE
  5
B85
330
A02
100
AcDbEntity
  8
View
100
AcDbLine
 10
15.6131
 20
178.737
 30
0
 11
22.6131
 21
178.737
 31
0
  0
LINE
  5
B86
330
A02
100
AcDbEntity
  8
View
100
AcDbLine
 10
22.6131
 20
178.737
 30
0
 11
22.6131
 21
185.737
 31
0
  0
LINE
  5
B87
330
A02
100
AcDbEntity
  8
View
100
AcDbLine
 10
174.038
 20
227.337
 30
0
 11
174.038
 21
213.337
 31
0
  0
LINE
  5
B88
330
A02
100
AcDbEntity
  8
View
100
AcDbLine
 10
188.038
 20
227.337
 30
0
 11
174.038
 21
227.337
 31
0
  0
LINE
  5
B89
330
A02
100
AcDbEntity
  8
View
100
AcDbLine
 10
174.038
 20
213.337
 30
0
 11
188.038
 21
213.337
 31
0
  0
LINE
  5
B8A
330
A02
100
AcDbEntity
  8
View
100
AcDbLine
 10
188.038
 20
213.337
 30
0
 11
188.038
 21
227.337
 31
0
  0
LINE
  5
B8B
330
A02
100
AcDbEntity
  8
View
100
AcDbLine
 10
154.988
 20
227.337
 30
0
 11
154.988
 21
213.337
 31
0
  0
LINE
  5
B8C
330
A02
100
AcDbEntity
  8
View
100
AcDbLine
 10
168.988
 20
227.337
 30
0
 11
154.988
 21
227.337
 31
0
  0
LINE
  5
B8D
330
A02
100
AcDbEntity
  8
View
100
AcDbLine
 10
154.988
 20
213.337
 30
0
 11
168.988
 21
213.337
 31
0
  0
LINE
  5
B8E
330
A02
100
AcDbEntity
  8
View
100
AcDbLine
 10
168.988
 20
213.337
 30
0
 11
168.988
 21
227.337
 31
0
  0
LINE
  5
B8F
330
A02
100
AcDbEntity
  8
View
100
AcDbLine
 10
135.938
 20
227.337
 30
0
 11
135.938
 21
213.337
 31
0
  0
LINE
  5
B90
330
A02
100
AcDbEntity
  8
View
100
AcDbLine
 10
149.938
 20
227.337
 30
0
 11
135.938
 21
227.337
 31
0
  0
LINE
  5
B91
330
A02
100
AcDbEntity
  8
View
100
AcDbLine
 10
135.938
 20
213.337
 30
0
 11
149.938
 21
213.337
 31
0
  0
LINE
  5
B92
330
A02
100
AcDbEntity
  8
View
100
AcDbLine
 10
149.938
 20
213.337
 30
0
 11
149.938
 21
227.337
 31
0
  0
LINE
  5
B93
330
A02
100
AcDbEntity
  8
View
100
AcDbLine
 10
164.513
 20
246.387
 30
0
 11
164.513
 21
232.387
 31
0
  0
LINE
  5
B94
330
A02
100
AcDbEntity
  8
View
100
AcDbLine
 10
178.513
 20
246.387
 30
0
 11
164.513
 21
246.387
 31
0
  0
LINE
  5
B95
330
A02
100
AcDbEntity
  8
View
100
AcDbLine
 10
164.513
 20
232.387
 30
0
 11
178.513
 21
232.387
 31
0
  0
LINE
  5
B96
330
A02
100
AcDbEntity
  8
View
100
AcDbLine
 10
178.513
 20
232.387
 30
0
 11
178.513
 21
246.387
 31
0
  0
LINE
  5
B97
330
A02
100
AcDbEntity
  8
View
100
AcDbLine
 10
145.463
 20
246.387
 30
0
 11
145.463
 21
232.387
 31
0
  0
LINE
  5
B98
330
A02
100
AcDbEntity
  8
View
100
AcDbLine
 10
159.463
 20
246.387
 30
0
 11
145.463
 21
246.387
 31
0
  0
LINE
  5
B99
330
A02
100
AcDbEntity
  8
View
100
AcDbLine
 10
145.463
 20
232.387
 30
0
 11
159.463
 21
232.387
 31
0
  0
LINE
  5
B9A
330
A02
100
AcDbEntity
  8
View
100
AcDbLine
 10
159.463
 20
232.387
 30
0
 11
159.463
 21
246.387
 31
0
  0
LINE
  5
B9B
330
A02
100
AcDbEntity
  8
View
100
AcDbLine
 10
116.888
 20
227.337
 30
0
 11
116.888
 21
213.337
 31
0
  0
LINE
  5
B9C
330
A02
100
AcDbEntity
  8
View
100
AcDbLine
 10
130.888
 20
227.337
 30
0
 11
116.888
 21
227.337
 31
0
  0
LINE
  5
B9D
330
A02
100
AcDbEntity
  8
View
100
AcDbLine
 10
116.888
 20
213.337
 30
0
 11
130.888
 21
213.337
 31
0
  0
LINE
  5
B9E
330
A02
100
AcDbEntity
  8
View
100
AcDbLine
 10
130.888
 20
213.337
 30
0
 11
130.888
 21
227.337
 31
0
  0
LINE
  5
B9F
330
A02
100
AcDbEntity
  8
View
100
AcDbLine
 10
97.8381
 20
227.337
 30
0
 11
97.8381
 21
213.337
 31
0
  0
LINE
  5
BA0
330
A02
100
AcDbEntity
  8
View
100
AcDbLine
 10
111.838
 20
227.337
 30
0
 11
97.8381
 21
227.337
 31
0
  0
LINE
  5
BA1
330
A02
100
AcDbEntity
  8
View
100
AcDbLine
 10
97.8381
 20
213.337
 30
0
 11
111.838
 21
213.337
 31
0
  0
LINE
  5
BA2
330
A02
100
AcDbEntity
  8
View
100
AcDbLine
 10
111.838
 20
213.337
 30
0
 11
111.838
 21
227.337
 31
0
  0
LINE
  5
BA3
330
A02
100
AcDbEntity
  8
View
100
AcDbLine
 10
126.413
 20
246.387
 30
0
 11
126.413
 21
232.387
 31
0
  0
LINE
  5
BA4
330
A02
100
AcDbEntity
  8
View
100
AcDbLine
 10
140.413
 20
246.387
 30
0
 11
126.413
 21
246.387
 31
0
  0
LINE
  5
BA5
330
A02
100
AcDbEntity
  8
View
100
AcDbLine
 10
126.413
 20
232.387
 30
0
 11
140.413
 21
232.387
 31
0
  0
LINE
  5
BA6
330
A02
100
AcDbEntity
  8
View
100
AcDbLine
 10
140.413
 20
232.387
 30
0
 11
140.413
 21
246.387
 31
0
  0
LINE
  5
BA7
330
A02
100
AcDbEntity
  8
View
100
AcDbLine
 10
107.363
 20
246.387
 30
0
 11
107.363
 21
232.387
 31
0
  0
LINE
  5
BA8
330
A02
100
AcDbEntity
  8
View
100
AcDbLine
 10
121.363
 20
246.387
 30
0
 11
107.363
 21
246.387
 31
0
  0
LINE
  5
BA9
330
A02
100
AcDbEntity
  8
View
100
AcDbLine
 10
107.363
 20
232.387
 30
0
 11
121.363
 21
232.387
 31
0
  0
LINE
  5
BAA
330
A02
100
AcDbEntity
  8
View
100
AcDbLine
 10
121.363
 20
232.387
 30
0
 11
121.363
 21
246.387
 31
0
  0
LINE
  5
BAB
330
A02
100
AcDbEntity
  8
View
100
AcDbLine
 10
174.038
 20
270.2
 30
0
 11
174.038
 21
256.2
 31
0
  0
LINE
  5
BAC
330
A02
100
AcDbEntity
  8
View
100
AcDbLine
 10
188.038
 20
270.2
 30
0
 11
174.038
 21
270.2
 31
0
  0
LINE
  5
BAD
330
A02
100
AcDbEntity
  8
View
100
AcDbLine
 10
174.038
 20
256.2
 30
0
 11
188.038
 21
256.2
 31
0
  0
LINE
  5
BAE
330
A02
100
AcDbEntity
  8
View
100
AcDbLine
 10
188.038
 20
256.2
 30
0
 11
188.038
 21
270.2
 31
0
  0
LINE
  5
BAF
330
A02
100
AcDbEntity
  8
View
100
AcDbLine
 10
154.988
 20
270.2
 30
0
 11
154.988
 21
256.2
 31
0
  0
LINE
  5
BB0
330
A02
100
AcDbEntity
  8
View
100
AcDbLine
 10
168.988
 20
270.2
 30
0
 11
154.988
 21
270.2
 31
0
  0
LINE
  5
BB1
330
A02
100
AcDbEntity
  8
View
100
AcDbLine
 10
154.988
 20
256.2
 30
0
 11
168.988
 21
256.2
 31
0
  0
LINE
  5
BB2
330
A02
100
AcDbEntity
  8
View
100
AcDbLine
 10
168.988
 20
256.2
 30
0
 11
168.988
 21
270.2
 31
0
  0
CIRCLE
  5
BB3
330
A02
100
AcDbEntity
  8
View
100
AcDbCircle
 10
185.801
 20
291.4
 40
1.7
  0
LINE
  5
BB4
330
A02
100
AcDbEntity
  8
View
100
AcDbLine
 10
131.176
 20
270.2
 30
0
 11
131.176
 21
256.2
 31
0
  0
LINE
  5
BB5
330
A02
100
AcDbEntity
  8
View
100
AcDbLine
 10
145.176
 20
270.2
 30
0
 11
131.176
 21
270.2
 31
0
  0
LINE
  5
BB6
330
A02
100
AcDbEntity
  8
View
100
AcDbLine
 10
131.176
 20
256.2
 30
0
 11
145.176
 21
256.2
 31
0
  0
LINE
  5
BB7
330
A02
100
AcDbEntity
  8
View
100
AcDbLine
 10
145.176
 20
256.2
 30
0
 11
145.176
 21
270.2
 31
0
  0
LINE
  5
BB8
330
A02
100
AcDbEntity
  8
View
100
AcDbLine
 10
112.126
 20
270.2
 30
0
 11
112.126
 21
256.2
 31
0
  0
LINE
  5
BB9
330
A02
100
AcDbEntity
  8
View
100
AcDbLine
 10
126.126
 20
270.2
 30
0
 11
112.126
 21
270.2
 31
0
  0
LINE
  5
BBA
330
A02
100
AcDbEntity
  8
View
100
AcDbLine
 10
112.126
 20
256.2
 30
0
 11
126.126
 21
256.2
 31
0
  0
LINE
  5
BBB
330
A02
100
AcDbEntity
  8
View
100
AcDbLine
 10
126.126
 20
256.2
 30
0
 11
126.126
 21
270.2
 31
0
  0
LINE
  5
BBC
330
A02
100
AcDbEntity
  8
View
100
AcDbLine
 10
93.0756
 20
270.2
 30
0
 11
93.0756
 21
256.2
 31
0
  0
LINE
  5
BBD
330
A02
100
AcDbEntity
  8
View
100
AcDbLine
 10
107.076
 20
270.2
 30
0
 11
93.0756
 21
270.2
 31
0
  0
LINE
  5
BBE
330
A02
100
AcDbEntity
  8
View
100
AcDbLine
 10
93.0756
 20
256.2
 30
0
 11
107.076
 21
256.2
 31
0
  0
LINE
  5
BBF
330
A02
100
AcDbEntity
  8
View
100
AcDbLine
 10
107.076
 20
256.2
 30
0
 11
107.076
 21
270.2
 31
0
  0
LINE
  5
BC0
330
A02
100
AcDbEntity
  8
View
100
AcDbLine
 10
78.7881
 20
227.337
 30
0
 11
78.7881
 21
213.337
 31
0
  0
LINE
  5
BC1
330
A02
100
AcDbEntity
  8
View
100
AcDbLine
 10
92.7881
 20
227.337
 30
0
 11
78.7881
 21
227.337
 31
0
  0
LINE
  5
BC2
330
A02
100
AcDbEntity
  8
View
100
AcDbLine
 10
78.7881
 20
213.337
 30
0
 11
92.7881
 21
213.337
 31
0
  0
LINE
  5
BC3
330
A02
100
AcDbEntity
  8
View
100
AcDbLine
 10
92.7881
 20
213.337
 30
0
 11
92.7881
 21
227.337
 31
0
  0
LINE
  5
BC4
330
A02
100
AcDbEntity
  8
View
100
AcDbLine
 10
54.9756
 20
227.337
 30
0
 11
54.9756
 21
213.337
 31
0
  0
LINE
  5
BC5
330
A02
100
AcDbEntity
  8
View
100
AcDbLine
 10
68.9756
 20
227.337
 30
0
 11
54.9756
 21
227.337
 31
0
  0
LINE
  5
BC6
330
A02
100
AcDbEntity
  8
View
100
AcDbLine
 10
54.9756
 20
213.337
 30
0
 11
68.9756
 21
213.337
 31
0
  0
LINE
  5
BC7
330
A02
100
AcDbEntity
  8
View
100
AcDbLine
 10
68.9756
 20
213.337
 30
0
 11
68.9756
 21
227.337
 31
0
  0
LINE
  5
BC8
330
A02
100
AcDbEntity
  8
View
100
AcDbLine
 10
88.3131
 20
246.387
 30
0
 11
88.3131
 21
232.387
 31
0
  0
LINE
  5
BC9
330
A02
100
AcDbEntity
  8
View
100
AcDbLine
 10
102.313
 20
246.387
 30
0
 11
88.3131
 21
246.387
 31
0
  0
LINE
  5
BCA
330
A02
100
AcDbEntity
  8
View
100
AcDbLine
 10
88.3131
 20
232.387
 30
0
 11
102.313
 21
232.387
 31
0
  0
LINE
  5
BCB
330
A02
100
AcDbEntity
  8
View
100
AcDbLine
 10
102.313
 20
232.387
 30
0
 11
102.313
 21
246.387
 31
0
  0
LINE
  5
BCC
330
A02
100
AcDbEntity
  8
View
100
AcDbLine
 10
69.2631
 20
246.387
 30
0
 11
69.2631
 21
232.387
 31
0
  0
LINE
  5
BCD
330
A02
100
AcDbEntity
  8
View
100
AcDbLine
 10
83.2631
 20
246.387
 30
0
 11
69.2631
 21
246.387
 31
0
  0
LINE
  5
BCE
330
A02
100
AcDbEntity
  8
View
100
AcDbLine
 10
69.2631
 20
232.387
 30
0
 11
83.2631
 21
232.387
 31
0
  0
LINE
  5
BCF
330
A02
100
AcDbEntity
  8
View
100
AcDbLine
 10
83.2631
 20
232.387
 30
0
 11
83.2631
 21
246.387
 31
0
  0
LINE
  5
BD0
330
A02
100
AcDbEntity
  8
View
100
AcDbLine
 10
50.2131
 20
246.387
 30
0
 11
50.2131
 21
232.387
 31
0
  0
LINE
  5
BD1
330
A02
100
AcDbEntity
  8
View
100
AcDbLine
 10
64.2131
 20
246.387
 30
0
 11
50.2131
 21
246.387
 31
0
  0
LINE
  5
BD2
330
A02
100
AcDbEntity
  8
View
100
AcDbLine
 10
50.2131
 20
232.387
 30
0
 11
64.2131
 21
232.387
 31
0
  0
LINE
  5
BD3
330
A02
100
AcDbEntity
  8
View
100
AcDbLine
 10
64.2131
 20
232.387
 30
0
 11
64.2131
 21
246.387
 31
0
  0
LINE
  5
BD4
330
A02
100
AcDbEntity
  8
View
100
AcDbLine
 10
14.4881
 20
244.937
 30
0
 11
14.4881
 21
195.737
 31
0
  0
ARC
  5
BD5
330
A02
100
AcDbEntity
  8
View
100
AcDbCircle
 10
15.9881
 20
244.937
 30
0
 40
1.5
100
AcDbArc
 50
90
 51
180
  0
ARC
  5
BD6
330
A02
100
AcDbEntity
  8
View
100
AcDbCircle
 10
15.9881
 20
195.737
 30
0
 40
1.5
100
AcDbArc
 50
180
 51
-90
  0
LINE
  5
BD7
330
A02
100
AcDbEntity
  8
View
100
AcDbLine
 10
41.2881
 20
246.437
 30
0
 11
15.9881
 21
246.437
 31
0
  0
LINE
  5
BD8
330
A02
100
AcDbEntity
  8
View
100
AcDbLine
 10
15.9881
 20
194.237
 30
0
 11
41.2881
 21
194.237
 31
0
  0
ARC
  5
BD9
330
A02
100
AcDbEntity
  8
View
100
AcDbCircle
 10
41.2881
 20
244.937
 30
0
 40
1.5
100
AcDbArc
 50
0
 51
90
  0
ARC
  5
BDA
330
A02
100
AcDbEntity
  8
View
100
AcDbCircle
 10
41.2881
 20
195.737
 30
0
 40
1.5
100
AcDbArc
 50
-90
 51
0
  0
LINE
  5
BDB
330
A02
100
AcDbEntity
  8
View
100
AcDbLine
 10
42.7881
 20
195.737
 30
0
 11
42.7881
 21
244.937
 31
0
  0
LINE
  5
BDC
330
A02
100
AcDbEntity
  8
View
100
AcDbLine
 10
74.0256
 20
270.2
 30
0
 11
74.0256
 21
256.2
 31
0
  0
LINE
  5
BDD
330
A02
100
AcDbEntity
  8
View
100
AcDbLine
 10
88.0256
 20
270.2
 30
0
 11
74.0256
 21
270.2
 31
0
  0
LINE
  5
BDE
330
A02
100
AcDbEntity
  8
View
100
AcDbLine
 10
74.0256
 20
256.2
 30
0
 11
88.0256
 21
256.2
 31
0
  0
LINE
  5
BDF
330
A02
100
AcDbEntity
  8
View
100
AcDbLine
 10
88.0256
 20
256.2
 30
0
 11
88.0256
 21
270.2
 31
0
  0
LINE
  5
BE0
330
A02
100
AcDbEntity
  8
View
100
AcDbLine
 10
50.2131
 20
270.2
 30
0
 11
50.2131
 21
256.2
 31
0
  0
LINE
  5
BE1
330
A02
100
AcDbEntity
  8
View
100
AcDbLine
 10
64.2131
 20
270.2
 30
0
 11
50.2131
 21
270.2
 31
0
  0
LINE
  5
BE2
330
A02
100
AcDbEntity
  8
View
100
AcDbLine
 10
50.2131
 20
256.2
 30
0
 11
64.2131
 21
256.2
 31
0
  0
LINE
  5
BE3
330
A02
100
AcDbEntity
  8
View
100
AcDbLine
 10
64.2131
 20
256.2
 30
0
 11
64.2131
 21
270.2
 31
0
  0
CIRCLE
  5
BE4
330
A02
100
AcDbEntity
  8
View
100
AcDbCircle
 10
94.4444
 20
291.4
 40
1.7
  0
LINE
  5
BE5
330
A02
100
AcDbEntity
  8
View
100
AcDbLine
 10
31.6631
 20
269.95
 30
0
 11
31.6631
 21
256.45
 31
0
  0
ARC
  5
BE6
330
A02
100
AcDbEntity
  8
View
100
AcDbCircle
 10
32.9131
 20
269.95
 30
0
 40
1.25
100
AcDbArc
 50
90
 51
180
  0
ARC
  5
BE7
330
A02
100
AcDbEntity
  8
View
100
AcDbCircle
 10
32.9131
 20
256.45
 30
0
 40
1.25
100
AcDbArc
 50
180
 51
-90
  0
LINE
  5
BE8
330
A02
100
AcDbEntity
  8
View
100
AcDbLine
 10
43.4131
 20
271.2
 30
0
 11
32.9131
 21
271.2
 31
0
  0
LINE
  5
BE9
330
A02
100
AcDbEntity
  8
View
100
AcDbLine
 10
32.9131
 20
255.2
 30
0
 11
43.4131
 21
255.2
 31
0
  0
ARC
  5
BEA
330
A02
100
AcDbEntity
  8
View
100
AcDbCircle
 10
43.4131
 20
269.95
 30
0
 40
1.25
100
AcDbArc
 50
0
 51
90
  0
ARC
  5
BEB
330
A02
100
AcDbEntity
  8
View
100
AcDbCircle
 10
43.4131
 20
256.45
 30
0
 40
1.25
100
AcDbArc
 50
-90
 51
0
  0
LINE
  5
BEC
330
A02
100
AcDbEntity
  8
View
100
AcDbLine
 10
44.6631
 20
256.45
 30
0
 11
44.6631
 21
269.95
 31
0
  0
LINE
  5
BED
330
A02
100
AcDbEntity
  8
View
100
AcDbLine
 10
12.6131
 20
269.95
 30
0
 11
12.6131
 21
256.45
 31
0
  0
ARC
  5
BEE
330
A02
100
AcDbEntity
  8
View
100
AcDbCircle
 10
13.8631
 20
269.95
 30
0
 40
1.25
100
AcDbArc
 50
90
 51
180
  0
ARC
  5
BEF
330
A02
100
AcDbEntity
  8
View
100
AcDbCircle
 10
13.8631
 20
256.45
 30
0
 40
1.25
100
AcDbArc
 50
180
 51
-90
  0
LINE
  5
BF0
330
A02
100
AcDbEntity
  8
View
100
AcDbLine
 10
24.3631
 20
271.2
 30
0
 11
13.8631
 21
271.2
 31
0
  0
LINE
  5
BF1
330
A02
100
AcDbEntity
  8
View
100
AcDbLine
 10
13.8631
 20
255.2
 30
0
 11
24.3631
 21
255.2
 31
0
  0
ARC
  5
BF2
330
A02
100
AcDbEntity
  8
View
100
AcDbCircle
 10
24.3631
 20
269.95
 30
0
 40
1.25
100
AcDbArc
 50
0
 51
90
  0
ARC
  5
BF3
330
A02
100
AcDbEntity
  8
View
100
AcDbCircle
 10
24.3631
 20
256.45
 30
0
 40
1.25
100
AcDbArc
 50
-90
 51
0
  0
LINE
  5
BF4
330
A02
100
AcDbEntity
  8
View
100
AcDbLine
 10
25.6131
 20
256.45
 30
0
 11
25.6131
 21
269.95
 31
0
  0
CIRCLE
  5
BF5
330
A02
100
AcDbEntity
  8
View
100
AcDbCircle
 10
7.84549
 20
289.643
 40
1.7
  0
ENDSEC
  0
SECTION
  2
OBJECTS
  0
DICTIONARY
  5
F000
330
0
100
AcDbDictionary
  3
ACAD_GROUP
350
F001
  0
DICTIONARY
  5
F001
330
F000
100
AcDbDictionary
  0
ENDSEC
  0
EOF