999
FreeCAD v0.20 29177 +426 (Git)
  0
SECTION
  2
HEADER
  9
$ACADVER
  1
AC1014
  9
$ACADMAINTVER
 70
     9
  9
$DWGCODEPAGE
  3
ANSI_1252
  9
$TEXTSTYLE
  7
STANDARD
  9
$DIMSTYLE
  2
STANDARD
  9
$DIMTXSTY
  7
STANDARD
  9
$CMLSTYLE
  2
STANDARD
  9
$LUNITS
 70
2
  9
$INSUNITS
 70
4
  9
$PEXTMAX
 10
50
 20
50
 30
50
  9
$PEXTMIN
 10
0
 20
0
 30
0
  9
$HANDSEED
  5
FFFF
  0
ENDSEC
  0
SECTION
  2
CLASSES
  0
CLASS
  1
ACDBDICTIONARYWDFLT
  2
AcDbDictionaryWithDefault
  3
ObjectDBX Classes
 90
        0
280
     0
281
     0
  0
CLASS
  1
XRECORD
  2
AcDbXrecord
  3
ObjectDBX Classes
 90
        0
280
     0
281
     0
  0
CLASS
  1
LWPOLYLINE
  2
AcDbPolyline
  3
ObjectDBX Classes
 90
        0
280
     0
281
     1
  0
ENDSEC
  0
SECTION
  2
TABLES
  0
TABLE
  2
VPORT
  5
20
330
0
100
AcDbSymbolTable
 70
     1
  0
VPORT
  5
21
330
20
100
AcDbSymbolTableRecord
100
AcDbViewportTableRecord
  2
*ACTIVE
 70
     0
  0
ENDTAB
  0
TABLE
  2
LTYPE
  5
22
330
0
100
AcDbSymbolTable
 70
     1
  0
LTYPE
  5
23
330
21
100
AcDbSymbolTableRecord
100
AcDbLinetypeTableRecord
  2
BYBLOCK
 70
     0
  3

 72
    65
 73
     0
 40
0.0
  0
LTYPE
  5
24
330
21
100
AcDbSymbolTableRecord
100
AcDbLinetypeTableRecord
  2
BYLAYER
 70
     0
  3

 72
    65
 73
     0
 40
0.0
  0
LTYPE
  5
25
330
21
100
AcDbSymbolTableRecord
100
AcDbLinetypeTableRecord
  2
CONTINUOUS
 70
     0
  3
Solid line
 72
    65
 73
     0
 40
0.0
  0
ENDTAB
  0
TABLE
  2
LAYER
  5
DE4
330
0
100
AcDbSymbolTable
 70
3
  0
LAYER
  5
DE5
330
DE4
100
AcDbSymbolTableRecord
100
AcDbLayerTableRecord
  2
0
 70
   0
 62
   7
  6
CONTINUOUS
  0
LAYER
  5
DE6
330
DE4
100
AcDbSymbolTableRecord
100
AcDbLayerTableRecord
  2
View012
 70
    0
 62
    7
  6
CONTINUOUS
  0
LAYER
  5
DE7
330
DE4
100
AcDbSymbolTableRecord
100
AcDbLayerTableRecord
  2
View013
 70
    0
 62
    7
  6
CONTINUOUS
  0
ENDTAB
  0
TABLE
  2
STYLE
  5
70
330
0
100
AcDbSymbolTable
 70
     2
  0
STYLE
  5
71
330
70
100
AcDbSymbolTableRecord
100
AcDbTextStyleTableRecord
  2
STANDARD
 70
     0
 40
0.0
 41
1.0
 50
0.0
 71
     0
 42
2.5
  3
arial.ttf
  4

  0
STYLE
  5
72
330
70
100
AcDbSymbolTableRecord
100
AcDbTextStyleTableRecord
  2
ANNOTATIVE
 70
     0
 40
0.0
 41
1.0
 50
0.0
 71
     0
 42
2.5
  3
arial.ttf
  4

  0
ENDTAB
  0
TABLE
  2
VIEW
  5
73
330
0
100
AcDbSymbolTable
 70
     0
  0
ENDTAB
  0
TABLE
  2
UCS
  5
74
330
0
100
AcDbSymbolTable
 70
     0
  0
ENDTAB
  0
TABLE
  2
APPID
  5
75
330
0
100
AcDbSymbolTable
 70
     2
  0
APPID
  5
76
330
75
100
AcDbSymbolTableRecord
100
AcDbRegAppTableRecord
  2
ACAD
 70
     0
  0
APPID
  5
77
330
75
100
AcDbSymbolTableRecord
100
AcDbRegAppTableRecord
  2
ACADANNOTATIVE
 70
     0
  0
ENDTAB
  0
TABLE
  2
DIMSTYLE
  5
78
330
0
100
AcDbSymbolTable
 70
     2
  0
DIMSTYLE
105
79
330
78
100
AcDbSymbolTableRecord
100
AcDbDimStyleTableRecord
  2
STANDARD
 70
     0
  3

  4

  5

  6

  7

 40
0.0
 41
2.5
 42
0.625
 43
3.75
 44
1.25
 45
0.0
 46
0.0
 47
0.0
 48
0.0
140
2.5
141
2.5
142
0.0
143
0.03937007874016
144
1.0
145
0.0
146
1.0
147
0.625
 71
     0
 72
     0
 73
     0
 74
     0
 75
     0
 76
     0
 77
     1
 78
     8
170
     0
171
     3
172
     1
173
     0
174
     0
175
     0
176
     0
177
     0
178
     0
270
     2
271
     2
272
     2
273
     2
274
     3
340
71
275
     0
280
     0
281
     0
282
     0
283
     0
284
     8
285
     0
286
     0
287
     3
288
     0
  0
ENDTAB
  0
TABLE
  2
BLOCK_RECORD
  5
A01
330
0
100
AcDbSymbolTable
  70
5
  0
BLOCK_RECORD
  5
A02
330
A01
100
AcDbSymbolTableRecord
100
AcDbBlockTableRecord
  2
*MODEL_SPACE
  0
BLOCK_RECORD
  5
A03
330
A01
100
AcDbSymbolTableRecord
100
AcDbBlockTableRecord
  2
*PAPER_SPACE
  0
ENDTAB
  0
ENDSEC
  0
SECTION
  2
BLOCKS
  0
BLOCK
  5
A04
330
A02
100
AcDbEntity
  8
0
100
AcDbBlockBegin
  2
*MODEL_SPACE
 70
   0
 10
0
 20
0
 30
0
  3
*MODEL_SPACE
  1
 
  0
ENDBLK
  5
A05
330
A02
100
AcDbEntity
  8
0
100
AcDbBlockEnd
  0
BLOCK
  5
A06
330
A03
100
AcDbEntity
 67
1
  8
0
100
AcDbBlockBegin
  2
*PAPER_SPACE
 70
   0
 10
0
 20
0
 30
0
  3
*PAPER_SPACE
  1
 
  0
ENDBLK
  5
A07
330
A03
100
AcDbEntity
 67
    1
  8
0
100
AcDbBlockEnd
  0
ENDSEC
  0
SECTION
  2
ENTITIES
  0
LINE
  5
A08
330
A02
100
AcDbEntity
  8
View012
100
AcDbLine
 10
2.09312
 20
411.741
 30
0
 11
2.09312
 21
268.741
 31
0
  0
ARC
  5
A09
330
A02
100
AcDbEntity
  8
View012
100
AcDbCircle
 10
8.09312
 20
411.741
 30
0
 40
6
100
AcDbArc
 50
90
 51
180
  0
ARC
  5
A0A
330
A02
100
AcDbEntity
  8
View012
100
AcDbCircle
 10
5.09312
 20
268.741
 30
0
 40
3
100
AcDbArc
 50
180
 51
-90
  0
LINE
  5
A0B
330
A02
100
AcDbEntity
  8
View012
100
AcDbLine
 10
258.018
 20
417.741
 30
0
 11
8.09312
 21
417.741
 31
0
  0
ARC
  5
A0C
330
A02
100
AcDbEntity
  8
View012
100
AcDbCircle
 10
258.018
 20
415.741
 30
0
 40
2
100
AcDbArc
 50
0
 51
90
  0
LINE
  5
A0D
330
A02
100
AcDbEntity
  8
View012
100
AcDbLine
 10
260.018
 20
405.241
 30
0
 11
260.018
 21
415.741
 31
0
  0
ARC
  5
A0E
330
A02
100
AcDbEntity
  8
View012
100
AcDbCircle
 10
262.018
 20
405.241
 30
0
 40
2
100
AcDbArc
 50
180
 51
-90
  0
LINE
  5
A0F
330
A02
100
AcDbEntity
  8
View012
100
AcDbLine
 10
262.018
 20
403.241
 30
0
 11
270.518
 21
403.241
 31
0
  0
ARC
  5
A10
330
A02
100
AcDbEntity
  8
View012
100
AcDbCircle
 10
270.518
 20
405.241
 30
0
 40
2
100
AcDbArc
 50
-90
 51
0
  0
LINE
  5
A11
330
A02
100
AcDbEntity
  8
View012
100
AcDbLine
 10
272.518
 20
405.241
 30
0
 11
272.518
 21
415.741
 31
0
  0
ARC
  5
A12
330
A02
100
AcDbEntity
  8
View012
100
AcDbCircle
 10
274.518
 20
415.741
 30
0
 40
2
100
AcDbArc
 50
90
 51
180
  0
LINE
  5
A13
330
A02
100
AcDbEntity
  8
View012
100
AcDbLine
 10
361.518
 20
417.741
 30
0
 11
274.518
 21
417.741
 31
0
  0
ARC
  5
A14
330
A02
100
AcDbEntity
  8
View012
100
AcDbCircle
 10
361.518
 20
411.741
 30
0
 40
6
100
AcDbArc
 50
0
 51
90
  0
LINE
  5
A15
330
A02
100
AcDbEntity
  8
View012
100
AcDbLine
 10
367.518
 20
268.741
 30
0
 11
367.518
 21
411.741
 31
0
  0
ARC
  5
A16
330
A02
100
AcDbEntity
  8
View012
100
AcDbCircle
 10
364.518
 20
268.741
 30
0
 40
3
100
AcDbArc
 50
-90
 51
0
  0
LINE
  5
A17
330
A02
100
AcDbEntity
  8
View012
100
AcDbLine
 10
5.09312
 20
265.741
 30
0
 11
364.518
 21
265.741
 31
0
  0
CIRCLE
  5
A18
330
A02
100
AcDbEntity
  8
View012
100
AcDbCircle
 10
363.639
 20
269.619
 40
1.7
  0
LINE
  5
A19
330
A02
100
AcDbEntity
  8
View012
100
AcDbLine
 10
339.631
 20
288.866
 30
0
 11
339.631
 21
274.666
 31
0
  0
LINE
  5
A1A
330
A02
100
AcDbEntity
  8
View012
100
AcDbLine
 10
353.831
 20
288.866
 30
0
 11
339.631
 21
288.866
 31
0
  0
LINE
  5
A1B
330
A02
100
AcDbEntity
  8
View012
100
AcDbLine
 10
339.631
 20
274.666
 30
0
 11
353.831
 21
274.666
 31
0
  0
LINE
  5
A1C
330
A02
100
AcDbEntity
  8
View012
100
AcDbLine
 10
353.831
 20
274.666
 30
0
 11
353.831
 21
288.866
 31
0
  0
LINE
  5
A1D
330
A02
100
AcDbEntity
  8
View012
100
AcDbLine
 10
320.581
 20
288.866
 30
0
 11
320.581
 21
274.666
 31
0
  0
LINE
  5
A1E
330
A02
100
AcDbEntity
  8
View012
100
AcDbLine
 10
334.781
 20
288.866
 30
0
 11
320.581
 21
288.866
 31
0
  0
LINE
  5
A1F
330
A02
100
AcDbEntity
  8
View012
100
AcDbLine
 10
320.581
 20
274.666
 30
0
 11
334.781
 21
274.666
 31
0
  0
LINE
  5
A20
330
A02
100
AcDbEntity
  8
View012
100
AcDbLine
 10
334.781
 20
274.666
 30
0
 11
334.781
 21
288.866
 31
0
  0
LINE
  5
A21
330
A02
100
AcDbEntity
  8
View012
100
AcDbLine
 10
320.581
 20
307.916
 30
0
 11
320.581
 21
293.716
 31
0
  0
LINE
  5
A22
330
A02
100
AcDbEntity
  8
View012
100
AcDbLine
 10
334.781
 20
307.916
 30
0
 11
320.581
 21
307.916
 31
0
  0
LINE
  5
A23
330
A02
100
AcDbEntity
  8
View012
100
AcDbLine
 10
320.581
 20
293.716
 30
0
 11
334.781
 21
293.716
 31
0
  0
LINE
  5
A24
330
A02
100
AcDbEntity
  8
View012
100
AcDbLine
 10
334.781
 20
293.716
 30
0
 11
334.781
 21
307.916
 31
0
  0
LINE
  5
A25
330
A02
100
AcDbEntity
  8
View012
100
AcDbLine
 10
301.531
 20
288.866
 30
0
 11
301.531
 21
274.666
 31
0
  0
LINE
  5
A26
330
A02
100
AcDbEntity
  8
View012
100
AcDbLine
 10
315.731
 20
288.866
 30
0
 11
301.531
 21
288.866
 31
0
  0
LINE
  5
A27
330
A02
100
AcDbEntity
  8
View012
100
AcDbLine
 10
301.531
 20
274.666
 30
0
 11
315.731
 21
274.666
 31
0
  0
LINE
  5
A28
330
A02
100
AcDbEntity
  8
View012
100
AcDbLine
 10
315.731
 20
274.666
 30
0
 11
315.731
 21
288.866
 31
0
  0
CIRCLE
  5
A29
330
A02
100
AcDbEntity
  8
View012
100
AcDbCircle
 10
276.162
 20
268.741
 40
1.7
  0
LINE
  5
A2A
330
A02
100
AcDbEntity
  8
View012
100
AcDbLine
 10
277.718
 20
293.628
 30
0
 11
277.718
 21
279.428
 31
0
  0
LINE
  5
A2B
330
A02
100
AcDbEntity
  8
View012
100
AcDbLine
 10
291.918
 20
293.628
 30
0
 11
277.718
 21
293.628
 31
0
  0
LINE
  5
A2C
330
A02
100
AcDbEntity
  8
View012
100
AcDbLine
 10
277.718
 20
279.428
 30
0
 11
291.918
 21
279.428
 31
0
  0
LINE
  5
A2D
330
A02
100
AcDbEntity
  8
View012
100
AcDbLine
 10
291.918
 20
279.428
 30
0
 11
291.918
 21
293.628
 31
0
  0
LINE
  5
A2E
330
A02
100
AcDbEntity
  8
View012
100
AcDbLine
 10
344.393
 20
312.678
 30
0
 11
344.393
 21
298.478
 31
0
  0
LINE
  5
A2F
330
A02
100
AcDbEntity
  8
View012
100
AcDbLine
 10
358.593
 20
312.678
 30
0
 11
344.393
 21
312.678
 31
0
  0
LINE
  5
A30
330
A02
100
AcDbEntity
  8
View012
100
AcDbLine
 10
344.393
 20
298.478
 30
0
 11
358.593
 21
298.478
 31
0
  0
LINE
  5
A31
330
A02
100
AcDbEntity
  8
View012
100
AcDbLine
 10
358.593
 20
298.478
 30
0
 11
358.593
 21
312.678
 31
0
  0
LINE
  5
A32
330
A02
100
AcDbEntity
  8
View012
100
AcDbLine
 10
344.393
 20
331.728
 30
0
 11
344.393
 21
317.528
 31
0
  0
LINE
  5
A33
330
A02
100
AcDbEntity
  8
View012
100
AcDbLine
 10
358.593
 20
331.728
 30
0
 11
344.393
 21
331.728
 31
0
  0
LINE
  5
A34
330
A02
100
AcDbEntity
  8
View012
100
AcDbLine
 10
344.393
 20
317.528
 30
0
 11
358.593
 21
317.528
 31
0
  0
LINE
  5
A35
330
A02
100
AcDbEntity
  8
View012
100
AcDbLine
 10
358.593
 20
317.528
 30
0
 11
358.593
 21
331.728
 31
0
  0
LINE
  5
A36
330
A02
100
AcDbEntity
  8
View012
100
AcDbLine
 10
289.624
 20
312.678
 30
0
 11
289.624
 21
298.478
 31
0
  0
LINE
  5
A37
330
A02
100
AcDbEntity
  8
View012
100
AcDbLine
 10
303.824
 20
312.678
 30
0
 11
289.624
 21
312.678
 31
0
  0
LINE
  5
A38
330
A02
100
AcDbEntity
  8
View012
100
AcDbLine
 10
289.624
 20
298.478
 30
0
 11
303.824
 21
298.478
 31
0
  0
LINE
  5
A39
330
A02
100
AcDbEntity
  8
View012
100
AcDbLine
 10
303.824
 20
298.478
 30
0
 11
303.824
 21
312.678
 31
0
  0
LINE
  5
A3A
330
A02
100
AcDbEntity
  8
View012
100
AcDbLine
 10
303.912
 20
331.728
 30
0
 11
303.912
 21
325.538
 31
0
  0
LINE
  5
A3B
330
A02
100
AcDbEntity
  8
View012
100
AcDbLine
 10
318.112
 20
331.728
 30
0
 11
303.912
 21
331.728
 31
0
  0
LINE
  5
A3C
330
A02
100
AcDbEntity
  8
View012
100
AcDbLine
 10
302.062
 20
325.538
 30
0
 11
303.912
 21
325.538
 31
0
  0
LINE
  5
A3D
330
A02
100
AcDbEntity
  8
View012
100
AcDbLine
 10
318.112
 20
325.538
 30
0
 11
318.112
 21
331.728
 31
0
  0
LINE
  5
A3E
330
A02
100
AcDbEntity
  8
View012
100
AcDbLine
 10
302.062
 20
331.548
 30
0
 11
302.062
 21
325.538
 31
0
  0
LINE
  5
A3F
330
A02
100
AcDbEntity
  8
View012
100
AcDbLine
 10
318.112
 20
325.538
 30
0
 11
319.962
 21
325.538
 31
0
  0
LINE
  5
A40
330
A02
100
AcDbEntity
  8
View012
100
AcDbLine
 10
302.062
 20
331.548
 30
0
 11
301.012
 21
331.548
 31
0
  0
LINE
  5
A41
330
A02
100
AcDbEntity
  8
View012
100
AcDbLine
 10
319.962
 20
325.538
 30
0
 11
319.962
 21
331.548
 31
0
  0
LINE
  5
A42
330
A02
100
AcDbEntity
  8
View012
100
AcDbLine
 10
301.012
 20
333.548
 30
0
 11
301.012
 21
331.548
 31
0
  0
LINE
  5
A43
330
A02
100
AcDbEntity
  8
View012
100
AcDbLine
 10
321.012
 20
331.548
 30
0
 11
319.962
 21
331.548
 31
0
  0
LINE
  5
A44
330
A02
100
AcDbEntity
  8
View012
100
AcDbLine
 10
297.012
 20
333.548
 30
0
 11
301.012
 21
333.548
 31
0
  0
LINE
  5
A45
330
A02
100
AcDbEntity
  8
View012
100
AcDbLine
 10
321.012
 20
331.548
 30
0
 11
321.012
 21
333.548
 31
0
  0
LINE
  5
A46
330
A02
100
AcDbEntity
  8
View012
100
AcDbLine
 10
297.012
 20
331.548
 30
0
 11
297.012
 21
333.548
 31
0
  0
LINE
  5
A47
330
A02
100
AcDbEntity
  8
View012
100
AcDbLine
 10
321.012
 20
333.548
 30
0
 11
325.012
 21
333.548
 31
0
  0
LINE
  5
A48
330
A02
100
AcDbEntity
  8
View012
100
AcDbLine
 10
297.012
 20
331.548
 30
0
 11
295.962
 21
331.548
 31
0
  0
LINE
  5
A49
330
A02
100
AcDbEntity
  8
View012
100
AcDbLine
 10
325.012
 20
333.548
 30
0
 11
325.012
 21
331.548
 31
0
  0
LINE
  5
A4A
330
A02
100
AcDbEntity
  8
View012
100
AcDbLine
 10
295.962
 20
331.548
 30
0
 11
295.962
 21
318.948
 31
0
  0
LINE
  5
A4B
330
A02
100
AcDbEntity
  8
View012
100
AcDbLine
 10
326.062
 20
331.548
 30
0
 11
325.012
 21
331.548
 31
0
  0
LINE
  5
A4C
330
A02
100
AcDbEntity
  8
View012
100
AcDbLine
 10
295.962
 20
318.948
 30
0
 11
302.062
 21
318.948
 31
0
  0
LINE
  5
A4D
330
A02
100
AcDbEntity
  8
View012
100
AcDbLine
 10
326.062
 20
318.948
 30
0
 11
326.062
 21
331.548
 31
0
  0
LINE
  5
A4E
330
A02
100
AcDbEntity
  8
View012
100
AcDbLine
 10
302.062
 20
322.338
 30
0
 11
302.062
 21
318.948
 31
0
  0
LINE
  5
A4F
330
A02
100
AcDbEntity
  8
View012
100
AcDbLine
 10
319.962
 20
318.948
 30
0
 11
326.062
 21
318.948
 31
0
  0
LINE
  5
A50
330
A02
100
AcDbEntity
  8
View012
100
AcDbLine
 10
303.912
 20
322.338
 30
0
 11
302.062
 21
322.338
 31
0
  0
LINE
  5
A51
330
A02
100
AcDbEntity
  8
View012
100
AcDbLine
 10
319.962
 20
318.948
 30
0
 11
319.962
 21
322.338
 31
0
  0
LINE
  5
A52
330
A02
100
AcDbEntity
  8
View012
100
AcDbLine
 10
303.912
 20
322.338
 30
0
 11
303.912
 21
317.528
 31
0
  0
LINE
  5
A53
330
A02
100
AcDbEntity
  8
View012
100
AcDbLine
 10
319.962
 20
322.338
 30
0
 11
318.112
 21
322.338
 31
0
  0
LINE
  5
A54
330
A02
100
AcDbEntity
  8
View012
100
AcDbLine
 10
303.912
 20
317.528
 30
0
 11
318.112
 21
317.528
 31
0
  0
LINE
  5
A55
330
A02
100
AcDbEntity
  8
View012
100
AcDbLine
 10
318.112
 20
317.528
 30
0
 11
318.112
 21
322.338
 31
0
  0
LINE
  5
A56
330
A02
100
AcDbEntity
  8
View012
100
AcDbLine
 10
272.956
 20
331.728
 30
0
 11
272.956
 21
317.528
 31
0
  0
LINE
  5
A57
330
A02
100
AcDbEntity
  8
View012
100
AcDbLine
 10
287.156
 20
331.728
 30
0
 11
272.956
 21
331.728
 31
0
  0
LINE
  5
A58
330
A02
100
AcDbEntity
  8
View012
100
AcDbLine
 10
272.956
 20
317.528
 30
0
 11
287.156
 21
317.528
 31
0
  0
LINE
  5
A59
330
A02
100
AcDbEntity
  8
View012
100
AcDbLine
 10
287.156
 20
317.528
 30
0
 11
287.156
 21
331.728
 31
0
  0
LINE
  5
A5A
330
A02
100
AcDbEntity
  8
View012
100
AcDbLine
 10
258.668
 20
293.628
 30
0
 11
258.668
 21
279.428
 31
0
  0
LINE
  5
A5B
330
A02
100
AcDbEntity
  8
View012
100
AcDbLine
 10
272.868
 20
293.628
 30
0
 11
258.668
 21
293.628
 31
0
  0
LINE
  5
A5C
330
A02
100
AcDbEntity
  8
View012
100
AcDbLine
 10
258.668
 20
279.428
 30
0
 11
272.868
 21
279.428
 31
0
  0
LINE
  5
A5D
330
A02
100
AcDbEntity
  8
View012
100
AcDbLine
 10
272.868
 20
279.428
 30
0
 11
272.868
 21
293.628
 31
0
  0
LINE
  5
A5E
330
A02
100
AcDbEntity
  8
View012
100
AcDbLine
 10
239.618
 20
293.628
 30
0
 11
239.618
 21
279.428
 31
0
  0
LINE
  5
A5F
330
A02
100
AcDbEntity
  8
View012
100
AcDbLine
 10
253.818
 20
293.628
 30
0
 11
239.618
 21
293.628
 31
0
  0
LINE
  5
A60
330
A02
100
AcDbEntity
  8
View012
100
AcDbLine
 10
239.618
 20
279.428
 30
0
 11
253.818
 21
279.428
 31
0
  0
LINE
  5
A61
330
A02
100
AcDbEntity
  8
View012
100
AcDbLine
 10
253.818
 20
279.428
 30
0
 11
253.818
 21
293.628
 31
0
  0
LINE
  5
A62
330
A02
100
AcDbEntity
  8
View012
100
AcDbLine
 10
263.431
 20
312.678
 30
0
 11
263.431
 21
298.478
 31
0
  0
LINE
  5
A63
330
A02
100
AcDbEntity
  8
View012
100
AcDbLine
 10
277.631
 20
312.678
 30
0
 11
263.431
 21
312.678
 31
0
  0
LINE
  5
A64
330
A02
100
AcDbEntity
  8
View012
100
AcDbLine
 10
263.431
 20
298.478
 30
0
 11
277.631
 21
298.478
 31
0
  0
LINE
  5
A65
330
A02
100
AcDbEntity
  8
View012
100
AcDbLine
 10
277.631
 20
298.478
 30
0
 11
277.631
 21
312.678
 31
0
  0
LINE
  5
A66
330
A02
100
AcDbEntity
  8
View012
100
AcDbLine
 10
244.381
 20
312.678
 30
0
 11
244.381
 21
298.478
 31
0
  0
LINE
  5
A67
330
A02
100
AcDbEntity
  8
View012
100
AcDbLine
 10
258.581
 20
312.678
 30
0
 11
244.381
 21
312.678
 31
0
  0
LINE
  5
A68
330
A02
100
AcDbEntity
  8
View012
100
AcDbLine
 10
244.381
 20
298.478
 30
0
 11
258.581
 21
298.478
 31
0
  0
LINE
  5
A69
330
A02
100
AcDbEntity
  8
View012
100
AcDbLine
 10
258.581
 20
298.478
 30
0
 11
258.581
 21
312.678
 31
0
  0
LINE
  5
A6A
330
A02
100
AcDbEntity
  8
View012
100
AcDbLine
 10
225.331
 20
312.678
 30
0
 11
225.331
 21
298.478
 31
0
  0
LINE
  5
A6B
330
A02
100
AcDbEntity
  8
View012
100
AcDbLine
 10
239.531
 20
312.678
 30
0
 11
225.331
 21
312.678
 31
0
  0
LINE
  5
A6C
330
A02
100
AcDbEntity
  8
View012
100
AcDbLine
 10
225.331
 20
298.478
 30
0
 11
239.531
 21
298.478
 31
0
  0
LINE
  5
A6D
330
A02
100
AcDbEntity
  8
View012
100
AcDbLine
 10
239.531
 20
298.478
 30
0
 11
239.531
 21
312.678
 31
0
  0
LINE
  5
A6E
330
A02
100
AcDbEntity
  8
View012
100
AcDbLine
 10
253.906
 20
331.728
 30
0
 11
253.906
 21
317.528
 31
0
  0
LINE
  5
A6F
330
A02
100
AcDbEntity
  8
View012
100
AcDbLine
 10
268.106
 20
331.728
 30
0
 11
253.906
 21
331.728
 31
0
  0
LINE
  5
A70
330
A02
100
AcDbEntity
  8
View012
100
AcDbLine
 10
253.906
 20
317.528
 30
0
 11
268.106
 21
317.528
 31
0
  0
LINE
  5
A71
330
A02
100
AcDbEntity
  8
View012
100
AcDbLine
 10
268.106
 20
317.528
 30
0
 11
268.106
 21
331.728
 31
0
  0
LINE
  5
A72
330
A02
100
AcDbEntity
  8
View012
100
AcDbLine
 10
234.856
 20
331.728
 30
0
 11
234.856
 21
317.528
 31
0
  0
LINE
  5
A73
330
A02
100
AcDbEntity
  8
View012
100
AcDbLine
 10
249.056
 20
331.728
 30
0
 11
234.856
 21
331.728
 31
0
  0
LINE
  5
A74
330
A02
100
AcDbEntity
  8
View012
100
AcDbLine
 10
234.856
 20
317.528
 30
0
 11
249.056
 21
317.528
 31
0
  0
LINE
  5
A75
330
A02
100
AcDbEntity
  8
View012
100
AcDbLine
 10
249.056
 20
317.528
 30
0
 11
249.056
 21
331.728
 31
0
  0
LINE
  5
A76
330
A02
100
AcDbEntity
  8
View012
100
AcDbLine
 10
206.281
 20
312.678
 30
0
 11
206.281
 21
298.478
 31
0
  0
LINE
  5
A77
330
A02
100
AcDbEntity
  8
View012
100
AcDbLine
 10
220.481
 20
312.678
 30
0
 11
206.281
 21
312.678
 31
0
  0
LINE
  5
A78
330
A02
100
AcDbEntity
  8
View012
100
AcDbLine
 10
206.281
 20
298.478
 30
0
 11
220.481
 21
298.478
 31
0
  0
LINE
  5
A79
330
A02
100
AcDbEntity
  8
View012
100
AcDbLine
 10
220.481
 20
298.478
 30
0
 11
220.481
 21
312.678
 31
0
  0
LINE
  5
A7A
330
A02
100
AcDbEntity
  8
View012
100
AcDbLine
 10
187.231
 20
312.678
 30
0
 11
187.231
 21
298.478
 31
0
  0
LINE
  5
A7B
330
A02
100
AcDbEntity
  8
View012
100
AcDbLine
 10
201.431
 20
312.678
 30
0
 11
187.231
 21
312.678
 31
0
  0
LINE
  5
A7C
330
A02
100
AcDbEntity
  8
View012
100
AcDbLine
 10
187.231
 20
298.478
 30
0
 11
201.431
 21
298.478
 31
0
  0
LINE
  5
A7D
330
A02
100
AcDbEntity
  8
View012
100
AcDbLine
 10
201.431
 20
298.478
 30
0
 11
201.431
 21
312.678
 31
0
  0
LINE
  5
A7E
330
A02
100
AcDbEntity
  8
View012
100
AcDbLine
 10
215.806
 20
331.728
 30
0
 11
215.806
 21
317.528
 31
0
  0
LINE
  5
A7F
330
A02
100
AcDbEntity
  8
View012
100
AcDbLine
 10
230.006
 20
331.728
 30
0
 11
215.806
 21
331.728
 31
0
  0
LINE
  5
A80
330
A02
100
AcDbEntity
  8
View012
100
AcDbLine
 10
215.806
 20
317.528
 30
0
 11
230.006
 21
317.528
 31
0
  0
LINE
  5
A81
330
A02
100
AcDbEntity
  8
View012
100
AcDbLine
 10
230.006
 20
317.528
 30
0
 11
230.006
 21
331.728
 31
0
  0
LINE
  5
A82
330
A02
100
AcDbEntity
  8
View012
100
AcDbLine
 10
196.756
 20
331.728
 30
0
 11
196.756
 21
317.528
 31
0
  0
LINE
  5
A83
330
A02
100
AcDbEntity
  8
View012
100
AcDbLine
 10
210.956
 20
331.728
 30
0
 11
196.756
 21
331.728
 31
0
  0
LINE
  5
A84
330
A02
100
AcDbEntity
  8
View012
100
AcDbLine
 10
196.756
 20
317.528
 30
0
 11
210.956
 21
317.528
 31
0
  0
LINE
  5
A85
330
A02
100
AcDbEntity
  8
View012
100
AcDbLine
 10
210.956
 20
317.528
 30
0
 11
210.956
 21
331.728
 31
0
  0
LINE
  5
A86
330
A02
100
AcDbEntity
  8
View012
100
AcDbLine
 10
344.393
 20
350.778
 30
0
 11
344.393
 21
336.578
 31
0
  0
LINE
  5
A87
330
A02
100
AcDbEntity
  8
View012
100
AcDbLine
 10
358.593
 20
350.778
 30
0
 11
344.393
 21
350.778
 31
0
  0
LINE
  5
A88
330
A02
100
AcDbEntity
  8
View012
100
AcDbLine
 10
344.393
 20
336.578
 30
0
 11
358.593
 21
336.578
 31
0
  0
LINE
  5
A89
330
A02
100
AcDbEntity
  8
View012
100
AcDbLine
 10
358.593
 20
336.578
 30
0
 11
358.593
 21
350.778
 31
0
  0
LINE
  5
A8A
330
A02
100
AcDbEntity
  8
View012
100
AcDbLine
 10
344.393
 20
369.828
 30
0
 11
344.393
 21
355.628
 31
0
  0
LINE
  5
A8B
330
A02
100
AcDbEntity
  8
View012
100
AcDbLine
 10
358.593
 20
369.828
 30
0
 11
344.393
 21
369.828
 31
0
  0
LINE
  5
A8C
330
A02
100
AcDbEntity
  8
View012
100
AcDbLine
 10
344.393
 20
355.628
 30
0
 11
358.593
 21
355.628
 31
0
  0
LINE
  5
A8D
330
A02
100
AcDbEntity
  8
View012
100
AcDbLine
 10
358.593
 20
355.628
 30
0
 11
358.593
 21
369.828
 31
0
  0
LINE
  5
A8E
330
A02
100
AcDbEntity
  8
View012
100
AcDbLine
 10
311.056
 20
350.778
 30
0
 11
311.056
 21
336.578
 31
0
  0
LINE
  5
A8F
330
A02
100
AcDbEntity
  8
View012
100
AcDbLine
 10
325.256
 20
350.778
 30
0
 11
311.056
 21
350.778
 31
0
  0
LINE
  5
A90
330
A02
100
AcDbEntity
  8
View012
100
AcDbLine
 10
311.056
 20
336.578
 30
0
 11
325.256
 21
336.578
 31
0
  0
LINE
  5
A91
330
A02
100
AcDbEntity
  8
View012
100
AcDbLine
 10
325.256
 20
336.578
 30
0
 11
325.256
 21
350.778
 31
0
  0
LINE
  5
A92
330
A02
100
AcDbEntity
  8
View012
100
AcDbLine
 10
287.243
 20
350.778
 30
0
 11
287.243
 21
336.578
 31
0
  0
LINE
  5
A93
330
A02
100
AcDbEntity
  8
View012
100
AcDbLine
 10
301.443
 20
350.778
 30
0
 11
287.243
 21
350.778
 31
0
  0
LINE
  5
A94
330
A02
100
AcDbEntity
  8
View012
100
AcDbLine
 10
287.243
 20
336.578
 30
0
 11
301.443
 21
336.578
 31
0
  0
LINE
  5
A95
330
A02
100
AcDbEntity
  8
View012
100
AcDbLine
 10
301.443
 20
336.578
 30
0
 11
301.443
 21
350.778
 31
0
  0
LINE
  5
A96
330
A02
100
AcDbEntity
  8
View012
100
AcDbLine
 10
268.193
 20
350.778
 30
0
 11
268.193
 21
336.578
 31
0
  0
LINE
  5
A97
330
A02
100
AcDbEntity
  8
View012
100
AcDbLine
 10
282.393
 20
350.778
 30
0
 11
268.193
 21
350.778
 31
0
  0
LINE
  5
A98
330
A02
100
AcDbEntity
  8
View012
100
AcDbLine
 10
268.193
 20
336.578
 30
0
 11
282.393
 21
336.578
 31
0
  0
LINE
  5
A99
330
A02
100
AcDbEntity
  8
View012
100
AcDbLine
 10
282.393
 20
336.578
 30
0
 11
282.393
 21
350.778
 31
0
  0
LINE
  5
A9A
330
A02
100
AcDbEntity
  8
View012
100
AcDbLine
 10
306.293
 20
369.828
 30
0
 11
306.293
 21
363.638
 31
0
  0
LINE
  5
A9B
330
A02
100
AcDbEntity
  8
View012
100
AcDbLine
 10
320.493
 20
369.828
 30
0
 11
306.293
 21
369.828
 31
0
  0
LINE
  5
A9C
330
A02
100
AcDbEntity
  8
View012
100
AcDbLine
 10
306.293
 20
363.638
 30
0
 11
304.443
 21
363.638
 31
0
  0
LINE
  5
A9D
330
A02
100
AcDbEntity
  8
View012
100
AcDbLine
 10
320.493
 20
363.638
 30
0
 11
320.493
 21
369.828
 31
0
  0
LINE
  5
A9E
330
A02
100
AcDbEntity
  8
View012
100
AcDbLine
 10
304.443
 20
369.648
 30
0
 11
304.443
 21
363.638
 31
0
  0
LINE
  5
A9F
330
A02
100
AcDbEntity
  8
View012
100
AcDbLine
 10
322.343
 20
363.638
 30
0
 11
320.493
 21
363.638
 31
0
  0
LINE
  5
AA0
330
A02
100
AcDbEntity
  8
View012
100
AcDbLine
 10
304.443
 20
369.648
 30
0
 11
303.393
 21
369.648
 31
0
  0
LINE
  5
AA1
330
A02
100
AcDbEntity
  8
View012
100
AcDbLine
 10
322.343
 20
369.648
 30
0
 11
322.343
 21
363.638
 31
0
  0
LINE
  5
AA2
330
A02
100
AcDbEntity
  8
View012
100
AcDbLine
 10
303.393
 20
371.648
 30
0
 11
303.393
 21
369.648
 31
0
  0
LINE
  5
AA3
330
A02
100
AcDbEntity
  8
View012
100
AcDbLine
 10
323.393
 20
369.648
 30
0
 11
322.343
 21
369.648
 31
0
  0
LINE
  5
AA4
330
A02
100
AcDbEntity
  8
View012
100
AcDbLine
 10
299.393
 20
371.648
 30
0
 11
303.393
 21
371.648
 31
0
  0
LINE
  5
AA5
330
A02
100
AcDbEntity
  8
View012
100
AcDbLine
 10
323.393
 20
369.648
 30
0
 11
323.393
 21
371.648
 31
0
  0
LINE
  5
AA6
330
A02
100
AcDbEntity
  8
View012
100
AcDbLine
 10
299.393
 20
369.648
 30
0
 11
299.393
 21
371.648
 31
0
  0
LINE
  5
AA7
330
A02
100
AcDbEntity
  8
View012
100
AcDbLine
 10
323.393
 20
371.648
 30
0
 11
327.393
 21
371.648
 31
0
  0
LINE
  5
AA8
330
A02
100
AcDbEntity
  8
View012
100
AcDbLine
 10
299.393
 20
369.648
 30
0
 11
298.343
 21
369.648
 31
0
  0
LINE
  5
AA9
330
A02
100
AcDbEntity
  8
View012
100
AcDbLine
 10
327.393
 20
371.648
 30
0
 11
327.393
 21
369.648
 31
0
  0
LINE
  5
AAA
330
A02
100
AcDbEntity
  8
View012
100
AcDbLine
 10
298.343
 20
369.648
 30
0
 11
298.343
 21
357.048
 31
0
  0
LINE
  5
AAB
330
A02
100
AcDbEntity
  8
View012
100
AcDbLine
 10
328.443
 20
369.648
 30
0
 11
327.393
 21
369.648
 31
0
  0
LINE
  5
AAC
330
A02
100
AcDbEntity
  8
View012
100
AcDbLine
 10
298.343
 20
357.048
 30
0
 11
304.443
 21
357.048
 31
0
  0
LINE
  5
AAD
330
A02
100
AcDbEntity
  8
View012
100
AcDbLine
 10
328.443
 20
357.048
 30
0
 11
328.443
 21
369.648
 31
0
  0
LINE
  5
AAE
330
A02
100
AcDbEntity
  8
View012
100
AcDbLine
 10
304.443
 20
357.048
 30
0
 11
304.443
 21
360.438
 31
0
  0
LINE
  5
AAF
330
A02
100
AcDbEntity
  8
View012
100
AcDbLine
 10
322.343
 20
357.048
 30
0
 11
328.443
 21
357.048
 31
0
  0
LINE
  5
AB0
330
A02
100
AcDbEntity
  8
View012
100
AcDbLine
 10
304.443
 20
360.438
 30
0
 11
306.293
 21
360.438
 31
0
  0
LINE
  5
AB1
330
A02
100
AcDbEntity
  8
View012
100
AcDbLine
 10
322.343
 20
360.438
 30
0
 11
322.343
 21
357.048
 31
0
  0
LINE
  5
AB2
330
A02
100
AcDbEntity
  8
View012
100
AcDbLine
 10
306.293
 20
360.438
 30
0
 11
306.293
 21
355.628
 31
0
  0
LINE
  5
AB3
330
A02
100
AcDbEntity
  8
View012
100
AcDbLine
 10
320.493
 20
360.438
 30
0
 11
322.343
 21
360.438
 31
0
  0
LINE
  5
AB4
330
A02
100
AcDbEntity
  8
View012
100
AcDbLine
 10
306.293
 20
355.628
 30
0
 11
320.493
 21
355.628
 31
0
  0
LINE
  5
AB5
330
A02
100
AcDbEntity
  8
View012
100
AcDbLine
 10
320.493
 20
355.628
 30
0
 11
320.493
 21
360.438
 31
0
  0
LINE
  5
AB6
330
A02
100
AcDbEntity
  8
View012
100
AcDbLine
 10
277.718
 20
369.828
 30
0
 11
277.718
 21
355.628
 31
0
  0
LINE
  5
AB7
330
A02
100
AcDbEntity
  8
View012
100
AcDbLine
 10
291.918
 20
369.828
 30
0
 11
277.718
 21
369.828
 31
0
  0
LINE
  5
AB8
330
A02
100
AcDbEntity
  8
View012
100
AcDbLine
 10
277.718
 20
355.628
 30
0
 11
291.918
 21
355.628
 31
0
  0
LINE
  5
AB9
330
A02
100
AcDbEntity
  8
View012
100
AcDbLine
 10
291.918
 20
355.628
 30
0
 11
291.918
 21
369.828
 31
0
  0
LINE
  5
ABA
330
A02
100
AcDbEntity
  8
View012
100
AcDbLine
 10
344.393
 20
393.641
 30
0
 11
344.393
 21
379.441
 31
0
  0
LINE
  5
ABB
330
A02
100
AcDbEntity
  8
View012
100
AcDbLine
 10
358.593
 20
393.641
 30
0
 11
344.393
 21
393.641
 31
0
  0
LINE
  5
ABC
330
A02
100
AcDbEntity
  8
View012
100
AcDbLine
 10
344.393
 20
379.441
 30
0
 11
358.593
 21
379.441
 31
0
  0
LINE
  5
ABD
330
A02
100
AcDbEntity
  8
View012
100
AcDbLine
 10
358.593
 20
379.441
 30
0
 11
358.593
 21
393.641
 31
0
  0
LINE
  5
ABE
330
A02
100
AcDbEntity
  8
View012
100
AcDbLine
 10
315.818
 20
393.641
 30
0
 11
315.818
 21
379.441
 31
0
  0
LINE
  5
ABF
330
A02
100
AcDbEntity
  8
View012
100
AcDbLine
 10
330.018
 20
393.641
 30
0
 11
315.818
 21
393.641
 31
0
  0
LINE
  5
AC0
330
A02
100
AcDbEntity
  8
View012
100
AcDbLine
 10
315.818
 20
379.441
 30
0
 11
330.018
 21
379.441
 31
0
  0
LINE
  5
AC1
330
A02
100
AcDbEntity
  8
View012
100
AcDbLine
 10
330.018
 20
379.441
 30
0
 11
330.018
 21
393.641
 31
0
  0
CIRCLE
  5
AC2
330
A02
100
AcDbEntity
  8
View012
100
AcDbCircle
 10
362.761
 20
412.983
 40
1.7
  0
LINE
  5
AC3
330
A02
100
AcDbEntity
  8
View012
100
AcDbLine
 10
292.006
 20
393.641
 30
0
 11
292.006
 21
379.441
 31
0
  0
LINE
  5
AC4
330
A02
100
AcDbEntity
  8
View012
100
AcDbLine
 10
306.206
 20
393.641
 30
0
 11
292.006
 21
393.641
 31
0
  0
LINE
  5
AC5
330
A02
100
AcDbEntity
  8
View012
100
AcDbLine
 10
292.006
 20
379.441
 30
0
 11
306.206
 21
379.441
 31
0
  0
LINE
  5
AC6
330
A02
100
AcDbEntity
  8
View012
100
AcDbLine
 10
306.206
 20
379.441
 30
0
 11
306.206
 21
393.641
 31
0
  0
LINE
  5
AC7
330
A02
100
AcDbEntity
  8
View012
100
AcDbLine
 10
272.956
 20
393.641
 30
0
 11
272.956
 21
379.441
 31
0
  0
LINE
  5
AC8
330
A02
100
AcDbEntity
  8
View012
100
AcDbLine
 10
287.156
 20
393.641
 30
0
 11
272.956
 21
393.641
 31
0
  0
LINE
  5
AC9
330
A02
100
AcDbEntity
  8
View012
100
AcDbLine
 10
272.956
 20
379.441
 30
0
 11
287.156
 21
379.441
 31
0
  0
LINE
  5
ACA
330
A02
100
AcDbEntity
  8
View012
100
AcDbLine
 10
287.156
 20
379.441
 30
0
 11
287.156
 21
393.641
 31
0
  0
CIRCLE
  5
ACB
330
A02
100
AcDbEntity
  8
View012
100
AcDbCircle
 10
276.162
 20
414.741
 40
1.7
  0
LINE
  5
ACC
330
A02
100
AcDbEntity
  8
View012
100
AcDbLine
 10
249.143
 20
350.778
 30
0
 11
249.143
 21
336.578
 31
0
  0
LINE
  5
ACD
330
A02
100
AcDbEntity
  8
View012
100
AcDbLine
 10
263.343
 20
350.778
 30
0
 11
249.143
 21
350.778
 31
0
  0
LINE
  5
ACE
330
A02
100
AcDbEntity
  8
View012
100
AcDbLine
 10
249.143
 20
336.578
 30
0
 11
263.343
 21
336.578
 31
0
  0
LINE
  5
ACF
330
A02
100
AcDbEntity
  8
View012
100
AcDbLine
 10
263.343
 20
336.578
 30
0
 11
263.343
 21
350.778
 31
0
  0
LINE
  5
AD0
330
A02
100
AcDbEntity
  8
View012
100
AcDbLine
 10
230.093
 20
350.778
 30
0
 11
230.093
 21
336.578
 31
0
  0
LINE
  5
AD1
330
A02
100
AcDbEntity
  8
View012
100
AcDbLine
 10
244.293
 20
350.778
 30
0
 11
230.093
 21
350.778
 31
0
  0
LINE
  5
AD2
330
A02
100
AcDbEntity
  8
View012
100
AcDbLine
 10
230.093
 20
336.578
 30
0
 11
244.293
 21
336.578
 31
0
  0
LINE
  5
AD3
330
A02
100
AcDbEntity
  8
View012
100
AcDbLine
 10
244.293
 20
336.578
 30
0
 11
244.293
 21
350.778
 31
0
  0
LINE
  5
AD4
330
A02
100
AcDbEntity
  8
View012
100
AcDbLine
 10
258.668
 20
369.828
 30
0
 11
258.668
 21
355.628
 31
0
  0
LINE
  5
AD5
330
A02
100
AcDbEntity
  8
View012
100
AcDbLine
 10
272.868
 20
369.828
 30
0
 11
258.668
 21
369.828
 31
0
  0
LINE
  5
AD6
330
A02
100
AcDbEntity
  8
View012
100
AcDbLine
 10
258.668
 20
355.628
 30
0
 11
272.868
 21
355.628
 31
0
  0
LINE
  5
AD7
330
A02
100
AcDbEntity
  8
View012
100
AcDbLine
 10
272.868
 20
355.628
 30
0
 11
272.868
 21
369.828
 31
0
  0
LINE
  5
AD8
330
A02
100
AcDbEntity
  8
View012
100
AcDbLine
 10
239.618
 20
369.828
 30
0
 11
239.618
 21
355.628
 31
0
  0
LINE
  5
AD9
330
A02
100
AcDbEntity
  8
View012
100
AcDbLine
 10
253.818
 20
369.828
 30
0
 11
239.618
 21
369.828
 31
0
  0
LINE
  5
ADA
330
A02
100
AcDbEntity
  8
View012
100
AcDbLine
 10
239.618
 20
355.628
 30
0
 11
253.818
 21
355.628
 31
0
  0
LINE
  5
ADB
330
A02
100
AcDbEntity
  8
View012
100
AcDbLine
 10
253.818
 20
355.628
 30
0
 11
253.818
 21
369.828
 31
0
  0
LINE
  5
ADC
330
A02
100
AcDbEntity
  8
View012
100
AcDbLine
 10
211.043
 20
350.778
 30
0
 11
211.043
 21
336.578
 31
0
  0
LINE
  5
ADD
330
A02
100
AcDbEntity
  8
View012
100
AcDbLine
 10
225.243
 20
350.778
 30
0
 11
211.043
 21
350.778
 31
0
  0
LINE
  5
ADE
330
A02
100
AcDbEntity
  8
View012
100
AcDbLine
 10
211.043
 20
336.578
 30
0
 11
225.243
 21
336.578
 31
0
  0
LINE
  5
ADF
330
A02
100
AcDbEntity
  8
View012
100
AcDbLine
 10
225.243
 20
336.578
 30
0
 11
225.243
 21
350.778
 31
0
  0
LINE
  5
AE0
330
A02
100
AcDbEntity
  8
View012
100
AcDbLine
 10
191.993
 20
350.778
 30
0
 11
191.993
 21
336.578
 31
0
  0
LINE
  5
AE1
330
A02
100
AcDbEntity
  8
View012
100
AcDbLine
 10
206.193
 20
350.778
 30
0
 11
191.993
 21
350.778
 31
0
  0
LINE
  5
AE2
330
A02
100
AcDbEntity
  8
View012
100
AcDbLine
 10
191.993
 20
336.578
 30
0
 11
206.193
 21
336.578
 31
0
  0
LINE
  5
AE3
330
A02
100
AcDbEntity
  8
View012
100
AcDbLine
 10
206.193
 20
336.578
 30
0
 11
206.193
 21
350.778
 31
0
  0
LINE
  5
AE4
330
A02
100
AcDbEntity
  8
View012
100
AcDbLine
 10
220.568
 20
369.828
 30
0
 11
220.568
 21
355.628
 31
0
  0
LINE
  5
AE5
330
A02
100
AcDbEntity
  8
View012
100
AcDbLine
 10
234.768
 20
369.828
 30
0
 11
220.568
 21
369.828
 31
0
  0
LINE
  5
AE6
330
A02
100
AcDbEntity
  8
View012
100
AcDbLine
 10
220.568
 20
355.628
 30
0
 11
234.768
 21
355.628
 31
0
  0
LINE
  5
AE7
330
A02
100
AcDbEntity
  8
View012
100
AcDbLine
 10
234.768
 20
355.628
 30
0
 11
234.768
 21
369.828
 31
0
  0
LINE
  5
AE8
330
A02
100
AcDbEntity
  8
View012
100
AcDbLine
 10
201.518
 20
369.828
 30
0
 11
201.518
 21
355.628
 31
0
  0
LINE
  5
AE9
330
A02
100
AcDbEntity
  8
View012
100
AcDbLine
 10
215.718
 20
369.828
 30
0
 11
201.518
 21
369.828
 31
0
  0
LINE
  5
AEA
330
A02
100
AcDbEntity
  8
View012
100
AcDbLine
 10
201.518
 20
355.628
 30
0
 11
215.718
 21
355.628
 31
0
  0
LINE
  5
AEB
330
A02
100
AcDbEntity
  8
View012
100
AcDbLine
 10
215.718
 20
355.628
 30
0
 11
215.718
 21
369.828
 31
0
  0
LINE
  5
AEC
330
A02
100
AcDbEntity
  8
View012
100
AcDbLine
 10
182.468
 20
369.828
 30
0
 11
182.468
 21
355.628
 31
0
  0
LINE
  5
AED
330
A02
100
AcDbEntity
  8
View012
100
AcDbLine
 10
196.668
 20
369.828
 30
0
 11
182.468
 21
369.828
 31
0
  0
LINE
  5
AEE
330
A02
100
AcDbEntity
  8
View012
100
AcDbLine
 10
182.468
 20
355.628
 30
0
 11
196.668
 21
355.628
 31
0
  0
LINE
  5
AEF
330
A02
100
AcDbEntity
  8
View012
100
AcDbLine
 10
196.668
 20
355.628
 30
0
 11
196.668
 21
369.828
 31
0
  0
LINE
  5
AF0
330
A02
100
AcDbEntity
  8
View012
100
AcDbLine
 10
253.906
 20
393.641
 30
0
 11
253.906
 21
379.441
 31
0
  0
LINE
  5
AF1
330
A02
100
AcDbEntity
  8
View012
100
AcDbLine
 10
268.106
 20
393.641
 30
0
 11
253.906
 21
393.641
 31
0
  0
LINE
  5
AF2
330
A02
100
AcDbEntity
  8
View012
100
AcDbLine
 10
253.906
 20
379.441
 30
0
 11
268.106
 21
379.441
 31
0
  0
LINE
  5
AF3
330
A02
100
AcDbEntity
  8
View012
100
AcDbLine
 10
268.106
 20
379.441
 30
0
 11
268.106
 21
393.641
 31
0
  0
LINE
  5
AF4
330
A02
100
AcDbEntity
  8
View012
100
AcDbLine
 10
234.856
 20
393.641
 30
0
 11
234.856
 21
379.441
 31
0
  0
LINE
  5
AF5
330
A02
100
AcDbEntity
  8
View012
100
AcDbLine
 10
249.056
 20
393.641
 30
0
 11
234.856
 21
393.641
 31
0
  0
LINE
  5
AF6
330
A02
100
AcDbEntity
  8
View012
100
AcDbLine
 10
234.856
 20
379.441
 30
0
 11
249.056
 21
379.441
 31
0
  0
LINE
  5
AF7
330
A02
100
AcDbEntity
  8
View012
100
AcDbLine
 10
249.056
 20
379.441
 30
0
 11
249.056
 21
393.641
 31
0
  0
LINE
  5
AF8
330
A02
100
AcDbEntity
  8
View012
100
AcDbLine
 10
211.043
 20
393.641
 30
0
 11
211.043
 21
379.441
 31
0
  0
LINE
  5
AF9
330
A02
100
AcDbEntity
  8
View012
100
AcDbLine
 10
225.243
 20
393.641
 30
0
 11
211.043
 21
393.641
 31
0
  0
LINE
  5
AFA
330
A02
100
AcDbEntity
  8
View012
100
AcDbLine
 10
211.043
 20
379.441
 30
0
 11
225.243
 21
379.441
 31
0
  0
LINE
  5
AFB
330
A02
100
AcDbEntity
  8
View012
100
AcDbLine
 10
225.243
 20
379.441
 30
0
 11
225.243
 21
393.641
 31
0
  0
LINE
  5
AFC
330
A02
100
AcDbEntity
  8
View012
100
AcDbLine
 10
191.993
 20
393.641
 30
0
 11
191.993
 21
379.441
 31
0
  0
LINE
  5
AFD
330
A02
100
AcDbEntity
  8
View012
100
AcDbLine
 10
206.193
 20
393.641
 30
0
 11
191.993
 21
393.641
 31
0
  0
LINE
  5
AFE
330
A02
100
AcDbEntity
  8
View012
100
AcDbLine
 10
191.993
 20
379.441
 30
0
 11
206.193
 21
379.441
 31
0
  0
LINE
  5
AFF
330
A02
100
AcDbEntity
  8
View012
100
AcDbLine
 10
206.193
 20
379.441
 30
0
 11
206.193
 21
393.641
 31
0
  0
CIRCLE
  5
B00
330
A02
100
AcDbEntity
  8
View012
100
AcDbCircle
 10
184.806
 20
268.741
 40
1.7
  0
LINE
  5
B01
330
A02
100
AcDbEntity
  8
View012
100
AcDbLine
 10
170.562
 20
293.628
 30
0
 11
170.562
 21
287.438
 31
0
  0
LINE
  5
B02
330
A02
100
AcDbEntity
  8
View012
100
AcDbLine
 10
184.762
 20
293.628
 30
0
 11
170.562
 21
293.628
 31
0
  0
LINE
  5
B03
330
A02
100
AcDbEntity
  8
View012
100
AcDbLine
 10
130.712
 20
287.438
 30
0
 11
170.562
 21
287.438
 31
0
  0
LINE
  5
B04
330
A02
100
AcDbEntity
  8
View012
100
AcDbLine
 10
184.762
 20
287.438
 30
0
 11
184.762
 21
293.628
 31
0
  0
LINE
  5
B05
330
A02
100
AcDbEntity
  8
View012
100
AcDbLine
 10
130.712
 20
287.438
 30
0
 11
130.712
 21
293.448
 31
0
  0
LINE
  5
B06
330
A02
100
AcDbEntity
  8
View012
100
AcDbLine
 10
184.762
 20
287.438
 30
0
 11
224.612
 21
287.438
 31
0
  0
LINE
  5
B07
330
A02
100
AcDbEntity
  8
View012
100
AcDbLine
 10
130.712
 20
293.448
 30
0
 11
129.662
 21
293.448
 31
0
  0
LINE
  5
B08
330
A02
100
AcDbEntity
  8
View012
100
AcDbLine
 10
224.612
 20
293.448
 30
0
 11
224.612
 21
287.438
 31
0
  0
LINE
  5
B09
330
A02
100
AcDbEntity
  8
View012
100
AcDbLine
 10
129.662
 20
293.448
 30
0
 11
129.662
 21
295.448
 31
0
  0
LINE
  5
B0A
330
A02
100
AcDbEntity
  8
View012
100
AcDbLine
 10
225.662
 20
293.448
 30
0
 11
224.612
 21
293.448
 31
0
  0
LINE
  5
B0B
330
A02
100
AcDbEntity
  8
View012
100
AcDbLine
 10
129.662
 20
295.448
 30
0
 11
125.662
 21
295.448
 31
0
  0
LINE
  5
B0C
330
A02
100
AcDbEntity
  8
View012
100
AcDbLine
 10
225.662
 20
293.448
 30
0
 11
225.662
 21
295.448
 31
0
  0
LINE
  5
B0D
330
A02
100
AcDbEntity
  8
View012
100
AcDbLine
 10
125.662
 20
295.448
 30
0
 11
125.662
 21
293.448
 31
0
  0
LINE
  5
B0E
330
A02
100
AcDbEntity
  8
View012
100
AcDbLine
 10
225.662
 20
295.448
 30
0
 11
229.662
 21
295.448
 31
0
  0
LINE
  5
B0F
330
A02
100
AcDbEntity
  8
View012
100
AcDbLine
 10
125.662
 20
293.448
 30
0
 11
124.612
 21
293.448
 31
0
  0
LINE
  5
B10
330
A02
100
AcDbEntity
  8
View012
100
AcDbLine
 10
229.662
 20
295.448
 30
0
 11
229.662
 21
293.448
 31
0
  0
LINE
  5
B11
330
A02
100
AcDbEntity
  8
View012
100
AcDbLine
 10
124.612
 20
293.448
 30
0
 11
124.612
 21
280.848
 31
0
  0
LINE
  5
B12
330
A02
100
AcDbEntity
  8
View012
100
AcDbLine
 10
230.712
 20
293.448
 30
0
 11
229.662
 21
293.448
 31
0
  0
LINE
  5
B13
330
A02
100
AcDbEntity
  8
View012
100
AcDbLine
 10
124.612
 20
280.848
 30
0
 11
130.712
 21
280.848
 31
0
  0
LINE
  5
B14
330
A02
100
AcDbEntity
  8
View012
100
AcDbLine
 10
230.712
 20
280.848
 30
0
 11
230.712
 21
293.448
 31
0
  0
LINE
  5
B15
330
A02
100
AcDbEntity
  8
View012
100
AcDbLine
 10
130.712
 20
280.848
 30
0
 11
130.712
 21
284.238
 31
0
  0
LINE
  5
B16
330
A02
100
AcDbEntity
  8
View012
100
AcDbLine
 10
224.612
 20
280.848
 30
0
 11
230.712
 21
280.848
 31
0
  0
LINE
  5
B17
330
A02
100
AcDbEntity
  8
View012
100
AcDbLine
 10
170.562
 20
284.238
 30
0
 11
130.712
 21
284.238
 31
0
  0
LINE
  5
B18
330
A02
100
AcDbEntity
  8
View012
100
AcDbLine
 10
224.612
 20
284.238
 30
0
 11
224.612
 21
280.848
 31
0
  0
LINE
  5
B19
330
A02
100
AcDbEntity
  8
View012
100
AcDbLine
 10
170.562
 20
284.238
 30
0
 11
170.562
 21
279.428
 31
0
  0
LINE
  5
B1A
330
A02
100
AcDbEntity
  8
View012
100
AcDbLine
 10
224.612
 20
284.238
 30
0
 11
184.762
 21
284.238
 31
0
  0
LINE
  5
B1B
330
A02
100
AcDbEntity
  8
View012
100
AcDbLine
 10
170.562
 20
279.428
 30
0
 11
184.762
 21
279.428
 31
0
  0
LINE
  5
B1C
330
A02
100
AcDbEntity
  8
View012
100
AcDbLine
 10
184.762
 20
279.428
 30
0
 11
184.762
 21
284.238
 31
0
  0
LINE
  5
B1D
330
A02
100
AcDbEntity
  8
View012
100
AcDbLine
 10
99.1244
 20
293.628
 30
0
 11
99.1244
 21
279.428
 31
0
  0
LINE
  5
B1E
330
A02
100
AcDbEntity
  8
View012
100
AcDbLine
 10
113.324
 20
293.628
 30
0
 11
99.1244
 21
293.628
 31
0
  0
LINE
  5
B1F
330
A02
100
AcDbEntity
  8
View012
100
AcDbLine
 10
99.1244
 20
279.428
 30
0
 11
113.324
 21
279.428
 31
0
  0
LINE
  5
B20
330
A02
100
AcDbEntity
  8
View012
100
AcDbLine
 10
113.324
 20
279.428
 30
0
 11
113.324
 21
293.628
 31
0
  0
LINE
  5
B21
330
A02
100
AcDbEntity
  8
View012
100
AcDbLine
 10
168.181
 20
312.678
 30
0
 11
168.181
 21
298.478
 31
0
  0
LINE
  5
B22
330
A02
100
AcDbEntity
  8
View012
100
AcDbLine
 10
182.381
 20
312.678
 30
0
 11
168.181
 21
312.678
 31
0
  0
LINE
  5
B23
330
A02
100
AcDbEntity
  8
View012
100
AcDbLine
 10
168.181
 20
298.478
 30
0
 11
182.381
 21
298.478
 31
0
  0
LINE
  5
B24
330
A02
100
AcDbEntity
  8
View012
100
AcDbLine
 10
182.381
 20
298.478
 30
0
 11
182.381
 21
312.678
 31
0
  0
LINE
  5
B25
330
A02
100
AcDbEntity
  8
View012
100
AcDbLine
 10
149.131
 20
312.678
 30
0
 11
149.131
 21
298.478
 31
0
  0
LINE
  5
B26
330
A02
100
AcDbEntity
  8
View012
100
AcDbLine
 10
163.331
 20
312.678
 30
0
 11
149.131
 21
312.678
 31
0
  0
LINE
  5
B27
330
A02
100
AcDbEntity
  8
View012
100
AcDbLine
 10
149.131
 20
298.478
 30
0
 11
163.331
 21
298.478
 31
0
  0
LINE
  5
B28
330
A02
100
AcDbEntity
  8
View012
100
AcDbLine
 10
163.331
 20
298.478
 30
0
 11
163.331
 21
312.678
 31
0
  0
LINE
  5
B29
330
A02
100
AcDbEntity
  8
View012
100
AcDbLine
 10
177.706
 20
331.728
 30
0
 11
177.706
 21
317.528
 31
0
  0
LINE
  5
B2A
330
A02
100
AcDbEntity
  8
View012
100
AcDbLine
 10
191.906
 20
331.728
 30
0
 11
177.706
 21
331.728
 31
0
  0
LINE
  5
B2B
330
A02
100
AcDbEntity
  8
View012
100
AcDbLine
 10
177.706
 20
317.528
 30
0
 11
191.906
 21
317.528
 31
0
  0
LINE
  5
B2C
330
A02
100
AcDbEntity
  8
View012
100
AcDbLine
 10
191.906
 20
317.528
 30
0
 11
191.906
 21
331.728
 31
0
  0
LINE
  5
B2D
330
A02
100
AcDbEntity
  8
View012
100
AcDbLine
 10
158.656
 20
331.728
 30
0
 11
158.656
 21
317.528
 31
0
  0
LINE
  5
B2E
330
A02
100
AcDbEntity
  8
View012
100
AcDbLine
 10
172.856
 20
331.728
 30
0
 11
158.656
 21
331.728
 31
0
  0
LINE
  5
B2F
330
A02
100
AcDbEntity
  8
View012
100
AcDbLine
 10
158.656
 20
317.528
 30
0
 11
172.856
 21
317.528
 31
0
  0
LINE
  5
B30
330
A02
100
AcDbEntity
  8
View012
100
AcDbLine
 10
172.856
 20
317.528
 30
0
 11
172.856
 21
331.728
 31
0
  0
LINE
  5
B31
330
A02
100
AcDbEntity
  8
View012
100
AcDbLine
 10
139.606
 20
331.728
 30
0
 11
139.606
 21
317.528
 31
0
  0
LINE
  5
B32
330
A02
100
AcDbEntity
  8
View012
100
AcDbLine
 10
153.806
 20
331.728
 30
0
 11
139.606
 21
331.728
 31
0
  0
LINE
  5
B33
330
A02
100
AcDbEntity
  8
View012
100
AcDbLine
 10
139.606
 20
317.528
 30
0
 11
153.806
 21
317.528
 31
0
  0
LINE
  5
B34
330
A02
100
AcDbEntity
  8
View012
100
AcDbLine
 10
153.806
 20
317.528
 30
0
 11
153.806
 21
331.728
 31
0
  0
LINE
  5
B35
330
A02
100
AcDbEntity
  8
View012
100
AcDbLine
 10
130.081
 20
312.678
 30
0
 11
130.081
 21
298.478
 31
0
  0
LINE
  5
B36
330
A02
100
AcDbEntity
  8
View012
100
AcDbLine
 10
144.281
 20
312.678
 30
0
 11
130.081
 21
312.678
 31
0
  0
LINE
  5
B37
330
A02
100
AcDbEntity
  8
View012
100
AcDbLine
 10
130.081
 20
298.478
 30
0
 11
144.281
 21
298.478
 31
0
  0
LINE
  5
B38
330
A02
100
AcDbEntity
  8
View012
100
AcDbLine
 10
144.281
 20
298.478
 30
0
 11
144.281
 21
312.678
 31
0
  0
LINE
  5
B39
330
A02
100
AcDbEntity
  8
View012
100
AcDbLine
 10
111.031
 20
312.678
 30
0
 11
111.031
 21
298.478
 31
0
  0
LINE
  5
B3A
330
A02
100
AcDbEntity
  8
View012
100
AcDbLine
 10
125.231
 20
312.678
 30
0
 11
111.031
 21
312.678
 31
0
  0
LINE
  5
B3B
330
A02
100
AcDbEntity
  8
View012
100
AcDbLine
 10
111.031
 20
298.478
 30
0
 11
125.231
 21
298.478
 31
0
  0
LINE
  5
B3C
330
A02
100
AcDbEntity
  8
View012
100
AcDbLine
 10
125.231
 20
298.478
 30
0
 11
125.231
 21
312.678
 31
0
  0
LINE
  5
B3D
330
A02
100
AcDbEntity
  8
View012
100
AcDbLine
 10
91.9806
 20
312.678
 30
0
 11
91.9806
 21
298.478
 31
0
  0
LINE
  5
B3E
330
A02
100
AcDbEntity
  8
View012
100
AcDbLine
 10
106.181
 20
312.678
 30
0
 11
91.9806
 21
312.678
 31
0
  0
LINE
  5
B3F
330
A02
100
AcDbEntity
  8
View012
100
AcDbLine
 10
91.9806
 20
298.478
 30
0
 11
106.181
 21
298.478
 31
0
  0
LINE
  5
B40
330
A02
100
AcDbEntity
  8
View012
100
AcDbLine
 10
106.181
 20
298.478
 30
0
 11
106.181
 21
312.678
 31
0
  0
LINE
  5
B41
330
A02
100
AcDbEntity
  8
View012
100
AcDbLine
 10
120.556
 20
331.728
 30
0
 11
120.556
 21
317.528
 31
0
  0
LINE
  5
B42
330
A02
100
AcDbEntity
  8
View012
100
AcDbLine
 10
134.756
 20
331.728
 30
0
 11
120.556
 21
331.728
 31
0
  0
LINE
  5
B43
330
A02
100
AcDbEntity
  8
View012
100
AcDbLine
 10
120.556
 20
317.528
 30
0
 11
134.756
 21
317.528
 31
0
  0
LINE
  5
B44
330
A02
100
AcDbEntity
  8
View012
100
AcDbLine
 10
134.756
 20
317.528
 30
0
 11
134.756
 21
331.728
 31
0
  0
LINE
  5
B45
330
A02
100
AcDbEntity
  8
View012
100
AcDbLine
 10
101.506
 20
331.728
 30
0
 11
101.506
 21
317.528
 31
0
  0
LINE
  5
B46
330
A02
100
AcDbEntity
  8
View012
100
AcDbLine
 10
115.706
 20
331.728
 30
0
 11
101.506
 21
331.728
 31
0
  0
LINE
  5
B47
330
A02
100
AcDbEntity
  8
View012
100
AcDbLine
 10
101.506
 20
317.528
 30
0
 11
115.706
 21
317.528
 31
0
  0
LINE
  5
B48
330
A02
100
AcDbEntity
  8
View012
100
AcDbLine
 10
115.706
 20
317.528
 30
0
 11
115.706
 21
331.728
 31
0
  0
CIRCLE
  5
B49
330
A02
100
AcDbEntity
  8
View012
100
AcDbCircle
 10
93.4494
 20
268.741
 40
1.7
  0
LINE
  5
B4A
330
A02
100
AcDbEntity
  8
View012
100
AcDbLine
 10
75.3119
 20
293.628
 30
0
 11
75.3119
 21
279.428
 31
0
  0
LINE
  5
B4B
330
A02
100
AcDbEntity
  8
View012
100
AcDbLine
 10
89.5119
 20
293.628
 30
0
 11
75.3119
 21
293.628
 31
0
  0
LINE
  5
B4C
330
A02
100
AcDbEntity
  8
View012
100
AcDbLine
 10
75.3119
 20
279.428
 30
0
 11
89.5119
 21
279.428
 31
0
  0
LINE
  5
B4D
330
A02
100
AcDbEntity
  8
View012
100
AcDbLine
 10
89.5119
 20
279.428
 30
0
 11
89.5119
 21
293.628
 31
0
  0
LINE
  5
B4E
330
A02
100
AcDbEntity
  8
View012
100
AcDbLine
 10
51.4994
 20
293.628
 30
0
 11
51.4994
 21
279.428
 31
0
  0
LINE
  5
B4F
330
A02
100
AcDbEntity
  8
View012
100
AcDbLine
 10
65.6994
 20
293.628
 30
0
 11
51.4994
 21
293.628
 31
0
  0
LINE
  5
B50
330
A02
100
AcDbEntity
  8
View012
100
AcDbLine
 10
51.4994
 20
279.428
 30
0
 11
65.6994
 21
279.428
 31
0
  0
LINE
  5
B51
330
A02
100
AcDbEntity
  8
View012
100
AcDbLine
 10
65.6994
 20
279.428
 30
0
 11
65.6994
 21
293.628
 31
0
  0
CIRCLE
  5
B52
330
A02
100
AcDbEntity
  8
View012
100
AcDbCircle
 10
5.97181
 20
269.619
 40
1.7
  0
LINE
  5
B53
330
A02
100
AcDbEntity
  8
View012
100
AcDbLine
 10
33.4181
 20
290.278
 30
0
 11
33.4181
 21
282.778
 31
0
  0
LINE
  5
B54
330
A02
100
AcDbEntity
  8
View012
100
AcDbLine
 10
40.9181
 20
290.278
 30
0
 11
33.4181
 21
290.278
 31
0
  0
LINE
  5
B55
330
A02
100
AcDbEntity
  8
View012
100
AcDbLine
 10
33.4181
 20
282.778
 30
0
 11
40.9181
 21
282.778
 31
0
  0
LINE
  5
B56
330
A02
100
AcDbEntity
  8
View012
100
AcDbLine
 10
40.9181
 20
282.778
 30
0
 11
40.9181
 21
290.278
 31
0
  0
LINE
  5
B57
330
A02
100
AcDbEntity
  8
View012
100
AcDbLine
 10
14.3681
 20
290.278
 30
0
 11
14.3681
 21
282.778
 31
0
  0
LINE
  5
B58
330
A02
100
AcDbEntity
  8
View012
100
AcDbLine
 10
21.8681
 20
290.278
 30
0
 11
14.3681
 21
290.278
 31
0
  0
LINE
  5
B59
330
A02
100
AcDbEntity
  8
View012
100
AcDbLine
 10
14.3681
 20
282.778
 30
0
 11
21.8681
 21
282.778
 31
0
  0
LINE
  5
B5A
330
A02
100
AcDbEntity
  8
View012
100
AcDbLine
 10
21.8681
 20
282.778
 30
0
 11
21.8681
 21
290.278
 31
0
  0
LINE
  5
B5B
330
A02
100
AcDbEntity
  8
View012
100
AcDbLine
 10
61.0244
 20
312.678
 30
0
 11
61.0244
 21
306.488
 31
0
  0
LINE
  5
B5C
330
A02
100
AcDbEntity
  8
View012
100
AcDbLine
 10
75.2244
 20
312.678
 30
0
 11
61.0244
 21
312.678
 31
0
  0
LINE
  5
B5D
330
A02
100
AcDbEntity
  8
View012
100
AcDbLine
 10
59.1744
 20
306.488
 30
0
 11
61.0244
 21
306.488
 31
0
  0
LINE
  5
B5E
330
A02
100
AcDbEntity
  8
View012
100
AcDbLine
 10
75.2244
 20
306.488
 30
0
 11
75.2244
 21
312.678
 31
0
  0
LINE
  5
B5F
330
A02
100
AcDbEntity
  8
View012
100
AcDbLine
 10
59.1744
 20
306.488
 30
0
 11
59.1744
 21
312.498
 31
0
  0
LINE
  5
B60
330
A02
100
AcDbEntity
  8
View012
100
AcDbLine
 10
75.2244
 20
306.488
 30
0
 11
77.0744
 21
306.488
 31
0
  0
LINE
  5
B61
330
A02
100
AcDbEntity
  8
View012
100
AcDbLine
 10
59.1744
 20
312.498
 30
0
 11
58.1244
 21
312.498
 31
0
  0
LINE
  5
B62
330
A02
100
AcDbEntity
  8
View012
100
AcDbLine
 10
77.0744
 20
312.498
 30
0
 11
77.0744
 21
306.488
 31
0
  0
LINE
  5
B63
330
A02
100
AcDbEntity
  8
View012
100
AcDbLine
 10
58.1244
 20
314.498
 30
0
 11
58.1244
 21
312.498
 31
0
  0
LINE
  5
B64
330
A02
100
AcDbEntity
  8
View012
100
AcDbLine
 10
78.1244
 20
312.498
 30
0
 11
77.0744
 21
312.498
 31
0
  0
LINE
  5
B65
330
A02
100
AcDbEntity
  8
View012
100
AcDbLine
 10
54.1244
 20
314.498
 30
0
 11
58.1244
 21
314.498
 31
0
  0
LINE
  5
B66
330
A02
100
AcDbEntity
  8
View012
100
AcDbLine
 10
78.1244
 20
312.498
 30
0
 11
78.1244
 21
314.498
 31
0
  0
LINE
  5
B67
330
A02
100
AcDbEntity
  8
View012
100
AcDbLine
 10
54.1244
 20
312.498
 30
0
 11
54.1244
 21
314.498
 31
0
  0
LINE
  5
B68
330
A02
100
AcDbEntity
  8
View012
100
AcDbLine
 10
78.1244
 20
314.498
 30
0
 11
82.1244
 21
314.498
 31
0
  0
LINE
  5
B69
330
A02
100
AcDbEntity
  8
View012
100
AcDbLine
 10
54.1244
 20
312.498
 30
0
 11
53.0744
 21
312.498
 31
0
  0
LINE
  5
B6A
330
A02
100
AcDbEntity
  8
View012
100
AcDbLine
 10
82.1244
 20
314.498
 30
0
 11
82.1244
 21
312.498
 31
0
  0
LINE
  5
B6B
330
A02
100
AcDbEntity
  8
View012
100
AcDbLine
 10
53.0744
 20
312.498
 30
0
 11
53.0744
 21
299.898
 31
0
  0
LINE
  5
B6C
330
A02
100
AcDbEntity
  8
View012
100
AcDbLine
 10
83.1744
 20
312.498
 30
0
 11
82.1244
 21
312.498
 31
0
  0
LINE
  5
B6D
330
A02
100
AcDbEntity
  8
View012
100
AcDbLine
 10
53.0744
 20
299.898
 30
0
 11
59.1744
 21
299.898
 31
0
  0
LINE
  5
B6E
330
A02
100
AcDbEntity
  8
View012
100
AcDbLine
 10
83.1744
 20
299.898
 30
0
 11
83.1744
 21
312.498
 31
0
  0
LINE
  5
B6F
330
A02
100
AcDbEntity
  8
View012
100
AcDbLine
 10
59.1744
 20
299.898
 30
0
 11
59.1744
 21
303.288
 31
0
  0
LINE
  5
B70
330
A02
100
AcDbEntity
  8
View012
100
AcDbLine
 10
77.0744
 20
299.898
 30
0
 11
83.1744
 21
299.898
 31
0
  0
LINE
  5
B71
330
A02
100
AcDbEntity
  8
View012
100
AcDbLine
 10
61.0244
 20
303.288
 30
0
 11
59.1744
 21
303.288
 31
0
  0
LINE
  5
B72
330
A02
100
AcDbEntity
  8
View012
100
AcDbLine
 10
77.0744
 20
303.288
 30
0
 11
77.0744
 21
299.898
 31
0
  0
LINE
  5
B73
330
A02
100
AcDbEntity
  8
View012
100
AcDbLine
 10
61.0244
 20
303.288
 30
0
 11
61.0244
 21
298.478
 31
0
  0
LINE
  5
B74
330
A02
100
AcDbEntity
  8
View012
100
AcDbLine
 10
77.0744
 20
303.288
 30
0
 11
75.2244
 21
303.288
 31
0
  0
LINE
  5
B75
330
A02
100
AcDbEntity
  8
View012
100
AcDbLine
 10
61.0244
 20
298.478
 30
0
 11
75.2244
 21
298.478
 31
0
  0
LINE
  5
B76
330
A02
100
AcDbEntity
  8
View012
100
AcDbLine
 10
75.2244
 20
298.478
 30
0
 11
75.2244
 21
303.288
 31
0
  0
LINE
  5
B77
330
A02
100
AcDbEntity
  8
View012
100
AcDbLine
 10
82.4556
 20
331.728
 30
0
 11
82.4556
 21
317.528
 31
0
  0
LINE
  5
B78
330
A02
100
AcDbEntity
  8
View012
100
AcDbLine
 10
96.6556
 20
331.728
 30
0
 11
82.4556
 21
331.728
 31
0
  0
LINE
  5
B79
330
A02
100
AcDbEntity
  8
View012
100
AcDbLine
 10
82.4556
 20
317.528
 30
0
 11
96.6556
 21
317.528
 31
0
  0
LINE
  5
B7A
330
A02
100
AcDbEntity
  8
View012
100
AcDbLine
 10
96.6556
 20
317.528
 30
0
 11
96.6556
 21
331.728
 31
0
  0
LINE
  5
B7B
330
A02
100
AcDbEntity
  8
View012
100
AcDbLine
 10
56.2619
 20
331.728
 30
0
 11
56.2619
 21
317.528
 31
0
  0
LINE
  5
B7C
330
A02
100
AcDbEntity
  8
View012
100
AcDbLine
 10
70.4619
 20
331.728
 30
0
 11
56.2619
 21
331.728
 31
0
  0
LINE
  5
B7D
330
A02
100
AcDbEntity
  8
View012
100
AcDbLine
 10
56.2619
 20
317.528
 30
0
 11
70.4619
 21
317.528
 31
0
  0
LINE
  5
B7E
330
A02
100
AcDbEntity
  8
View012
100
AcDbLine
 10
70.4619
 20
317.528
 30
0
 11
70.4619
 21
331.728
 31
0
  0
LINE
  5
B7F
330
A02
100
AcDbEntity
  8
View012
100
AcDbLine
 10
33.4181
 20
309.328
 30
0
 11
33.4181
 21
301.828
 31
0
  0
LINE
  5
B80
330
A02
100
AcDbEntity
  8
View012
100
AcDbLine
 10
40.9181
 20
309.328
 30
0
 11
33.4181
 21
309.328
 31
0
  0
LINE
  5
B81
330
A02
100
AcDbEntity
  8
View012
100
AcDbLine
 10
33.4181
 20
301.828
 30
0
 11
40.9181
 21
301.828
 31
0
  0
LINE
  5
B82
330
A02
100
AcDbEntity
  8
View012
100
AcDbLine
 10
40.9181
 20
301.828
 30
0
 11
40.9181
 21
309.328
 31
0
  0
LINE
  5
B83
330
A02
100
AcDbEntity
  8
View012
100
AcDbLine
 10
14.3681
 20
309.328
 30
0
 11
14.3681
 21
301.828
 31
0
  0
LINE
  5
B84
330
A02
100
AcDbEntity
  8
View012
100
AcDbLine
 10
21.8681
 20
309.328
 30
0
 11
14.3681
 21
309.328
 31
0
  0
LINE
  5
B85
330
A02
100
AcDbEntity
  8
View012
100
AcDbLine
 10
14.3681
 20
301.828
 30
0
 11
21.8681
 21
301.828
 31
0
  0
LINE
  5
B86
330
A02
100
AcDbEntity
  8
View012
100
AcDbLine
 10
21.8681
 20
301.828
 30
0
 11
21.8681
 21
309.328
 31
0
  0
LINE
  5
B87
330
A02
100
AcDbEntity
  8
View012
100
AcDbLine
 10
172.943
 20
350.778
 30
0
 11
172.943
 21
336.578
 31
0
  0
LINE
  5
B88
330
A02
100
AcDbEntity
  8
View012
100
AcDbLine
 10
187.143
 20
350.778
 30
0
 11
172.943
 21
350.778
 31
0
  0
LINE
  5
B89
330
A02
100
AcDbEntity
  8
View012
100
AcDbLine
 10
172.943
 20
336.578
 30
0
 11
187.143
 21
336.578
 31
0
  0
LINE
  5
B8A
330
A02
100
AcDbEntity
  8
View012
100
AcDbLine
 10
187.143
 20
336.578
 30
0
 11
187.143
 21
350.778
 31
0
  0
LINE
  5
B8B
330
A02
100
AcDbEntity
  8
View012
100
AcDbLine
 10
153.893
 20
350.778
 30
0
 11
153.893
 21
336.578
 31
0
  0
LINE
  5
B8C
330
A02
100
AcDbEntity
  8
View012
100
AcDbLine
 10
168.093
 20
350.778
 30
0
 11
153.893
 21
350.778
 31
0
  0
LINE
  5
B8D
330
A02
100
AcDbEntity
  8
View012
100
AcDbLine
 10
153.893
 20
336.578
 30
0
 11
168.093
 21
336.578
 31
0
  0
LINE
  5
B8E
330
A02
100
AcDbEntity
  8
View012
100
AcDbLine
 10
168.093
 20
336.578
 30
0
 11
168.093
 21
350.778
 31
0
  0
LINE
  5
B8F
330
A02
100
AcDbEntity
  8
View012
100
AcDbLine
 10
134.843
 20
350.778
 30
0
 11
134.843
 21
336.578
 31
0
  0
LINE
  5
B90
330
A02
100
AcDbEntity
  8
View012
100
AcDbLine
 10
149.043
 20
350.778
 30
0
 11
134.843
 21
350.778
 31
0
  0
LINE
  5
B91
330
A02
100
AcDbEntity
  8
View012
100
AcDbLine
 10
134.843
 20
336.578
 30
0
 11
149.043
 21
336.578
 31
0
  0
LINE
  5
B92
330
A02
100
AcDbEntity
  8
View012
100
AcDbLine
 10
149.043
 20
336.578
 30
0
 11
149.043
 21
350.778
 31
0
  0
LINE
  5
B93
330
A02
100
AcDbEntity
  8
View012
100
AcDbLine
 10
163.418
 20
369.828
 30
0
 11
163.418
 21
355.628
 31
0
  0
LINE
  5
B94
330
A02
100
AcDbEntity
  8
View012
100
AcDbLine
 10
177.618
 20
369.828
 30
0
 11
163.418
 21
369.828
 31
0
  0
LINE
  5
B95
330
A02
100
AcDbEntity
  8
View012
100
AcDbLine
 10
163.418
 20
355.628
 30
0
 11
177.618
 21
355.628
 31
0
  0
LINE
  5
B96
330
A02
100
AcDbEntity
  8
View012
100
AcDbLine
 10
177.618
 20
355.628
 30
0
 11
177.618
 21
369.828
 31
0
  0
LINE
  5
B97
330
A02
100
AcDbEntity
  8
View012
100
AcDbLine
 10
144.368
 20
369.828
 30
0
 11
144.368
 21
355.628
 31
0
  0
LINE
  5
B98
330
A02
100
AcDbEntity
  8
View012
100
AcDbLine
 10
158.568
 20
369.828
 30
0
 11
144.368
 21
369.828
 31
0
  0
LINE
  5
B99
330
A02
100
AcDbEntity
  8
View012
100
AcDbLine
 10
144.368
 20
355.628
 30
0
 11
158.568
 21
355.628
 31
0
  0
LINE
  5
B9A
330
A02
100
AcDbEntity
  8
View012
100
AcDbLine
 10
158.568
 20
355.628
 30
0
 11
158.568
 21
369.828
 31
0
  0
LINE
  5
B9B
330
A02
100
AcDbEntity
  8
View012
100
AcDbLine
 10
115.793
 20
350.778
 30
0
 11
115.793
 21
336.578
 31
0
  0
LINE
  5
B9C
330
A02
100
AcDbEntity
  8
View012
100
AcDbLine
 10
129.993
 20
350.778
 30
0
 11
115.793
 21
350.778
 31
0
  0
LINE
  5
B9D
330
A02
100
AcDbEntity
  8
View012
100
AcDbLine
 10
115.793
 20
336.578
 30
0
 11
129.993
 21
336.578
 31
0
  0
LINE
  5
B9E
330
A02
100
AcDbEntity
  8
View012
100
AcDbLine
 10
129.993
 20
336.578
 30
0
 11
129.993
 21
350.778
 31
0
  0
LINE
  5
B9F
330
A02
100
AcDbEntity
  8
View012
100
AcDbLine
 10
96.7431
 20
350.778
 30
0
 11
96.7431
 21
336.578
 31
0
  0
LINE
  5
BA0
330
A02
100
AcDbEntity
  8
View012
100
AcDbLine
 10
110.943
 20
350.778
 30
0
 11
96.7431
 21
350.778
 31
0
  0
LINE
  5
BA1
330
A02
100
AcDbEntity
  8
View012
100
AcDbLine
 10
96.7431
 20
336.578
 30
0
 11
110.943
 21
336.578
 31
0
  0
LINE
  5
BA2
330
A02
100
AcDbEntity
  8
View012
100
AcDbLine
 10
110.943
 20
336.578
 30
0
 11
110.943
 21
350.778
 31
0
  0
LINE
  5
BA3
330
A02
100
AcDbEntity
  8
View012
100
AcDbLine
 10
125.318
 20
369.828
 30
0
 11
125.318
 21
355.628
 31
0
  0
LINE
  5
BA4
330
A02
100
AcDbEntity
  8
View012
100
AcDbLine
 10
139.518
 20
369.828
 30
0
 11
125.318
 21
369.828
 31
0
  0
LINE
  5
BA5
330
A02
100
AcDbEntity
  8
View012
100
AcDbLine
 10
125.318
 20
355.628
 30
0
 11
139.518
 21
355.628
 31
0
  0
LINE
  5
BA6
330
A02
100
AcDbEntity
  8
View012
100
AcDbLine
 10
139.518
 20
355.628
 30
0
 11
139.518
 21
369.828
 31
0
  0
LINE
  5
BA7
330
A02
100
AcDbEntity
  8
View012
100
AcDbLine
 10
106.268
 20
369.828
 30
0
 11
106.268
 21
355.628
 31
0
  0
LINE
  5
BA8
330
A02
100
AcDbEntity
  8
View012
100
AcDbLine
 10
120.468
 20
369.828
 30
0
 11
106.268
 21
369.828
 31
0
  0
LINE
  5
BA9
330
A02
100
AcDbEntity
  8
View012
100
AcDbLine
 10
106.268
 20
355.628
 30
0
 11
120.468
 21
355.628
 31
0
  0
LINE
  5
BAA
330
A02
100
AcDbEntity
  8
View012
100
AcDbLine
 10
120.468
 20
355.628
 30
0
 11
120.468
 21
369.828
 31
0
  0
LINE
  5
BAB
330
A02
100
AcDbEntity
  8
View012
100
AcDbLine
 10
172.943
 20
393.641
 30
0
 11
172.943
 21
379.441
 31
0
  0
LINE
  5
BAC
330
A02
100
AcDbEntity
  8
View012
100
AcDbLine
 10
187.143
 20
393.641
 30
0
 11
172.943
 21
393.641
 31
0
  0
LINE
  5
BAD
330
A02
100
AcDbEntity
  8
View012
100
AcDbLine
 10
172.943
 20
379.441
 30
0
 11
187.143
 21
379.441
 31
0
  0
LINE
  5
BAE
330
A02
100
AcDbEntity
  8
View012
100
AcDbLine
 10
187.143
 20
379.441
 30
0
 11
187.143
 21
393.641
 31
0
  0
LINE
  5
BAF
330
A02
100
AcDbEntity
  8
View012
100
AcDbLine
 10
153.893
 20
393.641
 30
0
 11
153.893
 21
379.441
 31
0
  0
LINE
  5
BB0
330
A02
100
AcDbEntity
  8
View012
100
AcDbLine
 10
168.093
 20
393.641
 30
0
 11
153.893
 21
393.641
 31
0
  0
LINE
  5
BB1
330
A02
100
AcDbEntity
  8
View012
100
AcDbLine
 10
153.893
 20
379.441
 30
0
 11
168.093
 21
379.441
 31
0
  0
LINE
  5
BB2
330
A02
100
AcDbEntity
  8
View012
100
AcDbLine
 10
168.093
 20
379.441
 30
0
 11
168.093
 21
393.641
 31
0
  0
CIRCLE
  5
BB3
330
A02
100
AcDbEntity
  8
View012
100
AcDbCircle
 10
184.806
 20
414.741
 40
1.7
  0
LINE
  5
BB4
330
A02
100
AcDbEntity
  8
View012
100
AcDbLine
 10
130.081
 20
393.641
 30
0
 11
130.081
 21
379.441
 31
0
  0
LINE
  5
BB5
330
A02
100
AcDbEntity
  8
View012
100
AcDbLine
 10
144.281
 20
393.641
 30
0
 11
130.081
 21
393.641
 31
0
  0
LINE
  5
BB6
330
A02
100
AcDbEntity
  8
View012
100
AcDbLine
 10
130.081
 20
379.441
 30
0
 11
144.281
 21
379.441
 31
0
  0
LINE
  5
BB7
330
A02
100
AcDbEntity
  8
View012
100
AcDbLine
 10
144.281
 20
379.441
 30
0
 11
144.281
 21
393.641
 31
0
  0
LINE
  5
BB8
330
A02
100
AcDbEntity
  8
View012
100
AcDbLine
 10
111.031
 20
393.641
 30
0
 11
111.031
 21
379.441
 31
0
  0
LINE
  5
BB9
330
A02
100
AcDbEntity
  8
View012
100
AcDbLine
 10
125.231
 20
393.641
 30
0
 11
111.031
 21
393.641
 31
0
  0
LINE
  5
BBA
330
A02
100
AcDbEntity
  8
View012
100
AcDbLine
 10
111.031
 20
379.441
 30
0
 11
125.231
 21
379.441
 31
0
  0
LINE
  5
BBB
330
A02
100
AcDbEntity
  8
View012
100
AcDbLine
 10
125.231
 20
379.441
 30
0
 11
125.231
 21
393.641
 31
0
  0
LINE
  5
BBC
330
A02
100
AcDbEntity
  8
View012
100
AcDbLine
 10
91.9806
 20
393.641
 30
0
 11
91.9806
 21
379.441
 31
0
  0
LINE
  5
BBD
330
A02
100
AcDbEntity
  8
View012
100
AcDbLine
 10
106.181
 20
393.641
 30
0
 11
91.9806
 21
393.641
 31
0
  0
LINE
  5
BBE
330
A02
100
AcDbEntity
  8
View012
100
AcDbLine
 10
91.9806
 20
379.441
 30
0
 11
106.181
 21
379.441
 31
0
  0
LINE
  5
BBF
330
A02
100
AcDbEntity
  8
View012
100
AcDbLine
 10
106.181
 20
379.441
 30
0
 11
106.181
 21
393.641
 31
0
  0
LINE
  5
BC0
330
A02
100
AcDbEntity
  8
View012
100
AcDbLine
 10
77.6931
 20
350.778
 30
0
 11
77.6931
 21
336.578
 31
0
  0
LINE
  5
BC1
330
A02
100
AcDbEntity
  8
View012
100
AcDbLine
 10
91.8931
 20
350.778
 30
0
 11
77.6931
 21
350.778
 31
0
  0
LINE
  5
BC2
330
A02
100
AcDbEntity
  8
View012
100
AcDbLine
 10
77.6931
 20
336.578
 30
0
 11
91.8931
 21
336.578
 31
0
  0
LINE
  5
BC3
330
A02
100
AcDbEntity
  8
View012
100
AcDbLine
 10
91.8931
 20
336.578
 30
0
 11
91.8931
 21
350.778
 31
0
  0
LINE
  5
BC4
330
A02
100
AcDbEntity
  8
View012
100
AcDbLine
 10
53.8806
 20
350.778
 30
0
 11
53.8806
 21
336.578
 31
0
  0
LINE
  5
BC5
330
A02
100
AcDbEntity
  8
View012
100
AcDbLine
 10
68.0806
 20
350.778
 30
0
 11
53.8806
 21
350.778
 31
0
  0
LINE
  5
BC6
330
A02
100
AcDbEntity
  8
View012
100
AcDbLine
 10
53.8806
 20
336.578
 30
0
 11
68.0806
 21
336.578
 31
0
  0
LINE
  5
BC7
330
A02
100
AcDbEntity
  8
View012
100
AcDbLine
 10
68.0806
 20
336.578
 30
0
 11
68.0806
 21
350.778
 31
0
  0
LINE
  5
BC8
330
A02
100
AcDbEntity
  8
View012
100
AcDbLine
 10
87.2181
 20
369.828
 30
0
 11
87.2181
 21
355.628
 31
0
  0
LINE
  5
BC9
330
A02
100
AcDbEntity
  8
View012
100
AcDbLine
 10
101.418
 20
369.828
 30
0
 11
87.2181
 21
369.828
 31
0
  0
LINE
  5
BCA
330
A02
100
AcDbEntity
  8
View012
100
AcDbLine
 10
87.2181
 20
355.628
 30
0
 11
101.418
 21
355.628
 31
0
  0
LINE
  5
BCB
330
A02
100
AcDbEntity
  8
View012
100
AcDbLine
 10
101.418
 20
355.628
 30
0
 11
101.418
 21
369.828
 31
0
  0
LINE
  5
BCC
330
A02
100
AcDbEntity
  8
View012
100
AcDbLine
 10
68.1681
 20
369.828
 30
0
 11
68.1681
 21
355.628
 31
0
  0
LINE
  5
BCD
330
A02
100
AcDbEntity
  8
View012
100
AcDbLine
 10
82.3681
 20
369.828
 30
0
 11
68.1681
 21
369.828
 31
0
  0
LINE
  5
BCE
330
A02
100
AcDbEntity
  8
View012
100
AcDbLine
 10
68.1681
 20
355.628
 30
0
 11
82.3681
 21
355.628
 31
0
  0
LINE
  5
BCF
330
A02
100
AcDbEntity
  8
View012
100
AcDbLine
 10
82.3681
 20
355.628
 30
0
 11
82.3681
 21
369.828
 31
0
  0
LINE
  5
BD0
330
A02
100
AcDbEntity
  8
View012
100
AcDbLine
 10
49.1181
 20
369.828
 30
0
 11
49.1181
 21
355.628
 31
0
  0
LINE
  5
BD1
330
A02
100
AcDbEntity
  8
View012
100
AcDbLine
 10
63.3181
 20
369.828
 30
0
 11
49.1181
 21
369.828
 31
0
  0
LINE
  5
BD2
330
A02
100
AcDbEntity
  8
View012
100
AcDbLine
 10
49.1181
 20
355.628
 30
0
 11
63.3181
 21
355.628
 31
0
  0
LINE
  5
BD3
330
A02
100
AcDbEntity
  8
View012
100
AcDbLine
 10
63.3181
 20
355.628
 30
0
 11
63.3181
 21
369.828
 31
0
  0
LINE
  5
BD4
330
A02
100
AcDbEntity
  8
View012
100
AcDbLine
 10
13.4931
 20
368.278
 30
0
 11
13.4931
 21
319.078
 31
0
  0
ARC
  5
BD5
330
A02
100
AcDbEntity
  8
View012
100
AcDbCircle
 10
14.9931
 20
368.278
 30
0
 40
1.5
100
AcDbArc
 50
90
 51
180
  0
ARC
  5
BD6
330
A02
100
AcDbEntity
  8
View012
100
AcDbCircle
 10
14.9931
 20
319.078
 30
0
 40
1.5
100
AcDbArc
 50
180
 51
-90
  0
LINE
  5
BD7
330
A02
100
AcDbEntity
  8
View012
100
AcDbLine
 10
40.2931
 20
369.778
 30
0
 11
14.9931
 21
369.778
 31
0
  0
LINE
  5
BD8
330
A02
100
AcDbEntity
  8
View012
100
AcDbLine
 10
14.9931
 20
317.578
 30
0
 11
40.2931
 21
317.578
 31
0
  0
ARC
  5
BD9
330
A02
100
AcDbEntity
  8
View012
100
AcDbCircle
 10
40.2931
 20
368.278
 30
0
 40
1.5
100
AcDbArc
 50
0
 51
90
  0
ARC
  5
BDA
330
A02
100
AcDbEntity
  8
View012
100
AcDbCircle
 10
40.2931
 20
319.078
 30
0
 40
1.5
100
AcDbArc
 50
-90
 51
-2.17126e-12
  0
LINE
  5
BDB
330
A02
100
AcDbEntity
  8
View012
100
AcDbLine
 10
41.7931
 20
319.078
 30
0
 11
41.7931
 21
368.278
 31
0
  0
LINE
  5
BDC
330
A02
100
AcDbEntity
  8
View012
100
AcDbLine
 10
72.9306
 20
393.641
 30
0
 11
72.9306
 21
379.441
 31
0
  0
LINE
  5
BDD
330
A02
100
AcDbEntity
  8
View012
100
AcDbLine
 10
87.1306
 20
393.641
 30
0
 11
72.9306
 21
393.641
 31
0
  0
LINE
  5
BDE
330
A02
100
AcDbEntity
  8
View012
100
AcDbLine
 10
72.9306
 20
379.441
 30
0
 11
87.1306
 21
379.441
 31
0
  0
LINE
  5
BDF
330
A02
100
AcDbEntity
  8
View012
100
AcDbLine
 10
87.1306
 20
379.441
 30
0
 11
87.1306
 21
393.641
 31
0
  0
LINE
  5
BE0
330
A02
100
AcDbEntity
  8
View012
100
AcDbLine
 10
49.1181
 20
393.641
 30
0
 11
49.1181
 21
379.441
 31
0
  0
LINE
  5
BE1
330
A02
100
AcDbEntity
  8
View012
100
AcDbLine
 10
63.3181
 20
393.641
 30
0
 11
49.1181
 21
393.641
 31
0
  0
LINE
  5
BE2
330
A02
100
AcDbEntity
  8
View012
100
AcDbLine
 10
49.1181
 20
379.441
 30
0
 11
63.3181
 21
379.441
 31
0
  0
LINE
  5
BE3
330
A02
100
AcDbEntity
  8
View012
100
AcDbLine
 10
63.3181
 20
379.441
 30
0
 11
63.3181
 21
393.641
 31
0
  0
CIRCLE
  5
BE4
330
A02
100
AcDbEntity
  8
View012
100
AcDbCircle
 10
93.4494
 20
414.741
 40
1.7
  0
LINE
  5
BE5
330
A02
100
AcDbEntity
  8
View012
100
AcDbLine
 10
30.6681
 20
393.291
 30
0
 11
30.6681
 21
379.791
 31
0
  0
ARC
  5
BE6
330
A02
100
AcDbEntity
  8
View012
100
AcDbCircle
 10
31.9181
 20
393.291
 30
0
 40
1.25
100
AcDbArc
 50
90
 51
180
  0
ARC
  5
BE7
330
A02
100
AcDbEntity
  8
View012
100
AcDbCircle
 10
31.9181
 20
379.791
 30
0
 40
1.25
100
AcDbArc
 50
180
 51
-90
  0
LINE
  5
BE8
330
A02
100
AcDbEntity
  8
View012
100
AcDbLine
 10
42.4181
 20
394.541
 30
0
 11
31.9181
 21
394.541
 31
0
  0
LINE
  5
BE9
330
A02
100
AcDbEntity
  8
View012
100
AcDbLine
 10
31.9181
 20
378.541
 30
0
 11
42.4181
 21
378.541
 31
0
  0
ARC
  5
BEA
330
A02
100
AcDbEntity
  8
View012
100
AcDbCircle
 10
42.4181
 20
393.291
 30
0
 40
1.25
100
AcDbArc
 50
0
 51
90
  0
ARC
  5
BEB
330
A02
100
AcDbEntity
  8
View012
100
AcDbCircle
 10
42.4181
 20
379.791
 30
0
 40
1.25
100
AcDbArc
 50
-90
 51
0
  0
LINE
  5
BEC
330
A02
100
AcDbEntity
  8
View012
100
AcDbLine
 10
43.6681
 20
379.791
 30
0
 11
43.6681
 21
393.291
 31
0
  0
LINE
  5
BED
330
A02
100
AcDbEntity
  8
View012
100
AcDbLine
 10
11.6181
 20
393.291
 30
0
 11
11.6181
 21
379.791
 31
0
  0
ARC
  5
BEE
330
A02
100
AcDbEntity
  8
View012
100
AcDbCircle
 10
12.8681
 20
393.291
 30
0
 40
1.25
100
AcDbArc
 50
90
 51
180
  0
ARC
  5
BEF
330
A02
100
AcDbEntity
  8
View012
100
AcDbCircle
 10
12.8681
 20
379.791
 30
0
 40
1.25
100
AcDbArc
 50
180
 51
-90
  0
LINE
  5
BF0
330
A02
100
AcDbEntity
  8
View012
100
AcDbLine
 10
23.3681
 20
394.541
 30
0
 11
12.8681
 21
394.541
 31
0
  0
LINE
  5
BF1
330
A02
100
AcDbEntity
  8
View012
100
AcDbLine
 10
12.8681
 20
378.541
 30
0
 11
23.3681
 21
378.541
 31
0
  0
ARC
  5
BF2
330
A02
100
AcDbEntity
  8
View012
100
AcDbCircle
 10
23.3681
 20
393.291
 30
0
 40
1.25
100
AcDbArc
 50
0
 51
90
  0
ARC
  5
BF3
330
A02
100
AcDbEntity
  8
View012
100
AcDbCircle
 10
23.3681
 20
379.791
 30
0
 40
1.25
100
AcDbArc
 50
-90
 51
0
  0
LINE
  5
BF4
330
A02
100
AcDbEntity
  8
View012
100
AcDbLine
 10
24.6181
 20
379.791
 30
0
 11
24.6181
 21
393.291
 31
0
  0
CIRCLE
  5
BF5
330
A02
100
AcDbEntity
  8
View012
100
AcDbCircle
 10
6.85049
 20
412.983
 40
1.7
  0
LINE
  5
BF6
330
A02
100
AcDbEntity
  8
View013
100
AcDbLine
 10
2.18712
 20
257.708
 30
0
 11
2.18712
 21
114.708
 31
0
  0
ARC
  5
BF7
330
A02
100
AcDbEntity
  8
View013
100
AcDbCircle
 10
8.18712
 20
257.708
 30
0
 40
6
100
AcDbArc
 50
90
 51
180
  0
ARC
  5
BF8
330
A02
100
AcDbEntity
  8
View013
100
AcDbCircle
 10
5.18712
 20
114.708
 30
0
 40
3
100
AcDbArc
 50
180
 51
-90
  0
LINE
  5
BF9
330
A02
100
AcDbEntity
  8
View013
100
AcDbLine
 10
258.112
 20
263.708
 30
0
 11
8.18712
 21
263.708
 31
0
  0
ARC
  5
BFA
330
A02
100
AcDbEntity
  8
View013
100
AcDbCircle
 10
258.112
 20
261.708
 30
0
 40
2
100
AcDbArc
 50
0
 51
90
  0
LINE
  5
BFB
330
A02
100
AcDbEntity
  8
View013
100
AcDbLine
 10
260.112
 20
251.208
 30
0
 11
260.112
 21
261.708
 31
0
  0
ARC
  5
BFC
330
A02
100
AcDbEntity
  8
View013
100
AcDbCircle
 10
262.112
 20
251.208
 30
0
 40
2
100
AcDbArc
 50
180
 51
-90
  0
LINE
  5
BFD
330
A02
100
AcDbEntity
  8
View013
100
AcDbLine
 10
262.112
 20
249.208
 30
0
 11
270.612
 21
249.208
 31
0
  0
ARC
  5
BFE
330
A02
100
AcDbEntity
  8
View013
100
AcDbCircle
 10
270.612
 20
251.208
 30
0
 40
2
100
AcDbArc
 50
-90
 51
-8.14222e-13
  0
LINE
  5
BFF
330
A02
100
AcDbEntity
  8
View013
100
AcDbLine
 10
272.612
 20
251.208
 30
0
 11
272.612
 21
261.708
 31
0
  0
ARC
  5
C00
330
A02
100
AcDbEntity
  8
View013
100
AcDbCircle
 10
274.612
 20
261.708
 30
0
 40
2
100
AcDbArc
 50
90
 51
180
  0
LINE
  5
C01
330
A02
100
AcDbEntity
  8
View013
100
AcDbLine
 10
361.612
 20
263.708
 30
0
 11
274.612
 21
263.708
 31
0
  0
ARC
  5
C02
330
A02
100
AcDbEntity
  8
View013
100
AcDbCircle
 10
361.612
 20
257.708
 30
0
 40
6
100
AcDbArc
 50
0
 51
90
  0
LINE
  5
C03
330
A02
100
AcDbEntity
  8
View013
100
AcDbLine
 10
367.612
 20
114.708
 30
0
 11
367.612
 21
257.708
 31
0
  0
ARC
  5
C04
330
A02
100
AcDbEntity
  8
View013
100
AcDbCircle
 10
364.612
 20
114.708
 30
0
 40
3
100
AcDbArc
 50
-90
 51
0
  0
LINE
  5
C05
330
A02
100
AcDbEntity
  8
View013
100
AcDbLine
 10
5.18712
 20
111.708
 30
0
 11
364.612
 21
111.708
 31
0
  0
CIRCLE
  5
C06
330
A02
100
AcDbEntity
  8
View013
100
AcDbCircle
 10
363.734
 20
115.586
 40
1.55
  0
LINE
  5
C07
330
A02
100
AcDbEntity
  8
View013
100
AcDbLine
 10
339.825
 20
134.733
 30
0
 11
339.825
 21
120.733
 31
0
  0
LINE
  5
C08
330
A02
100
AcDbEntity
  8
View013
100
AcDbLine
 10
353.825
 20
134.733
 30
0
 11
339.825
 21
134.733
 31
0
  0
LINE
  5
C09
330
A02
100
AcDbEntity
  8
View013
100
AcDbLine
 10
339.825
 20
120.733
 30
0
 11
353.825
 21
120.733
 31
0
  0
LINE
  5
C0A
330
A02
100
AcDbEntity
  8
View013
100
AcDbLine
 10
353.825
 20
120.733
 30
0
 11
353.825
 21
134.733
 31
0
  0
LINE
  5
C0B
330
A02
100
AcDbEntity
  8
View013
100
AcDbLine
 10
320.775
 20
134.733
 30
0
 11
320.775
 21
120.733
 31
0
  0
LINE
  5
C0C
330
A02
100
AcDbEntity
  8
View013
100
AcDbLine
 10
334.775
 20
134.733
 30
0
 11
320.775
 21
134.733
 31
0
  0
LINE
  5
C0D
330
A02
100
AcDbEntity
  8
View013
100
AcDbLine
 10
320.775
 20
120.733
 30
0
 11
334.775
 21
120.733
 31
0
  0
LINE
  5
C0E
330
A02
100
AcDbEntity
  8
View013
100
AcDbLine
 10
334.775
 20
120.733
 30
0
 11
334.775
 21
134.733
 31
0
  0
LINE
  5
C0F
330
A02
100
AcDbEntity
  8
View013
100
AcDbLine
 10
320.775
 20
153.783
 30
0
 11
320.775
 21
139.783
 31
0
  0
LINE
  5
C10
330
A02
100
AcDbEntity
  8
View013
100
AcDbLine
 10
334.775
 20
153.783
 30
0
 11
320.775
 21
153.783
 31
0
  0
LINE
  5
C11
330
A02
100
AcDbEntity
  8
View013
100
AcDbLine
 10
320.775
 20
139.783
 30
0
 11
334.775
 21
139.783
 31
0
  0
LINE
  5
C12
330
A02
100
AcDbEntity
  8
View013
100
AcDbLine
 10
334.775
 20
139.783
 30
0
 11
334.775
 21
153.783
 31
0
  0
LINE
  5
C13
330
A02
100
AcDbEntity
  8
View013
100
AcDbLine
 10
301.725
 20
134.733
 30
0
 11
301.725
 21
120.733
 31
0
  0
LINE
  5
C14
330
A02
100
AcDbEntity
  8
View013
100
AcDbLine
 10
315.725
 20
134.733
 30
0
 11
301.725
 21
134.733
 31
0
  0
LINE
  5
C15
330
A02
100
AcDbEntity
  8
View013
100
AcDbLine
 10
301.725
 20
120.733
 30
0
 11
315.725
 21
120.733
 31
0
  0
LINE
  5
C16
330
A02
100
AcDbEntity
  8
View013
100
AcDbLine
 10
315.725
 20
120.733
 30
0
 11
315.725
 21
134.733
 31
0
  0
CIRCLE
  5
C17
330
A02
100
AcDbEntity
  8
View013
100
AcDbCircle
 10
276.256
 20
114.708
 40
1.55
  0
LINE
  5
C18
330
A02
100
AcDbEntity
  8
View013
100
AcDbLine
 10
277.912
 20
139.495
 30
0
 11
277.912
 21
125.495
 31
0
  0
LINE
  5
C19
330
A02
100
AcDbEntity
  8
View013
100
AcDbLine
 10
291.912
 20
139.495
 30
0
 11
277.912
 21
139.495
 31
0
  0
LINE
  5
C1A
330
A02
100
AcDbEntity
  8
View013
100
AcDbLine
 10
277.912
 20
125.495
 30
0
 11
291.912
 21
125.495
 31
0
  0
LINE
  5
C1B
330
A02
100
AcDbEntity
  8
View013
100
AcDbLine
 10
291.912
 20
125.495
 30
0
 11
291.912
 21
139.495
 31
0
  0
LINE
  5
C1C
330
A02
100
AcDbEntity
  8
View013
100
AcDbLine
 10
344.587
 20
158.545
 30
0
 11
344.587
 21
144.545
 31
0
  0
LINE
  5
C1D
330
A02
100
AcDbEntity
  8
View013
100
AcDbLine
 10
358.587
 20
158.545
 30
0
 11
344.587
 21
158.545
 31
0
  0
LINE
  5
C1E
330
A02
100
AcDbEntity
  8
View013
100
AcDbLine
 10
344.587
 20
144.545
 30
0
 11
358.587
 21
144.545
 31
0
  0
LINE
  5
C1F
330
A02
100
AcDbEntity
  8
View013
100
AcDbLine
 10
358.587
 20
144.545
 30
0
 11
358.587
 21
158.545
 31
0
  0
LINE
  5
C20
330
A02
100
AcDbEntity
  8
View013
100
AcDbLine
 10
344.587
 20
177.595
 30
0
 11
344.587
 21
163.595
 31
0
  0
LINE
  5
C21
330
A02
100
AcDbEntity
  8
View013
100
AcDbLine
 10
358.587
 20
177.595
 30
0
 11
344.587
 21
177.595
 31
0
  0
LINE
  5
C22
330
A02
100
AcDbEntity
  8
View013
100
AcDbLine
 10
344.587
 20
163.595
 30
0
 11
358.587
 21
163.595
 31
0
  0
LINE
  5
C23
330
A02
100
AcDbEntity
  8
View013
100
AcDbLine
 10
358.587
 20
163.595
 30
0
 11
358.587
 21
177.595
 31
0
  0
LINE
  5
C24
330
A02
100
AcDbEntity
  8
View013
100
AcDbLine
 10
289.818
 20
158.545
 30
0
 11
289.818
 21
144.545
 31
0
  0
LINE
  5
C25
330
A02
100
AcDbEntity
  8
View013
100
AcDbLine
 10
303.818
 20
158.545
 30
0
 11
289.818
 21
158.545
 31
0
  0
LINE
  5
C26
330
A02
100
AcDbEntity
  8
View013
100
AcDbLine
 10
289.818
 20
144.545
 30
0
 11
303.818
 21
144.545
 31
0
  0
LINE
  5
C27
330
A02
100
AcDbEntity
  8
View013
100
AcDbLine
 10
303.818
 20
144.545
 30
0
 11
303.818
 21
158.545
 31
0
  0
LINE
  5
C28
330
A02
100
AcDbEntity
  8
View013
100
AcDbLine
 10
304.106
 20
177.595
 30
0
 11
304.106
 21
171.605
 31
0
  0
LINE
  5
C29
330
A02
100
AcDbEntity
  8
View013
100
AcDbLine
 10
318.106
 20
177.595
 30
0
 11
304.106
 21
177.595
 31
0
  0
LINE
  5
C2A
330
A02
100
AcDbEntity
  8
View013
100
AcDbLine
 10
302.056
 20
171.605
 30
0
 11
304.106
 21
171.605
 31
0
  0
LINE
  5
C2B
330
A02
100
AcDbEntity
  8
View013
100
AcDbLine
 10
318.106
 20
171.605
 30
0
 11
318.106
 21
177.595
 31
0
  0
LINE
  5
C2C
330
A02
100
AcDbEntity
  8
View013
100
AcDbLine
 10
302.056
 20
177.415
 30
0
 11
302.056
 21
171.605
 31
0
  0
LINE
  5
C2D
330
A02
100
AcDbEntity
  8
View013
100
AcDbLine
 10
318.106
 20
171.605
 30
0
 11
320.156
 21
171.605
 31
0
  0
LINE
  5
C2E
330
A02
100
AcDbEntity
  8
View013
100
AcDbLine
 10
302.056
 20
177.415
 30
0
 11
301.106
 21
177.415
 31
0
  0
LINE
  5
C2F
330
A02
100
AcDbEntity
  8
View013
100
AcDbLine
 10
320.156
 20
171.605
 30
0
 11
320.156
 21
177.415
 31
0
  0
LINE
  5
C30
330
A02
100
AcDbEntity
  8
View013
100
AcDbLine
 10
301.106
 20
179.415
 30
0
 11
301.106
 21
177.415
 31
0
  0
LINE
  5
C31
330
A02
100
AcDbEntity
  8
View013
100
AcDbLine
 10
321.106
 20
177.415
 30
0
 11
320.156
 21
177.415
 31
0
  0
LINE
  5
C32
330
A02
100
AcDbEntity
  8
View013
100
AcDbLine
 10
297.106
 20
179.415
 30
0
 11
301.106
 21
179.415
 31
0
  0
LINE
  5
C33
330
A02
100
AcDbEntity
  8
View013
100
AcDbLine
 10
321.106
 20
177.415
 30
0
 11
321.106
 21
179.415
 31
0
  0
LINE
  5
C34
330
A02
100
AcDbEntity
  8
View013
100
AcDbLine
 10
297.106
 20
177.415
 30
0
 11
297.106
 21
179.415
 31
0
  0
LINE
  5
C35
330
A02
100
AcDbEntity
  8
View013
100
AcDbLine
 10
321.106
 20
179.415
 30
0
 11
325.106
 21
179.415
 31
0
  0
LINE
  5
C36
330
A02
100
AcDbEntity
  8
View013
100
AcDbLine
 10
297.106
 20
177.415
 30
0
 11
296.156
 21
177.415
 31
0
  0
LINE
  5
C37
330
A02
100
AcDbEntity
  8
View013
100
AcDbLine
 10
325.106
 20
179.415
 30
0
 11
325.106
 21
177.415
 31
0
  0
LINE
  5
C38
330
A02
100
AcDbEntity
  8
View013
100
AcDbLine
 10
296.156
 20
177.415
 30
0
 11
296.156
 21
165.015
 31
0
  0
LINE
  5
C39
330
A02
100
AcDbEntity
  8
View013
100
AcDbLine
 10
326.056
 20
177.415
 30
0
 11
325.106
 21
177.415
 31
0
  0
LINE
  5
C3A
330
A02
100
AcDbEntity
  8
View013
100
AcDbLine
 10
296.156
 20
165.015
 30
0
 11
302.056
 21
165.015
 31
0
  0
LINE
  5
C3B
330
A02
100
AcDbEntity
  8
View013
100
AcDbLine
 10
326.056
 20
165.015
 30
0
 11
326.056
 21
177.415
 31
0
  0
LINE
  5
C3C
330
A02
100
AcDbEntity
  8
View013
100
AcDbLine
 10
302.056
 20
168.405
 30
0
 11
302.056
 21
165.015
 31
0
  0
LINE
  5
C3D
330
A02
100
AcDbEntity
  8
View013
100
AcDbLine
 10
320.156
 20
165.015
 30
0
 11
326.056
 21
165.015
 31
0
  0
LINE
  5
C3E
330
A02
100
AcDbEntity
  8
View013
100
AcDbLine
 10
304.106
 20
168.405
 30
0
 11
302.056
 21
168.405
 31
0
  0
LINE
  5
C3F
330
A02
100
AcDbEntity
  8
View013
100
AcDbLine
 10
320.156
 20
165.015
 30
0
 11
320.156
 21
168.405
 31
0
  0
LINE
  5
C40
330
A02
100
AcDbEntity
  8
View013
100
AcDbLine
 10
304.106
 20
168.405
 30
0
 11
304.106
 21
163.595
 31
0
  0
LINE
  5
C41
330
A02
100
AcDbEntity
  8
View013
100
AcDbLine
 10
320.156
 20
168.405
 30
0
 11
318.106
 21
168.405
 31
0
  0
LINE
  5
C42
330
A02
100
AcDbEntity
  8
View013
100
AcDbLine
 10
304.106
 20
163.595
 30
0
 11
318.106
 21
163.595
 31
0
  0
LINE
  5
C43
330
A02
100
AcDbEntity
  8
View013
100
AcDbLine
 10
318.106
 20
163.595
 30
0
 11
318.106
 21
168.405
 31
0
  0
LINE
  5
C44
330
A02
100
AcDbEntity
  8
View013
100
AcDbLine
 10
273.15
 20
177.595
 30
0
 11
273.15
 21
163.595
 31
0
  0
LINE
  5
C45
330
A02
100
AcDbEntity
  8
View013
100
AcDbLine
 10
287.15
 20
177.595
 30
0
 11
273.15
 21
177.595
 31
0
  0
LINE
  5
C46
330
A02
100
AcDbEntity
  8
View013
100
AcDbLine
 10
273.15
 20
163.595
 30
0
 11
287.15
 21
163.595
 31
0
  0
LINE
  5
C47
330
A02
100
AcDbEntity
  8
View013
100
AcDbLine
 10
287.15
 20
163.595
 30
0
 11
287.15
 21
177.595
 31
0
  0
LINE
  5
C48
330
A02
100
AcDbEntity
  8
View013
100
AcDbLine
 10
258.862
 20
139.495
 30
0
 11
258.862
 21
125.495
 31
0
  0
LINE
  5
C49
330
A02
100
AcDbEntity
  8
View013
100
AcDbLine
 10
272.862
 20
139.495
 30
0
 11
258.862
 21
139.495
 31
0
  0
LINE
  5
C4A
330
A02
100
AcDbEntity
  8
View013
100
AcDbLine
 10
258.862
 20
125.495
 30
0
 11
272.862
 21
125.495
 31
0
  0
LINE
  5
C4B
330
A02
100
AcDbEntity
  8
View013
100
AcDbLine
 10
272.862
 20
125.495
 30
0
 11
272.862
 21
139.495
 31
0
  0
LINE
  5
C4C
330
A02
100
AcDbEntity
  8
View013
100
AcDbLine
 10
239.812
 20
139.495
 30
0
 11
239.812
 21
125.495
 31
0
  0
LINE
  5
C4D
330
A02
100
AcDbEntity
  8
View013
100
AcDbLine
 10
253.812
 20
139.495
 30
0
 11
239.812
 21
139.495
 31
0
  0
LINE
  5
C4E
330
A02
100
AcDbEntity
  8
View013
100
AcDbLine
 10
239.812
 20
125.495
 30
0
 11
253.812
 21
125.495
 31
0
  0
LINE
  5
C4F
330
A02
100
AcDbEntity
  8
View013
100
AcDbLine
 10
253.812
 20
125.495
 30
0
 11
253.812
 21
139.495
 31
0
  0
LINE
  5
C50
330
A02
100
AcDbEntity
  8
View013
100
AcDbLine
 10
263.625
 20
158.545
 30
0
 11
263.625
 21
144.545
 31
0
  0
LINE
  5
C51
330
A02
100
AcDbEntity
  8
View013
100
AcDbLine
 10
277.625
 20
158.545
 30
0
 11
263.625
 21
158.545
 31
0
  0
LINE
  5
C52
330
A02
100
AcDbEntity
  8
View013
100
AcDbLine
 10
263.625
 20
144.545
 30
0
 11
277.625
 21
144.545
 31
0
  0
LINE
  5
C53
330
A02
100
AcDbEntity
  8
View013
100
AcDbLine
 10
277.625
 20
144.545
 30
0
 11
277.625
 21
158.545
 31
0
  0
LINE
  5
C54
330
A02
100
AcDbEntity
  8
View013
100
AcDbLine
 10
244.575
 20
158.545
 30
0
 11
244.575
 21
144.545
 31
0
  0
LINE
  5
C55
330
A02
100
AcDbEntity
  8
View013
100
AcDbLine
 10
258.575
 20
158.545
 30
0
 11
244.575
 21
158.545
 31
0
  0
LINE
  5
C56
330
A02
100
AcDbEntity
  8
View013
100
AcDbLine
 10
244.575
 20
144.545
 30
0
 11
258.575
 21
144.545
 31
0
  0
LINE
  5
C57
330
A02
100
AcDbEntity
  8
View013
100
AcDbLine
 10
258.575
 20
144.545
 30
0
 11
258.575
 21
158.545
 31
0
  0
LINE
  5
C58
330
A02
100
AcDbEntity
  8
View013
100
AcDbLine
 10
225.525
 20
158.545
 30
0
 11
225.525
 21
144.545
 31
0
  0
LINE
  5
C59
330
A02
100
AcDbEntity
  8
View013
100
AcDbLine
 10
239.525
 20
158.545
 30
0
 11
225.525
 21
158.545
 31
0
  0
LINE
  5
C5A
330
A02
100
AcDbEntity
  8
View013
100
AcDbLine
 10
225.525
 20
144.545
 30
0
 11
239.525
 21
144.545
 31
0
  0
LINE
  5
C5B
330
A02
100
AcDbEntity
  8
View013
100
AcDbLine
 10
239.525
 20
144.545
 30
0
 11
239.525
 21
158.545
 31
0
  0
LINE
  5
C5C
330
A02
100
AcDbEntity
  8
View013
100
AcDbLine
 10
254.1
 20
177.595
 30
0
 11
254.1
 21
163.595
 31
0
  0
LINE
  5
C5D
330
A02
100
AcDbEntity
  8
View013
100
AcDbLine
 10
268.1
 20
177.595
 30
0
 11
254.1
 21
177.595
 31
0
  0
LINE
  5
C5E
330
A02
100
AcDbEntity
  8
View013
100
AcDbLine
 10
254.1
 20
163.595
 30
0
 11
268.1
 21
163.595
 31
0
  0
LINE
  5
C5F
330
A02
100
AcDbEntity
  8
View013
100
AcDbLine
 10
268.1
 20
163.595
 30
0
 11
268.1
 21
177.595
 31
0
  0
LINE
  5
C60
330
A02
100
AcDbEntity
  8
View013
100
AcDbLine
 10
235.05
 20
177.595
 30
0
 11
235.05
 21
163.595
 31
0
  0
LINE
  5
C61
330
A02
100
AcDbEntity
  8
View013
100
AcDbLine
 10
249.05
 20
177.595
 30
0
 11
235.05
 21
177.595
 31
0
  0
LINE
  5
C62
330
A02
100
AcDbEntity
  8
View013
100
AcDbLine
 10
235.05
 20
163.595
 30
0
 11
249.05
 21
163.595
 31
0
  0
LINE
  5
C63
330
A02
100
AcDbEntity
  8
View013
100
AcDbLine
 10
249.05
 20
163.595
 30
0
 11
249.05
 21
177.595
 31
0
  0
LINE
  5
C64
330
A02
100
AcDbEntity
  8
View013
100
AcDbLine
 10
206.475
 20
158.545
 30
0
 11
206.475
 21
144.545
 31
0
  0
LINE
  5
C65
330
A02
100
AcDbEntity
  8
View013
100
AcDbLine
 10
220.475
 20
158.545
 30
0
 11
206.475
 21
158.545
 31
0
  0
LINE
  5
C66
330
A02
100
AcDbEntity
  8
View013
100
AcDbLine
 10
206.475
 20
144.545
 30
0
 11
220.475
 21
144.545
 31
0
  0
LINE
  5
C67
330
A02
100
AcDbEntity
  8
View013
100
AcDbLine
 10
220.475
 20
144.545
 30
0
 11
220.475
 21
158.545
 31
0
  0
LINE
  5
C68
330
A02
100
AcDbEntity
  8
View013
100
AcDbLine
 10
187.425
 20
158.545
 30
0
 11
187.425
 21
144.545
 31
0
  0
LINE
  5
C69
330
A02
100
AcDbEntity
  8
View013
100
AcDbLine
 10
201.425
 20
158.545
 30
0
 11
187.425
 21
158.545
 31
0
  0
LINE
  5
C6A
330
A02
100
AcDbEntity
  8
View013
100
AcDbLine
 10
187.425
 20
144.545
 30
0
 11
201.425
 21
144.545
 31
0
  0
LINE
  5
C6B
330
A02
100
AcDbEntity
  8
View013
100
AcDbLine
 10
201.425
 20
144.545
 30
0
 11
201.425
 21
158.545
 31
0
  0
LINE
  5
C6C
330
A02
100
AcDbEntity
  8
View013
100
AcDbLine
 10
216
 20
177.595
 30
0
 11
216
 21
163.595
 31
0
  0
LINE
  5
C6D
330
A02
100
AcDbEntity
  8
View013
100
AcDbLine
 10
230
 20
177.595
 30
0
 11
216
 21
177.595
 31
0
  0
LINE
  5
C6E
330
A02
100
AcDbEntity
  8
View013
100
AcDbLine
 10
216
 20
163.595
 30
0
 11
230
 21
163.595
 31
0
  0
LINE
  5
C6F
330
A02
100
AcDbEntity
  8
View013
100
AcDbLine
 10
230
 20
163.595
 30
0
 11
230
 21
177.595
 31
0
  0
LINE
  5
C70
330
A02
100
AcDbEntity
  8
View013
100
AcDbLine
 10
196.95
 20
177.595
 30
0
 11
196.95
 21
163.595
 31
0
  0
LINE
  5
C71
330
A02
100
AcDbEntity
  8
View013
100
AcDbLine
 10
210.95
 20
177.595
 30
0
 11
196.95
 21
177.595
 31
0
  0
LINE
  5
C72
330
A02
100
AcDbEntity
  8
View013
100
AcDbLine
 10
196.95
 20
163.595
 30
0
 11
210.95
 21
163.595
 31
0
  0
LINE
  5
C73
330
A02
100
AcDbEntity
  8
View013
100
AcDbLine
 10
210.95
 20
163.595
 30
0
 11
210.95
 21
177.595
 31
0
  0
LINE
  5
C74
330
A02
100
AcDbEntity
  8
View013
100
AcDbLine
 10
344.587
 20
196.645
 30
0
 11
344.587
 21
182.645
 31
0
  0
LINE
  5
C75
330
A02
100
AcDbEntity
  8
View013
100
AcDbLine
 10
358.587
 20
196.645
 30
0
 11
344.587
 21
196.645
 31
0
  0
LINE
  5
C76
330
A02
100
AcDbEntity
  8
View013
100
AcDbLine
 10
344.587
 20
182.645
 30
0
 11
358.587
 21
182.645
 31
0
  0
LINE
  5
C77
330
A02
100
AcDbEntity
  8
View013
100
AcDbLine
 10
358.587
 20
182.645
 30
0
 11
358.587
 21
196.645
 31
0
  0
LINE
  5
C78
330
A02
100
AcDbEntity
  8
View013
100
AcDbLine
 10
344.587
 20
215.695
 30
0
 11
344.587
 21
201.695
 31
0
  0
LINE
  5
C79
330
A02
100
AcDbEntity
  8
View013
100
AcDbLine
 10
358.587
 20
215.695
 30
0
 11
344.587
 21
215.695
 31
0
  0
LINE
  5
C7A
330
A02
100
AcDbEntity
  8
View013
100
AcDbLine
 10
344.587
 20
201.695
 30
0
 11
358.587
 21
201.695
 31
0
  0
LINE
  5
C7B
330
A02
100
AcDbEntity
  8
View013
100
AcDbLine
 10
358.587
 20
201.695
 30
0
 11
358.587
 21
215.695
 31
0
  0
LINE
  5
C7C
330
A02
100
AcDbEntity
  8
View013
100
AcDbLine
 10
311.25
 20
196.645
 30
0
 11
311.25
 21
182.645
 31
0
  0
LINE
  5
C7D
330
A02
100
AcDbEntity
  8
View013
100
AcDbLine
 10
325.25
 20
196.645
 30
0
 11
311.25
 21
196.645
 31
0
  0
LINE
  5
C7E
330
A02
100
AcDbEntity
  8
View013
100
AcDbLine
 10
311.25
 20
182.645
 30
0
 11
325.25
 21
182.645
 31
0
  0
LINE
  5
C7F
330
A02
100
AcDbEntity
  8
View013
100
AcDbLine
 10
325.25
 20
182.645
 30
0
 11
325.25
 21
196.645
 31
0
  0
LINE
  5
C80
330
A02
100
AcDbEntity
  8
View013
100
AcDbLine
 10
287.437
 20
196.645
 30
0
 11
287.437
 21
182.645
 31
0
  0
LINE
  5
C81
330
A02
100
AcDbEntity
  8
View013
100
AcDbLine
 10
301.437
 20
196.645
 30
0
 11
287.437
 21
196.645
 31
0
  0
LINE
  5
C82
330
A02
100
AcDbEntity
  8
View013
100
AcDbLine
 10
287.437
 20
182.645
 30
0
 11
301.437
 21
182.645
 31
0
  0
LINE
  5
C83
330
A02
100
AcDbEntity
  8
View013
100
AcDbLine
 10
301.437
 20
182.645
 30
0
 11
301.437
 21
196.645
 31
0
  0
LINE
  5
C84
330
A02
100
AcDbEntity
  8
View013
100
AcDbLine
 10
268.387
 20
196.645
 30
0
 11
268.387
 21
182.645
 31
0
  0
LINE
  5
C85
330
A02
100
AcDbEntity
  8
View013
100
AcDbLine
 10
282.387
 20
196.645
 30
0
 11
268.387
 21
196.645
 31
0
  0
LINE
  5
C86
330
A02
100
AcDbEntity
  8
View013
100
AcDbLine
 10
268.387
 20
182.645
 30
0
 11
282.387
 21
182.645
 31
0
  0
LINE
  5
C87
330
A02
100
AcDbEntity
  8
View013
100
AcDbLine
 10
282.387
 20
182.645
 30
0
 11
282.387
 21
196.645
 31
0
  0
LINE
  5
C88
330
A02
100
AcDbEntity
  8
View013
100
AcDbLine
 10
306.487
 20
215.695
 30
0
 11
306.487
 21
209.705
 31
0
  0
LINE
  5
C89
330
A02
100
AcDbEntity
  8
View013
100
AcDbLine
 10
320.487
 20
215.695
 30
0
 11
306.487
 21
215.695
 31
0
  0
LINE
  5
C8A
330
A02
100
AcDbEntity
  8
View013
100
AcDbLine
 10
306.487
 20
209.705
 30
0
 11
304.437
 21
209.705
 31
0
  0
LINE
  5
C8B
330
A02
100
AcDbEntity
  8
View013
100
AcDbLine
 10
320.487
 20
209.705
 30
0
 11
320.487
 21
215.695
 31
0
  0
LINE
  5
C8C
330
A02
100
AcDbEntity
  8
View013
100
AcDbLine
 10
304.437
 20
215.515
 30
0
 11
304.437
 21
209.705
 31
0
  0
LINE
  5
C8D
330
A02
100
AcDbEntity
  8
View013
100
AcDbLine
 10
322.537
 20
209.705
 30
0
 11
320.487
 21
209.705
 31
0
  0
LINE
  5
C8E
330
A02
100
AcDbEntity
  8
View013
100
AcDbLine
 10
304.437
 20
215.515
 30
0
 11
303.487
 21
215.515
 31
0
  0
LINE
  5
C8F
330
A02
100
AcDbEntity
  8
View013
100
AcDbLine
 10
322.537
 20
215.515
 30
0
 11
322.537
 21
209.705
 31
0
  0
LINE
  5
C90
330
A02
100
AcDbEntity
  8
View013
100
AcDbLine
 10
303.487
 20
217.515
 30
0
 11
303.487
 21
215.515
 31
0
  0
LINE
  5
C91
330
A02
100
AcDbEntity
  8
View013
100
AcDbLine
 10
323.487
 20
215.515
 30
0
 11
322.537
 21
215.515
 31
0
  0
LINE
  5
C92
330
A02
100
AcDbEntity
  8
View013
100
AcDbLine
 10
299.487
 20
217.515
 30
0
 11
303.487
 21
217.515
 31
0
  0
LINE
  5
C93
330
A02
100
AcDbEntity
  8
View013
100
AcDbLine
 10
323.487
 20
215.515
 30
0
 11
323.487
 21
217.515
 31
0
  0
LINE
  5
C94
330
A02
100
AcDbEntity
  8
View013
100
AcDbLine
 10
299.487
 20
215.515
 30
0
 11
299.487
 21
217.515
 31
0
  0
LINE
  5
C95
330
A02
100
AcDbEntity
  8
View013
100
AcDbLine
 10
323.487
 20
217.515
 30
0
 11
327.487
 21
217.515
 31
0
  0
LINE
  5
C96
330
A02
100
AcDbEntity
  8
View013
100
AcDbLine
 10
299.487
 20
215.515
 30
0
 11
298.537
 21
215.515
 31
0
  0
LINE
  5
C97
330
A02
100
AcDbEntity
  8
View013
100
AcDbLine
 10
327.487
 20
217.515
 30
0
 11
327.487
 21
215.515
 31
0
  0
LINE
  5
C98
330
A02
100
AcDbEntity
  8
View013
100
AcDbLine
 10
298.537
 20
215.515
 30
0
 11
298.537
 21
203.115
 31
0
  0
LINE
  5
C99
330
A02
100
AcDbEntity
  8
View013
100
AcDbLine
 10
328.437
 20
215.515
 30
0
 11
327.487
 21
215.515
 31
0
  0
LINE
  5
C9A
330
A02
100
AcDbEntity
  8
View013
100
AcDbLine
 10
298.537
 20
203.115
 30
0
 11
304.437
 21
203.115
 31
0
  0
LINE
  5
C9B
330
A02
100
AcDbEntity
  8
View013
100
AcDbLine
 10
328.437
 20
203.115
 30
0
 11
328.437
 21
215.515
 31
0
  0
LINE
  5
C9C
330
A02
100
AcDbEntity
  8
View013
100
AcDbLine
 10
304.437
 20
203.115
 30
0
 11
304.437
 21
206.505
 31
0
  0
LINE
  5
C9D
330
A02
100
AcDbEntity
  8
View013
100
AcDbLine
 10
322.537
 20
203.115
 30
0
 11
328.437
 21
203.115
 31
0
  0
LINE
  5
C9E
330
A02
100
AcDbEntity
  8
View013
100
AcDbLine
 10
304.437
 20
206.505
 30
0
 11
306.487
 21
206.505
 31
0
  0
LINE
  5
C9F
330
A02
100
AcDbEntity
  8
View013
100
AcDbLine
 10
322.537
 20
206.505
 30
0
 11
322.537
 21
203.115
 31
0
  0
LINE
  5
CA0
330
A02
100
AcDbEntity
  8
View013
100
AcDbLine
 10
306.487
 20
206.505
 30
0
 11
306.487
 21
201.695
 31
0
  0
LINE
  5
CA1
330
A02
100
AcDbEntity
  8
View013
100
AcDbLine
 10
320.487
 20
206.505
 30
0
 11
322.537
 21
206.505
 31
0
  0
LINE
  5
CA2
330
A02
100
AcDbEntity
  8
View013
100
AcDbLine
 10
306.487
 20
201.695
 30
0
 11
320.487
 21
201.695
 31
0
  0
LINE
  5
CA3
330
A02
100
AcDbEntity
  8
View013
100
AcDbLine
 10
320.487
 20
201.695
 30
0
 11
320.487
 21
206.505
 31
0
  0
LINE
  5
CA4
330
A02
100
AcDbEntity
  8
View013
100
AcDbLine
 10
277.912
 20
215.695
 30
0
 11
277.912
 21
201.695
 31
0
  0
LINE
  5
CA5
330
A02
100
AcDbEntity
  8
View013
100
AcDbLine
 10
291.912
 20
215.695
 30
0
 11
277.912
 21
215.695
 31
0
  0
LINE
  5
CA6
330
A02
100
AcDbEntity
  8
View013
100
AcDbLine
 10
277.912
 20
201.695
 30
0
 11
291.912
 21
201.695
 31
0
  0
LINE
  5
CA7
330
A02
100
AcDbEntity
  8
View013
100
AcDbLine
 10
291.912
 20
201.695
 30
0
 11
291.912
 21
215.695
 31
0
  0
LINE
  5
CA8
330
A02
100
AcDbEntity
  8
View013
100
AcDbLine
 10
344.587
 20
239.508
 30
0
 11
344.587
 21
225.508
 31
0
  0
LINE
  5
CA9
330
A02
100
AcDbEntity
  8
View013
100
AcDbLine
 10
358.587
 20
239.508
 30
0
 11
344.587
 21
239.508
 31
0
  0
LINE
  5
CAA
330
A02
100
AcDbEntity
  8
View013
100
AcDbLine
 10
344.587
 20
225.508
 30
0
 11
358.587
 21
225.508
 31
0
  0
LINE
  5
CAB
330
A02
100
AcDbEntity
  8
View013
100
AcDbLine
 10
358.587
 20
225.508
 30
0
 11
358.587
 21
239.508
 31
0
  0
LINE
  5
CAC
330
A02
100
AcDbEntity
  8
View013
100
AcDbLine
 10
316.012
 20
239.508
 30
0
 11
316.012
 21
225.508
 31
0
  0
LINE
  5
CAD
330
A02
100
AcDbEntity
  8
View013
100
AcDbLine
 10
330.012
 20
239.508
 30
0
 11
316.012
 21
239.508
 31
0
  0
LINE
  5
CAE
330
A02
100
AcDbEntity
  8
View013
100
AcDbLine
 10
316.012
 20
225.508
 30
0
 11
330.012
 21
225.508
 31
0
  0
LINE
  5
CAF
330
A02
100
AcDbEntity
  8
View013
100
AcDbLine
 10
330.012
 20
225.508
 30
0
 11
330.012
 21
239.508
 31
0
  0
CIRCLE
  5
CB0
330
A02
100
AcDbEntity
  8
View013
100
AcDbCircle
 10
362.855
 20
258.95
 40
1.55
  0
LINE
  5
CB1
330
A02
100
AcDbEntity
  8
View013
100
AcDbLine
 10
292.2
 20
239.508
 30
0
 11
292.2
 21
225.508
 31
0
  0
LINE
  5
CB2
330
A02
100
AcDbEntity
  8
View013
100
AcDbLine
 10
306.2
 20
239.508
 30
0
 11
292.2
 21
239.508
 31
0
  0
LINE
  5
CB3
330
A02
100
AcDbEntity
  8
View013
100
AcDbLine
 10
292.2
 20
225.508
 30
0
 11
306.2
 21
225.508
 31
0
  0
LINE
  5
CB4
330
A02
100
AcDbEntity
  8
View013
100
AcDbLine
 10
306.2
 20
225.508
 30
0
 11
306.2
 21
239.508
 31
0
  0
LINE
  5
CB5
330
A02
100
AcDbEntity
  8
View013
100
AcDbLine
 10
273.15
 20
239.508
 30
0
 11
273.15
 21
225.508
 31
0
  0
LINE
  5
CB6
330
A02
100
AcDbEntity
  8
View013
100
AcDbLine
 10
287.15
 20
239.508
 30
0
 11
273.15
 21
239.508
 31
0
  0
LINE
  5
CB7
330
A02
100
AcDbEntity
  8
View013
100
AcDbLine
 10
273.15
 20
225.508
 30
0
 11
287.15
 21
225.508
 31
0
  0
LINE
  5
CB8
330
A02
100
AcDbEntity
  8
View013
100
AcDbLine
 10
287.15
 20
225.508
 30
0
 11
287.15
 21
239.508
 31
0
  0
CIRCLE
  5
CB9
330
A02
100
AcDbEntity
  8
View013
100
AcDbCircle
 10
276.256
 20
260.708
 40
1.55
  0
LINE
  5
CBA
330
A02
100
AcDbEntity
  8
View013
100
AcDbLine
 10
249.337
 20
196.645
 30
0
 11
249.337
 21
182.645
 31
0
  0
LINE
  5
CBB
330
A02
100
AcDbEntity
  8
View013
100
AcDbLine
 10
263.337
 20
196.645
 30
0
 11
249.337
 21
196.645
 31
0
  0
LINE
  5
CBC
330
A02
100
AcDbEntity
  8
View013
100
AcDbLine
 10
249.337
 20
182.645
 30
0
 11
263.337
 21
182.645
 31
0
  0
LINE
  5
CBD
330
A02
100
AcDbEntity
  8
View013
100
AcDbLine
 10
263.337
 20
182.645
 30
0
 11
263.337
 21
196.645
 31
0
  0
LINE
  5
CBE
330
A02
100
AcDbEntity
  8
View013
100
AcDbLine
 10
230.287
 20
196.645
 30
0
 11
230.287
 21
182.645
 31
0
  0
LINE
  5
CBF
330
A02
100
AcDbEntity
  8
View013
100
AcDbLine
 10
244.287
 20
196.645
 30
0
 11
230.287
 21
196.645
 31
0
  0
LINE
  5
CC0
330
A02
100
AcDbEntity
  8
View013
100
AcDbLine
 10
230.287
 20
182.645
 30
0
 11
244.287
 21
182.645
 31
0
  0
LINE
  5
CC1
330
A02
100
AcDbEntity
  8
View013
100
AcDbLine
 10
244.287
 20
182.645
 30
0
 11
244.287
 21
196.645
 31
0
  0
LINE
  5
CC2
330
A02
100
AcDbEntity
  8
View013
100
AcDbLine
 10
258.862
 20
215.695
 30
0
 11
258.862
 21
201.695
 31
0
  0
LINE
  5
CC3
330
A02
100
AcDbEntity
  8
View013
100
AcDbLine
 10
272.862
 20
215.695
 30
0
 11
258.862
 21
215.695
 31
0
  0
LINE
  5
CC4
330
A02
100
AcDbEntity
  8
View013
100
AcDbLine
 10
258.862
 20
201.695
 30
0
 11
272.862
 21
201.695
 31
0
  0
LINE
  5
CC5
330
A02
100
AcDbEntity
  8
View013
100
AcDbLine
 10
272.862
 20
201.695
 30
0
 11
272.862
 21
215.695
 31
0
  0
LINE
  5
CC6
330
A02
100
AcDbEntity
  8
View013
100
AcDbLine
 10
239.812
 20
215.695
 30
0
 11
239.812
 21
201.695
 31
0
  0
LINE
  5
CC7
330
A02
100
AcDbEntity
  8
View013
100
AcDbLine
 10
253.812
 20
215.695
 30
0
 11
239.812
 21
215.695
 31
0
  0
LINE
  5
CC8
330
A02
100
AcDbEntity
  8
View013
100
AcDbLine
 10
239.812
 20
201.695
 30
0
 11
253.812
 21
201.695
 31
0
  0
LINE
  5
CC9
330
A02
100
AcDbEntity
  8
View013
100
AcDbLine
 10
253.812
 20
201.695
 30
0
 11
253.812
 21
215.695
 31
0
  0
LINE
  5
CCA
330
A02
100
AcDbEntity
  8
View013
100
AcDbLine
 10
211.237
 20
196.645
 30
0
 11
211.237
 21
182.645
 31
0
  0
LINE
  5
CCB
330
A02
100
AcDbEntity
  8
View013
100
AcDbLine
 10
225.237
 20
196.645
 30
0
 11
211.237
 21
196.645
 31
0
  0
LINE
  5
CCC
330
A02
100
AcDbEntity
  8
View013
100
AcDbLine
 10
211.237
 20
182.645
 30
0
 11
225.237
 21
182.645
 31
0
  0
LINE
  5
CCD
330
A02
100
AcDbEntity
  8
View013
100
AcDbLine
 10
225.237
 20
182.645
 30
0
 11
225.237
 21
196.645
 31
0
  0
LINE
  5
CCE
330
A02
100
AcDbEntity
  8
View013
100
AcDbLine
 10
192.187
 20
196.645
 30
0
 11
192.187
 21
182.645
 31
0
  0
LINE
  5
CCF
330
A02
100
AcDbEntity
  8
View013
100
AcDbLine
 10
206.187
 20
196.645
 30
0
 11
192.187
 21
196.645
 31
0
  0
LINE
  5
CD0
330
A02
100
AcDbEntity
  8
View013
100
AcDbLine
 10
192.187
 20
182.645
 30
0
 11
206.187
 21
182.645
 31
0
  0
LINE
  5
CD1
330
A02
100
AcDbEntity
  8
View013
100
AcDbLine
 10
206.187
 20
182.645
 30
0
 11
206.187
 21
196.645
 31
0
  0
LINE
  5
CD2
330
A02
100
AcDbEntity
  8
View013
100
AcDbLine
 10
220.762
 20
215.695
 30
0
 11
220.762
 21
201.695
 31
0
  0
LINE
  5
CD3
330
A02
100
AcDbEntity
  8
View013
100
AcDbLine
 10
234.762
 20
215.695
 30
0
 11
220.762
 21
215.695
 31
0
  0
LINE
  5
CD4
330
A02
100
AcDbEntity
  8
View013
100
AcDbLine
 10
220.762
 20
201.695
 30
0
 11
234.762
 21
201.695
 31
0
  0
LINE
  5
CD5
330
A02
100
AcDbEntity
  8
View013
100
AcDbLine
 10
234.762
 20
201.695
 30
0
 11
234.762
 21
215.695
 31
0
  0
LINE
  5
CD6
330
A02
100
AcDbEntity
  8
View013
100
AcDbLine
 10
201.712
 20
215.695
 30
0
 11
201.712
 21
201.695
 31
0
  0
LINE
  5
CD7
330
A02
100
AcDbEntity
  8
View013
100
AcDbLine
 10
215.712
 20
215.695
 30
0
 11
201.712
 21
215.695
 31
0
  0
LINE
  5
CD8
330
A02
100
AcDbEntity
  8
View013
100
AcDbLine
 10
201.712
 20
201.695
 30
0
 11
215.712
 21
201.695
 31
0
  0
LINE
  5
CD9
330
A02
100
AcDbEntity
  8
View013
100
AcDbLine
 10
215.712
 20
201.695
 30
0
 11
215.712
 21
215.695
 31
0
  0
LINE
  5
CDA
330
A02
100
AcDbEntity
  8
View013
100
AcDbLine
 10
182.662
 20
215.695
 30
0
 11
182.662
 21
201.695
 31
0
  0
LINE
  5
CDB
330
A02
100
AcDbEntity
  8
View013
100
AcDbLine
 10
196.662
 20
215.695
 30
0
 11
182.662
 21
215.695
 31
0
  0
LINE
  5
CDC
330
A02
100
AcDbEntity
  8
View013
100
AcDbLine
 10
182.662
 20
201.695
 30
0
 11
196.662
 21
201.695
 31
0
  0
LINE
  5
CDD
330
A02
100
AcDbEntity
  8
View013
100
AcDbLine
 10
196.662
 20
201.695
 30
0
 11
196.662
 21
215.695
 31
0
  0
LINE
  5
CDE
330
A02
100
AcDbEntity
  8
View013
100
AcDbLine
 10
254.1
 20
239.508
 30
0
 11
254.1
 21
225.508
 31
0
  0
LINE
  5
CDF
330
A02
100
AcDbEntity
  8
View013
100
AcDbLine
 10
268.1
 20
239.508
 30
0
 11
254.1
 21
239.508
 31
0
  0
LINE
  5
CE0
330
A02
100
AcDbEntity
  8
View013
100
AcDbLine
 10
254.1
 20
225.508
 30
0
 11
268.1
 21
225.508
 31
0
  0
LINE
  5
CE1
330
A02
100
AcDbEntity
  8
View013
100
AcDbLine
 10
268.1
 20
225.508
 30
0
 11
268.1
 21
239.508
 31
0
  0
LINE
  5
CE2
330
A02
100
AcDbEntity
  8
View013
100
AcDbLine
 10
235.05
 20
239.508
 30
0
 11
235.05
 21
225.508
 31
0
  0
LINE
  5
CE3
330
A02
100
AcDbEntity
  8
View013
100
AcDbLine
 10
249.05
 20
239.508
 30
0
 11
235.05
 21
239.508
 31
0
  0
LINE
  5
CE4
330
A02
100
AcDbEntity
  8
View013
100
AcDbLine
 10
235.05
 20
225.508
 30
0
 11
249.05
 21
225.508
 31
0
  0
LINE
  5
CE5
330
A02
100
AcDbEntity
  8
View013
100
AcDbLine
 10
249.05
 20
225.508
 30
0
 11
249.05
 21
239.508
 31
0
  0
LINE
  5
CE6
330
A02
100
AcDbEntity
  8
View013
100
AcDbLine
 10
211.237
 20
239.508
 30
0
 11
211.237
 21
225.508
 31
0
  0
LINE
  5
CE7
330
A02
100
AcDbEntity
  8
View013
100
AcDbLine
 10
225.237
 20
239.508
 30
0
 11
211.237
 21
239.508
 31
0
  0
LINE
  5
CE8
330
A02
100
AcDbEntity
  8
View013
100
AcDbLine
 10
211.237
 20
225.508
 30
0
 11
225.237
 21
225.508
 31
0
  0
LINE
  5
CE9
330
A02
100
AcDbEntity
  8
View013
100
AcDbLine
 10
225.237
 20
225.508
 30
0
 11
225.237
 21
239.508
 31
0
  0
LINE
  5
CEA
330
A02
100
AcDbEntity
  8
View013
100
AcDbLine
 10
192.187
 20
239.508
 30
0
 11
192.187
 21
225.508
 31
0
  0
LINE
  5
CEB
330
A02
100
AcDbEntity
  8
View013
100
AcDbLine
 10
206.187
 20
239.508
 30
0
 11
192.187
 21
239.508
 31
0
  0
LINE
  5
CEC
330
A02
100
AcDbEntity
  8
View013
100
AcDbLine
 10
192.187
 20
225.508
 30
0
 11
206.187
 21
225.508
 31
0
  0
LINE
  5
CED
330
A02
100
AcDbEntity
  8
View013
100
AcDbLine
 10
206.187
 20
225.508
 30
0
 11
206.187
 21
239.508
 31
0
  0
CIRCLE
  5
CEE
330
A02
100
AcDbEntity
  8
View013
100
AcDbCircle
 10
184.9
 20
114.708
 40
1.55
  0
LINE
  5
CEF
330
A02
100
AcDbEntity
  8
View013
100
AcDbLine
 10
170.756
 20
139.495
 30
0
 11
170.756
 21
133.505
 31
0
  0
LINE
  5
CF0
330
A02
100
AcDbEntity
  8
View013
100
AcDbLine
 10
184.756
 20
139.495
 30
0
 11
170.756
 21
139.495
 31
0
  0
LINE
  5
CF1
330
A02
100
AcDbEntity
  8
View013
100
AcDbLine
 10
130.706
 20
133.505
 30
0
 11
170.756
 21
133.505
 31
0
  0
LINE
  5
CF2
330
A02
100
AcDbEntity
  8
View013
100
AcDbLine
 10
184.756
 20
133.505
 30
0
 11
184.756
 21
139.495
 31
0
  0
LINE
  5
CF3
330
A02
100
AcDbEntity
  8
View013
100
AcDbLine
 10
130.706
 20
133.505
 30
0
 11
130.706
 21
139.315
 31
0
  0
LINE
  5
CF4
330
A02
100
AcDbEntity
  8
View013
100
AcDbLine
 10
184.756
 20
133.505
 30
0
 11
224.806
 21
133.505
 31
0
  0
LINE
  5
CF5
330
A02
100
AcDbEntity
  8
View013
100
AcDbLine
 10
130.706
 20
139.315
 30
0
 11
129.756
 21
139.315
 31
0
  0
LINE
  5
CF6
330
A02
100
AcDbEntity
  8
View013
100
AcDbLine
 10
224.806
 20
139.315
 30
0
 11
224.806
 21
133.505
 31
0
  0
LINE
  5
CF7
330
A02
100
AcDbEntity
  8
View013
100
AcDbLine
 10
129.756
 20
139.315
 30
0
 11
129.756
 21
141.315
 31
0
  0
LINE
  5
CF8
330
A02
100
AcDbEntity
  8
View013
100
AcDbLine
 10
225.756
 20
139.315
 30
0
 11
224.806
 21
139.315
 31
0
  0
LINE
  5
CF9
330
A02
100
AcDbEntity
  8
View013
100
AcDbLine
 10
129.756
 20
141.315
 30
0
 11
125.756
 21
141.315
 31
0
  0
LINE
  5
CFA
330
A02
100
AcDbEntity
  8
View013
100
AcDbLine
 10
225.756
 20
139.315
 30
0
 11
225.756
 21
141.315
 31
0
  0
LINE
  5
CFB
330
A02
100
AcDbEntity
  8
View013
100
AcDbLine
 10
125.756
 20
141.315
 30
0
 11
125.756
 21
139.315
 31
0
  0
LINE
  5
CFC
330
A02
100
AcDbEntity
  8
View013
100
AcDbLine
 10
225.756
 20
141.315
 30
0
 11
229.756
 21
141.315
 31
0
  0
LINE
  5
CFD
330
A02
100
AcDbEntity
  8
View013
100
AcDbLine
 10
125.756
 20
139.315
 30
0
 11
124.806
 21
139.315
 31
0
  0
LINE
  5
CFE
330
A02
100
AcDbEntity
  8
View013
100
AcDbLine
 10
229.756
 20
141.315
 30
0
 11
229.756
 21
139.315
 31
0
  0
LINE
  5
CFF
330
A02
100
AcDbEntity
  8
View013
100
AcDbLine
 10
124.806
 20
139.315
 30
0
 11
124.806
 21
126.915
 31
0
  0
LINE
  5
D00
330
A02
100
AcDbEntity
  8
View013
100
AcDbLine
 10
230.706
 20
139.315
 30
0
 11
229.756
 21
139.315
 31
0
  0
LINE
  5
D01
330
A02
100
AcDbEntity
  8
View013
100
AcDbLine
 10
124.806
 20
126.915
 30
0
 11
130.706
 21
126.915
 31
0
  0
LINE
  5
D02
330
A02
100
AcDbEntity
  8
View013
100
AcDbLine
 10
230.706
 20
126.915
 30
0
 11
230.706
 21
139.315
 31
0
  0
LINE
  5
D03
330
A02
100
AcDbEntity
  8
View013
100
AcDbLine
 10
130.706
 20
126.915
 30
0
 11
130.706
 21
130.305
 31
0
  0
LINE
  5
D04
330
A02
100
AcDbEntity
  8
View013
100
AcDbLine
 10
224.806
 20
126.915
 30
0
 11
230.706
 21
126.915
 31
0
  0
LINE
  5
D05
330
A02
100
AcDbEntity
  8
View013
100
AcDbLine
 10
170.756
 20
130.305
 30
0
 11
130.706
 21
130.305
 31
0
  0
LINE
  5
D06
330
A02
100
AcDbEntity
  8
View013
100
AcDbLine
 10
224.806
 20
130.305
 30
0
 11
224.806
 21
126.915
 31
0
  0
LINE
  5
D07
330
A02
100
AcDbEntity
  8
View013
100
AcDbLine
 10
170.756
 20
130.305
 30
0
 11
170.756
 21
125.495
 31
0
  0
LINE
  5
D08
330
A02
100
AcDbEntity
  8
View013
100
AcDbLine
 10
224.806
 20
130.305
 30
0
 11
184.756
 21
130.305
 31
0
  0
LINE
  5
D09
330
A02
100
AcDbEntity
  8
View013
100
AcDbLine
 10
170.756
 20
125.495
 30
0
 11
184.756
 21
125.495
 31
0
  0
LINE
  5
D0A
330
A02
100
AcDbEntity
  8
View013
100
AcDbLine
 10
184.756
 20
125.495
 30
0
 11
184.756
 21
130.305
 31
0
  0
LINE
  5
D0B
330
A02
100
AcDbEntity
  8
View013
100
AcDbLine
 10
99.3184
 20
139.495
 30
0
 11
99.3184
 21
125.495
 31
0
  0
LINE
  5
D0C
330
A02
100
AcDbEntity
  8
View013
100
AcDbLine
 10
113.318
 20
139.495
 30
0
 11
99.3184
 21
139.495
 31
0
  0
LINE
  5
D0D
330
A02
100
AcDbEntity
  8
View013
100
AcDbLine
 10
99.3184
 20
125.495
 30
0
 11
113.318
 21
125.495
 31
0
  0
LINE
  5
D0E
330
A02
100
AcDbEntity
  8
View013
100
AcDbLine
 10
113.318
 20
125.495
 30
0
 11
113.318
 21
139.495
 31
0
  0
LINE
  5
D0F
330
A02
100
AcDbEntity
  8
View013
100
AcDbLine
 10
168.375
 20
158.545
 30
0
 11
168.375
 21
144.545
 31
0
  0
LINE
  5
D10
330
A02
100
AcDbEntity
  8
View013
100
AcDbLine
 10
182.375
 20
158.545
 30
0
 11
168.375
 21
158.545
 31
0
  0
LINE
  5
D11
330
A02
100
AcDbEntity
  8
View013
100
AcDbLine
 10
168.375
 20
144.545
 30
0
 11
182.375
 21
144.545
 31
0
  0
LINE
  5
D12
330
A02
100
AcDbEntity
  8
View013
100
AcDbLine
 10
182.375
 20
144.545
 30
0
 11
182.375
 21
158.545
 31
0
  0
LINE
  5
D13
330
A02
100
AcDbEntity
  8
View013
100
AcDbLine
 10
149.325
 20
158.545
 30
0
 11
149.325
 21
144.545
 31
0
  0
LINE
  5
D14
330
A02
100
AcDbEntity
  8
View013
100
AcDbLine
 10
163.325
 20
158.545
 30
0
 11
149.325
 21
158.545
 31
0
  0
LINE
  5
D15
330
A02
100
AcDbEntity
  8
View013
100
AcDbLine
 10
149.325
 20
144.545
 30
0
 11
163.325
 21
144.545
 31
0
  0
LINE
  5
D16
330
A02
100
AcDbEntity
  8
View013
100
AcDbLine
 10
163.325
 20
144.545
 30
0
 11
163.325
 21
158.545
 31
0
  0
LINE
  5
D17
330
A02
100
AcDbEntity
  8
View013
100
AcDbLine
 10
177.9
 20
177.595
 30
0
 11
177.9
 21
163.595
 31
0
  0
LINE
  5
D18
330
A02
100
AcDbEntity
  8
View013
100
AcDbLine
 10
191.9
 20
177.595
 30
0
 11
177.9
 21
177.595
 31
0
  0
LINE
  5
D19
330
A02
100
AcDbEntity
  8
View013
100
AcDbLine
 10
177.9
 20
163.595
 30
0
 11
191.9
 21
163.595
 31
0
  0
LINE
  5
D1A
330
A02
100
AcDbEntity
  8
View013
100
AcDbLine
 10
191.9
 20
163.595
 30
0
 11
191.9
 21
177.595
 31
0
  0
LINE
  5
D1B
330
A02
100
AcDbEntity
  8
View013
100
AcDbLine
 10
158.85
 20
177.595
 30
0
 11
158.85
 21
163.595
 31
0
  0
LINE
  5
D1C
330
A02
100
AcDbEntity
  8
View013
100
AcDbLine
 10
172.85
 20
177.595
 30
0
 11
158.85
 21
177.595
 31
0
  0
LINE
  5
D1D
330
A02
100
AcDbEntity
  8
View013
100
AcDbLine
 10
158.85
 20
163.595
 30
0
 11
172.85
 21
163.595
 31
0
  0
LINE
  5
D1E
330
A02
100
AcDbEntity
  8
View013
100
AcDbLine
 10
172.85
 20
163.595
 30
0
 11
172.85
 21
177.595
 31
0
  0
LINE
  5
D1F
330
A02
100
AcDbEntity
  8
View013
100
AcDbLine
 10
139.8
 20
177.595
 30
0
 11
139.8
 21
163.595
 31
0
  0
LINE
  5
D20
330
A02
100
AcDbEntity
  8
View013
100
AcDbLine
 10
153.8
 20
177.595
 30
0
 11
139.8
 21
177.595
 31
0
  0
LINE
  5
D21
330
A02
100
AcDbEntity
  8
View013
100
AcDbLine
 10
139.8
 20
163.595
 30
0
 11
153.8
 21
163.595
 31
0
  0
LINE
  5
D22
330
A02
100
AcDbEntity
  8
View013
100
AcDbLine
 10
153.8
 20
163.595
 30
0
 11
153.8
 21
177.595
 31
0
  0
LINE
  5
D23
330
A02
100
AcDbEntity
  8
View013
100
AcDbLine
 10
130.275
 20
158.545
 30
0
 11
130.275
 21
144.545
 31
0
  0
LINE
  5
D24
330
A02
100
AcDbEntity
  8
View013
100
AcDbLine
 10
144.275
 20
158.545
 30
0
 11
130.275
 21
158.545
 31
0
  0
LINE
  5
D25
330
A02
100
AcDbEntity
  8
View013
100
AcDbLine
 10
130.275
 20
144.545
 30
0
 11
144.275
 21
144.545
 31
0
  0
LINE
  5
D26
330
A02
100
AcDbEntity
  8
View013
100
AcDbLine
 10
144.275
 20
144.545
 30
0
 11
144.275
 21
158.545
 31
0
  0
LINE
  5
D27
330
A02
100
AcDbEntity
  8
View013
100
AcDbLine
 10
111.225
 20
158.545
 30
0
 11
111.225
 21
144.545
 31
0
  0
LINE
  5
D28
330
A02
100
AcDbEntity
  8
View013
100
AcDbLine
 10
125.225
 20
158.545
 30
0
 11
111.225
 21
158.545
 31
0
  0
LINE
  5
D29
330
A02
100
AcDbEntity
  8
View013
100
AcDbLine
 10
111.225
 20
144.545
 30
0
 11
125.225
 21
144.545
 31
0
  0
LINE
  5
D2A
330
A02
100
AcDbEntity
  8
View013
100
AcDbLine
 10
125.225
 20
144.545
 30
0
 11
125.225
 21
158.545
 31
0
  0
LINE
  5
D2B
330
A02
100
AcDbEntity
  8
View013
100
AcDbLine
 10
92.1746
 20
158.545
 30
0
 11
92.1746
 21
144.545
 31
0
  0
LINE
  5
D2C
330
A02
100
AcDbEntity
  8
View013
100
AcDbLine
 10
106.175
 20
158.545
 30
0
 11
92.1746
 21
158.545
 31
0
  0
LINE
  5
D2D
330
A02
100
AcDbEntity
  8
View013
100
AcDbLine
 10
92.1746
 20
144.545
 30
0
 11
106.175
 21
144.545
 31
0
  0
LINE
  5
D2E
330
A02
100
AcDbEntity
  8
View013
100
AcDbLine
 10
106.175
 20
144.545
 30
0
 11
106.175
 21
158.545
 31
0
  0
LINE
  5
D2F
330
A02
100
AcDbEntity
  8
View013
100
AcDbLine
 10
120.75
 20
177.595
 30
0
 11
120.75
 21
163.595
 31
0
  0
LINE
  5
D30
330
A02
100
AcDbEntity
  8
View013
100
AcDbLine
 10
134.75
 20
177.595
 30
0
 11
120.75
 21
177.595
 31
0
  0
LINE
  5
D31
330
A02
100
AcDbEntity
  8
View013
100
AcDbLine
 10
120.75
 20
163.595
 30
0
 11
134.75
 21
163.595
 31
0
  0
LINE
  5
D32
330
A02
100
AcDbEntity
  8
View013
100
AcDbLine
 10
134.75
 20
163.595
 30
0
 11
134.75
 21
177.595
 31
0
  0
LINE
  5
D33
330
A02
100
AcDbEntity
  8
View013
100
AcDbLine
 10
101.7
 20
177.595
 30
0
 11
101.7
 21
163.595
 31
0
  0
LINE
  5
D34
330
A02
100
AcDbEntity
  8
View013
100
AcDbLine
 10
115.7
 20
177.595
 30
0
 11
101.7
 21
177.595
 31
0
  0
LINE
  5
D35
330
A02
100
AcDbEntity
  8
View013
100
AcDbLine
 10
101.7
 20
163.595
 30
0
 11
115.7
 21
163.595
 31
0
  0
LINE
  5
D36
330
A02
100
AcDbEntity
  8
View013
100
AcDbLine
 10
115.7
 20
163.595
 30
0
 11
115.7
 21
177.595
 31
0
  0
CIRCLE
  5
D37
330
A02
100
AcDbEntity
  8
View013
100
AcDbCircle
 10
93.5434
 20
114.708
 40
1.55
  0
LINE
  5
D38
330
A02
100
AcDbEntity
  8
View013
100
AcDbLine
 10
75.5059
 20
139.495
 30
0
 11
75.5059
 21
125.495
 31
0
  0
LINE
  5
D39
330
A02
100
AcDbEntity
  8
View013
100
AcDbLine
 10
89.5059
 20
139.495
 30
0
 11
75.5059
 21
139.495
 31
0
  0
LINE
  5
D3A
330
A02
100
AcDbEntity
  8
View013
100
AcDbLine
 10
75.5059
 20
125.495
 30
0
 11
89.5059
 21
125.495
 31
0
  0
LINE
  5
D3B
330
A02
100
AcDbEntity
  8
View013
100
AcDbLine
 10
89.5059
 20
125.495
 30
0
 11
89.5059
 21
139.495
 31
0
  0
LINE
  5
D3C
330
A02
100
AcDbEntity
  8
View013
100
AcDbLine
 10
51.6934
 20
139.495
 30
0
 11
51.6934
 21
125.495
 31
0
  0
LINE
  5
D3D
330
A02
100
AcDbEntity
  8
View013
100
AcDbLine
 10
65.6934
 20
139.495
 30
0
 11
51.6934
 21
139.495
 31
0
  0
LINE
  5
D3E
330
A02
100
AcDbEntity
  8
View013
100
AcDbLine
 10
51.6934
 20
125.495
 30
0
 11
65.6934
 21
125.495
 31
0
  0
LINE
  5
D3F
330
A02
100
AcDbEntity
  8
View013
100
AcDbLine
 10
65.6934
 20
125.495
 30
0
 11
65.6934
 21
139.495
 31
0
  0
CIRCLE
  5
D40
330
A02
100
AcDbEntity
  8
View013
100
AcDbCircle
 10
6.06582
 20
115.586
 40
1.55
  0
LINE
  5
D41
330
A02
100
AcDbEntity
  8
View013
100
AcDbLine
 10
33.7621
 20
135.995
 30
0
 11
33.7621
 21
128.995
 31
0
  0
LINE
  5
D42
330
A02
100
AcDbEntity
  8
View013
100
AcDbLine
 10
40.7621
 20
135.995
 30
0
 11
33.7621
 21
135.995
 31
0
  0
LINE
  5
D43
330
A02
100
AcDbEntity
  8
View013
100
AcDbLine
 10
33.7621
 20
128.995
 30
0
 11
40.7621
 21
128.995
 31
0
  0
LINE
  5
D44
330
A02
100
AcDbEntity
  8
View013
100
AcDbLine
 10
40.7621
 20
128.995
 30
0
 11
40.7621
 21
135.995
 31
0
  0
LINE
  5
D45
330
A02
100
AcDbEntity
  8
View013
100
AcDbLine
 10
14.7121
 20
135.995
 30
0
 11
14.7121
 21
128.995
 31
0
  0
LINE
  5
D46
330
A02
100
AcDbEntity
  8
View013
100
AcDbLine
 10
21.7121
 20
135.995
 30
0
 11
14.7121
 21
135.995
 31
0
  0
LINE
  5
D47
330
A02
100
AcDbEntity
  8
View013
100
AcDbLine
 10
14.7121
 20
128.995
 30
0
 11
21.7121
 21
128.995
 31
0
  0
LINE
  5
D48
330
A02
100
AcDbEntity
  8
View013
100
AcDbLine
 10
21.7121
 20
128.995
 30
0
 11
21.7121
 21
135.995
 31
0
  0
LINE
  5
D49
330
A02
100
AcDbEntity
  8
View013
100
AcDbLine
 10
61.2184
 20
158.545
 30
0
 11
61.2184
 21
152.555
 31
0
  0
LINE
  5
D4A
330
A02
100
AcDbEntity
  8
View013
100
AcDbLine
 10
75.2184
 20
158.545
 30
0
 11
61.2184
 21
158.545
 31
0
  0
LINE
  5
D4B
330
A02
100
AcDbEntity
  8
View013
100
AcDbLine
 10
59.1684
 20
152.555
 30
0
 11
61.2184
 21
152.555
 31
0
  0
LINE
  5
D4C
330
A02
100
AcDbEntity
  8
View013
100
AcDbLine
 10
75.2184
 20
152.555
 30
0
 11
75.2184
 21
158.545
 31
0
  0
LINE
  5
D4D
330
A02
100
AcDbEntity
  8
View013
100
AcDbLine
 10
59.1684
 20
152.555
 30
0
 11
59.1684
 21
158.365
 31
0
  0
LINE
  5
D4E
330
A02
100
AcDbEntity
  8
View013
100
AcDbLine
 10
75.2184
 20
152.555
 30
0
 11
77.2684
 21
152.555
 31
0
  0
LINE
  5
D4F
330
A02
100
AcDbEntity
  8
View013
100
AcDbLine
 10
59.1684
 20
158.365
 30
0
 11
58.2184
 21
158.365
 31
0
  0
LINE
  5
D50
330
A02
100
AcDbEntity
  8
View013
100
AcDbLine
 10
77.2684
 20
158.365
 30
0
 11
77.2684
 21
152.555
 31
0
  0
LINE
  5
D51
330
A02
100
AcDbEntity
  8
View013
100
AcDbLine
 10
58.2184
 20
160.365
 30
0
 11
58.2184
 21
158.365
 31
0
  0
LINE
  5
D52
330
A02
100
AcDbEntity
  8
View013
100
AcDbLine
 10
78.2184
 20
158.365
 30
0
 11
77.2684
 21
158.365
 31
0
  0
LINE
  5
D53
330
A02
100
AcDbEntity
  8
View013
100
AcDbLine
 10
54.2184
 20
160.365
 30
0
 11
58.2184
 21
160.365
 31
0
  0
LINE
  5
D54
330
A02
100
AcDbEntity
  8
View013
100
AcDbLine
 10
78.2184
 20
158.365
 30
0
 11
78.2184
 21
160.365
 31
0
  0
LINE
  5
D55
330
A02
100
AcDbEntity
  8
View013
100
AcDbLine
 10
54.2184
 20
158.365
 30
0
 11
54.2184
 21
160.365
 31
0
  0
LINE
  5
D56
330
A02
100
AcDbEntity
  8
View013
100
AcDbLine
 10
78.2184
 20
160.365
 30
0
 11
82.2184
 21
160.365
 31
0
  0
LINE
  5
D57
330
A02
100
AcDbEntity
  8
View013
100
AcDbLine
 10
54.2184
 20
158.365
 30
0
 11
53.2684
 21
158.365
 31
0
  0
LINE
  5
D58
330
A02
100
AcDbEntity
  8
View013
100
AcDbLine
 10
82.2184
 20
160.365
 30
0
 11
82.2184
 21
158.365
 31
0
  0
LINE
  5
D59
330
A02
100
AcDbEntity
  8
View013
100
AcDbLine
 10
53.2684
 20
158.365
 30
0
 11
53.2684
 21
145.965
 31
0
  0
LINE
  5
D5A
330
A02
100
AcDbEntity
  8
View013
100
AcDbLine
 10
83.1684
 20
158.365
 30
0
 11
82.2184
 21
158.365
 31
0
  0
LINE
  5
D5B
330
A02
100
AcDbEntity
  8
View013
100
AcDbLine
 10
53.2684
 20
145.965
 30
0
 11
59.1684
 21
145.965
 31
0
  0
LINE
  5
D5C
330
A02
100
AcDbEntity
  8
View013
100
AcDbLine
 10
83.1684
 20
145.965
 30
0
 11
83.1684
 21
158.365
 31
0
  0
LINE
  5
D5D
330
A02
100
AcDbEntity
  8
View013
100
AcDbLine
 10
59.1684
 20
145.965
 30
0
 11
59.1684
 21
149.355
 31
0
  0
LINE
  5
D5E
330
A02
100
AcDbEntity
  8
View013
100
AcDbLine
 10
77.2684
 20
145.965
 30
0
 11
83.1684
 21
145.965
 31
0
  0
LINE
  5
D5F
330
A02
100
AcDbEntity
  8
View013
100
AcDbLine
 10
61.2184
 20
149.355
 30
0
 11
59.1684
 21
149.355
 31
0
  0
LINE
  5
D60
330
A02
100
AcDbEntity
  8
View013
100
AcDbLine
 10
77.2684
 20
149.355
 30
0
 11
77.2684
 21
145.965
 31
0
  0
LINE
  5
D61
330
A02
100
AcDbEntity
  8
View013
100
AcDbLine
 10
61.2184
 20
149.355
 30
0
 11
61.2184
 21
144.545
 31
0
  0
LINE
  5
D62
330
A02
100
AcDbEntity
  8
View013
100
AcDbLine
 10
77.2684
 20
149.355
 30
0
 11
75.2184
 21
149.355
 31
0
  0
LINE
  5
D63
330
A02
100
AcDbEntity
  8
View013
100
AcDbLine
 10
61.2184
 20
144.545
 30
0
 11
75.2184
 21
144.545
 31
0
  0
LINE
  5
D64
330
A02
100
AcDbEntity
  8
View013
100
AcDbLine
 10
75.2184
 20
144.545
 30
0
 11
75.2184
 21
149.355
 31
0
  0
LINE
  5
D65
330
A02
100
AcDbEntity
  8
View013
100
AcDbLine
 10
82.6496
 20
177.595
 30
0
 11
82.6496
 21
163.595
 31
0
  0
LINE
  5
D66
330
A02
100
AcDbEntity
  8
View013
100
AcDbLine
 10
96.6496
 20
177.595
 30
0
 11
82.6496
 21
177.595
 31
0
  0
LINE
  5
D67
330
A02
100
AcDbEntity
  8
View013
100
AcDbLine
 10
82.6496
 20
163.595
 30
0
 11
96.6496
 21
163.595
 31
0
  0
LINE
  5
D68
330
A02
100
AcDbEntity
  8
View013
100
AcDbLine
 10
96.6496
 20
163.595
 30
0
 11
96.6496
 21
177.595
 31
0
  0
LINE
  5
D69
330
A02
100
AcDbEntity
  8
View013
100
AcDbLine
 10
56.4559
 20
177.595
 30
0
 11
56.4559
 21
163.595
 31
0
  0
LINE
  5
D6A
330
A02
100
AcDbEntity
  8
View013
100
AcDbLine
 10
70.4559
 20
177.595
 30
0
 11
56.4559
 21
177.595
 31
0
  0
LINE
  5
D6B
330
A02
100
AcDbEntity
  8
View013
100
AcDbLine
 10
56.4559
 20
163.595
 30
0
 11
70.4559
 21
163.595
 31
0
  0
LINE
  5
D6C
330
A02
100
AcDbEntity
  8
View013
100
AcDbLine
 10
70.4559
 20
163.595
 30
0
 11
70.4559
 21
177.595
 31
0
  0
LINE
  5
D6D
330
A02
100
AcDbEntity
  8
View013
100
AcDbLine
 10
33.7621
 20
155.045
 30
0
 11
33.7621
 21
148.045
 31
0
  0
LINE
  5
D6E
330
A02
100
AcDbEntity
  8
View013
100
AcDbLine
 10
40.7621
 20
155.045
 30
0
 11
33.7621
 21
155.045
 31
0
  0
LINE
  5
D6F
330
A02
100
AcDbEntity
  8
View013
100
AcDbLine
 10
33.7621
 20
148.045
 30
0
 11
40.7621
 21
148.045
 31
0
  0
LINE
  5
D70
330
A02
100
AcDbEntity
  8
View013
100
AcDbLine
 10
40.7621
 20
148.045
 30
0
 11
40.7621
 21
155.045
 31
0
  0
LINE
  5
D71
330
A02
100
AcDbEntity
  8
View013
100
AcDbLine
 10
14.7121
 20
155.045
 30
0
 11
14.7121
 21
148.045
 31
0
  0
LINE
  5
D72
330
A02
100
AcDbEntity
  8
View013
100
AcDbLine
 10
21.7121
 20
155.045
 30
0
 11
14.7121
 21
155.045
 31
0
  0
LINE
  5
D73
330
A02
100
AcDbEntity
  8
View013
100
AcDbLine
 10
14.7121
 20
148.045
 30
0
 11
21.7121
 21
148.045
 31
0
  0
LINE
  5
D74
330
A02
100
AcDbEntity
  8
View013
100
AcDbLine
 10
21.7121
 20
148.045
 30
0
 11
21.7121
 21
155.045
 31
0
  0
LINE
  5
D75
330
A02
100
AcDbEntity
  8
View013
100
AcDbLine
 10
173.137
 20
196.645
 30
0
 11
173.137
 21
182.645
 31
0
  0
LINE
  5
D76
330
A02
100
AcDbEntity
  8
View013
100
AcDbLine
 10
187.137
 20
196.645
 30
0
 11
173.137
 21
196.645
 31
0
  0
LINE
  5
D77
330
A02
100
AcDbEntity
  8
View013
100
AcDbLine
 10
173.137
 20
182.645
 30
0
 11
187.137
 21
182.645
 31
0
  0
LINE
  5
D78
330
A02
100
AcDbEntity
  8
View013
100
AcDbLine
 10
187.137
 20
182.645
 30
0
 11
187.137
 21
196.645
 31
0
  0
LINE
  5
D79
330
A02
100
AcDbEntity
  8
View013
100
AcDbLine
 10
154.087
 20
196.645
 30
0
 11
154.087
 21
182.645
 31
0
  0
LINE
  5
D7A
330
A02
100
AcDbEntity
  8
View013
100
AcDbLine
 10
168.087
 20
196.645
 30
0
 11
154.087
 21
196.645
 31
0
  0
LINE
  5
D7B
330
A02
100
AcDbEntity
  8
View013
100
AcDbLine
 10
154.087
 20
182.645
 30
0
 11
168.087
 21
182.645
 31
0
  0
LINE
  5
D7C
330
A02
100
AcDbEntity
  8
View013
100
AcDbLine
 10
168.087
 20
182.645
 30
0
 11
168.087
 21
196.645
 31
0
  0
LINE
  5
D7D
330
A02
100
AcDbEntity
  8
View013
100
AcDbLine
 10
135.037
 20
196.645
 30
0
 11
135.037
 21
182.645
 31
0
  0
LINE
  5
D7E
330
A02
100
AcDbEntity
  8
View013
100
AcDbLine
 10
149.037
 20
196.645
 30
0
 11
135.037
 21
196.645
 31
0
  0
LINE
  5
D7F
330
A02
100
AcDbEntity
  8
View013
100
AcDbLine
 10
135.037
 20
182.645
 30
0
 11
149.037
 21
182.645
 31
0
  0
LINE
  5
D80
330
A02
100
AcDbEntity
  8
View013
100
AcDbLine
 10
149.037
 20
182.645
 30
0
 11
149.037
 21
196.645
 31
0
  0
LINE
  5
D81
330
A02
100
AcDbEntity
  8
View013
100
AcDbLine
 10
163.612
 20
215.695
 30
0
 11
163.612
 21
201.695
 31
0
  0
LINE
  5
D82
330
A02
100
AcDbEntity
  8
View013
100
AcDbLine
 10
177.612
 20
215.695
 30
0
 11
163.612
 21
215.695
 31
0
  0
LINE
  5
D83
330
A02
100
AcDbEntity
  8
View013
100
AcDbLine
 10
163.612
 20
201.695
 30
0
 11
177.612
 21
201.695
 31
0
  0
LINE
  5
D84
330
A02
100
AcDbEntity
  8
View013
100
AcDbLine
 10
177.612
 20
201.695
 30
0
 11
177.612
 21
215.695
 31
0
  0
LINE
  5
D85
330
A02
100
AcDbEntity
  8
View013
100
AcDbLine
 10
144.562
 20
215.695
 30
0
 11
144.562
 21
201.695
 31
0
  0
LINE
  5
D86
330
A02
100
AcDbEntity
  8
View013
100
AcDbLine
 10
158.562
 20
215.695
 30
0
 11
144.562
 21
215.695
 31
0
  0
LINE
  5
D87
330
A02
100
AcDbEntity
  8
View013
100
AcDbLine
 10
144.562
 20
201.695
 30
0
 11
158.562
 21
201.695
 31
0
  0
LINE
  5
D88
330
A02
100
AcDbEntity
  8
View013
100
AcDbLine
 10
158.562
 20
201.695
 30
0
 11
158.562
 21
215.695
 31
0
  0
LINE
  5
D89
330
A02
100
AcDbEntity
  8
View013
100
AcDbLine
 10
115.987
 20
196.645
 30
0
 11
115.987
 21
182.645
 31
0
  0
LINE
  5
D8A
330
A02
100
AcDbEntity
  8
View013
100
AcDbLine
 10
129.987
 20
196.645
 30
0
 11
115.987
 21
196.645
 31
0
  0
LINE
  5
D8B
330
A02
100
AcDbEntity
  8
View013
100
AcDbLine
 10
115.987
 20
182.645
 30
0
 11
129.987
 21
182.645
 31
0
  0
LINE
  5
D8C
330
A02
100
AcDbEntity
  8
View013
100
AcDbLine
 10
129.987
 20
182.645
 30
0
 11
129.987
 21
196.645
 31
0
  0
LINE
  5
D8D
330
A02
100
AcDbEntity
  8
View013
100
AcDbLine
 10
96.9371
 20
196.645
 30
0
 11
96.9371
 21
182.645
 31
0
  0
LINE
  5
D8E
330
A02
100
AcDbEntity
  8
View013
100
AcDbLine
 10
110.937
 20
196.645
 30
0
 11
96.9371
 21
196.645
 31
0
  0
LINE
  5
D8F
330
A02
100
AcDbEntity
  8
View013
100
AcDbLine
 10
96.9371
 20
182.645
 30
0
 11
110.937
 21
182.645
 31
0
  0
LINE
  5
D90
330
A02
100
AcDbEntity
  8
View013
100
AcDbLine
 10
110.937
 20
182.645
 30
0
 11
110.937
 21
196.645
 31
0
  0
LINE
  5
D91
330
A02
100
AcDbEntity
  8
View013
100
AcDbLine
 10
125.512
 20
215.695
 30
0
 11
125.512
 21
201.695
 31
0
  0
LINE
  5
D92
330
A02
100
AcDbEntity
  8
View013
100
AcDbLine
 10
139.512
 20
215.695
 30
0
 11
125.512
 21
215.695
 31
0
  0
LINE
  5
D93
330
A02
100
AcDbEntity
  8
View013
100
AcDbLine
 10
125.512
 20
201.695
 30
0
 11
139.512
 21
201.695
 31
0
  0
LINE
  5
D94
330
A02
100
AcDbEntity
  8
View013
100
AcDbLine
 10
139.512
 20
201.695
 30
0
 11
139.512
 21
215.695
 31
0
  0
LINE
  5
D95
330
A02
100
AcDbEntity
  8
View013
100
AcDbLine
 10
106.462
 20
215.695
 30
0
 11
106.462
 21
201.695
 31
0
  0
LINE
  5
D96
330
A02
100
AcDbEntity
  8
View013
100
AcDbLine
 10
120.462
 20
215.695
 30
0
 11
106.462
 21
215.695
 31
0
  0
LINE
  5
D97
330
A02
100
AcDbEntity
  8
View013
100
AcDbLine
 10
106.462
 20
201.695
 30
0
 11
120.462
 21
201.695
 31
0
  0
LINE
  5
D98
330
A02
100
AcDbEntity
  8
View013
100
AcDbLine
 10
120.462
 20
201.695
 30
0
 11
120.462
 21
215.695
 31
0
  0
LINE
  5
D99
330
A02
100
AcDbEntity
  8
View013
100
AcDbLine
 10
173.137
 20
239.508
 30
0
 11
173.137
 21
225.508
 31
0
  0
LINE
  5
D9A
330
A02
100
AcDbEntity
  8
View013
100
AcDbLine
 10
187.137
 20
239.508
 30
0
 11
173.137
 21
239.508
 31
0
  0
LINE
  5
D9B
330
A02
100
AcDbEntity
  8
View013
100
AcDbLine
 10
173.137
 20
225.508
 30
0
 11
187.137
 21
225.508
 31
0
  0
LINE
  5
D9C
330
A02
100
AcDbEntity
  8
View013
100
AcDbLine
 10
187.137
 20
225.508
 30
0
 11
187.137
 21
239.508
 31
0
  0
LINE
  5
D9D
330
A02
100
AcDbEntity
  8
View013
100
AcDbLine
 10
154.087
 20
239.508
 30
0
 11
154.087
 21
225.508
 31
0
  0
LINE
  5
D9E
330
A02
100
AcDbEntity
  8
View013
100
AcDbLine
 10
168.087
 20
239.508
 30
0
 11
154.087
 21
239.508
 31
0
  0
LINE
  5
D9F
330
A02
100
AcDbEntity
  8
View013
100
AcDbLine
 10
154.087
 20
225.508
 30
0
 11
168.087
 21
225.508
 31
0
  0
LINE
  5
DA0
330
A02
100
AcDbEntity
  8
View013
100
AcDbLine
 10
168.087
 20
225.508
 30
0
 11
168.087
 21
239.508
 31
0
  0
CIRCLE
  5
DA1
330
A02
100
AcDbEntity
  8
View013
100
AcDbCircle
 10
184.9
 20
260.708
 40
1.55
  0
LINE
  5
DA2
330
A02
100
AcDbEntity
  8
View013
100
AcDbLine
 10
130.275
 20
239.508
 30
0
 11
130.275
 21
225.508
 31
0
  0
LINE
  5
DA3
330
A02
100
AcDbEntity
  8
View013
100
AcDbLine
 10
144.275
 20
239.508
 30
0
 11
130.275
 21
239.508
 31
0
  0
LINE
  5
DA4
330
A02
100
AcDbEntity
  8
View013
100
AcDbLine
 10
130.275
 20
225.508
 30
0
 11
144.275
 21
225.508
 31
0
  0
LINE
  5
DA5
330
A02
100
AcDbEntity
  8
View013
100
AcDbLine
 10
144.275
 20
225.508
 30
0
 11
144.275
 21
239.508
 31
0
  0
LINE
  5
DA6
330
A02
100
AcDbEntity
  8
View013
100
AcDbLine
 10
111.225
 20
239.508
 30
0
 11
111.225
 21
225.508
 31
0
  0
LINE
  5
DA7
330
A02
100
AcDbEntity
  8
View013
100
AcDbLine
 10
125.225
 20
239.508
 30
0
 11
111.225
 21
239.508
 31
0
  0
LINE
  5
DA8
330
A02
100
AcDbEntity
  8
View013
100
AcDbLine
 10
111.225
 20
225.508
 30
0
 11
125.225
 21
225.508
 31
0
  0
LINE
  5
DA9
330
A02
100
AcDbEntity
  8
View013
100
AcDbLine
 10
125.225
 20
225.508
 30
0
 11
125.225
 21
239.508
 31
0
  0
LINE
  5
DAA
330
A02
100
AcDbEntity
  8
View013
100
AcDbLine
 10
92.1746
 20
239.508
 30
0
 11
92.1746
 21
225.508
 31
0
  0
LINE
  5
DAB
330
A02
100
AcDbEntity
  8
View013
100
AcDbLine
 10
106.175
 20
239.508
 30
0
 11
92.1746
 21
239.508
 31
0
  0
LINE
  5
DAC
330
A02
100
AcDbEntity
  8
View013
100
AcDbLine
 10
92.1746
 20
225.508
 30
0
 11
106.175
 21
225.508
 31
0
  0
LINE
  5
DAD
330
A02
100
AcDbEntity
  8
View013
100
AcDbLine
 10
106.175
 20
225.508
 30
0
 11
106.175
 21
239.508
 31
0
  0
LINE
  5
DAE
330
A02
100
AcDbEntity
  8
View013
100
AcDbLine
 10
77.8871
 20
196.645
 30
0
 11
77.8871
 21
182.645
 31
0
  0
LINE
  5
DAF
330
A02
100
AcDbEntity
  8
View013
100
AcDbLine
 10
91.8871
 20
196.645
 30
0
 11
77.8871
 21
196.645
 31
0
  0
LINE
  5
DB0
330
A02
100
AcDbEntity
  8
View013
100
AcDbLine
 10
77.8871
 20
182.645
 30
0
 11
91.8871
 21
182.645
 31
0
  0
LINE
  5
DB1
330
A02
100
AcDbEntity
  8
View013
100
AcDbLine
 10
91.8871
 20
182.645
 30
0
 11
91.8871
 21
196.645
 31
0
  0
LINE
  5
DB2
330
A02
100
AcDbEntity
  8
View013
100
AcDbLine
 10
54.0746
 20
196.645
 30
0
 11
54.0746
 21
182.645
 31
0
  0
LINE
  5
DB3
330
A02
100
AcDbEntity
  8
View013
100
AcDbLine
 10
68.0746
 20
196.645
 30
0
 11
54.0746
 21
196.645
 31
0
  0
LINE
  5
DB4
330
A02
100
AcDbEntity
  8
View013
100
AcDbLine
 10
54.0746
 20
182.645
 30
0
 11
68.0746
 21
182.645
 31
0
  0
LINE
  5
DB5
330
A02
100
AcDbEntity
  8
View013
100
AcDbLine
 10
68.0746
 20
182.645
 30
0
 11
68.0746
 21
196.645
 31
0
  0
LINE
  5
DB6
330
A02
100
AcDbEntity
  8
View013
100
AcDbLine
 10
87.4121
 20
215.695
 30
0
 11
87.4121
 21
201.695
 31
0
  0
LINE
  5
DB7
330
A02
100
AcDbEntity
  8
View013
100
AcDbLine
 10
101.412
 20
215.695
 30
0
 11
87.4121
 21
215.695
 31
0
  0
LINE
  5
DB8
330
A02
100
AcDbEntity
  8
View013
100
AcDbLine
 10
87.4121
 20
201.695
 30
0
 11
101.412
 21
201.695
 31
0
  0
LINE
  5
DB9
330
A02
100
AcDbEntity
  8
View013
100
AcDbLine
 10
101.412
 20
201.695
 30
0
 11
101.412
 21
215.695
 31
0
  0
LINE
  5
DBA
330
A02
100
AcDbEntity
  8
View013
100
AcDbLine
 10
68.3621
 20
215.695
 30
0
 11
68.3621
 21
201.695
 31
0
  0
LINE
  5
DBB
330
A02
100
AcDbEntity
  8
View013
100
AcDbLine
 10
82.3621
 20
215.695
 30
0
 11
68.3621
 21
215.695
 31
0
  0
LINE
  5
DBC
330
A02
100
AcDbEntity
  8
View013
100
AcDbLine
 10
68.3621
 20
201.695
 30
0
 11
82.3621
 21
201.695
 31
0
  0
LINE
  5
DBD
330
A02
100
AcDbEntity
  8
View013
100
AcDbLine
 10
82.3621
 20
201.695
 30
0
 11
82.3621
 21
215.695
 31
0
  0
LINE
  5
DBE
330
A02
100
AcDbEntity
  8
View013
100
AcDbLine
 10
49.3121
 20
215.695
 30
0
 11
49.3121
 21
201.695
 31
0
  0
LINE
  5
DBF
330
A02
100
AcDbEntity
  8
View013
100
AcDbLine
 10
63.3121
 20
215.695
 30
0
 11
49.3121
 21
215.695
 31
0
  0
LINE
  5
DC0
330
A02
100
AcDbEntity
  8
View013
100
AcDbLine
 10
49.3121
 20
201.695
 30
0
 11
63.3121
 21
201.695
 31
0
  0
LINE
  5
DC1
330
A02
100
AcDbEntity
  8
View013
100
AcDbLine
 10
63.3121
 20
201.695
 30
0
 11
63.3121
 21
215.695
 31
0
  0
LINE
  5
DC2
330
A02
100
AcDbEntity
  8
View013
100
AcDbLine
 10
13.5871
 20
214.245
 30
0
 11
13.5871
 21
165.045
 31
0
  0
ARC
  5
DC3
330
A02
100
AcDbEntity
  8
View013
100
AcDbCircle
 10
15.0871
 20
214.245
 30
0
 40
1.5
100
AcDbArc
 50
90
 51
180
  0
ARC
  5
DC4
330
A02
100
AcDbEntity
  8
View013
100
AcDbCircle
 10
15.0871
 20
165.045
 30
0
 40
1.5
100
AcDbArc
 50
180
 51
-90
  0
LINE
  5
DC5
330
A02
100
AcDbEntity
  8
View013
100
AcDbLine
 10
40.3871
 20
215.745
 30
0
 11
15.0871
 21
215.745
 31
0
  0
LINE
  5
DC6
330
A02
100
AcDbEntity
  8
View013
100
AcDbLine
 10
15.0871
 20
163.545
 30
0
 11
40.3871
 21
163.545
 31
0
  0
ARC
  5
DC7
330
A02
100
AcDbEntity
  8
View013
100
AcDbCircle
 10
40.3871
 20
214.245
 30
0
 40
1.5
100
AcDbArc
 50
0
 51
90
  0
ARC
  5
DC8
330
A02
100
AcDbEntity
  8
View013
100
AcDbCircle
 10
40.3871
 20
165.045
 30
0
 40
1.5
100
AcDbArc
 50
-90
 51
0
  0
LINE
  5
DC9
330
A02
100
AcDbEntity
  8
View013
100
AcDbLine
 10
41.8871
 20
165.045
 30
0
 11
41.8871
 21
214.245
 31
0
  0
LINE
  5
DCA
330
A02
100
AcDbEntity
  8
View013
100
AcDbLine
 10
73.1246
 20
239.508
 30
0
 11
73.1246
 21
225.508
 31
0
  0
LINE
  5
DCB
330
A02
100
AcDbEntity
  8
View013
100
AcDbLine
 10
87.1246
 20
239.508
 30
0
 11
73.1246
 21
239.508
 31
0
  0
LINE
  5
DCC
330
A02
100
AcDbEntity
  8
View013
100
AcDbLine
 10
73.1246
 20
225.508
 30
0
 11
87.1246
 21
225.508
 31
0
  0
LINE
  5
DCD
330
A02
100
AcDbEntity
  8
View013
100
AcDbLine
 10
87.1246
 20
225.508
 30
0
 11
87.1246
 21
239.508
 31
0
  0
LINE
  5
DCE
330
A02
100
AcDbEntity
  8
View013
100
AcDbLine
 10
49.3121
 20
239.508
 30
0
 11
49.3121
 21
225.508
 31
0
  0
LINE
  5
DCF
330
A02
100
AcDbEntity
  8
View013
100
AcDbLine
 10
63.3121
 20
239.508
 30
0
 11
49.3121
 21
239.508
 31
0
  0
LINE
  5
DD0
330
A02
100
AcDbEntity
  8
View013
100
AcDbLine
 10
49.3121
 20
225.508
 30
0
 11
63.3121
 21
225.508
 31
0
  0
LINE
  5
DD1
330
A02
100
AcDbEntity
  8
View013
100
AcDbLine
 10
63.3121
 20
225.508
 30
0
 11
63.3121
 21
239.508
 31
0
  0
CIRCLE
  5
DD2
330
A02
100
AcDbEntity
  8
View013
100
AcDbCircle
 10
93.5434
 20
260.708
 40
1.55
  0
LINE
  5
DD3
330
A02
100
AcDbEntity
  8
View013
100
AcDbLine
 10
30.7621
 20
239.258
 30
0
 11
30.7621
 21
225.758
 31
0
  0
ARC
  5
DD4
330
A02
100
AcDbEntity
  8
View013
100
AcDbCircle
 10
32.0121
 20
239.258
 30
0
 40
1.25
100
AcDbArc
 50
90
 51
180
  0
ARC
  5
DD5
330
A02
100
AcDbEntity
  8
View013
100
AcDbCircle
 10
32.0121
 20
225.758
 30
0
 40
1.25
100
AcDbArc
 50
180
 51
-90
  0
LINE
  5
DD6
330
A02
100
AcDbEntity
  8
View013
100
AcDbLine
 10
42.5121
 20
240.508
 30
0
 11
32.0121
 21
240.508
 31
0
  0
LINE
  5
DD7
330
A02
100
AcDbEntity
  8
View013
100
AcDbLine
 10
32.0121
 20
224.508
 30
0
 11
42.5121
 21
224.508
 31
0
  0
ARC
  5
DD8
330
A02
100
AcDbEntity
  8
View013
100
AcDbCircle
 10
42.5121
 20
239.258
 30
0
 40
1.25
100
AcDbArc
 50
0
 51
90
  0
ARC
  5
DD9
330
A02
100
AcDbEntity
  8
View013
100
AcDbCircle
 10
42.5121
 20
225.758
 30
0
 40
1.25
100
AcDbArc
 50
-90
 51
0
  0
LINE
  5
DDA
330
A02
100
AcDbEntity
  8
View013
100
AcDbLine
 10
43.7621
 20
225.758
 30
0
 11
43.7621
 21
239.258
 31
0
  0
LINE
  5
DDB
330
A02
100
AcDbEntity
  8
View013
100
AcDbLine
 10
11.7121
 20
239.258
 30
0
 11
11.7121
 21
225.758
 31
0
  0
ARC
  5
DDC
330
A02
100
AcDbEntity
  8
View013
100
AcDbCircle
 10
12.9621
 20
239.258
 30
0
 40
1.25
100
AcDbArc
 50
90
 51
180
  0
ARC
  5
DDD
330
A02
100
AcDbEntity
  8
View013
100
AcDbCircle
 10
12.9621
 20
225.758
 30
0
 40
1.25
100
AcDbArc
 50
180
 51
-90
  0
LINE
  5
DDE
330
A02
100
AcDbEntity
  8
View013
100
AcDbLine
 10
23.4621
 20
240.508
 30
0
 11
12.9621
 21
240.508
 31
0
  0
LINE
  5
DDF
330
A02
100
AcDbEntity
  8
View013
100
AcDbLine
 10
12.9621
 20
224.508
 30
0
 11
23.4621
 21
224.508
 31
0
  0
ARC
  5
DE0
330
A02
100
AcDbEntity
  8
View013
100
AcDbCircle
 10
23.4621
 20
239.258
 30
0
 40
1.25
100
AcDbArc
 50
0
 51
90
  0
ARC
  5
DE1
330
A02
100
AcDbEntity
  8
View013
100
AcDbCircle
 10
23.4621
 20
225.758
 30
0
 40
1.25
100
AcDbArc
 50
-90
 51
0
  0
LINE
  5
DE2
330
A02
100
AcDbEntity
  8
View013
100
AcDbLine
 10
24.7121
 20
225.758
 30
0
 11
24.7121
 21
239.258
 31
0
  0
CIRCLE
  5
DE3
330
A02
100
AcDbEntity
  8
View013
100
AcDbCircle
 10
6.94449
 20
258.95
 40
1.55
  0
ENDSEC
  0
SECTION
  2
OBJECTS
  0
DICTIONARY
  5
F000
330
0
100
AcDbDictionary
  3
ACAD_GROUP
350
F001
  0
DICTIONARY
  5
F001
330
F000
100
AcDbDictionary
  0
ENDSEC
  0
EOF