999
FreeCAD v0.20 29177 +426 (Git)
  0
SECTION
  2
HEADER
  9
$ACADVER
  1
AC1014
  9
$ACADMAINTVER
 70
     9
  9
$DWGCODEPAGE
  3
ANSI_1252
  9
$TEXTSTYLE
  7
STANDARD
  9
$DIMSTYLE
  2
STANDARD
  9
$DIMTXSTY
  7
STANDARD
  9
$CMLSTYLE
  2
STANDARD
  9
$LUNITS
 70
2
  9
$INSUNITS
 70
4
  9
$PEXTMAX
 10
50
 20
50
 30
50
  9
$PEXTMIN
 10
0
 20
0
 30
0
  9
$HANDSEED
  5
FFFF
  0
ENDSEC
  0
SECTION
  2
CLASSES
  0
CLASS
  1
ACDBDICTIONARYWDFLT
  2
AcDbDictionaryWithDefault
  3
ObjectDBX Classes
 90
        0
280
     0
281
     0
  0
CLASS
  1
XRECORD
  2
AcDbXrecord
  3
ObjectDBX Classes
 90
        0
280
     0
281
     0
  0
CLASS
  1
LWPOLYLINE
  2
AcDbPolyline
  3
ObjectDBX Classes
 90
        0
280
     0
281
     1
  0
ENDSEC
  0
SECTION
  2
TABLES
  0
TABLE
  2
VPORT
  5
20
330
0
100
AcDbSymbolTable
 70
     1
  0
VPORT
  5
21
330
20
100
AcDbSymbolTableRecord
100
AcDbViewportTableRecord
  2
*ACTIVE
 70
     0
  0
ENDTAB
  0
TABLE
  2
LTYPE
  5
22
330
0
100
AcDbSymbolTable
 70
     1
  0
LTYPE
  5
23
330
21
100
AcDbSymbolTableRecord
100
AcDbLinetypeTableRecord
  2
BYBLOCK
 70
     0
  3

 72
    65
 73
     0
 40
0.0
  0
LTYPE
  5
24
330
21
100
AcDbSymbolTableRecord
100
AcDbLinetypeTableRecord
  2
BYLAYER
 70
     0
  3

 72
    65
 73
     0
 40
0.0
  0
LTYPE
  5
25
330
21
100
AcDbSymbolTableRecord
100
AcDbLinetypeTableRecord
  2
CONTINUOUS
 70
     0
  3
Solid line
 72
    65
 73
     0
 40
0.0
  0
ENDTAB
  0
TABLE
  2
LAYER
  5
A6E
330
0
100
AcDbSymbolTable
 70
4
  0
LAYER
  5
A6F
330
A6E
100
AcDbSymbolTableRecord
100
AcDbLayerTableRecord
  2
0
 70
   0
 62
   7
  6
CONTINUOUS
  0
LAYER
  5
A70
330
A6E
100
AcDbSymbolTableRecord
100
AcDbLayerTableRecord
  2
View003
 70
    0
 62
    7
  6
CONTINUOUS
  0
LAYER
  5
A71
330
A6E
100
AcDbSymbolTableRecord
100
AcDbLayerTableRecord
  2
View004
 70
    0
 62
    7
  6
CONTINUOUS
  0
LAYER
  5
A72
330
A6E
100
AcDbSymbolTableRecord
100
AcDbLayerTableRecord
  2
View005
 70
    0
 62
    7
  6
CONTINUOUS
  0
ENDTAB
  0
TABLE
  2
STYLE
  5
70
330
0
100
AcDbSymbolTable
 70
     2
  0
STYLE
  5
71
330
70
100
AcDbSymbolTableRecord
100
AcDbTextStyleTableRecord
  2
STANDARD
 70
     0
 40
0.0
 41
1.0
 50
0.0
 71
     0
 42
2.5
  3
arial.ttf
  4

  0
STYLE
  5
72
330
70
100
AcDbSymbolTableRecord
100
AcDbTextStyleTableRecord
  2
ANNOTATIVE
 70
     0
 40
0.0
 41
1.0
 50
0.0
 71
     0
 42
2.5
  3
arial.ttf
  4

  0
ENDTAB
  0
TABLE
  2
VIEW
  5
73
330
0
100
AcDbSymbolTable
 70
     0
  0
ENDTAB
  0
TABLE
  2
UCS
  5
74
330
0
100
AcDbSymbolTable
 70
     0
  0
ENDTAB
  0
TABLE
  2
APPID
  5
75
330
0
100
AcDbSymbolTable
 70
     2
  0
APPID
  5
76
330
75
100
AcDbSymbolTableRecord
100
AcDbRegAppTableRecord
  2
ACAD
 70
     0
  0
APPID
  5
77
330
75
100
AcDbSymbolTableRecord
100
AcDbRegAppTableRecord
  2
ACADANNOTATIVE
 70
     0
  0
ENDTAB
  0
TABLE
  2
DIMSTYLE
  5
78
330
0
100
AcDbSymbolTable
 70
     2
  0
DIMSTYLE
105
79
330
78
100
AcDbSymbolTableRecord
100
AcDbDimStyleTableRecord
  2
STANDARD
 70
     0
  3

  4

  5

  6

  7

 40
0.0
 41
2.5
 42
0.625
 43
3.75
 44
1.25
 45
0.0
 46
0.0
 47
0.0
 48
0.0
140
2.5
141
2.5
142
0.0
143
0.03937007874016
144
1.0
145
0.0
146
1.0
147
0.625
 71
     0
 72
     0
 73
     0
 74
     0
 75
     0
 76
     0
 77
     1
 78
     8
170
     0
171
     3
172
     1
173
     0
174
     0
175
     0
176
     0
177
     0
178
     0
270
     2
271
     2
272
     2
273
     2
274
     3
340
71
275
     0
280
     0
281
     0
282
     0
283
     0
284
     8
285
     0
286
     0
287
     3
288
     0
  0
ENDTAB
  0
TABLE
  2
BLOCK_RECORD
  5
A01
330
0
100
AcDbSymbolTable
  70
5
  0
BLOCK_RECORD
  5
A02
330
A01
100
AcDbSymbolTableRecord
100
AcDbBlockTableRecord
  2
*MODEL_SPACE
  0
BLOCK_RECORD
  5
A03
330
A01
100
AcDbSymbolTableRecord
100
AcDbBlockTableRecord
  2
*PAPER_SPACE
  0
ENDTAB
  0
ENDSEC
  0
SECTION
  2
BLOCKS
  0
BLOCK
  5
A04
330
A02
100
AcDbEntity
  8
0
100
AcDbBlockBegin
  2
*MODEL_SPACE
 70
   0
 10
0
 20
0
 30
0
  3
*MODEL_SPACE
  1
 
  0
ENDBLK
  5
A05
330
A02
100
AcDbEntity
  8
0
100
AcDbBlockEnd
  0
BLOCK
  5
A06
330
A03
100
AcDbEntity
 67
1
  8
0
100
AcDbBlockBegin
  2
*PAPER_SPACE
 70
   0
 10
0
 20
0
 30
0
  3
*PAPER_SPACE
  1
 
  0
ENDBLK
  5
A07
330
A03
100
AcDbEntity
 67
    1
  8
0
100
AcDbBlockEnd
  0
ENDSEC
  0
SECTION
  2
ENTITIES
  0
LINE
  5
A08
330
A02
100
AcDbEntity
  8
View003
100
AcDbLine
 10
587.288
 20
419.061
 30
0
 11
444.288
 21
419.061
 31
0
  0
ARC
  5
A09
330
A02
100
AcDbEntity
  8
View003
100
AcDbCircle
 10
587.288
 20
413.061
 30
0
 40
6
100
AcDbArc
 50
0
 51
90
  0
ARC
  5
A0A
330
A02
100
AcDbEntity
  8
View003
100
AcDbCircle
 10
444.288
 20
416.061
 30
0
 40
3
100
AcDbArc
 50
90
 51
180
  0
LINE
  5
A0B
330
A02
100
AcDbEntity
  8
View003
100
AcDbLine
 10
593.288
 20
175.001
 30
0
 11
593.288
 21
413.061
 31
0
  0
LINE
  5
A0C
330
A02
100
AcDbEntity
  8
View003
100
AcDbLine
 10
593.288
 20
163.136
 30
0
 11
593.288
 21
175.001
 31
0
  0
ARC
  5
A0D
330
A02
100
AcDbEntity
  8
View003
100
AcDbCircle
 10
591.288
 20
163.136
 30
0
 40
2
100
AcDbArc
 50
-90
 51
0
  0
LINE
  5
A0E
330
A02
100
AcDbEntity
  8
View003
100
AcDbLine
 10
589.288
 20
161.136
 30
0
 11
591.288
 21
161.136
 31
0
  0
ARC
  5
A0F
330
A02
100
AcDbEntity
  8
View003
100
AcDbCircle
 10
589.288
 20
163.136
 30
0
 40
2
100
AcDbArc
 50
180
 51
-90
  0
LINE
  5
A10
330
A02
100
AcDbEntity
  8
View003
100
AcDbLine
 10
587.288
 20
163.136
 30
0
 11
587.288
 21
175.001
 31
0
  0
LINE
  5
A11
330
A02
100
AcDbEntity
  8
View003
100
AcDbLine
 10
587.288
 20
175.001
 30
0
 11
587.288
 21
407.061
 31
0
  0
ARC
  5
A12
330
A02
100
AcDbEntity
  8
View003
100
AcDbCircle
 10
581.288
 20
407.061
 30
0
 40
6
100
AcDbArc
 50
0
 51
90
  0
LINE
  5
A13
330
A02
100
AcDbEntity
  8
View003
100
AcDbLine
 10
581.288
 20
413.061
 30
0
 11
450.288
 21
413.061
 31
0
  0
ARC
  5
A14
330
A02
100
AcDbEntity
  8
View003
100
AcDbCircle
 10
450.288
 20
410.061
 30
0
 40
3
100
AcDbArc
 50
90
 51
180
  0
LINE
  5
A15
330
A02
100
AcDbEntity
  8
View003
100
AcDbLine
 10
447.288
 20
410.061
 30
0
 11
447.288
 21
62.6356
 31
0
  0
ARC
  5
A16
330
A02
100
AcDbEntity
  8
View003
100
AcDbCircle
 10
450.288
 20
62.6356
 30
0
 40
3
100
AcDbArc
 50
180
 51
-90
  0
LINE
  5
A17
330
A02
100
AcDbEntity
  8
View003
100
AcDbLine
 10
450.288
 20
59.6356
 30
0
 11
581.288
 21
59.6356
 31
0
  0
ARC
  5
A18
330
A02
100
AcDbEntity
  8
View003
100
AcDbCircle
 10
581.288
 20
65.6356
 30
0
 40
6
100
AcDbArc
 50
-90
 51
2.71407e-13
  0
LINE
  5
A19
330
A02
100
AcDbEntity
  8
View003
100
AcDbLine
 10
587.288
 20
65.6356
 30
0
 11
587.288
 21
137.322
 31
0
  0
LINE
  5
A1A
330
A02
100
AcDbEntity
  8
View003
100
AcDbLine
 10
587.288
 20
137.322
 30
0
 11
587.288
 21
146.636
 31
0
  0
ARC
  5
A1B
330
A02
100
AcDbEntity
  8
View003
100
AcDbCircle
 10
589.288
 20
146.636
 30
0
 40
2
100
AcDbArc
 50
90
 51
180
  0
LINE
  5
A1C
330
A02
100
AcDbEntity
  8
View003
100
AcDbLine
 10
589.288
 20
148.636
 30
0
 11
591.288
 21
148.636
 31
0
  0
ARC
  5
A1D
330
A02
100
AcDbEntity
  8
View003
100
AcDbCircle
 10
591.288
 20
146.636
 30
0
 40
2
100
AcDbArc
 50
0
 51
90
  0
LINE
  5
A1E
330
A02
100
AcDbEntity
  8
View003
100
AcDbLine
 10
593.288
 20
137.322
 30
0
 11
593.288
 21
146.636
 31
0
  0
LINE
  5
A1F
330
A02
100
AcDbEntity
  8
View003
100
AcDbLine
 10
593.288
 20
59.6356
 30
0
 11
593.288
 21
137.322
 31
0
  0
ARC
  5
A20
330
A02
100
AcDbEntity
  8
View003
100
AcDbCircle
 10
587.288
 20
59.6356
 30
0
 40
6
100
AcDbArc
 50
-90
 51
-2.71407e-13
  0
LINE
  5
A21
330
A02
100
AcDbEntity
  8
View003
100
AcDbLine
 10
444.288
 20
53.6356
 30
0
 11
587.288
 21
53.6356
 31
0
  0
ARC
  5
A22
330
A02
100
AcDbEntity
  8
View003
100
AcDbCircle
 10
444.288
 20
56.6356
 30
0
 40
3
100
AcDbArc
 50
180
 51
-90
  0
LINE
  5
A23
330
A02
100
AcDbEntity
  8
View003
100
AcDbLine
 10
441.288
 20
416.061
 30
0
 11
441.288
 21
56.6356
 31
0
  0
CIRCLE
  5
A24
330
A02
100
AcDbEntity
  8
View003
100
AcDbCircle
 10
445.166
 20
57.5143
 40
1.55
  0
CIRCLE
  5
A25
330
A02
100
AcDbEntity
  8
View003
100
AcDbCircle
 10
444.288
 20
144.992
 40
1.55
  0
CIRCLE
  5
A26
330
A02
100
AcDbEntity
  8
View003
100
AcDbCircle
 10
588.53
 20
58.3929
 40
1.55
  0
CIRCLE
  5
A27
330
A02
100
AcDbEntity
  8
View003
100
AcDbCircle
 10
590.288
 20
144.992
 40
1.55
  0
CIRCLE
  5
A28
330
A02
100
AcDbEntity
  8
View003
100
AcDbCircle
 10
444.288
 20
236.348
 40
1.55
  0
CIRCLE
  5
A29
330
A02
100
AcDbEntity
  8
View003
100
AcDbCircle
 10
444.288
 20
327.704
 40
1.55
  0
CIRCLE
  5
A2A
330
A02
100
AcDbEntity
  8
View003
100
AcDbCircle
 10
445.166
 20
415.182
 40
1.55
  0
CIRCLE
  5
A2B
330
A02
100
AcDbEntity
  8
View003
100
AcDbCircle
 10
590.288
 20
236.348
 40
1.55
  0
CIRCLE
  5
A2C
330
A02
100
AcDbEntity
  8
View003
100
AcDbCircle
 10
590.288
 20
327.704
 40
1.55
  0
CIRCLE
  5
A2D
330
A02
100
AcDbEntity
  8
View003
100
AcDbCircle
 10
588.53
 20
414.303
 40
1.55
  0
LINE
  5
A2E
330
A02
100
AcDbEntity
  8
View004
100
AcDbLine
 10
303.792
 20
419.282
 30
0
 11
160.792
 21
419.282
 31
0
  0
ARC
  5
A2F
330
A02
100
AcDbEntity
  8
View004
100
AcDbCircle
 10
303.792
 20
413.282
 30
0
 40
6
100
AcDbArc
 50
0
 51
90
  0
ARC
  5
A30
330
A02
100
AcDbEntity
  8
View004
100
AcDbCircle
 10
160.792
 20
416.282
 30
0
 40
3
100
AcDbArc
 50
90
 51
180
  0
LINE
  5
A31
330
A02
100
AcDbEntity
  8
View004
100
AcDbLine
 10
309.792
 20
175.222
 30
0
 11
309.792
 21
413.282
 31
0
  0
LINE
  5
A32
330
A02
100
AcDbEntity
  8
View004
100
AcDbLine
 10
309.792
 20
163.357
 30
0
 11
309.792
 21
175.222
 31
0
  0
ARC
  5
A33
330
A02
100
AcDbEntity
  8
View004
100
AcDbCircle
 10
307.792
 20
163.357
 30
0
 40
2
100
AcDbArc
 50
-90
 51
0
  0
LINE
  5
A34
330
A02
100
AcDbEntity
  8
View004
100
AcDbLine
 10
305.792
 20
161.357
 30
0
 11
307.792
 21
161.357
 31
0
  0
ARC
  5
A35
330
A02
100
AcDbEntity
  8
View004
100
AcDbCircle
 10
305.792
 20
163.357
 30
0
 40
2
100
AcDbArc
 50
180
 51
-90
  0
LINE
  5
A36
330
A02
100
AcDbEntity
  8
View004
100
AcDbLine
 10
303.792
 20
163.357
 30
0
 11
303.792
 21
175.222
 31
0
  0
LINE
  5
A37
330
A02
100
AcDbEntity
  8
View004
100
AcDbLine
 10
303.792
 20
175.222
 30
0
 11
303.792
 21
407.282
 31
0
  0
ARC
  5
A38
330
A02
100
AcDbEntity
  8
View004
100
AcDbCircle
 10
297.792
 20
407.282
 30
0
 40
6
100
AcDbArc
 50
0
 51
90
  0
LINE
  5
A39
330
A02
100
AcDbEntity
  8
View004
100
AcDbLine
 10
297.792
 20
413.282
 30
0
 11
166.792
 21
413.282
 31
0
  0
ARC
  5
A3A
330
A02
100
AcDbEntity
  8
View004
100
AcDbCircle
 10
166.792
 20
410.282
 30
0
 40
3
100
AcDbArc
 50
90
 51
180
  0
LINE
  5
A3B
330
A02
100
AcDbEntity
  8
View004
100
AcDbLine
 10
163.792
 20
410.282
 30
0
 11
163.792
 21
62.8568
 31
0
  0
ARC
  5
A3C
330
A02
100
AcDbEntity
  8
View004
100
AcDbCircle
 10
166.792
 20
62.8568
 30
0
 40
3
100
AcDbArc
 50
-180
 51
-90
  0
LINE
  5
A3D
330
A02
100
AcDbEntity
  8
View004
100
AcDbLine
 10
166.792
 20
59.8568
 30
0
 11
297.792
 21
59.8568
 31
0
  0
ARC
  5
A3E
330
A02
100
AcDbEntity
  8
View004
100
AcDbCircle
 10
297.792
 20
65.8568
 30
0
 40
6
100
AcDbArc
 50
-90
 51
-2.71407e-13
  0
LINE
  5
A3F
330
A02
100
AcDbEntity
  8
View004
100
AcDbLine
 10
303.792
 20
65.8568
 30
0
 11
303.792
 21
137.543
 31
0
  0
LINE
  5
A40
330
A02
100
AcDbEntity
  8
View004
100
AcDbLine
 10
303.792
 20
137.543
 30
0
 11
303.792
 21
146.857
 31
0
  0
ARC
  5
A41
330
A02
100
AcDbEntity
  8
View004
100
AcDbCircle
 10
305.792
 20
146.857
 30
0
 40
2
100
AcDbArc
 50
90
 51
180
  0
LINE
  5
A42
330
A02
100
AcDbEntity
  8
View004
100
AcDbLine
 10
305.792
 20
148.857
 30
0
 11
307.792
 21
148.857
 31
0
  0
ARC
  5
A43
330
A02
100
AcDbEntity
  8
View004
100
AcDbCircle
 10
307.792
 20
146.857
 30
0
 40
2
100
AcDbArc
 50
0
 51
90
  0
LINE
  5
A44
330
A02
100
AcDbEntity
  8
View004
100
AcDbLine
 10
309.792
 20
137.543
 30
0
 11
309.792
 21
146.857
 31
0
  0
LINE
  5
A45
330
A02
100
AcDbEntity
  8
View004
100
AcDbLine
 10
309.792
 20
59.8568
 30
0
 11
309.792
 21
137.543
 31
0
  0
ARC
  5
A46
330
A02
100
AcDbEntity
  8
View004
100
AcDbCircle
 10
303.792
 20
59.8568
 30
0
 40
6
100
AcDbArc
 50
-90
 51
-2.71407e-13
  0
LINE
  5
A47
330
A02
100
AcDbEntity
  8
View004
100
AcDbLine
 10
160.792
 20
53.8568
 30
0
 11
303.792
 21
53.8568
 31
0
  0
ARC
  5
A48
330
A02
100
AcDbEntity
  8
View004
100
AcDbCircle
 10
160.792
 20
56.8568
 30
0
 40
3
100
AcDbArc
 50
180
 51
-90
  0
LINE
  5
A49
330
A02
100
AcDbEntity
  8
View004
100
AcDbLine
 10
157.792
 20
416.282
 30
0
 11
157.792
 21
56.8568
 31
0
  0
CIRCLE
  5
A4A
330
A02
100
AcDbEntity
  8
View004
100
AcDbCircle
 10
161.67
 20
57.7354
 40
1.55
  0
CIRCLE
  5
A4B
330
A02
100
AcDbEntity
  8
View004
100
AcDbCircle
 10
160.792
 20
145.213
 40
1.55
  0
CIRCLE
  5
A4C
330
A02
100
AcDbEntity
  8
View004
100
AcDbCircle
 10
305.034
 20
58.6141
 40
1.55
  0
CIRCLE
  5
A4D
330
A02
100
AcDbEntity
  8
View004
100
AcDbCircle
 10
306.792
 20
145.213
 40
1.55
  0
CIRCLE
  5
A4E
330
A02
100
AcDbEntity
  8
View004
100
AcDbCircle
 10
160.792
 20
236.569
 40
1.55
  0
CIRCLE
  5
A4F
330
A02
100
AcDbEntity
  8
View004
100
AcDbCircle
 10
160.792
 20
327.926
 40
1.55
  0
CIRCLE
  5
A50
330
A02
100
AcDbEntity
  8
View004
100
AcDbCircle
 10
161.67
 20
415.403
 40
1.55
  0
CIRCLE
  5
A51
330
A02
100
AcDbEntity
  8
View004
100
AcDbCircle
 10
306.792
 20
236.569
 40
1.55
  0
CIRCLE
  5
A52
330
A02
100
AcDbEntity
  8
View004
100
AcDbCircle
 10
306.792
 20
327.926
 40
1.55
  0
CIRCLE
  5
A53
330
A02
100
AcDbEntity
  8
View004
100
AcDbCircle
 10
305.034
 20
414.524
 40
1.55
  0
LINE
  5
A54
330
A02
100
AcDbEntity
  8
View005
100
AcDbLine
 10
146.828
 20
419.169
 30
0
 11
3.82753
 21
419.169
 31
0
  0
ARC
  5
A55
330
A02
100
AcDbEntity
  8
View005
100
AcDbCircle
 10
3.82753
 20
416.169
 30
0
 40
3
100
AcDbArc
 50
90
 51
180
  0
LINE
  5
A56
330
A02
100
AcDbEntity
  8
View005
100
AcDbLine
 10
0.827526
 20
416.169
 30
0
 11
0.827526
 21
56.7435
 31
0
  0
ARC
  5
A57
330
A02
100
AcDbEntity
  8
View005
100
AcDbCircle
 10
3.82753
 20
56.7435
 30
0
 40
3
100
AcDbArc
 50
180
 51
-90
  0
LINE
  5
A58
330
A02
100
AcDbEntity
  8
View005
100
AcDbLine
 10
3.82753
 20
53.7435
 30
0
 11
146.828
 21
53.7435
 31
0
  0
ARC
  5
A59
330
A02
100
AcDbEntity
  8
View005
100
AcDbCircle
 10
146.828
 20
59.7435
 30
0
 40
6
100
AcDbArc
 50
-90
 51
-2.71407e-13
  0
LINE
  5
A5A
330
A02
100
AcDbEntity
  8
View005
100
AcDbLine
 10
152.828
 20
59.7435
 30
0
 11
152.828
 21
413.169
 31
0
  0
ARC
  5
A5B
330
A02
100
AcDbEntity
  8
View005
100
AcDbCircle
 10
146.828
 20
413.169
 30
0
 40
6
100
AcDbArc
 50
0
 51
90
  0
LINE
  5
A5C
330
A02
100
AcDbEntity
  8
View005
100
AcDbLine
 10
140.828
 20
413.169
 30
0
 11
9.82753
 21
413.169
 31
0
  0
ARC
  5
A5D
330
A02
100
AcDbEntity
  8
View005
100
AcDbCircle
 10
9.82753
 20
410.169
 30
0
 40
3
100
AcDbArc
 50
90
 51
180
  0
LINE
  5
A5E
330
A02
100
AcDbEntity
  8
View005
100
AcDbLine
 10
6.82753
 20
410.169
 30
0
 11
6.82753
 21
62.7435
 31
0
  0
ARC
  5
A5F
330
A02
100
AcDbEntity
  8
View005
100
AcDbCircle
 10
9.82753
 20
62.7435
 30
0
 40
3
100
AcDbArc
 50
-180
 51
-90
  0
LINE
  5
A60
330
A02
100
AcDbEntity
  8
View005
100
AcDbLine
 10
9.82753
 20
59.7435
 30
0
 11
140.828
 21
59.7435
 31
0
  0
ARC
  5
A61
330
A02
100
AcDbEntity
  8
View005
100
AcDbCircle
 10
140.828
 20
65.7435
 30
0
 40
6
100
AcDbArc
 50
-90
 51
2.71407e-13
  0
LINE
  5
A62
330
A02
100
AcDbEntity
  8
View005
100
AcDbLine
 10
146.828
 20
65.7435
 30
0
 11
146.828
 21
407.169
 31
0
  0
ARC
  5
A63
330
A02
100
AcDbEntity
  8
View005
100
AcDbCircle
 10
140.828
 20
407.169
 30
0
 40
6
100
AcDbArc
 50
0
 51
90
  0
CIRCLE
  5
A64
330
A02
100
AcDbEntity
  8
View005
100
AcDbCircle
 10
4.70621
 20
57.6222
 40
1.55
  0
CIRCLE
  5
A65
330
A02
100
AcDbEntity
  8
View005
100
AcDbCircle
 10
3.82753
 20
145.1
 40
1.55
  0
CIRCLE
  5
A66
330
A02
100
AcDbEntity
  8
View005
100
AcDbCircle
 10
3.82753
 20
236.456
 40
1.55
  0
CIRCLE
  5
A67
330
A02
100
AcDbEntity
  8
View005
100
AcDbCircle
 10
149.828
 20
145.1
 40
1.55
  0
CIRCLE
  5
A68
330
A02
100
AcDbEntity
  8
View005
100
AcDbCircle
 10
149.828
 20
236.456
 40
1.55
  0
CIRCLE
  5
A69
330
A02
100
AcDbEntity
  8
View005
100
AcDbCircle
 10
4.70621
 20
415.29
 40
1.55
  0
CIRCLE
  5
A6A
330
A02
100
AcDbEntity
  8
View005
100
AcDbCircle
 10
148.07
 20
58.5009
 40
1.55
  0
CIRCLE
  5
A6B
330
A02
100
AcDbEntity
  8
View005
100
AcDbCircle
 10
3.82753
 20
327.812
 40
1.55
  0
CIRCLE
  5
A6C
330
A02
100
AcDbEntity
  8
View005
100
AcDbCircle
 10
148.07
 20
414.411
 40
1.55
  0
CIRCLE
  5
A6D
330
A02
100
AcDbEntity
  8
View005
100
AcDbCircle
 10
149.828
 20
327.812
 40
1.55
  0
ENDSEC
  0
SECTION
  2
OBJECTS
  0
DICTIONARY
  5
F000
330
0
100
AcDbDictionary
  3
ACAD_GROUP
350
F001
  0
DICTIONARY
  5
F001
330
F000
100
AcDbDictionary
  0
ENDSEC
  0
EOF