<svg width="1588" height="1123" viewBox="0 0 1588 1123" fill="none" xmlns="http://www.w3.org/2000/svg">
<path fill-rule="evenodd" clip-rule="evenodd" d="M1387.87 29.2196V569.692C1387.87 575.954 1382.79 581.031 1376.53 581.031H18.07C11.8111 581.031 6.73145 575.954 6.73145 569.692V29.2196C6.73145 16.6954 16.887 6.54248 29.4086 6.54248H1365.19C1377.71 6.54248 1387.87 16.6954 1387.87 29.2196Z" fill="white"/>
<path fill-rule="evenodd" clip-rule="evenodd" d="M1332.46 207.489V246.562C1332.46 250.737 1329.07 254.121 1324.9 254.121H1257.7C1253.53 254.121 1250.14 250.737 1250.14 246.562V207.489C1250.14 203.314 1253.53 199.93 1257.7 199.93H1324.9C1329.07 199.93 1332.46 203.314 1332.46 207.489Z" fill="white"/>
<path fill-rule="evenodd" clip-rule="evenodd" d="M65.5483 514.508C65.5483 522.962 58.696 529.815 50.2412 529.815C41.7864 529.815 34.9341 522.962 34.9341 514.508C34.9341 506.055 41.7864 499.201 50.2412 499.201C58.696 499.201 65.5483 506.055 65.5483 514.508Z" fill="#0000FF"/>
<path fill-rule="evenodd" clip-rule="evenodd" d="M1359.67 514.508C1359.67 522.962 1352.81 529.815 1344.36 529.815C1335.9 529.815 1329.05 522.962 1329.05 514.508C1329.05 506.055 1335.9 499.201 1344.36 499.201C1352.81 499.201 1359.67 506.055 1359.67 514.508Z" fill="#0000FF"/>
<path fill-rule="evenodd" clip-rule="evenodd" d="M1048.44 17.881C1048.44 21.1166 1045.82 23.7392 1042.58 23.7392C1039.35 23.7392 1036.73 21.1166 1036.73 17.881C1036.73 14.6457 1039.35 12.0227 1042.58 12.0227C1045.82 12.0227 1048.44 14.6457 1048.44 17.881Z" fill="white"/>
<path fill-rule="evenodd" clip-rule="evenodd" d="M703.159 17.881C703.159 21.1166 700.536 23.7392 697.301 23.7392C694.065 23.7392 691.442 21.1166 691.442 17.881C691.442 14.6457 694.065 12.0227 697.301 12.0227C700.536 12.0227 703.159 14.6457 703.159 17.881Z" fill="white"/>
<path fill-rule="evenodd" clip-rule="evenodd" d="M357.875 17.881C357.875 21.1166 355.252 23.7392 352.016 23.7392C348.781 23.7392 346.158 21.1166 346.158 17.881C346.158 14.6457 348.781 12.0227 352.016 12.0227C355.252 12.0227 357.875 14.6457 357.875 17.881Z" fill="white"/>
<path fill-rule="evenodd" clip-rule="evenodd" d="M1375.74 24.5233C1375.74 27.759 1373.12 30.3816 1369.89 30.3816C1366.65 30.3816 1364.03 27.759 1364.03 24.5233C1364.03 21.288 1366.65 18.665 1369.89 18.665C1373.12 18.665 1375.74 21.288 1375.74 24.5233Z" fill="white"/>
<path fill-rule="evenodd" clip-rule="evenodd" d="M30.5725 24.5233C30.5725 27.759 27.9495 30.3816 24.7142 30.3816C21.4789 30.3816 18.856 27.759 18.856 24.5233C18.856 21.288 21.4789 18.665 24.7142 18.665C27.9495 18.665 30.5725 21.288 30.5725 24.5233Z" fill="white"/>
<path fill-rule="evenodd" clip-rule="evenodd" d="M1046.55 569.692C1046.55 571.884 1044.78 573.661 1042.58 573.661C1040.39 573.661 1038.62 571.884 1038.62 569.692C1038.62 567.5 1040.39 565.724 1042.58 565.724C1044.78 565.724 1046.55 567.5 1046.55 569.692Z" fill="white"/>
<path fill-rule="evenodd" clip-rule="evenodd" d="M25.3608 566.371C25.3608 568.563 23.5845 570.34 21.3923 570.34C19.2002 570.34 17.4238 568.563 17.4238 566.371C17.4238 564.18 19.2002 562.403 21.3923 562.403C23.5845 562.403 25.3608 564.18 25.3608 566.371Z" fill="white"/>
<path fill-rule="evenodd" clip-rule="evenodd" d="M1377.18 566.371C1377.18 568.563 1375.4 570.339 1373.21 570.339C1371.02 570.339 1369.24 568.563 1369.24 566.371C1369.24 564.179 1371.02 562.402 1373.21 562.402C1375.4 562.402 1377.18 564.179 1377.18 566.371Z" fill="white"/>
<path fill-rule="evenodd" clip-rule="evenodd" d="M701.269 569.692C701.269 571.884 699.492 573.661 697.301 573.661C695.109 573.661 693.332 571.884 693.332 569.692C693.332 567.5 695.109 565.724 697.301 565.724C699.492 565.724 701.269 567.5 701.269 569.692Z" fill="white"/>
<path fill-rule="evenodd" clip-rule="evenodd" d="M355.985 569.692C355.985 571.884 354.208 573.661 352.016 573.661C349.825 573.661 348.048 571.884 348.048 569.692C348.048 567.5 349.825 565.724 352.016 565.724C354.208 565.724 355.985 567.5 355.985 569.692Z" fill="white"/>
<path d="M1387.87 29.2197V569.692" stroke="black" stroke-width="0.944882" stroke-linecap="round" stroke-linejoin="bevel"/>
<path d="M1365.19 6.54248C1377.71 6.54248 1387.87 16.6954 1387.87 29.2196" stroke="black" stroke-width="0.944882" stroke-linecap="round" stroke-linejoin="bevel"/>
<path d="M1387.87 569.692C1387.87 575.954 1382.79 581.031 1376.53 581.031" stroke="black" stroke-width="0.944882" stroke-linecap="round" stroke-linejoin="bevel"/>
<path d="M29.4087 6.54248H1365.19" stroke="black" stroke-width="0.944882" stroke-linecap="round" stroke-linejoin="bevel"/>
<path d="M1376.53 581.031H18.0698" stroke="black" stroke-width="0.944882" stroke-linecap="round" stroke-linejoin="bevel"/>
<path d="M6.73145 29.2196C6.73145 16.6954 16.887 6.54248 29.4086 6.54248" stroke="black" stroke-width="0.944882" stroke-linecap="round" stroke-linejoin="bevel"/>
<path d="M18.07 581.031C11.8111 581.031 6.73145 575.954 6.73145 569.692" stroke="black" stroke-width="0.944882" stroke-linecap="round" stroke-linejoin="bevel"/>
<path d="M6.73145 569.692V29.2197" stroke="black" stroke-width="0.944882" stroke-linecap="round" stroke-linejoin="bevel"/>
<path fill-rule="evenodd" clip-rule="evenodd" d="M25.3608 566.371C25.3608 568.563 23.5845 570.34 21.3923 570.34C19.2002 570.34 17.4238 568.563 17.4238 566.371C17.4238 564.18 19.2002 562.403 21.3923 562.403C23.5845 562.403 25.3608 564.18 25.3608 566.371Z" stroke="black" stroke-width="0.944882" stroke-linecap="round" stroke-linejoin="bevel"/>
<path fill-rule="evenodd" clip-rule="evenodd" d="M65.5483 514.508C65.5483 522.962 58.696 529.815 50.2412 529.815C41.7864 529.815 34.9341 522.962 34.9341 514.508C34.9341 506.055 41.7864 499.201 50.2412 499.201C58.696 499.201 65.5483 506.055 65.5483 514.508Z" stroke="#0000FF" stroke-width="0.944882" stroke-linecap="round" stroke-linejoin="bevel"/>
<path fill-rule="evenodd" clip-rule="evenodd" d="M355.985 569.692C355.985 571.884 354.208 573.661 352.016 573.661C349.825 573.661 348.048 571.884 348.048 569.692C348.048 567.5 349.825 565.724 352.016 565.724C354.208 565.724 355.985 567.5 355.985 569.692Z" stroke="black" stroke-width="0.944882" stroke-linecap="round" stroke-linejoin="bevel"/>
<path fill-rule="evenodd" clip-rule="evenodd" d="M30.5725 24.5233C30.5725 27.759 27.9495 30.3816 24.7142 30.3816C21.4789 30.3816 18.856 27.759 18.856 24.5233C18.856 21.288 21.4789 18.665 24.7142 18.665C27.9495 18.665 30.5725 21.288 30.5725 24.5233Z" stroke="black" stroke-width="0.944882" stroke-linecap="round" stroke-linejoin="bevel"/>
<path fill-rule="evenodd" clip-rule="evenodd" d="M357.875 17.881C357.875 21.1166 355.252 23.7392 352.016 23.7392C348.781 23.7392 346.158 21.1166 346.158 17.881C346.158 14.6457 348.781 12.0227 352.016 12.0227C355.252 12.0227 357.875 14.6457 357.875 17.881Z" stroke="black" stroke-width="0.944882" stroke-linecap="round" stroke-linejoin="bevel"/>
<path fill-rule="evenodd" clip-rule="evenodd" d="M701.269 569.692C701.269 571.884 699.492 573.661 697.301 573.661C695.109 573.661 693.332 571.884 693.332 569.692C693.332 567.5 695.109 565.724 697.301 565.724C699.492 565.724 701.269 567.5 701.269 569.692Z" stroke="black" stroke-width="0.944882" stroke-linecap="round" stroke-linejoin="bevel"/>
<path fill-rule="evenodd" clip-rule="evenodd" d="M1046.55 569.692C1046.55 571.884 1044.78 573.661 1042.58 573.661C1040.39 573.661 1038.62 571.884 1038.62 569.692C1038.62 567.5 1040.39 565.724 1042.58 565.724C1044.78 565.724 1046.55 567.5 1046.55 569.692Z" stroke="black" stroke-width="0.944882" stroke-linecap="round" stroke-linejoin="bevel"/>
<path fill-rule="evenodd" clip-rule="evenodd" d="M1377.18 566.371C1377.18 568.563 1375.4 570.339 1373.21 570.339C1371.02 570.339 1369.24 568.563 1369.24 566.371C1369.24 564.179 1371.02 562.402 1373.21 562.402C1375.4 562.402 1377.18 564.179 1377.18 566.371Z" stroke="black" stroke-width="0.944882" stroke-linecap="round" stroke-linejoin="bevel"/>
<path fill-rule="evenodd" clip-rule="evenodd" d="M1359.67 514.508C1359.67 522.962 1352.81 529.815 1344.36 529.815C1335.9 529.815 1329.05 522.962 1329.05 514.508C1329.05 506.055 1335.9 499.201 1344.36 499.201C1352.81 499.201 1359.67 506.055 1359.67 514.508Z" stroke="#0000FF" stroke-width="0.944882" stroke-linecap="round" stroke-linejoin="bevel"/>
<path fill-rule="evenodd" clip-rule="evenodd" d="M703.159 17.881C703.159 21.1166 700.536 23.7392 697.301 23.7392C694.065 23.7392 691.442 21.1166 691.442 17.881C691.442 14.6457 694.065 12.0227 697.301 12.0227C700.536 12.0227 703.159 14.6457 703.159 17.881Z" stroke="black" stroke-width="0.944882" stroke-linecap="round" stroke-linejoin="bevel"/>
<path d="M1332.46 207.489V246.562" stroke="black" stroke-width="0.944882" stroke-linecap="round" stroke-linejoin="bevel"/>
<path d="M1324.9 199.93C1329.07 199.93 1332.46 203.314 1332.46 207.489" stroke="black" stroke-width="0.944882" stroke-linecap="round" stroke-linejoin="bevel"/>
<path d="M1332.46 246.562C1332.46 250.737 1329.07 254.121 1324.9 254.121" stroke="black" stroke-width="0.944882" stroke-linecap="round" stroke-linejoin="bevel"/>
<path d="M1257.7 199.93H1324.9" stroke="black" stroke-width="0.944882" stroke-linecap="round" stroke-linejoin="bevel"/>
<path d="M1324.9 254.121H1257.7" stroke="black" stroke-width="0.944882" stroke-linecap="round" stroke-linejoin="bevel"/>
<path d="M1250.14 207.489C1250.14 203.314 1253.53 199.93 1257.7 199.93" stroke="black" stroke-width="0.944882" stroke-linecap="round" stroke-linejoin="bevel"/>
<path d="M1257.7 254.121C1253.53 254.121 1250.14 250.737 1250.14 246.562" stroke="black" stroke-width="0.944882" stroke-linecap="round" stroke-linejoin="bevel"/>
<path d="M1250.14 246.562V207.489" stroke="black" stroke-width="0.944882" stroke-linecap="round" stroke-linejoin="bevel"/>
<path fill-rule="evenodd" clip-rule="evenodd" d="M1048.44 17.881C1048.44 21.1166 1045.82 23.7392 1042.58 23.7392C1039.35 23.7392 1036.73 21.1166 1036.73 17.881C1036.73 14.6457 1039.35 12.0227 1042.58 12.0227C1045.82 12.0227 1048.44 14.6457 1048.44 17.881Z" stroke="black" stroke-width="0.944882" stroke-linecap="round" stroke-linejoin="bevel"/>
<path fill-rule="evenodd" clip-rule="evenodd" d="M1375.74 24.5233C1375.74 27.759 1373.12 30.3816 1369.89 30.3816C1366.65 30.3816 1364.03 27.759 1364.03 24.5233C1364.03 21.288 1366.65 18.665 1369.89 18.665C1373.12 18.665 1375.74 21.288 1375.74 24.5233Z" stroke="black" stroke-width="0.944882" stroke-linecap="round" stroke-linejoin="bevel"/>
<path fill-rule="evenodd" clip-rule="evenodd" d="M327.638 765.032L220.358 851.193C217.002 853.887 212.829 855.356 208.524 855.356H26.1999C15.7608 855.356 7.30225 846.896 7.30225 836.459V613.467C7.30225 600.942 17.4541 590.79 29.9794 590.79H1365.76C1378.28 590.79 1388.44 600.942 1388.44 613.467V836.459C1388.44 846.896 1379.97 855.356 1369.54 855.356H1187.21C1182.91 855.356 1178.73 853.887 1175.38 851.193L1068.1 765.032C1064.74 762.337 1060.57 760.868 1056.26 760.868H339.471C335.168 760.868 330.993 762.337 327.638 765.032Z" fill="white"/>
<path fill-rule="evenodd" clip-rule="evenodd" d="M29.25 608.769C29.25 610.961 27.4736 612.738 25.2815 612.738C23.0894 612.738 21.313 610.961 21.313 608.769C21.313 606.578 23.0894 604.801 25.2815 604.801C27.4736 604.801 29.25 606.578 29.25 608.769Z" fill="white"/>
<path fill-rule="evenodd" clip-rule="evenodd" d="M1374.42 608.769C1374.42 610.961 1372.65 612.738 1370.45 612.738C1368.26 612.738 1366.48 610.961 1366.48 608.769C1366.48 606.578 1368.26 604.801 1370.45 604.801C1372.65 604.801 1374.42 606.578 1374.42 608.769Z" fill="white"/>
<path fill-rule="evenodd" clip-rule="evenodd" d="M356.552 602.128C356.552 604.32 354.775 606.096 352.584 606.096C350.392 606.096 348.615 604.32 348.615 602.128C348.615 599.936 350.392 598.159 352.584 598.159C354.775 598.159 356.552 599.936 356.552 602.128Z" fill="white"/>
<path fill-rule="evenodd" clip-rule="evenodd" d="M701.835 602.128C701.835 604.32 700.059 606.096 697.867 606.096C695.675 606.096 693.898 604.32 693.898 602.128C693.898 599.936 695.675 598.159 697.867 598.159C700.059 598.159 701.835 599.936 701.835 602.128Z" fill="white"/>
<path fill-rule="evenodd" clip-rule="evenodd" d="M1047.12 602.128C1047.12 604.32 1045.34 606.096 1043.15 606.096C1040.96 606.096 1039.18 604.32 1039.18 602.128C1039.18 599.936 1040.96 598.159 1043.15 598.159C1045.34 598.159 1047.12 599.936 1047.12 602.128Z" fill="white"/>
<path d="M327.637 765.032L220.357 851.192" stroke="black" stroke-width="0.944882" stroke-linecap="round" stroke-linejoin="bevel"/>
<path d="M220.358 851.192C217.002 853.887 212.829 855.356 208.524 855.356" stroke="black" stroke-width="0.944882" stroke-linecap="round" stroke-linejoin="bevel"/>
<path d="M208.524 855.356H26.1997" stroke="black" stroke-width="0.944882" stroke-linecap="round" stroke-linejoin="bevel"/>
<path d="M26.1999 855.356C15.7608 855.356 7.30225 846.896 7.30225 836.459" stroke="black" stroke-width="0.944882" stroke-linecap="round" stroke-linejoin="bevel"/>
<path d="M7.30225 836.459V613.467" stroke="black" stroke-width="0.944882" stroke-linecap="round" stroke-linejoin="bevel"/>
<path d="M7.30225 613.467C7.30225 600.942 17.4541 590.79 29.9794 590.79" stroke="black" stroke-width="0.944882" stroke-linecap="round" stroke-linejoin="bevel"/>
<path d="M29.9795 590.79H1365.76" stroke="black" stroke-width="0.944882" stroke-linecap="round" stroke-linejoin="bevel"/>
<path d="M1365.76 590.79C1378.28 590.79 1388.44 600.942 1388.44 613.467" stroke="black" stroke-width="0.944882" stroke-linecap="round" stroke-linejoin="bevel"/>
<path d="M1388.44 613.467V836.459" stroke="black" stroke-width="0.944882" stroke-linecap="round" stroke-linejoin="bevel"/>
<path d="M1388.44 836.459C1388.44 846.896 1379.97 855.356 1369.54 855.356" stroke="black" stroke-width="0.944882" stroke-linecap="round" stroke-linejoin="bevel"/>
<path d="M1369.54 855.356H1187.21" stroke="black" stroke-width="0.944882" stroke-linecap="round" stroke-linejoin="bevel"/>
<path d="M1187.21 855.356C1182.91 855.356 1178.73 853.887 1175.38 851.192" stroke="black" stroke-width="0.944882" stroke-linecap="round" stroke-linejoin="bevel"/>
<path d="M1175.38 851.192L1068.1 765.032" stroke="black" stroke-width="0.944882" stroke-linecap="round" stroke-linejoin="bevel"/>
<path d="M1056.26 760.868C1060.57 760.868 1064.74 762.337 1068.1 765.032" stroke="black" stroke-width="0.944882" stroke-linecap="round" stroke-linejoin="bevel"/>
<path d="M1056.26 760.868H339.471" stroke="black" stroke-width="0.944882" stroke-linecap="round" stroke-linejoin="bevel"/>
<path d="M327.638 765.032C330.993 762.337 335.168 760.868 339.471 760.868" stroke="black" stroke-width="0.944882" stroke-linecap="round" stroke-linejoin="bevel"/>
<path fill-rule="evenodd" clip-rule="evenodd" d="M356.552 602.128C356.552 604.32 354.775 606.096 352.584 606.096C350.392 606.096 348.615 604.32 348.615 602.128C348.615 599.936 350.392 598.159 352.584 598.159C354.775 598.159 356.552 599.936 356.552 602.128Z" stroke="black" stroke-width="0.944882" stroke-linecap="round" stroke-linejoin="bevel"/>
<path fill-rule="evenodd" clip-rule="evenodd" d="M701.835 602.128C701.835 604.32 700.059 606.096 697.867 606.096C695.675 606.096 693.898 604.32 693.898 602.128C693.898 599.936 695.675 598.159 697.867 598.159C700.059 598.159 701.835 599.936 701.835 602.128Z" stroke="black" stroke-width="0.944882" stroke-linecap="round" stroke-linejoin="bevel"/>
<path fill-rule="evenodd" clip-rule="evenodd" d="M29.25 608.769C29.25 610.961 27.4736 612.738 25.2815 612.738C23.0894 612.738 21.313 610.961 21.313 608.769C21.313 606.578 23.0894 604.801 25.2815 604.801C27.4736 604.801 29.25 606.578 29.25 608.769Z" stroke="black" stroke-width="0.944882" stroke-linecap="round" stroke-linejoin="bevel"/>
<path fill-rule="evenodd" clip-rule="evenodd" d="M1374.42 608.769C1374.42 610.961 1372.65 612.738 1370.45 612.738C1368.26 612.738 1366.48 610.961 1366.48 608.769C1366.48 606.578 1368.26 604.801 1370.45 604.801C1372.65 604.801 1374.42 606.578 1374.42 608.769Z" stroke="black" stroke-width="0.944882" stroke-linecap="round" stroke-linejoin="bevel"/>
<path fill-rule="evenodd" clip-rule="evenodd" d="M1047.12 602.128C1047.12 604.32 1045.34 606.096 1043.15 606.096C1040.96 606.096 1039.18 604.32 1039.18 602.128C1039.18 599.936 1040.96 598.159 1043.15 598.159C1045.34 598.159 1047.12 599.936 1047.12 602.128Z" stroke="black" stroke-width="0.944882" stroke-linecap="round" stroke-linejoin="bevel"/>
<path fill-rule="evenodd" clip-rule="evenodd" d="M329.908 983.256L219.825 1052.98C216.798 1054.9 213.294 1055.91 209.711 1055.91H26.215C15.7797 1055.91 7.31738 1047.45 7.31738 1037.02V889.614C7.31738 877.09 17.473 866.937 29.9945 866.937H1365.78C1378.3 866.937 1388.46 877.09 1388.46 889.614V1037.02C1388.46 1047.45 1379.99 1055.91 1369.56 1055.91H1186.06C1182.48 1055.91 1178.97 1054.9 1175.95 1052.98L1065.86 983.256C1062.84 981.34 1059.33 980.323 1055.75 980.323H340.02C336.439 980.323 332.932 981.34 329.908 983.256Z" fill="white"/>
<path fill-rule="evenodd" clip-rule="evenodd" d="M914.141 949.189C915.185 949.189 916.031 950.035 916.031 951.078V960.787C916.031 961.831 915.185 962.677 914.141 962.677H878.235C877.192 962.677 876.346 961.831 876.346 960.787V901.005C876.346 899.961 877.192 899.115 878.235 899.115H914.141C915.185 899.115 916.031 899.961 916.031 901.005V910.713C916.031 911.757 915.185 912.603 914.141 912.603H891.464C890.42 912.603 889.574 913.449 889.574 914.493V921.447C889.574 922.491 890.42 923.337 891.464 923.337H914.141C915.185 923.337 916.031 924.183 916.031 925.227V936.565C916.031 937.609 915.185 938.455 914.141 938.455H891.464C890.42 938.455 889.574 939.301 889.574 940.345V947.299C889.574 948.342 890.42 949.189 891.464 949.189H914.141Z" fill="white"/>
<path fill-rule="evenodd" clip-rule="evenodd" d="M761.071 949.794C762.114 949.794 762.96 950.64 762.96 951.683V961.132C762.96 962.176 762.114 963.022 761.071 963.022H725.165C724.121 963.022 723.275 962.176 723.275 961.132V900.66C723.275 899.616 724.121 898.77 725.165 898.77H761.071C762.114 898.77 762.96 899.616 762.96 900.66V910.109C762.96 911.153 762.114 911.998 761.071 911.998H738.394C737.35 911.998 736.504 912.845 736.504 913.888V921.447C736.504 922.491 737.35 923.337 738.394 923.337H761.071C762.114 923.337 762.96 924.183 762.96 925.227V936.565C762.96 937.609 762.114 938.455 761.071 938.455H738.394C737.35 938.455 736.504 939.301 736.504 940.345V947.904C736.504 948.948 737.35 949.794 738.394 949.794H761.071Z" fill="white"/>
<path fill-rule="evenodd" clip-rule="evenodd" d="M664.693 949.794C665.736 949.794 666.582 950.64 666.582 951.683V961.132C666.582 962.176 665.736 963.022 664.693 963.022H628.787C627.743 963.022 626.897 962.176 626.897 961.132V900.66C626.897 899.616 627.743 898.77 628.787 898.77H664.693C665.736 898.77 666.582 899.616 666.582 900.66V910.109C666.582 911.153 665.736 911.998 664.693 911.998H642.016C640.972 911.998 640.126 912.845 640.126 913.888V921.447C640.126 922.491 640.972 923.337 642.016 923.337H664.693C665.736 923.337 666.582 924.183 666.582 925.227V936.565C666.582 937.609 665.736 938.455 664.693 938.455H642.016C640.972 938.455 640.126 939.301 640.126 940.345V947.904C640.126 948.948 640.972 949.794 642.016 949.794H664.693Z" fill="white"/>
<path fill-rule="evenodd" clip-rule="evenodd" d="M519.181 900.66V929.054C519.181 930.098 518.335 930.944 517.291 930.944H502.032C500.988 930.944 500.142 931.79 500.142 932.834V961.132C500.142 962.176 499.296 963.022 498.253 963.022H483.276C482.232 963.022 481.386 962.176 481.386 961.132V900.66C481.386 899.616 482.232 898.77 483.276 898.77H517.291C518.335 898.77 519.181 899.616 519.181 900.66Z" fill="white"/>
<path fill-rule="evenodd" clip-rule="evenodd" d="M615.005 954.91C615.359 955.264 615.559 955.745 615.559 956.246V961.132C615.559 962.176 614.712 963.022 613.669 963.022H608.782C608.281 963.022 607.8 962.823 607.446 962.469L584.769 939.791C584.031 939.053 582.834 939.053 582.096 939.791L559.419 962.469C559.065 962.823 558.584 963.022 558.083 963.022H553.196C552.152 963.022 551.307 962.176 551.307 961.132V956.246C551.307 955.745 551.506 955.264 551.86 954.91L574.537 932.232C575.275 931.494 575.275 930.298 574.537 929.56L551.86 906.883C551.506 906.528 551.307 906.048 551.307 905.546V900.66C551.307 899.616 552.152 898.77 553.196 898.77H558.083C558.584 898.77 559.065 898.969 559.419 899.324L582.096 922.001C582.834 922.739 584.031 922.739 584.769 922.001L607.446 899.324C607.8 898.969 608.281 898.77 608.782 898.77H613.669C614.712 898.77 615.559 899.616 615.559 900.66V905.546C615.559 906.048 615.359 906.528 615.005 906.883L592.328 929.56C591.59 930.298 591.59 931.494 592.328 932.232L615.005 954.91Z" fill="white"/>
<path fill-rule="evenodd" clip-rule="evenodd" d="M776.189 910.109C775.145 910.109 774.299 909.263 774.299 908.219V900.66C774.299 899.616 775.145 898.77 776.189 898.77H812.094C813.138 898.77 813.984 899.616 813.984 900.66V908.219C813.984 909.263 813.138 910.109 812.094 910.109H801.7C800.656 910.109 799.811 910.955 799.811 911.998V961.132C799.811 962.176 798.964 963.022 797.921 963.022H790.362C789.318 963.022 788.472 962.176 788.472 961.132V911.998C788.472 910.955 787.626 910.109 786.582 910.109H776.189Z" fill="white"/>
<path fill-rule="evenodd" clip-rule="evenodd" d="M827.212 910.109C826.168 910.109 825.322 909.263 825.322 908.219V900.66C825.322 899.616 826.168 898.77 827.212 898.77H863.118C864.161 898.77 865.007 899.616 865.007 900.66V908.219C865.007 909.263 864.161 910.109 863.118 910.109H852.724C851.68 910.109 850.834 910.955 850.834 911.998V961.132C850.834 962.176 849.988 963.022 848.944 963.022H841.385C840.341 963.022 839.495 962.176 839.495 961.132V911.998C839.495 910.955 838.649 910.109 837.606 910.109H827.212Z" fill="white"/>
<path fill-rule="evenodd" clip-rule="evenodd" d="M710.047 950.285C711.091 950.285 711.937 951.131 711.937 952.175V961.132C711.937 962.176 711.091 963.022 710.047 963.022H679.811C678.767 963.022 677.921 962.176 677.921 961.132V900.66C677.921 899.616 678.767 898.77 679.811 898.77H686.167C687.211 898.77 688.057 899.616 688.057 900.66V948.395C688.057 949.439 688.903 950.285 689.947 950.285H710.047Z" fill="white"/>
<path fill-rule="evenodd" clip-rule="evenodd" d="M1360.25 1019.03C1360.25 1027.48 1353.4 1034.33 1344.94 1034.33C1336.49 1034.33 1329.64 1027.48 1329.64 1019.03C1329.64 1010.57 1336.49 1003.72 1344.94 1003.72C1353.4 1003.72 1360.25 1010.57 1360.25 1019.03Z" fill="#0000FF"/>
<path fill-rule="evenodd" clip-rule="evenodd" d="M66.1342 1019.03C66.1342 1027.48 59.2819 1034.33 50.8271 1034.33C42.3723 1034.33 35.52 1027.48 35.52 1019.03C35.52 1010.57 42.3723 1003.72 50.8271 1003.72C59.2819 1003.72 66.1342 1010.57 66.1342 1019.03Z" fill="#0000FF"/>
<path fill-rule="evenodd" clip-rule="evenodd" d="M530.52 961.132V900.66C530.52 899.616 531.365 898.77 532.409 898.77H538.079C539.122 898.77 539.968 899.616 539.968 900.66V961.132C539.968 962.176 539.122 963.022 538.079 963.022H532.409C531.365 963.022 530.52 962.176 530.52 961.132Z" fill="white"/>
<path fill-rule="evenodd" clip-rule="evenodd" d="M29.2686 884.917C29.2686 887.109 27.4922 888.886 25.3 888.886C23.1079 888.886 21.3315 887.109 21.3315 884.917C21.3315 882.725 23.1079 880.949 25.3 880.949C27.4922 880.949 29.2686 882.725 29.2686 884.917Z" fill="white"/>
<path fill-rule="evenodd" clip-rule="evenodd" d="M1047.14 878.276C1047.14 880.467 1045.36 882.244 1043.17 882.244C1040.98 882.244 1039.2 880.467 1039.2 878.276C1039.2 876.084 1040.98 874.307 1043.17 874.307C1045.36 874.307 1047.14 876.084 1047.14 878.276Z" fill="white"/>
<path fill-rule="evenodd" clip-rule="evenodd" d="M701.855 878.276C701.855 880.467 700.078 882.244 697.886 882.244C695.695 882.244 693.918 880.467 693.918 878.276C693.918 876.084 695.695 874.307 697.886 874.307C700.078 874.307 701.855 876.084 701.855 878.276Z" fill="white"/>
<path fill-rule="evenodd" clip-rule="evenodd" d="M356.571 878.276C356.571 880.467 354.794 882.244 352.602 882.244C350.411 882.244 348.634 880.467 348.634 878.276C348.634 876.084 350.411 874.307 352.602 874.307C354.794 874.307 356.571 876.084 356.571 878.276Z" fill="white"/>
<path fill-rule="evenodd" clip-rule="evenodd" d="M1374.44 884.917C1374.44 887.109 1372.66 888.886 1370.47 888.886C1368.28 888.886 1366.5 887.109 1366.5 884.917C1366.5 882.725 1368.28 880.949 1370.47 880.949C1372.66 880.949 1374.44 882.725 1374.44 884.917Z" fill="white"/>
<path d="M329.908 983.256L219.825 1052.98" stroke="black" stroke-width="0.944882" stroke-linecap="round" stroke-linejoin="bevel"/>
<path d="M329.908 983.256C332.933 981.34 336.44 980.323 340.02 980.323" stroke="black" stroke-width="0.944882" stroke-linecap="round" stroke-linejoin="bevel"/>
<path d="M219.825 1052.98C216.798 1054.9 213.294 1055.91 209.711 1055.91" stroke="black" stroke-width="0.944882" stroke-linecap="round" stroke-linejoin="bevel"/>
<path d="M1055.75 980.323H340.02" stroke="black" stroke-width="0.944882" stroke-linecap="round" stroke-linejoin="bevel"/>
<path d="M209.711 1055.91H26.2148" stroke="black" stroke-width="0.944882" stroke-linecap="round" stroke-linejoin="bevel"/>
<path d="M1055.75 980.323C1059.33 980.323 1062.84 981.34 1065.86 983.256" stroke="black" stroke-width="0.944882" stroke-linecap="round" stroke-linejoin="bevel"/>
<path d="M26.215 1055.91C15.7797 1055.91 7.31738 1047.45 7.31738 1037.02" stroke="black" stroke-width="0.944882" stroke-linecap="round" stroke-linejoin="bevel"/>
<path d="M1175.95 1052.98L1065.86 983.256" stroke="black" stroke-width="0.944882" stroke-linecap="round" stroke-linejoin="bevel"/>
<path d="M7.31738 1037.02V889.614" stroke="black" stroke-width="0.944882" stroke-linecap="round" stroke-linejoin="bevel"/>
<path d="M1186.06 1055.91C1182.48 1055.91 1178.97 1054.9 1175.95 1052.98" stroke="black" stroke-width="0.944882" stroke-linecap="round" stroke-linejoin="bevel"/>
<path d="M7.31738 889.614C7.31738 877.09 17.473 866.937 29.9945 866.937" stroke="black" stroke-width="0.944882" stroke-linecap="round" stroke-linejoin="bevel"/>
<path d="M1369.56 1055.91H1186.06" stroke="black" stroke-width="0.944882" stroke-linecap="round" stroke-linejoin="bevel"/>
<path d="M29.9946 866.937H1365.78" stroke="black" stroke-width="0.944882" stroke-linecap="round" stroke-linejoin="bevel"/>
<path d="M1388.46 1037.02C1388.46 1047.45 1379.99 1055.91 1369.56 1055.91" stroke="black" stroke-width="0.944882" stroke-linecap="round" stroke-linejoin="bevel"/>
<path d="M1365.78 866.937C1378.3 866.937 1388.45 877.09 1388.45 889.614" stroke="black" stroke-width="0.944882" stroke-linecap="round" stroke-linejoin="bevel"/>
<path d="M1388.46 889.614V1037.02" stroke="black" stroke-width="0.944882" stroke-linecap="round" stroke-linejoin="bevel"/>
<path fill-rule="evenodd" clip-rule="evenodd" d="M66.1342 1019.03C66.1342 1027.48 59.2819 1034.33 50.8271 1034.33C42.3723 1034.33 35.52 1027.48 35.52 1019.03C35.52 1010.57 42.3723 1003.72 50.8271 1003.72C59.2819 1003.72 66.1342 1010.57 66.1342 1019.03Z" stroke="#0000FF" stroke-width="0.944882" stroke-linecap="round" stroke-linejoin="bevel"/>
<path fill-rule="evenodd" clip-rule="evenodd" d="M29.2686 884.917C29.2686 887.109 27.4922 888.886 25.3 888.886C23.1079 888.886 21.3315 887.109 21.3315 884.917C21.3315 882.725 23.1079 880.949 25.3 880.949C27.4922 880.949 29.2686 882.725 29.2686 884.917Z" stroke="black" stroke-width="0.944882" stroke-linecap="round" stroke-linejoin="bevel"/>
<path fill-rule="evenodd" clip-rule="evenodd" d="M356.571 878.276C356.571 880.467 354.794 882.244 352.602 882.244C350.411 882.244 348.634 880.467 348.634 878.276C348.634 876.084 350.411 874.307 352.602 874.307C354.794 874.307 356.571 876.084 356.571 878.276Z" stroke="black" stroke-width="0.944882" stroke-linecap="round" stroke-linejoin="bevel"/>
<path d="M519.181 900.66V929.054" stroke="black" stroke-width="0.944882" stroke-linecap="round" stroke-linejoin="bevel"/>
<path d="M519.181 900.66C519.181 899.616 518.335 898.77 517.291 898.77" stroke="black" stroke-width="0.944882" stroke-linecap="round" stroke-linejoin="bevel"/>
<path d="M519.181 929.054C519.181 930.098 518.335 930.944 517.291 930.944" stroke="black" stroke-width="0.944882" stroke-linecap="round" stroke-linejoin="bevel"/>
<path d="M483.275 898.77H517.291" stroke="black" stroke-width="0.944882" stroke-linecap="round" stroke-linejoin="bevel"/>
<path d="M502.031 930.944H517.29" stroke="black" stroke-width="0.944882" stroke-linecap="round" stroke-linejoin="bevel"/>
<path d="M481.386 900.66C481.386 899.616 482.232 898.77 483.276 898.77" stroke="black" stroke-width="0.944882" stroke-linecap="round" stroke-linejoin="bevel"/>
<path d="M502.031 930.944C500.987 930.944 500.142 931.79 500.142 932.834" stroke="black" stroke-width="0.944882" stroke-linecap="round" stroke-linejoin="bevel"/>
<path d="M481.386 961.132V900.66" stroke="black" stroke-width="0.944882" stroke-linecap="round" stroke-linejoin="bevel"/>
<path d="M500.142 961.132V932.833" stroke="black" stroke-width="0.944882" stroke-linecap="round" stroke-linejoin="bevel"/>
<path d="M483.276 963.022C482.232 963.022 481.386 962.176 481.386 961.132" stroke="black" stroke-width="0.944882" stroke-linecap="round" stroke-linejoin="bevel"/>
<path d="M500.142 961.132C500.142 962.176 499.295 963.022 498.252 963.022" stroke="black" stroke-width="0.944882" stroke-linecap="round" stroke-linejoin="bevel"/>
<path d="M498.253 963.022H483.275" stroke="black" stroke-width="0.944882" stroke-linecap="round" stroke-linejoin="bevel"/>
<path d="M530.52 961.132V900.66" stroke="black" stroke-width="0.944882" stroke-linecap="round" stroke-linejoin="bevel"/>
<path d="M530.52 961.132C530.52 962.176 531.365 963.022 532.409 963.022" stroke="black" stroke-width="0.944882" stroke-linecap="round" stroke-linejoin="bevel"/>
<path d="M530.52 900.66C530.52 899.616 531.365 898.77 532.409 898.77" stroke="black" stroke-width="0.944882" stroke-linecap="round" stroke-linejoin="bevel"/>
<path d="M538.078 963.022H532.409" stroke="black" stroke-width="0.944882" stroke-linecap="round" stroke-linejoin="bevel"/>
<path d="M532.409 898.77H538.078" stroke="black" stroke-width="0.944882" stroke-linecap="round" stroke-linejoin="bevel"/>
<path d="M539.968 961.132C539.968 962.176 539.122 963.022 538.078 963.022" stroke="black" stroke-width="0.944882" stroke-linecap="round" stroke-linejoin="bevel"/>
<path d="M538.078 898.77C539.122 898.77 539.968 899.616 539.968 900.66" stroke="black" stroke-width="0.944882" stroke-linecap="round" stroke-linejoin="bevel"/>
<path d="M539.968 900.66V961.132" stroke="black" stroke-width="0.944882" stroke-linecap="round" stroke-linejoin="bevel"/>
<path d="M553.196 898.77H558.083" stroke="black" stroke-width="0.944882" stroke-linecap="round" stroke-linejoin="bevel"/>
<path d="M553.196 898.77C552.152 898.77 551.307 899.616 551.307 900.66" stroke="black" stroke-width="0.944882" stroke-linecap="round" stroke-linejoin="bevel"/>
<path d="M558.083 898.77C558.584 898.77 559.065 898.969 559.419 899.324" stroke="black" stroke-width="0.944882" stroke-linecap="round" stroke-linejoin="bevel"/>
<path d="M551.307 905.546V900.66" stroke="black" stroke-width="0.944882" stroke-linecap="round" stroke-linejoin="bevel"/>
<path d="M582.096 922.001L559.419 899.323" stroke="black" stroke-width="0.944882" stroke-linecap="round" stroke-linejoin="bevel"/>
<path d="M551.86 906.883C551.506 906.528 551.307 906.047 551.307 905.546" stroke="black" stroke-width="0.944882" stroke-linecap="round" stroke-linejoin="bevel"/>
<path d="M582.096 922.001C582.834 922.738 584.03 922.738 584.768 922.001" stroke="black" stroke-width="0.944882" stroke-linecap="round" stroke-linejoin="bevel"/>
<path d="M551.86 906.883L574.538 929.56" stroke="black" stroke-width="0.944882" stroke-linecap="round" stroke-linejoin="bevel"/>
<path d="M607.446 899.323L584.769 922.001" stroke="black" stroke-width="0.944882" stroke-linecap="round" stroke-linejoin="bevel"/>
<path d="M574.537 932.232C575.275 931.494 575.275 930.298 574.537 929.56" stroke="black" stroke-width="0.944882" stroke-linecap="round" stroke-linejoin="bevel"/>
<path d="M607.445 899.324C607.8 898.969 608.281 898.77 608.782 898.77" stroke="black" stroke-width="0.944882" stroke-linecap="round" stroke-linejoin="bevel"/>
<path d="M574.538 932.232L551.86 954.909" stroke="black" stroke-width="0.944882" stroke-linecap="round" stroke-linejoin="bevel"/>
<path d="M608.782 898.77H613.669" stroke="black" stroke-width="0.944882" stroke-linecap="round" stroke-linejoin="bevel"/>
<path d="M551.307 956.246C551.307 955.744 551.506 955.264 551.86 954.909" stroke="black" stroke-width="0.944882" stroke-linecap="round" stroke-linejoin="bevel"/>
<path d="M613.669 898.77C614.712 898.77 615.559 899.616 615.559 900.66" stroke="black" stroke-width="0.944882" stroke-linecap="round" stroke-linejoin="bevel"/>
<path d="M551.307 961.132V956.246" stroke="black" stroke-width="0.944882" stroke-linecap="round" stroke-linejoin="bevel"/>
<path d="M615.559 900.66V905.546" stroke="black" stroke-width="0.944882" stroke-linecap="round" stroke-linejoin="bevel"/>
<path d="M553.196 963.022C552.152 963.022 551.307 962.176 551.307 961.132" stroke="black" stroke-width="0.944882" stroke-linecap="round" stroke-linejoin="bevel"/>
<path d="M615.559 905.546C615.559 906.047 615.359 906.528 615.005 906.883" stroke="black" stroke-width="0.944882" stroke-linecap="round" stroke-linejoin="bevel"/>
<path d="M558.083 963.022H553.196" stroke="black" stroke-width="0.944882" stroke-linecap="round" stroke-linejoin="bevel"/>
<path d="M592.328 929.56L615.005 906.883" stroke="black" stroke-width="0.944882" stroke-linecap="round" stroke-linejoin="bevel"/>
<path d="M559.419 962.469C559.065 962.823 558.584 963.022 558.083 963.022" stroke="black" stroke-width="0.944882" stroke-linecap="round" stroke-linejoin="bevel"/>
<path d="M592.328 929.56C591.59 930.298 591.59 931.494 592.328 932.232" stroke="black" stroke-width="0.944882" stroke-linecap="round" stroke-linejoin="bevel"/>
<path d="M559.419 962.468L582.096 939.791" stroke="black" stroke-width="0.944882" stroke-linecap="round" stroke-linejoin="bevel"/>
<path d="M615.005 954.909L592.328 932.232" stroke="black" stroke-width="0.944882" stroke-linecap="round" stroke-linejoin="bevel"/>
<path d="M584.768 939.791C584.03 939.053 582.834 939.053 582.096 939.791" stroke="black" stroke-width="0.944882" stroke-linecap="round" stroke-linejoin="bevel"/>
<path d="M615.005 954.909C615.359 955.264 615.559 955.744 615.559 956.246" stroke="black" stroke-width="0.944882" stroke-linecap="round" stroke-linejoin="bevel"/>
<path d="M584.769 939.791L607.446 962.468" stroke="black" stroke-width="0.944882" stroke-linecap="round" stroke-linejoin="bevel"/>
<path d="M615.559 956.246V961.132" stroke="black" stroke-width="0.944882" stroke-linecap="round" stroke-linejoin="bevel"/>
<path d="M608.782 963.022C608.281 963.022 607.8 962.823 607.445 962.469" stroke="black" stroke-width="0.944882" stroke-linecap="round" stroke-linejoin="bevel"/>
<path d="M615.559 961.132C615.559 962.176 614.712 963.022 613.669 963.022" stroke="black" stroke-width="0.944882" stroke-linecap="round" stroke-linejoin="bevel"/>
<path d="M613.669 963.022H608.782" stroke="black" stroke-width="0.944882" stroke-linecap="round" stroke-linejoin="bevel"/>
<path d="M666.582 900.66V910.108" stroke="black" stroke-width="0.944882" stroke-linecap="round" stroke-linejoin="bevel"/>
<path d="M666.582 900.66C666.582 899.616 665.736 898.77 664.692 898.77" stroke="black" stroke-width="0.944882" stroke-linecap="round" stroke-linejoin="bevel"/>
<path d="M666.582 910.108C666.582 911.152 665.736 911.998 664.692 911.998" stroke="black" stroke-width="0.944882" stroke-linecap="round" stroke-linejoin="bevel"/>
<path d="M628.787 898.77H664.693" stroke="black" stroke-width="0.944882" stroke-linecap="round" stroke-linejoin="bevel"/>
<path d="M642.016 911.998H664.693" stroke="black" stroke-width="0.944882" stroke-linecap="round" stroke-linejoin="bevel"/>
<path d="M626.897 900.66C626.897 899.616 627.743 898.77 628.787 898.77" stroke="black" stroke-width="0.944882" stroke-linecap="round" stroke-linejoin="bevel"/>
<path d="M642.015 911.998C640.971 911.998 640.125 912.845 640.125 913.888" stroke="black" stroke-width="0.944882" stroke-linecap="round" stroke-linejoin="bevel"/>
<path d="M626.897 961.132V900.66" stroke="black" stroke-width="0.944882" stroke-linecap="round" stroke-linejoin="bevel"/>
<path d="M640.125 921.447V913.888" stroke="black" stroke-width="0.944882" stroke-linecap="round" stroke-linejoin="bevel"/>
<path d="M628.787 963.022C627.743 963.022 626.897 962.176 626.897 961.132" stroke="black" stroke-width="0.944882" stroke-linecap="round" stroke-linejoin="bevel"/>
<path d="M640.125 921.447C640.125 922.491 640.971 923.337 642.015 923.337" stroke="black" stroke-width="0.944882" stroke-linecap="round" stroke-linejoin="bevel"/>
<path d="M664.693 963.022H628.787" stroke="black" stroke-width="0.944882" stroke-linecap="round" stroke-linejoin="bevel"/>
<path d="M664.693 923.337H642.016" stroke="black" stroke-width="0.944882" stroke-linecap="round" stroke-linejoin="bevel"/>
<path d="M666.582 961.132C666.582 962.176 665.736 963.022 664.692 963.022" stroke="black" stroke-width="0.944882" stroke-linecap="round" stroke-linejoin="bevel"/>
<path d="M664.692 923.337C665.736 923.337 666.582 924.183 666.582 925.227" stroke="black" stroke-width="0.944882" stroke-linecap="round" stroke-linejoin="bevel"/>
<path d="M666.582 951.683V961.132" stroke="black" stroke-width="0.944882" stroke-linecap="round" stroke-linejoin="bevel"/>
<path d="M666.582 925.227V936.565" stroke="black" stroke-width="0.944882" stroke-linecap="round" stroke-linejoin="bevel"/>
<path d="M664.692 949.793C665.736 949.793 666.582 950.64 666.582 951.683" stroke="black" stroke-width="0.944882" stroke-linecap="round" stroke-linejoin="bevel"/>
<path d="M666.582 936.565C666.582 937.609 665.736 938.455 664.692 938.455" stroke="black" stroke-width="0.944882" stroke-linecap="round" stroke-linejoin="bevel"/>
<path d="M664.693 949.793H642.016" stroke="black" stroke-width="0.944882" stroke-linecap="round" stroke-linejoin="bevel"/>
<path d="M642.016 938.455H664.693" stroke="black" stroke-width="0.944882" stroke-linecap="round" stroke-linejoin="bevel"/>
<path d="M640.125 947.904C640.125 948.948 640.971 949.794 642.015 949.794" stroke="black" stroke-width="0.944882" stroke-linecap="round" stroke-linejoin="bevel"/>
<path d="M642.015 938.455C640.971 938.455 640.125 939.301 640.125 940.345" stroke="black" stroke-width="0.944882" stroke-linecap="round" stroke-linejoin="bevel"/>
<path d="M640.125 947.904V940.345" stroke="black" stroke-width="0.944882" stroke-linecap="round" stroke-linejoin="bevel"/>
<path d="M677.921 961.132V900.66" stroke="black" stroke-width="0.944882" stroke-linecap="round" stroke-linejoin="bevel"/>
<path d="M677.921 961.132C677.921 962.176 678.767 963.022 679.811 963.022" stroke="black" stroke-width="0.944882" stroke-linecap="round" stroke-linejoin="bevel"/>
<path d="M677.921 900.66C677.921 899.616 678.767 898.77 679.811 898.77" stroke="black" stroke-width="0.944882" stroke-linecap="round" stroke-linejoin="bevel"/>
<path d="M710.047 963.022H679.811" stroke="black" stroke-width="0.944882" stroke-linecap="round" stroke-linejoin="bevel"/>
<path d="M679.811 898.77H686.167" stroke="black" stroke-width="0.944882" stroke-linecap="round" stroke-linejoin="bevel"/>
<path d="M711.937 961.132C711.937 962.176 711.091 963.022 710.047 963.022" stroke="black" stroke-width="0.944882" stroke-linecap="round" stroke-linejoin="bevel"/>
<path d="M686.167 898.77C687.211 898.77 688.057 899.616 688.057 900.66" stroke="black" stroke-width="0.944882" stroke-linecap="round" stroke-linejoin="bevel"/>
<path d="M711.937 952.175V961.132" stroke="black" stroke-width="0.944882" stroke-linecap="round" stroke-linejoin="bevel"/>
<path d="M688.057 948.395V900.66" stroke="black" stroke-width="0.944882" stroke-linecap="round" stroke-linejoin="bevel"/>
<path d="M710.047 950.285C711.091 950.285 711.937 951.131 711.937 952.174" stroke="black" stroke-width="0.944882" stroke-linecap="round" stroke-linejoin="bevel"/>
<path d="M688.057 948.395C688.057 949.439 688.903 950.285 689.946 950.285" stroke="black" stroke-width="0.944882" stroke-linecap="round" stroke-linejoin="bevel"/>
<path d="M710.047 950.285H689.946" stroke="black" stroke-width="0.944882" stroke-linecap="round" stroke-linejoin="bevel"/>
<path fill-rule="evenodd" clip-rule="evenodd" d="M1360.25 1019.03C1360.25 1027.48 1353.4 1034.33 1344.94 1034.33C1336.49 1034.33 1329.64 1027.48 1329.64 1019.03C1329.64 1010.57 1336.49 1003.72 1344.94 1003.72C1353.4 1003.72 1360.25 1010.57 1360.25 1019.03Z" stroke="#0000FF" stroke-width="0.944882" stroke-linecap="round" stroke-linejoin="bevel"/>
<path d="M762.96 900.66V910.108" stroke="black" stroke-width="0.944882" stroke-linecap="round" stroke-linejoin="bevel"/>
<path d="M762.96 900.66C762.96 899.616 762.114 898.77 761.07 898.77" stroke="black" stroke-width="0.944882" stroke-linecap="round" stroke-linejoin="bevel"/>
<path d="M762.96 910.108C762.96 911.152 762.114 911.998 761.07 911.998" stroke="black" stroke-width="0.944882" stroke-linecap="round" stroke-linejoin="bevel"/>
<path d="M725.165 898.77H761.071" stroke="black" stroke-width="0.944882" stroke-linecap="round" stroke-linejoin="bevel"/>
<path d="M738.394 911.998H761.071" stroke="black" stroke-width="0.944882" stroke-linecap="round" stroke-linejoin="bevel"/>
<path d="M723.275 900.66C723.275 899.616 724.121 898.77 725.165 898.77" stroke="black" stroke-width="0.944882" stroke-linecap="round" stroke-linejoin="bevel"/>
<path d="M738.394 911.998C737.35 911.998 736.504 912.845 736.504 913.888" stroke="black" stroke-width="0.944882" stroke-linecap="round" stroke-linejoin="bevel"/>
<path d="M723.275 961.132V900.66" stroke="black" stroke-width="0.944882" stroke-linecap="round" stroke-linejoin="bevel"/>
<path d="M736.504 921.447V913.888" stroke="black" stroke-width="0.944882" stroke-linecap="round" stroke-linejoin="bevel"/>
<path d="M725.165 963.022C724.121 963.022 723.275 962.176 723.275 961.132" stroke="black" stroke-width="0.944882" stroke-linecap="round" stroke-linejoin="bevel"/>
<path d="M736.504 921.447C736.504 922.491 737.35 923.337 738.394 923.337" stroke="black" stroke-width="0.944882" stroke-linecap="round" stroke-linejoin="bevel"/>
<path d="M761.071 963.022H725.165" stroke="black" stroke-width="0.944882" stroke-linecap="round" stroke-linejoin="bevel"/>
<path d="M761.071 923.337H738.394" stroke="black" stroke-width="0.944882" stroke-linecap="round" stroke-linejoin="bevel"/>
<path d="M762.96 961.132C762.96 962.176 762.114 963.022 761.07 963.022" stroke="black" stroke-width="0.944882" stroke-linecap="round" stroke-linejoin="bevel"/>
<path d="M761.07 923.337C762.114 923.337 762.96 924.183 762.96 925.227" stroke="black" stroke-width="0.944882" stroke-linecap="round" stroke-linejoin="bevel"/>
<path d="M762.96 951.683V961.132" stroke="black" stroke-width="0.944882" stroke-linecap="round" stroke-linejoin="bevel"/>
<path d="M762.96 925.227V936.565" stroke="black" stroke-width="0.944882" stroke-linecap="round" stroke-linejoin="bevel"/>
<path d="M761.07 949.793C762.114 949.793 762.96 950.64 762.96 951.683" stroke="black" stroke-width="0.944882" stroke-linecap="round" stroke-linejoin="bevel"/>
<path d="M762.96 936.565C762.96 937.609 762.114 938.455 761.07 938.455" stroke="black" stroke-width="0.944882" stroke-linecap="round" stroke-linejoin="bevel"/>
<path d="M761.071 949.793H738.394" stroke="black" stroke-width="0.944882" stroke-linecap="round" stroke-linejoin="bevel"/>
<path d="M738.394 938.455H761.071" stroke="black" stroke-width="0.944882" stroke-linecap="round" stroke-linejoin="bevel"/>
<path d="M736.504 947.904C736.504 948.948 737.35 949.794 738.394 949.794" stroke="black" stroke-width="0.944882" stroke-linecap="round" stroke-linejoin="bevel"/>
<path d="M738.394 938.455C737.35 938.455 736.504 939.301 736.504 940.345" stroke="black" stroke-width="0.944882" stroke-linecap="round" stroke-linejoin="bevel"/>
<path d="M736.504 947.904V940.345" stroke="black" stroke-width="0.944882" stroke-linecap="round" stroke-linejoin="bevel"/>
<path d="M797.92 963.022H790.361" stroke="black" stroke-width="0.944882" stroke-linecap="round" stroke-linejoin="bevel"/>
<path d="M797.921 963.022C798.964 963.022 799.811 962.176 799.811 961.132" stroke="black" stroke-width="0.944882" stroke-linecap="round" stroke-linejoin="bevel"/>
<path d="M790.361 963.022C789.318 963.022 788.472 962.176 788.472 961.132" stroke="black" stroke-width="0.944882" stroke-linecap="round" stroke-linejoin="bevel"/>
<path d="M799.811 911.998V961.132" stroke="black" stroke-width="0.944882" stroke-linecap="round" stroke-linejoin="bevel"/>
<path d="M788.472 911.998V961.132" stroke="black" stroke-width="0.944882" stroke-linecap="round" stroke-linejoin="bevel"/>
<path d="M801.7 910.108C800.656 910.108 799.811 910.955 799.811 911.998" stroke="black" stroke-width="0.944882" stroke-linecap="round" stroke-linejoin="bevel"/>
<path d="M788.472 911.998C788.472 910.955 787.626 910.108 786.582 910.108" stroke="black" stroke-width="0.944882" stroke-linecap="round" stroke-linejoin="bevel"/>
<path d="M812.094 910.108H801.7" stroke="black" stroke-width="0.944882" stroke-linecap="round" stroke-linejoin="bevel"/>
<path d="M776.188 910.108H786.582" stroke="black" stroke-width="0.944882" stroke-linecap="round" stroke-linejoin="bevel"/>
<path d="M813.984 908.219C813.984 909.263 813.137 910.109 812.094 910.109" stroke="black" stroke-width="0.944882" stroke-linecap="round" stroke-linejoin="bevel"/>
<path d="M776.189 910.109C775.145 910.109 774.299 909.263 774.299 908.219" stroke="black" stroke-width="0.944882" stroke-linecap="round" stroke-linejoin="bevel"/>
<path d="M813.983 900.66V908.219" stroke="black" stroke-width="0.944882" stroke-linecap="round" stroke-linejoin="bevel"/>
<path d="M774.299 908.219V900.66" stroke="black" stroke-width="0.944882" stroke-linecap="round" stroke-linejoin="bevel"/>
<path d="M812.094 898.77C813.137 898.77 813.984 899.616 813.984 900.66" stroke="black" stroke-width="0.944882" stroke-linecap="round" stroke-linejoin="bevel"/>
<path d="M774.299 900.66C774.299 899.616 775.145 898.77 776.189 898.77" stroke="black" stroke-width="0.944882" stroke-linecap="round" stroke-linejoin="bevel"/>
<path d="M776.188 898.77H812.094" stroke="black" stroke-width="0.944882" stroke-linecap="round" stroke-linejoin="bevel"/>
<path d="M848.945 963.022H841.386" stroke="black" stroke-width="0.944882" stroke-linecap="round" stroke-linejoin="bevel"/>
<path d="M848.944 963.022C849.988 963.022 850.834 962.176 850.834 961.132" stroke="black" stroke-width="0.944882" stroke-linecap="round" stroke-linejoin="bevel"/>
<path d="M841.386 963.022C840.342 963.022 839.496 962.176 839.496 961.132" stroke="black" stroke-width="0.944882" stroke-linecap="round" stroke-linejoin="bevel"/>
<path d="M850.834 911.998V961.132" stroke="black" stroke-width="0.944882" stroke-linecap="round" stroke-linejoin="bevel"/>
<path d="M839.496 911.998V961.132" stroke="black" stroke-width="0.944882" stroke-linecap="round" stroke-linejoin="bevel"/>
<path d="M852.724 910.108C851.68 910.108 850.834 910.955 850.834 911.998" stroke="black" stroke-width="0.944882" stroke-linecap="round" stroke-linejoin="bevel"/>
<path d="M839.495 911.998C839.495 910.955 838.649 910.108 837.605 910.108" stroke="black" stroke-width="0.944882" stroke-linecap="round" stroke-linejoin="bevel"/>
<path d="M863.117 910.108H852.724" stroke="black" stroke-width="0.944882" stroke-linecap="round" stroke-linejoin="bevel"/>
<path d="M827.212 910.108H837.606" stroke="black" stroke-width="0.944882" stroke-linecap="round" stroke-linejoin="bevel"/>
<path d="M865.007 908.219C865.007 909.263 864.161 910.109 863.117 910.109" stroke="black" stroke-width="0.944882" stroke-linecap="round" stroke-linejoin="bevel"/>
<path d="M827.212 910.109C826.168 910.109 825.322 909.263 825.322 908.219" stroke="black" stroke-width="0.944882" stroke-linecap="round" stroke-linejoin="bevel"/>
<path d="M865.008 900.66V908.219" stroke="black" stroke-width="0.944882" stroke-linecap="round" stroke-linejoin="bevel"/>
<path d="M825.322 908.219V900.66" stroke="black" stroke-width="0.944882" stroke-linecap="round" stroke-linejoin="bevel"/>
<path d="M863.117 898.77C864.161 898.77 865.007 899.616 865.007 900.66" stroke="black" stroke-width="0.944882" stroke-linecap="round" stroke-linejoin="bevel"/>
<path d="M825.322 900.66C825.322 899.616 826.168 898.77 827.212 898.77" stroke="black" stroke-width="0.944882" stroke-linecap="round" stroke-linejoin="bevel"/>
<path d="M827.212 898.77H863.117" stroke="black" stroke-width="0.944882" stroke-linecap="round" stroke-linejoin="bevel"/>
<path d="M916.031 901.005V910.714" stroke="black" stroke-width="0.944882" stroke-linecap="round" stroke-linejoin="bevel"/>
<path d="M916.031 901.005C916.031 899.961 915.185 899.115 914.142 899.115" stroke="black" stroke-width="0.944882" stroke-linecap="round" stroke-linejoin="bevel"/>
<path d="M916.031 910.714C916.031 911.757 915.185 912.603 914.142 912.603" stroke="black" stroke-width="0.944882" stroke-linecap="round" stroke-linejoin="bevel"/>
<path d="M878.235 899.115H914.141" stroke="black" stroke-width="0.944882" stroke-linecap="round" stroke-linejoin="bevel"/>
<path d="M891.464 912.603H914.141" stroke="black" stroke-width="0.944882" stroke-linecap="round" stroke-linejoin="bevel"/>
<path d="M876.346 901.005C876.346 899.961 877.192 899.115 878.235 899.115" stroke="black" stroke-width="0.944882" stroke-linecap="round" stroke-linejoin="bevel"/>
<path d="M891.464 912.603C890.42 912.603 889.574 913.449 889.574 914.493" stroke="black" stroke-width="0.944882" stroke-linecap="round" stroke-linejoin="bevel"/>
<path d="M876.346 960.787V901.005" stroke="black" stroke-width="0.944882" stroke-linecap="round" stroke-linejoin="bevel"/>
<path d="M889.574 921.447V914.493" stroke="black" stroke-width="0.944882" stroke-linecap="round" stroke-linejoin="bevel"/>
<path d="M878.235 962.677C877.192 962.677 876.346 961.831 876.346 960.787" stroke="black" stroke-width="0.944882" stroke-linecap="round" stroke-linejoin="bevel"/>
<path d="M889.574 921.447C889.574 922.491 890.42 923.337 891.464 923.337" stroke="black" stroke-width="0.944882" stroke-linecap="round" stroke-linejoin="bevel"/>
<path d="M914.141 962.677H878.235" stroke="black" stroke-width="0.944882" stroke-linecap="round" stroke-linejoin="bevel"/>
<path d="M914.141 923.337H891.464" stroke="black" stroke-width="0.944882" stroke-linecap="round" stroke-linejoin="bevel"/>
<path d="M916.031 960.787C916.031 961.831 915.185 962.677 914.142 962.677" stroke="black" stroke-width="0.944882" stroke-linecap="round" stroke-linejoin="bevel"/>
<path d="M914.142 923.337C915.185 923.337 916.031 924.183 916.031 925.227" stroke="black" stroke-width="0.944882" stroke-linecap="round" stroke-linejoin="bevel"/>
<path d="M916.031 951.078V960.787" stroke="black" stroke-width="0.944882" stroke-linecap="round" stroke-linejoin="bevel"/>
<path d="M916.031 925.227V936.565" stroke="black" stroke-width="0.944882" stroke-linecap="round" stroke-linejoin="bevel"/>
<path d="M914.142 949.188C915.185 949.188 916.031 950.035 916.031 951.078" stroke="black" stroke-width="0.944882" stroke-linecap="round" stroke-linejoin="bevel"/>
<path d="M916.031 936.565C916.031 937.609 915.185 938.455 914.142 938.455" stroke="black" stroke-width="0.944882" stroke-linecap="round" stroke-linejoin="bevel"/>
<path d="M914.141 949.188H891.464" stroke="black" stroke-width="0.944882" stroke-linecap="round" stroke-linejoin="bevel"/>
<path d="M891.464 938.455H914.141" stroke="black" stroke-width="0.944882" stroke-linecap="round" stroke-linejoin="bevel"/>
<path d="M889.574 947.299C889.574 948.343 890.42 949.189 891.464 949.189" stroke="black" stroke-width="0.944882" stroke-linecap="round" stroke-linejoin="bevel"/>
<path d="M891.464 938.455C890.42 938.455 889.574 939.301 889.574 940.345" stroke="black" stroke-width="0.944882" stroke-linecap="round" stroke-linejoin="bevel"/>
<path d="M889.574 947.299V940.345" stroke="black" stroke-width="0.944882" stroke-linecap="round" stroke-linejoin="bevel"/>
<path fill-rule="evenodd" clip-rule="evenodd" d="M701.855 878.276C701.855 880.467 700.078 882.244 697.886 882.244C695.695 882.244 693.918 880.467 693.918 878.276C693.918 876.084 695.695 874.307 697.886 874.307C700.078 874.307 701.855 876.084 701.855 878.276Z" stroke="black" stroke-width="0.944882" stroke-linecap="round" stroke-linejoin="bevel"/>
<path fill-rule="evenodd" clip-rule="evenodd" d="M1047.14 878.276C1047.14 880.467 1045.36 882.244 1043.17 882.244C1040.98 882.244 1039.2 880.467 1039.2 878.276C1039.2 876.084 1040.98 874.307 1043.17 874.307C1045.36 874.307 1047.14 876.084 1047.14 878.276Z" stroke="black" stroke-width="0.944882" stroke-linecap="round" stroke-linejoin="bevel"/>
<path fill-rule="evenodd" clip-rule="evenodd" d="M1374.44 884.917C1374.44 887.109 1372.66 888.886 1370.47 888.886C1368.28 888.886 1366.5 887.109 1366.5 884.917C1366.5 882.725 1368.28 880.949 1370.47 880.949C1372.66 880.949 1374.44 882.725 1374.44 884.917Z" stroke="black" stroke-width="0.944882" stroke-linecap="round" stroke-linejoin="bevel"/>
</svg>
