<svg id="Layer_1" data-name="Layer 1" xmlns="http://www.w3.org/2000/svg" viewBox="0 0 1037 787.74"><defs><style>.cls-1{fill:#fff;fill-rule:evenodd;}.cls-2{fill:none;stroke:#000;}.cls-2,.cls-3,.cls-4,.cls-5{stroke-linecap:round;stroke-linejoin:bevel;stroke-width:0.71px;}.cls-3{fill:#3757a7;stroke:#3757a7;}.cls-4{fill:#3858a7;}.cls-4,.cls-5{stroke:#3858a7;}.cls-5{fill:#3959a8;}</style></defs><g id="Page002"><g id="DrawingContent"><path class="cls-1" d="M1040.9,21.91V427.27a8.5,8.5,0,0,1-8.5,8.5H13.55a8.5,8.5,0,0,1-8.5-8.5V21.91a17,17,0,0,1,17-17H1023.89a17,17,0,0,1,17,17" transform="translate(-4.69 -4.55)"/><path class="cls-1" d="M999.34,155.62v29.3a5.67,5.67,0,0,1-5.67,5.67H943.28a5.67,5.67,0,0,1-5.67-5.67v-29.3a5.67,5.67,0,0,1,5.67-5.67h50.39a5.67,5.67,0,0,1,5.67,5.67" transform="translate(-4.69 -4.55)"/><path class="cls-1" d="M49.16,385.88A11.48,11.48,0,1,1,37.68,374.4a11.48,11.48,0,0,1,11.48,11.48" transform="translate(-4.69 -4.55)"/><path class="cls-1" d="M1019.75,385.88a11.48,11.48,0,1,1-11.48-11.48,11.48,11.48,0,0,1,11.48,11.48" transform="translate(-4.69 -4.55)"/><path class="cls-1" d="M786.33,13.41A4.4,4.4,0,1,1,781.94,9a4.39,4.39,0,0,1,4.39,4.39" transform="translate(-4.69 -4.55)"/><path class="cls-1" d="M527.37,13.41A4.4,4.4,0,1,1,523,9a4.39,4.39,0,0,1,4.39,4.39" transform="translate(-4.69 -4.55)"/><path class="cls-1" d="M268.41,13.41A4.4,4.4,0,1,1,264,9a4.39,4.39,0,0,1,4.4,4.39" transform="translate(-4.69 -4.55)"/><path class="cls-1" d="M1031.81,18.39a4.4,4.4,0,1,1-4.4-4.39,4.4,4.4,0,0,1,4.4,4.39" transform="translate(-4.69 -4.55)"/><path class="cls-1" d="M22.93,18.39A4.4,4.4,0,1,1,18.54,14a4.4,4.4,0,0,1,4.39,4.39" transform="translate(-4.69 -4.55)"/><path class="cls-1" d="M784.91,427.27a3,3,0,1,1-3-3,3,3,0,0,1,3,3" transform="translate(-4.69 -4.55)"/><path class="cls-1" d="M19,424.78a3,3,0,1,1-3-3,3,3,0,0,1,3,3" transform="translate(-4.69 -4.55)"/><path class="cls-1" d="M1032.88,424.78a3,3,0,1,1-3-3,3,3,0,0,1,3,3" transform="translate(-4.69 -4.55)"/><path class="cls-1" d="M526,427.27a3,3,0,1,1-3-3,3,3,0,0,1,3,3" transform="translate(-4.69 -4.55)"/><path class="cls-1" d="M267,427.27a3,3,0,1,1-3-3,3,3,0,0,1,3,3" transform="translate(-4.69 -4.55)"/><path class="cls-2" d="M1040.9,21.91V427.27" transform="translate(-4.69 -4.55)"/><path class="cls-2" d="M1023.89,4.91a17,17,0,0,1,17,17" transform="translate(-4.69 -4.55)"/><path class="cls-2" d="M1040.9,427.27a8.5,8.5,0,0,1-8.5,8.5" transform="translate(-4.69 -4.55)"/><path class="cls-2" d="M22.06,4.91H1023.89" transform="translate(-4.69 -4.55)"/><path class="cls-2" d="M1032.4,435.77H13.55" transform="translate(-4.69 -4.55)"/><path class="cls-2" d="M5.05,21.91a17,17,0,0,1,17-17" transform="translate(-4.69 -4.55)"/><path class="cls-2" d="M13.55,435.77a8.5,8.5,0,0,1-8.5-8.5" transform="translate(-4.69 -4.55)"/><path class="cls-2" d="M5.05,427.27V21.91" transform="translate(-4.69 -4.55)"/><path class="cls-2" d="M19,424.78a3,3,0,1,1-3-3,3,3,0,0,1,3,3" transform="translate(-4.69 -4.55)"/><path class="cls-3" d="M49.16,385.88A11.48,11.48,0,1,1,37.68,374.4a11.48,11.48,0,0,1,11.48,11.48" transform="translate(-4.69 -4.55)"/><path class="cls-2" d="M267,427.27a3,3,0,1,1-3-3,3,3,0,0,1,3,3" transform="translate(-4.69 -4.55)"/><path class="cls-2" d="M22.93,18.39A4.4,4.4,0,1,1,18.54,14a4.4,4.4,0,0,1,4.39,4.39" transform="translate(-4.69 -4.55)"/><path class="cls-2" d="M268.41,13.41A4.4,4.4,0,1,1,264,9a4.39,4.39,0,0,1,4.4,4.39" transform="translate(-4.69 -4.55)"/><path class="cls-2" d="M526,427.27a3,3,0,1,1-3-3,3,3,0,0,1,3,3" transform="translate(-4.69 -4.55)"/><path class="cls-2" d="M784.91,427.27a3,3,0,1,1-3-3,3,3,0,0,1,3,3" transform="translate(-4.69 -4.55)"/><path class="cls-2" d="M1032.88,424.78a3,3,0,1,1-3-3,3,3,0,0,1,3,3" transform="translate(-4.69 -4.55)"/><path class="cls-4" d="M1019.75,385.88a11.48,11.48,0,1,1-11.48-11.48,11.48,11.48,0,0,1,11.48,11.48" transform="translate(-4.69 -4.55)"/><path class="cls-2" d="M527.37,13.41A4.4,4.4,0,1,1,523,9a4.39,4.39,0,0,1,4.39,4.39" transform="translate(-4.69 -4.55)"/><path class="cls-2" d="M999.34,155.62v29.3" transform="translate(-4.69 -4.55)"/><path class="cls-2" d="M993.67,150a5.67,5.67,0,0,1,5.67,5.67" transform="translate(-4.69 -4.55)"/><path class="cls-2" d="M999.34,184.92a5.67,5.67,0,0,1-5.67,5.67" transform="translate(-4.69 -4.55)"/><path class="cls-2" d="M943.28,150h50.39" transform="translate(-4.69 -4.55)"/><path class="cls-2" d="M993.67,190.59H943.28" transform="translate(-4.69 -4.55)"/><path class="cls-2" d="M937.61,155.62a5.67,5.67,0,0,1,5.67-5.67" transform="translate(-4.69 -4.55)"/><path class="cls-2" d="M943.28,190.59a5.67,5.67,0,0,1-5.67-5.67" transform="translate(-4.69 -4.55)"/><path class="cls-2" d="M937.61,184.92v-29.3" transform="translate(-4.69 -4.55)"/><path class="cls-2" d="M786.33,13.41A4.4,4.4,0,1,1,781.94,9a4.39,4.39,0,0,1,4.39,4.39" transform="translate(-4.69 -4.55)"/><path class="cls-2" d="M1031.81,18.39a4.4,4.4,0,1,1-4.4-4.39,4.4,4.4,0,0,1,4.4,4.39" transform="translate(-4.69 -4.55)"/><path class="cls-1" d="M245.73,573.77l-80.46,64.62a14.14,14.14,0,0,1-8.88,3.13H19.65A14.17,14.17,0,0,1,5.48,627.34V460.1a17,17,0,0,1,17-17H1024.32a17,17,0,0,1,17,17V627.34a14.18,14.18,0,0,1-14.18,14.18H890.41a14.14,14.14,0,0,1-8.88-3.13l-80.46-64.62a14.14,14.14,0,0,0-8.87-3.12H254.6a14.17,14.17,0,0,0-8.87,3.12" transform="translate(-4.69 -4.55)"/><path class="cls-1" d="M21.94,456.58a3,3,0,1,1-3-3,3,3,0,0,1,3,3" transform="translate(-4.69 -4.55)"/><path class="cls-1" d="M1030.82,456.58a3,3,0,1,1-3-3,3,3,0,0,1,3,3" transform="translate(-4.69 -4.55)"/><path class="cls-1" d="M267.41,451.6a3,3,0,1,1-3-3,3,3,0,0,1,3,3" transform="translate(-4.69 -4.55)"/><path class="cls-1" d="M526.38,451.6a3,3,0,1,1-3-3,3,3,0,0,1,3,3" transform="translate(-4.69 -4.55)"/><path class="cls-1" d="M785.34,451.6a3,3,0,1,1-3-3,3,3,0,0,1,3,3" transform="translate(-4.69 -4.55)"/><path class="cls-2" d="M245.73,573.77l-80.46,64.62" transform="translate(-4.69 -4.55)"/><path class="cls-2" d="M165.27,638.39a14.14,14.14,0,0,1-8.88,3.13" transform="translate(-4.69 -4.55)"/><path class="cls-2" d="M156.39,641.52H19.65" transform="translate(-4.69 -4.55)"/><path class="cls-2" d="M19.65,641.52A14.17,14.17,0,0,1,5.48,627.34" transform="translate(-4.69 -4.55)"/><path class="cls-2" d="M5.48,627.34V460.1" transform="translate(-4.69 -4.55)"/><path class="cls-2" d="M5.48,460.1a17,17,0,0,1,17-17" transform="translate(-4.69 -4.55)"/><path class="cls-2" d="M22.48,443.09H1024.32" transform="translate(-4.69 -4.55)"/><path class="cls-2" d="M1024.32,443.09a17,17,0,0,1,17,17" transform="translate(-4.69 -4.55)"/><path class="cls-2" d="M1041.33,460.1V627.34" transform="translate(-4.69 -4.55)"/><path class="cls-2" d="M1041.33,627.34a14.18,14.18,0,0,1-14.18,14.18" transform="translate(-4.69 -4.55)"/><path class="cls-2" d="M1027.15,641.52H890.41" transform="translate(-4.69 -4.55)"/><path class="cls-2" d="M890.41,641.52a14.14,14.14,0,0,1-8.88-3.13" transform="translate(-4.69 -4.55)"/><path class="cls-2" d="M881.53,638.39l-80.46-64.62" transform="translate(-4.69 -4.55)"/><path class="cls-2" d="M792.2,570.65a14.14,14.14,0,0,1,8.87,3.12" transform="translate(-4.69 -4.55)"/><path class="cls-2" d="M792.2,570.65H254.6" transform="translate(-4.69 -4.55)"/><path class="cls-2" d="M245.73,573.77a14.17,14.17,0,0,1,8.87-3.12" transform="translate(-4.69 -4.55)"/><path class="cls-2" d="M267.41,451.6a3,3,0,1,1-3-3,3,3,0,0,1,3,3" transform="translate(-4.69 -4.55)"/><path class="cls-2" d="M526.38,451.6a3,3,0,1,1-3-3,3,3,0,0,1,3,3" transform="translate(-4.69 -4.55)"/><path class="cls-2" d="M21.94,456.58a3,3,0,1,1-3-3,3,3,0,0,1,3,3" transform="translate(-4.69 -4.55)"/><path class="cls-2" d="M1030.82,456.58a3,3,0,1,1-3-3,3,3,0,0,1,3,3" transform="translate(-4.69 -4.55)"/><path class="cls-2" d="M785.34,451.6a3,3,0,1,1-3-3,3,3,0,0,1,3,3" transform="translate(-4.69 -4.55)"/><path class="cls-1" d="M247.43,737.44l-82.56,52.3a14.25,14.25,0,0,1-7.59,2.2H19.66A14.17,14.17,0,0,1,5.49,777.76V667.21a17,17,0,0,1,17-17H1024.33a17,17,0,0,1,17,17V777.76a14.18,14.18,0,0,1-14.17,14.18H889.55a14.25,14.25,0,0,1-7.59-2.2l-82.56-52.3a14.25,14.25,0,0,0-7.59-2.2H255a14.24,14.24,0,0,0-7.58,2.2" transform="translate(-4.69 -4.55)"/><path class="cls-1" d="M685.61,711.89a1.42,1.42,0,0,1,1.41,1.42v7.28a1.42,1.42,0,0,1-1.41,1.42H658.68a1.42,1.42,0,0,1-1.42-1.42V675.75a1.41,1.41,0,0,1,1.42-1.41h26.93a1.41,1.41,0,0,1,1.41,1.41V683a1.41,1.41,0,0,1-1.41,1.41h-17a1.42,1.42,0,0,0-1.42,1.42v5.22a1.41,1.41,0,0,0,1.42,1.41h17a1.42,1.42,0,0,1,1.41,1.42v8.5a1.41,1.41,0,0,1-1.41,1.42h-17a1.42,1.42,0,0,0-1.42,1.42v5.21a1.41,1.41,0,0,0,1.42,1.42h17" transform="translate(-4.69 -4.55)"/><path class="cls-1" d="M570.8,712.35a1.41,1.41,0,0,1,1.42,1.41v7.09a1.42,1.42,0,0,1-1.42,1.42H543.87a1.42,1.42,0,0,1-1.41-1.42V675.49a1.41,1.41,0,0,1,1.41-1.41H570.8a1.41,1.41,0,0,1,1.42,1.41v7.09A1.42,1.42,0,0,1,570.8,684h-17a1.41,1.41,0,0,0-1.41,1.42v5.67a1.41,1.41,0,0,0,1.41,1.41h17a1.42,1.42,0,0,1,1.42,1.42v8.5a1.41,1.41,0,0,1-1.42,1.42h-17a1.42,1.42,0,0,0-1.41,1.42v5.67a1.42,1.42,0,0,0,1.41,1.42h17" transform="translate(-4.69 -4.55)"/><path class="cls-1" d="M498.52,712.35a1.42,1.42,0,0,1,1.42,1.41v7.09a1.43,1.43,0,0,1-1.42,1.42H471.59a1.43,1.43,0,0,1-1.42-1.42V675.49a1.42,1.42,0,0,1,1.42-1.41h26.93a1.42,1.42,0,0,1,1.42,1.41v7.09a1.43,1.43,0,0,1-1.42,1.42h-17a1.42,1.42,0,0,0-1.42,1.42v5.67a1.42,1.42,0,0,0,1.42,1.41h17a1.43,1.43,0,0,1,1.42,1.42v8.5a1.42,1.42,0,0,1-1.42,1.42h-17a1.43,1.43,0,0,0-1.42,1.42v5.67a1.43,1.43,0,0,0,1.42,1.42h17" transform="translate(-4.69 -4.55)"/><path class="cls-1" d="M389.39,675.49v21.3a1.43,1.43,0,0,1-1.42,1.42H376.52a1.41,1.41,0,0,0-1.41,1.42v21.22a1.43,1.43,0,0,1-1.42,1.42H362.46a1.42,1.42,0,0,1-1.42-1.42V675.49a1.41,1.41,0,0,1,1.42-1.41H388a1.42,1.42,0,0,1,1.42,1.41" transform="translate(-4.69 -4.55)"/><path class="cls-1" d="M461.25,716.18a1.42,1.42,0,0,1,.42,1v3.67a1.43,1.43,0,0,1-1.42,1.42h-3.66a1.42,1.42,0,0,1-1-.42l-17-17a1.43,1.43,0,0,0-2,0l-17,17a1.38,1.38,0,0,1-1,.42H414.9a1.42,1.42,0,0,1-1.42-1.42v-3.67a1.45,1.45,0,0,1,.41-1l17-17a1.4,1.4,0,0,0,0-2l-17-17a1.41,1.41,0,0,1-.41-1v-3.67a1.41,1.41,0,0,1,1.42-1.41h3.66a1.41,1.41,0,0,1,1,.41l17,17a1.43,1.43,0,0,0,2,0l17-17a1.46,1.46,0,0,1,1-.41h3.66a1.42,1.42,0,0,1,1.42,1.41v3.67a1.38,1.38,0,0,1-.42,1l-17,17a1.4,1.4,0,0,0,0,2l17,17" transform="translate(-4.69 -4.55)"/><path class="cls-1" d="M582.14,682.58a1.42,1.42,0,0,1-1.42-1.42v-5.67a1.42,1.42,0,0,1,1.42-1.41h26.93a1.42,1.42,0,0,1,1.42,1.41v5.67a1.42,1.42,0,0,1-1.42,1.42h-7.79a1.42,1.42,0,0,0-1.42,1.42v36.85a1.43,1.43,0,0,1-1.42,1.42h-5.67a1.43,1.43,0,0,1-1.42-1.42V684a1.42,1.42,0,0,0-1.41-1.42h-7.8" transform="translate(-4.69 -4.55)"/><path class="cls-1" d="M620.41,682.58a1.42,1.42,0,0,1-1.42-1.42v-5.67a1.42,1.42,0,0,1,1.42-1.41h26.93a1.42,1.42,0,0,1,1.42,1.41v5.67a1.42,1.42,0,0,1-1.42,1.42h-7.8a1.42,1.42,0,0,0-1.41,1.42v36.85a1.43,1.43,0,0,1-1.42,1.42H631a1.43,1.43,0,0,1-1.42-1.42V684a1.42,1.42,0,0,0-1.42-1.42h-7.79" transform="translate(-4.69 -4.55)"/><path class="cls-1" d="M532.53,712.71a1.42,1.42,0,0,1,1.42,1.42v6.72a1.42,1.42,0,0,1-1.42,1.42H509.86a1.42,1.42,0,0,1-1.42-1.42V675.49a1.41,1.41,0,0,1,1.42-1.41h4.76a1.41,1.41,0,0,1,1.42,1.41V711.3a1.42,1.42,0,0,0,1.42,1.41h15.07" transform="translate(-4.69 -4.55)"/><path class="cls-1" d="M1020.19,764.27a11.48,11.48,0,1,1-11.48-11.48,11.48,11.48,0,0,1,11.48,11.48" transform="translate(-4.69 -4.55)"/><path class="cls-1" d="M49.6,764.27a11.48,11.48,0,1,1-11.48-11.48A11.48,11.48,0,0,1,49.6,764.27" transform="translate(-4.69 -4.55)"/><path class="cls-1" d="M397.89,720.85V675.49a1.41,1.41,0,0,1,1.42-1.41h4.25a1.42,1.42,0,0,1,1.42,1.41v45.36a1.43,1.43,0,0,1-1.42,1.42h-4.25a1.42,1.42,0,0,1-1.42-1.42" transform="translate(-4.69 -4.55)"/><path class="cls-1" d="M22,663.69a3,3,0,1,1-3-3,3,3,0,0,1,3,3" transform="translate(-4.69 -4.55)"/><path class="cls-1" d="M785.35,658.71a3,3,0,1,1-3-3,3,3,0,0,1,3,3" transform="translate(-4.69 -4.55)"/><path class="cls-1" d="M526.39,658.71a3,3,0,1,1-3-3,3,3,0,0,1,3,3" transform="translate(-4.69 -4.55)"/><path class="cls-1" d="M267.43,658.71a3,3,0,1,1-3-3,3,3,0,0,1,3,3" transform="translate(-4.69 -4.55)"/><path class="cls-1" d="M1030.83,663.69a3,3,0,1,1-3-3,3,3,0,0,1,3,3" transform="translate(-4.69 -4.55)"/><path class="cls-2" d="M247.43,737.44l-82.56,52.3" transform="translate(-4.69 -4.55)"/><path class="cls-2" d="M247.43,737.44a14.24,14.24,0,0,1,7.58-2.2" transform="translate(-4.69 -4.55)"/><path class="cls-2" d="M164.87,789.74a14.25,14.25,0,0,1-7.59,2.2" transform="translate(-4.69 -4.55)"/><path class="cls-2" d="M791.81,735.24H255" transform="translate(-4.69 -4.55)"/><path class="cls-2" d="M157.28,791.94H19.66" transform="translate(-4.69 -4.55)"/><path class="cls-2" d="M791.81,735.24a14.25,14.25,0,0,1,7.59,2.2" transform="translate(-4.69 -4.55)"/><path class="cls-2" d="M19.66,791.94A14.17,14.17,0,0,1,5.49,777.76" transform="translate(-4.69 -4.55)"/><path class="cls-2" d="M882,789.74l-82.56-52.3" transform="translate(-4.69 -4.55)"/><path class="cls-2" d="M5.49,777.76V667.21" transform="translate(-4.69 -4.55)"/><path class="cls-2" d="M889.55,791.94a14.25,14.25,0,0,1-7.59-2.2" transform="translate(-4.69 -4.55)"/><path class="cls-2" d="M5.49,667.21a17,17,0,0,1,17-17" transform="translate(-4.69 -4.55)"/><path class="cls-2" d="M1027.17,791.94H889.55" transform="translate(-4.69 -4.55)"/><path class="cls-2" d="M22.5,650.2H1024.33" transform="translate(-4.69 -4.55)"/><path class="cls-2" d="M1041.34,777.76a14.18,14.18,0,0,1-14.17,14.18" transform="translate(-4.69 -4.55)"/><path class="cls-2" d="M1024.33,650.2a17,17,0,0,1,17,17" transform="translate(-4.69 -4.55)"/><path class="cls-2" d="M1041.34,667.21V777.76" transform="translate(-4.69 -4.55)"/><path class="cls-4" d="M49.6,764.27a11.48,11.48,0,1,1-11.48-11.48A11.48,11.48,0,0,1,49.6,764.27" transform="translate(-4.69 -4.55)"/><path class="cls-2" d="M22,663.69a3,3,0,1,1-3-3,3,3,0,0,1,3,3" transform="translate(-4.69 -4.55)"/><path class="cls-2" d="M267.43,658.71a3,3,0,1,1-3-3,3,3,0,0,1,3,3" transform="translate(-4.69 -4.55)"/><path class="cls-2" d="M389.39,675.49v21.3" transform="translate(-4.69 -4.55)"/><path class="cls-2" d="M389.39,675.49a1.42,1.42,0,0,0-1.42-1.41" transform="translate(-4.69 -4.55)"/><path class="cls-2" d="M389.39,696.79a1.43,1.43,0,0,1-1.42,1.42" transform="translate(-4.69 -4.55)"/><path class="cls-2" d="M362.46,674.08H388" transform="translate(-4.69 -4.55)"/><path class="cls-2" d="M376.52,698.21H388" transform="translate(-4.69 -4.55)"/><path class="cls-2" d="M361,675.49a1.41,1.41,0,0,1,1.42-1.41" transform="translate(-4.69 -4.55)"/><path class="cls-2" d="M376.52,698.21a1.41,1.41,0,0,0-1.41,1.42" transform="translate(-4.69 -4.55)"/><path class="cls-2" d="M361,720.85V675.49" transform="translate(-4.69 -4.55)"/><path class="cls-2" d="M375.11,720.85V699.63" transform="translate(-4.69 -4.55)"/><path class="cls-2" d="M362.46,722.27a1.42,1.42,0,0,1-1.42-1.42" transform="translate(-4.69 -4.55)"/><path class="cls-2" d="M375.11,720.85a1.43,1.43,0,0,1-1.42,1.42" transform="translate(-4.69 -4.55)"/><path class="cls-2" d="M373.69,722.27H362.46" transform="translate(-4.69 -4.55)"/><path class="cls-2" d="M397.89,720.85V675.49" transform="translate(-4.69 -4.55)"/><path class="cls-2" d="M397.89,720.85a1.42,1.42,0,0,0,1.42,1.42" transform="translate(-4.69 -4.55)"/><path class="cls-2" d="M397.89,675.49a1.41,1.41,0,0,1,1.42-1.41" transform="translate(-4.69 -4.55)"/><path class="cls-2" d="M403.56,722.27h-4.25" transform="translate(-4.69 -4.55)"/><path class="cls-2" d="M399.31,674.08h4.25" transform="translate(-4.69 -4.55)"/><path class="cls-2" d="M405,720.85a1.43,1.43,0,0,1-1.42,1.42" transform="translate(-4.69 -4.55)"/><path class="cls-2" d="M403.56,674.08a1.42,1.42,0,0,1,1.42,1.41" transform="translate(-4.69 -4.55)"/><path class="cls-2" d="M405,675.49v45.36" transform="translate(-4.69 -4.55)"/><path class="cls-2" d="M414.9,674.08h3.66" transform="translate(-4.69 -4.55)"/><path class="cls-2" d="M414.9,674.08a1.41,1.41,0,0,0-1.42,1.41" transform="translate(-4.69 -4.55)"/><path class="cls-2" d="M418.56,674.08a1.41,1.41,0,0,1,1,.41" transform="translate(-4.69 -4.55)"/><path class="cls-2" d="M413.48,679.16v-3.67" transform="translate(-4.69 -4.55)"/><path class="cls-2" d="M436.57,691.5l-17-17" transform="translate(-4.69 -4.55)"/><path class="cls-2" d="M413.89,680.16a1.41,1.41,0,0,1-.41-1" transform="translate(-4.69 -4.55)"/><path class="cls-2" d="M436.57,691.5a1.43,1.43,0,0,0,2,0" transform="translate(-4.69 -4.55)"/><path class="cls-2" d="M413.89,680.16l17,17" transform="translate(-4.69 -4.55)"/><path class="cls-2" d="M455.58,674.49l-17,17" transform="translate(-4.69 -4.55)"/><path class="cls-2" d="M430.9,699.17a1.4,1.4,0,0,0,0-2" transform="translate(-4.69 -4.55)"/><path class="cls-2" d="M455.58,674.49a1.46,1.46,0,0,1,1-.41" transform="translate(-4.69 -4.55)"/><path class="cls-2" d="M430.9,699.17l-17,17" transform="translate(-4.69 -4.55)"/><path class="cls-2" d="M456.59,674.08h3.66" transform="translate(-4.69 -4.55)"/><path class="cls-2" d="M413.48,717.18a1.45,1.45,0,0,1,.41-1" transform="translate(-4.69 -4.55)"/><path class="cls-2" d="M460.25,674.08a1.42,1.42,0,0,1,1.42,1.41" transform="translate(-4.69 -4.55)"/><path class="cls-2" d="M413.48,720.85v-3.67" transform="translate(-4.69 -4.55)"/><path class="cls-2" d="M461.67,675.49v3.67" transform="translate(-4.69 -4.55)"/><path class="cls-2" d="M414.9,722.27a1.42,1.42,0,0,1-1.42-1.42" transform="translate(-4.69 -4.55)"/><path class="cls-2" d="M461.67,679.16a1.38,1.38,0,0,1-.42,1" transform="translate(-4.69 -4.55)"/><path class="cls-2" d="M418.56,722.27H414.9" transform="translate(-4.69 -4.55)"/><path class="cls-2" d="M444.25,697.17l17-17" transform="translate(-4.69 -4.55)"/><path class="cls-2" d="M419.56,721.85a1.38,1.38,0,0,1-1,.42" transform="translate(-4.69 -4.55)"/><path class="cls-2" d="M444.25,697.17a1.4,1.4,0,0,0,0,2" transform="translate(-4.69 -4.55)"/><path class="cls-2" d="M419.56,721.85l17-17" transform="translate(-4.69 -4.55)"/><path class="cls-2" d="M461.25,716.18l-17-17" transform="translate(-4.69 -4.55)"/><path class="cls-2" d="M438.58,704.84a1.43,1.43,0,0,0-2,0" transform="translate(-4.69 -4.55)"/><path class="cls-2" d="M461.25,716.18a1.42,1.42,0,0,1,.42,1" transform="translate(-4.69 -4.55)"/><path class="cls-2" d="M438.58,704.84l17,17" transform="translate(-4.69 -4.55)"/><path class="cls-2" d="M461.67,717.18v3.67" transform="translate(-4.69 -4.55)"/><path class="cls-2" d="M456.59,722.27a1.42,1.42,0,0,1-1-.42" transform="translate(-4.69 -4.55)"/><path class="cls-2" d="M461.67,720.85a1.43,1.43,0,0,1-1.42,1.42" transform="translate(-4.69 -4.55)"/><path class="cls-2" d="M460.25,722.27h-3.66" transform="translate(-4.69 -4.55)"/><path class="cls-2" d="M499.94,675.49v7.09" transform="translate(-4.69 -4.55)"/><path class="cls-2" d="M499.94,675.49a1.42,1.42,0,0,0-1.42-1.41" transform="translate(-4.69 -4.55)"/><path class="cls-2" d="M499.94,682.58a1.43,1.43,0,0,1-1.42,1.42" transform="translate(-4.69 -4.55)"/><path class="cls-2" d="M471.59,674.08h26.93" transform="translate(-4.69 -4.55)"/><path class="cls-2" d="M481.51,684h17" transform="translate(-4.69 -4.55)"/><path class="cls-2" d="M470.17,675.49a1.42,1.42,0,0,1,1.42-1.41" transform="translate(-4.69 -4.55)"/><path class="cls-2" d="M481.51,684a1.42,1.42,0,0,0-1.42,1.42" transform="translate(-4.69 -4.55)"/><path class="cls-2" d="M470.17,720.85V675.49" transform="translate(-4.69 -4.55)"/><path class="cls-2" d="M480.09,691.09v-5.67" transform="translate(-4.69 -4.55)"/><path class="cls-2" d="M471.59,722.27a1.43,1.43,0,0,1-1.42-1.42" transform="translate(-4.69 -4.55)"/><path class="cls-2" d="M480.09,691.09a1.42,1.42,0,0,0,1.42,1.41" transform="translate(-4.69 -4.55)"/><path class="cls-2" d="M498.52,722.27H471.59" transform="translate(-4.69 -4.55)"/><path class="cls-2" d="M498.52,692.5h-17" transform="translate(-4.69 -4.55)"/><path class="cls-2" d="M499.94,720.85a1.43,1.43,0,0,1-1.42,1.42" transform="translate(-4.69 -4.55)"/><path class="cls-2" d="M498.52,692.5a1.43,1.43,0,0,1,1.42,1.42" transform="translate(-4.69 -4.55)"/><path class="cls-2" d="M499.94,713.76v7.09" transform="translate(-4.69 -4.55)"/><path class="cls-2" d="M499.94,693.92v8.5" transform="translate(-4.69 -4.55)"/><path class="cls-2" d="M498.52,712.35a1.42,1.42,0,0,1,1.42,1.41" transform="translate(-4.69 -4.55)"/><path class="cls-2" d="M499.94,702.42a1.42,1.42,0,0,1-1.42,1.42" transform="translate(-4.69 -4.55)"/><path class="cls-2" d="M498.52,712.35h-17" transform="translate(-4.69 -4.55)"/><path class="cls-2" d="M481.51,703.84h17" transform="translate(-4.69 -4.55)"/><path class="cls-2" d="M480.09,710.93a1.43,1.43,0,0,0,1.42,1.42" transform="translate(-4.69 -4.55)"/><path class="cls-2" d="M481.51,703.84a1.43,1.43,0,0,0-1.42,1.42" transform="translate(-4.69 -4.55)"/><path class="cls-2" d="M480.09,710.93v-5.67" transform="translate(-4.69 -4.55)"/><path class="cls-2" d="M508.44,720.85V675.49" transform="translate(-4.69 -4.55)"/><path class="cls-2" d="M508.44,720.85a1.42,1.42,0,0,0,1.42,1.42" transform="translate(-4.69 -4.55)"/><path class="cls-2" d="M508.44,675.49a1.41,1.41,0,0,1,1.42-1.41" transform="translate(-4.69 -4.55)"/><path class="cls-2" d="M532.53,722.27H509.86" transform="translate(-4.69 -4.55)"/><path class="cls-2" d="M509.86,674.08h4.76" transform="translate(-4.69 -4.55)"/><path class="cls-2" d="M534,720.85a1.42,1.42,0,0,1-1.42,1.42" transform="translate(-4.69 -4.55)"/><path class="cls-2" d="M514.62,674.08a1.41,1.41,0,0,1,1.42,1.41" transform="translate(-4.69 -4.55)"/><path class="cls-2" d="M534,714.13v6.72" transform="translate(-4.69 -4.55)"/><path class="cls-2" d="M516,711.3V675.49" transform="translate(-4.69 -4.55)"/><path class="cls-2" d="M532.53,712.71a1.42,1.42,0,0,1,1.42,1.42" transform="translate(-4.69 -4.55)"/><path class="cls-2" d="M516,711.3a1.42,1.42,0,0,0,1.42,1.41" transform="translate(-4.69 -4.55)"/><path class="cls-2" d="M532.53,712.71H517.46" transform="translate(-4.69 -4.55)"/><path class="cls-5" d="M1020.19,764.27a11.48,11.48,0,1,1-11.48-11.48,11.48,11.48,0,0,1,11.48,11.48" transform="translate(-4.69 -4.55)"/><path class="cls-2" d="M572.22,675.49v7.09" transform="translate(-4.69 -4.55)"/><path class="cls-2" d="M572.22,675.49a1.41,1.41,0,0,0-1.42-1.41" transform="translate(-4.69 -4.55)"/><path class="cls-2" d="M572.22,682.58A1.42,1.42,0,0,1,570.8,684" transform="translate(-4.69 -4.55)"/><path class="cls-2" d="M543.87,674.08H570.8" transform="translate(-4.69 -4.55)"/><path class="cls-2" d="M553.79,684h17" transform="translate(-4.69 -4.55)"/><path class="cls-2" d="M542.46,675.49a1.41,1.41,0,0,1,1.41-1.41" transform="translate(-4.69 -4.55)"/><path class="cls-2" d="M553.79,684a1.41,1.41,0,0,0-1.41,1.42" transform="translate(-4.69 -4.55)"/><path class="cls-2" d="M542.46,720.85V675.49" transform="translate(-4.69 -4.55)"/><path class="cls-2" d="M552.38,691.09v-5.67" transform="translate(-4.69 -4.55)"/><path class="cls-2" d="M543.87,722.27a1.42,1.42,0,0,1-1.41-1.42" transform="translate(-4.69 -4.55)"/><path class="cls-2" d="M552.38,691.09a1.41,1.41,0,0,0,1.41,1.41" transform="translate(-4.69 -4.55)"/><path class="cls-2" d="M570.8,722.27H543.87" transform="translate(-4.69 -4.55)"/><path class="cls-2" d="M570.8,692.5h-17" transform="translate(-4.69 -4.55)"/><path class="cls-2" d="M572.22,720.85a1.42,1.42,0,0,1-1.42,1.42" transform="translate(-4.69 -4.55)"/><path class="cls-2" d="M570.8,692.5a1.42,1.42,0,0,1,1.42,1.42" transform="translate(-4.69 -4.55)"/><path class="cls-2" d="M572.22,713.76v7.09" transform="translate(-4.69 -4.55)"/><path class="cls-2" d="M572.22,693.92v8.5" transform="translate(-4.69 -4.55)"/><path class="cls-2" d="M570.8,712.35a1.41,1.41,0,0,1,1.42,1.41" transform="translate(-4.69 -4.55)"/><path class="cls-2" d="M572.22,702.42a1.41,1.41,0,0,1-1.42,1.42" transform="translate(-4.69 -4.55)"/><path class="cls-2" d="M570.8,712.35h-17" transform="translate(-4.69 -4.55)"/><path class="cls-2" d="M553.79,703.84h17" transform="translate(-4.69 -4.55)"/><path class="cls-2" d="M552.38,710.93a1.42,1.42,0,0,0,1.41,1.42" transform="translate(-4.69 -4.55)"/><path class="cls-2" d="M553.79,703.84a1.42,1.42,0,0,0-1.41,1.42" transform="translate(-4.69 -4.55)"/><path class="cls-2" d="M552.38,710.93v-5.67" transform="translate(-4.69 -4.55)"/><path class="cls-2" d="M598.44,722.27h-5.67" transform="translate(-4.69 -4.55)"/><path class="cls-2" d="M598.44,722.27a1.43,1.43,0,0,0,1.42-1.42" transform="translate(-4.69 -4.55)"/><path class="cls-2" d="M592.77,722.27a1.43,1.43,0,0,1-1.42-1.42" transform="translate(-4.69 -4.55)"/><path class="cls-2" d="M599.86,684v36.85" transform="translate(-4.69 -4.55)"/><path class="cls-2" d="M591.35,684v36.85" transform="translate(-4.69 -4.55)"/><path class="cls-2" d="M601.28,682.58a1.42,1.42,0,0,0-1.42,1.42" transform="translate(-4.69 -4.55)"/><path class="cls-2" d="M591.35,684a1.42,1.42,0,0,0-1.41-1.42" transform="translate(-4.69 -4.55)"/><path class="cls-2" d="M609.07,682.58h-7.79" transform="translate(-4.69 -4.55)"/><path class="cls-2" d="M582.14,682.58h7.8" transform="translate(-4.69 -4.55)"/><path class="cls-2" d="M610.49,681.16a1.42,1.42,0,0,1-1.42,1.42" transform="translate(-4.69 -4.55)"/><path class="cls-2" d="M582.14,682.58a1.42,1.42,0,0,1-1.42-1.42" transform="translate(-4.69 -4.55)"/><path class="cls-2" d="M610.49,675.49v5.67" transform="translate(-4.69 -4.55)"/><path class="cls-2" d="M580.72,681.16v-5.67" transform="translate(-4.69 -4.55)"/><path class="cls-2" d="M609.07,674.08a1.42,1.42,0,0,1,1.42,1.41" transform="translate(-4.69 -4.55)"/><path class="cls-2" d="M580.72,675.49a1.42,1.42,0,0,1,1.42-1.41" transform="translate(-4.69 -4.55)"/><path class="cls-2" d="M582.14,674.08h26.93" transform="translate(-4.69 -4.55)"/><path class="cls-2" d="M636.71,722.27H631" transform="translate(-4.69 -4.55)"/><path class="cls-2" d="M636.71,722.27a1.43,1.43,0,0,0,1.42-1.42" transform="translate(-4.69 -4.55)"/><path class="cls-2" d="M631,722.27a1.43,1.43,0,0,1-1.42-1.42" transform="translate(-4.69 -4.55)"/><path class="cls-2" d="M638.13,684v36.85" transform="translate(-4.69 -4.55)"/><path class="cls-2" d="M629.62,684v36.85" transform="translate(-4.69 -4.55)"/><path class="cls-2" d="M639.54,682.58a1.42,1.42,0,0,0-1.41,1.42" transform="translate(-4.69 -4.55)"/><path class="cls-2" d="M629.62,684a1.42,1.42,0,0,0-1.42-1.42" transform="translate(-4.69 -4.55)"/><path class="cls-2" d="M647.34,682.58h-7.8" transform="translate(-4.69 -4.55)"/><path class="cls-2" d="M620.41,682.58h7.79" transform="translate(-4.69 -4.55)"/><path class="cls-2" d="M648.76,681.16a1.42,1.42,0,0,1-1.42,1.42" transform="translate(-4.69 -4.55)"/><path class="cls-2" d="M620.41,682.58a1.42,1.42,0,0,1-1.42-1.42" transform="translate(-4.69 -4.55)"/><path class="cls-2" d="M648.76,675.49v5.67" transform="translate(-4.69 -4.55)"/><path class="cls-2" d="M619,681.16v-5.67" transform="translate(-4.69 -4.55)"/><path class="cls-2" d="M647.34,674.08a1.42,1.42,0,0,1,1.42,1.41" transform="translate(-4.69 -4.55)"/><path class="cls-2" d="M619,675.49a1.42,1.42,0,0,1,1.42-1.41" transform="translate(-4.69 -4.55)"/><path class="cls-2" d="M620.41,674.08h26.93" transform="translate(-4.69 -4.55)"/><path class="cls-2" d="M687,675.75V683" transform="translate(-4.69 -4.55)"/><path class="cls-2" d="M687,675.75a1.41,1.41,0,0,0-1.41-1.41" transform="translate(-4.69 -4.55)"/><path class="cls-2" d="M687,683a1.41,1.41,0,0,1-1.41,1.41" transform="translate(-4.69 -4.55)"/><path class="cls-2" d="M658.68,674.34h26.93" transform="translate(-4.69 -4.55)"/><path class="cls-2" d="M668.6,684.45h17" transform="translate(-4.69 -4.55)"/><path class="cls-2" d="M657.26,675.75a1.41,1.41,0,0,1,1.42-1.41" transform="translate(-4.69 -4.55)"/><path class="cls-2" d="M668.6,684.45a1.42,1.42,0,0,0-1.42,1.42" transform="translate(-4.69 -4.55)"/><path class="cls-2" d="M657.26,720.59V675.75" transform="translate(-4.69 -4.55)"/><path class="cls-2" d="M667.18,691.09v-5.22" transform="translate(-4.69 -4.55)"/><path class="cls-2" d="M658.68,722a1.42,1.42,0,0,1-1.42-1.42" transform="translate(-4.69 -4.55)"/><path class="cls-2" d="M667.18,691.09a1.41,1.41,0,0,0,1.42,1.41" transform="translate(-4.69 -4.55)"/><path class="cls-2" d="M685.61,722H658.68" transform="translate(-4.69 -4.55)"/><path class="cls-2" d="M685.61,692.5h-17" transform="translate(-4.69 -4.55)"/><path class="cls-2" d="M687,720.59a1.42,1.42,0,0,1-1.41,1.42" transform="translate(-4.69 -4.55)"/><path class="cls-2" d="M685.61,692.5a1.42,1.42,0,0,1,1.41,1.42" transform="translate(-4.69 -4.55)"/><path class="cls-2" d="M687,713.31v7.28" transform="translate(-4.69 -4.55)"/><path class="cls-2" d="M687,693.92v8.5" transform="translate(-4.69 -4.55)"/><path class="cls-2" d="M685.61,711.89a1.42,1.42,0,0,1,1.41,1.42" transform="translate(-4.69 -4.55)"/><path class="cls-2" d="M687,702.42a1.41,1.41,0,0,1-1.41,1.42" transform="translate(-4.69 -4.55)"/><path class="cls-2" d="M685.61,711.89h-17" transform="translate(-4.69 -4.55)"/><path class="cls-2" d="M668.6,703.84h17" transform="translate(-4.69 -4.55)"/><path class="cls-2" d="M667.18,710.47a1.41,1.41,0,0,0,1.42,1.42" transform="translate(-4.69 -4.55)"/><path class="cls-2" d="M668.6,703.84a1.42,1.42,0,0,0-1.42,1.42" transform="translate(-4.69 -4.55)"/><path class="cls-2" d="M667.18,710.47v-5.21" transform="translate(-4.69 -4.55)"/><path class="cls-2" d="M526.39,658.71a3,3,0,1,1-3-3,3,3,0,0,1,3,3" transform="translate(-4.69 -4.55)"/><path class="cls-2" d="M785.35,658.71a3,3,0,1,1-3-3,3,3,0,0,1,3,3" transform="translate(-4.69 -4.55)"/><path class="cls-2" d="M1030.83,663.69a3,3,0,1,1-3-3,3,3,0,0,1,3,3" transform="translate(-4.69 -4.55)"/></g></g></svg>