<?xml version='1.0' encoding='UTF-8' standalone='no'?>
<svg baseProfile="tiny" xmlns:sodipodi="http://sodipodi.sourceforge.net/DTD/sodipodi-0.dtd" viewBox="0 0 4200 2970" xmlns:freecad="http://www.freecadweb.org/wiki/index.php?title=Svg_Namespace" xmlns:inkscape="http://www.inkscape.org/namespaces/inkscape" width="420mm" height="297mm" xmlns:svg="http://www.w3.org/2000/svg" xmlns:rdf="http://www.w3.org/1999/02/22-rdf-syntax-ns#" xmlns:dc="http://purl.org/dc/elements/1.1/" xmlns:xlink="http://www.w3.org/1999/xlink" version="1.2" xmlns:cc="http://creativecommons.org/ns#" xmlns="http://www.w3.org/2000/svg">
 <title>FreeCAD SVG Export</title>
 <desc>Drawing page: Page005 exported from FreeCAD document: Case_design</desc>
 <defs/>
 <g inkscape:groupmode="layer" inkscape:label="TechDraw" id="Page005">
  <g fill-rule="evenodd" stroke-linecap="square" stroke-width="1" fill="none" stroke="black" id="DrawingContent" stroke-linejoin="bevel">
   <g transform="matrix(1,0,0,1,238.093,774.677)" font-size="29.1042" fill-opacity="1" font-family="MS Shell Dlg 2" font-weight="400" fill="#ffffff" stroke="none" font-style="normal">
    <path d="M220.5,730.094 L220.5,637.469 L220.5,-295.031 L220.5,-362.656 L220.5,-533.156 L220.5,-699.906 C220.5,-733.043 193.637,-759.906 160.5,-759.906 L-160.5,-759.906 C-193.637,-759.906 -220.5,-733.043 -220.5,-699.906 L-220.5,730.094 C-220.5,746.663 -207.069,760.094 -190.5,760.094 L190.5,760.094 C207.069,760.094 220.5,746.663 220.5,730.094 " vector-effect="non-scaling-stroke" fill-rule="evenodd"/>
   </g>
   <g transform="matrix(1,0,0,1,238.093,774.677)" font-size="29.1042" fill-opacity="1" font-family="MS Shell Dlg 2" font-weight="400" fill="#ffffff" stroke="none" font-style="normal">
    <path d="M153.5,179.219 L153.5,-257.981 L-83.5,-257.981 L-83.5,179.219 L153.5,179.219" vector-effect="non-scaling-stroke" fill-rule="evenodd"/>
   </g>
   <g transform="matrix(1,0,0,1,238.093,774.677)" font-size="29.1042" fill-opacity="1" font-family="MS Shell Dlg 2" font-weight="400" fill="#ffffff" stroke="none" font-style="normal">
    <path d="M197.75,-447.906 C197.75,-410.626 167.529,-380.406 130.25,-380.406 C92.9708,-380.406 62.75,-410.626 62.75,-447.906 C62.75,-485.185 92.9708,-515.406 130.25,-515.406 C167.529,-515.406 197.75,-485.185 197.75,-447.906 " vector-effect="non-scaling-stroke" fill-rule="evenodd"/>
   </g>
   <g transform="matrix(1,0,0,1,238.093,774.677)" font-size="29.1042" fill-opacity="1" font-family="MS Shell Dlg 2" font-weight="400" fill="#ffffff" stroke="none" font-style="normal">
    <path d="M7.25,-447.906 C7.25,-410.626 -22.9708,-380.406 -60.25,-380.406 C-97.5292,-380.406 -127.75,-410.626 -127.75,-447.906 C-127.75,-485.185 -97.5292,-515.406 -60.25,-515.406 C-22.9708,-515.406 7.25,-485.185 7.25,-447.906 " vector-effect="non-scaling-stroke" fill-rule="evenodd"/>
   </g>
   <g transform="matrix(1,0,0,1,238.093,774.677)" font-size="29.1042" fill-opacity="1" font-family="MS Shell Dlg 2" font-weight="400" fill="#ffffff" stroke="none" font-style="normal">
    <path d="M-27.75,552.219 C-27.75,570.169 -42.3007,584.719 -60.25,584.719 C-78.1993,584.719 -92.75,570.169 -92.75,552.219 C-92.75,534.27 -78.1993,519.719 -60.25,519.719 C-42.3007,519.719 -27.75,534.27 -27.75,552.219 " vector-effect="non-scaling-stroke" fill-rule="evenodd"/>
   </g>
   <g transform="matrix(1,0,0,1,238.093,774.677)" font-size="29.1042" fill-opacity="1" font-family="MS Shell Dlg 2" font-weight="400" fill="#ffffff" stroke="none" font-style="normal">
    <path d="M-27.75,361.719 C-27.75,379.669 -42.3007,394.219 -60.25,394.219 C-78.1993,394.219 -92.75,379.669 -92.75,361.719 C-92.75,343.77 -78.1993,329.219 -60.25,329.219 C-42.3007,329.219 -27.75,343.77 -27.75,361.719 " vector-effect="non-scaling-stroke" fill-rule="evenodd"/>
   </g>
   <g transform="matrix(1,0,0,1,238.093,774.677)" font-size="29.1042" fill-opacity="1" font-family="MS Shell Dlg 2" font-weight="400" fill="#ffffff" stroke="none" font-style="normal">
    <path d="M162.75,361.719 C162.75,379.669 148.199,394.219 130.25,394.219 C112.301,394.219 97.75,379.669 97.75,361.719 C97.75,343.77 112.301,329.219 130.25,329.219 C148.199,329.219 162.75,343.77 162.75,361.719 " vector-effect="non-scaling-stroke" fill-rule="evenodd"/>
   </g>
   <g transform="matrix(1,0,0,1,238.093,774.677)" font-size="29.1042" fill-opacity="1" font-family="MS Shell Dlg 2" font-weight="400" fill="#ffffff" stroke="none" font-style="normal">
    <path d="M162.75,552.219 C162.75,570.169 148.199,584.719 130.25,584.719 C112.301,584.719 97.75,570.169 97.75,552.219 C97.75,534.27 112.301,519.719 130.25,519.719 C148.199,519.719 162.75,534.27 162.75,552.219 " vector-effect="non-scaling-stroke" fill-rule="evenodd"/>
   </g>
   <g transform="matrix(1,0,0,1,238.093,774.677)" font-size="29.1042" fill-opacity="1" font-family="MS Shell Dlg 2" font-weight="400" fill="#ffffff" stroke="none" font-style="normal">
    <path d="M-162.426,-712.332 C-162.426,-706.533 -167.127,-701.832 -172.926,-701.832 C-178.725,-701.832 -183.426,-706.533 -183.426,-712.332 C-183.426,-718.131 -178.725,-722.832 -172.926,-722.832 C-167.127,-722.832 -162.426,-718.131 -162.426,-712.332 " vector-effect="non-scaling-stroke" fill-rule="evenodd"/>
   </g>
   <g transform="matrix(1,0,0,1,238.093,774.677)" font-size="29.1042" fill-opacity="1" font-family="MS Shell Dlg 2" font-weight="400" fill="#ffffff" stroke="none" font-style="normal">
    <path d="M-171.213,721.308 C-171.213,727.107 -175.914,731.808 -181.713,731.808 C-187.512,731.808 -192.213,727.107 -192.213,721.308 C-192.213,715.509 -187.512,710.808 -181.713,710.808 C-175.914,710.808 -171.213,715.509 -171.213,721.308 " vector-effect="non-scaling-stroke" fill-rule="evenodd"/>
   </g>
   <g transform="matrix(1,0,0,1,238.093,774.677)" font-size="29.1042" stroke-linecap="round" font-family="MS Shell Dlg 2" stroke-width="2.5" font-weight="400" fill="none" stroke="#000000" stroke-opacity="1" stroke-linejoin="bevel" font-style="normal">
    <path d="M-220.5,-699.906 L-220.5,730.094" vector-effect="none" fill-rule="evenodd"/>
   </g>
   <g transform="matrix(1,0,0,1,238.093,774.677)" font-size="29.1042" stroke-linecap="round" font-family="MS Shell Dlg 2" stroke-width="2.5" font-weight="400" fill="none" stroke="#000000" stroke-opacity="1" stroke-linejoin="bevel" font-style="normal">
    <path d="M-160.5,-759.906 C-193.637,-759.906 -220.5,-733.043 -220.5,-699.906 " vector-effect="none" fill-rule="evenodd"/>
   </g>
   <g transform="matrix(1,0,0,1,238.093,774.677)" font-size="29.1042" stroke-linecap="round" font-family="MS Shell Dlg 2" stroke-width="2.5" font-weight="400" fill="none" stroke="#000000" stroke-opacity="1" stroke-linejoin="bevel" font-style="normal">
    <path d="M-220.5,730.094 C-220.5,746.663 -207.069,760.094 -190.5,760.094 " vector-effect="none" fill-rule="evenodd"/>
   </g>
   <g transform="matrix(1,0,0,1,238.093,774.677)" font-size="29.1042" stroke-linecap="round" font-family="MS Shell Dlg 2" stroke-width="2.5" font-weight="400" fill="none" stroke="#000000" stroke-opacity="1" stroke-linejoin="bevel" font-style="normal">
    <path d="M160.5,-759.906 L-160.5,-759.906" vector-effect="none" fill-rule="evenodd"/>
   </g>
   <g transform="matrix(1,0,0,1,238.093,774.677)" font-size="29.1042" stroke-linecap="round" font-family="MS Shell Dlg 2" stroke-width="2.5" font-weight="400" fill="none" stroke="#000000" stroke-opacity="1" stroke-linejoin="bevel" font-style="normal">
    <path d="M-190.5,760.094 L190.5,760.094" vector-effect="none" fill-rule="evenodd"/>
   </g>
   <g transform="matrix(1,0,0,1,238.093,774.677)" font-size="29.1042" stroke-linecap="round" font-family="MS Shell Dlg 2" stroke-width="2.5" font-weight="400" fill="none" stroke="#000000" stroke-opacity="1" stroke-linejoin="bevel" font-style="normal">
    <path d="M220.5,-699.906 C220.5,-733.043 193.637,-759.906 160.5,-759.906 " vector-effect="none" fill-rule="evenodd"/>
   </g>
   <g transform="matrix(1,0,0,1,238.093,774.677)" font-size="29.1042" stroke-linecap="round" font-family="MS Shell Dlg 2" stroke-width="2.5" font-weight="400" fill="none" stroke="#000000" stroke-opacity="1" stroke-linejoin="bevel" font-style="normal">
    <path d="M190.5,760.094 C207.069,760.094 220.5,746.663 220.5,730.094 " vector-effect="none" fill-rule="evenodd"/>
   </g>
   <g transform="matrix(1,0,0,1,238.093,774.677)" font-size="29.1042" stroke-linecap="round" font-family="MS Shell Dlg 2" stroke-width="2.5" font-weight="400" fill="none" stroke="#000000" stroke-opacity="1" stroke-linejoin="bevel" font-style="normal">
    <path d="M220.5,-533.156 L220.5,-699.906" vector-effect="none" fill-rule="evenodd"/>
   </g>
   <g transform="matrix(1,0,0,1,238.093,774.677)" font-size="29.1042" stroke-linecap="round" font-family="MS Shell Dlg 2" stroke-width="2.5" font-weight="400" fill="none" stroke="#000000" stroke-opacity="1" stroke-linejoin="bevel" font-style="normal">
    <path d="M220.5,730.094 L220.5,637.469" vector-effect="none" fill-rule="evenodd"/>
   </g>
   <g transform="matrix(1,0,0,1,238.093,774.677)" font-size="29.1042" stroke-linecap="round" font-family="MS Shell Dlg 2" stroke-width="2.5" font-weight="400" fill="none" stroke="#000000" stroke-opacity="1" stroke-linejoin="bevel" font-style="normal">
    <path d="M220.5,-362.656 L220.5,-533.156" vector-effect="none" fill-rule="evenodd"/>
   </g>
   <g transform="matrix(1,0,0,1,238.093,774.677)" font-size="29.1042" stroke-linecap="round" font-family="MS Shell Dlg 2" stroke-width="2.5" font-weight="400" fill="none" stroke="#000000" stroke-opacity="1" stroke-linejoin="bevel" font-style="normal">
    <path d="M220.5,637.469 L220.5,-295.031" vector-effect="none" fill-rule="evenodd"/>
   </g>
   <g transform="matrix(1,0,0,1,238.093,774.677)" font-size="29.1042" stroke-linecap="round" font-family="MS Shell Dlg 2" stroke-width="2.5" font-weight="400" fill="none" stroke="#000000" stroke-opacity="1" stroke-linejoin="bevel" font-style="normal">
    <path d="M220.5,-295.031 L220.5,-362.656" vector-effect="none" fill-rule="evenodd"/>
   </g>
   <g transform="matrix(1,0,0,1,238.093,774.677)" font-size="29.1042" stroke-linecap="round" font-family="MS Shell Dlg 2" stroke-width="2.5" font-weight="400" fill="none" stroke="#000000" stroke-opacity="1" stroke-linejoin="bevel" font-style="normal">
    <path d="M-171.213,721.308 C-171.213,727.107 -175.914,731.808 -181.713,731.808 C-187.512,731.808 -192.213,727.107 -192.213,721.308 C-192.213,715.509 -187.512,710.808 -181.713,710.808 C-175.914,710.808 -171.213,715.509 -171.213,721.308 " vector-effect="none" fill-rule="evenodd"/>
   </g>
   <g transform="matrix(1,0,0,1,238.093,774.677)" font-size="29.1042" stroke-linecap="round" font-family="MS Shell Dlg 2" stroke-width="2.5" font-weight="400" fill="none" stroke="#000000" stroke-opacity="1" stroke-linejoin="bevel" font-style="normal">
    <path d="M-27.75,552.219 C-27.75,570.169 -42.3007,584.719 -60.25,584.719 C-78.1993,584.719 -92.75,570.169 -92.75,552.219 C-92.75,534.27 -78.1993,519.719 -60.25,519.719 C-42.3007,519.719 -27.75,534.27 -27.75,552.219 " vector-effect="none" fill-rule="evenodd"/>
   </g>
   <g transform="matrix(1,0,0,1,238.093,774.677)" font-size="29.1042" stroke-linecap="round" font-family="MS Shell Dlg 2" stroke-width="2.5" font-weight="400" fill="none" stroke="#000000" stroke-opacity="1" stroke-linejoin="bevel" font-style="normal">
    <path d="M-27.75,361.719 C-27.75,379.669 -42.3007,394.219 -60.25,394.219 C-78.1993,394.219 -92.75,379.669 -92.75,361.719 C-92.75,343.77 -78.1993,329.219 -60.25,329.219 C-42.3007,329.219 -27.75,343.77 -27.75,361.719 " vector-effect="none" fill-rule="evenodd"/>
   </g>
   <g transform="matrix(1,0,0,1,238.093,774.677)" font-size="29.1042" stroke-linecap="round" font-family="MS Shell Dlg 2" stroke-width="2.5" font-weight="400" fill="none" stroke="#000000" stroke-opacity="1" stroke-linejoin="bevel" font-style="normal">
    <path d="M162.75,552.219 C162.75,570.169 148.199,584.719 130.25,584.719 C112.301,584.719 97.75,570.169 97.75,552.219 C97.75,534.27 112.301,519.719 130.25,519.719 C148.199,519.719 162.75,534.27 162.75,552.219 " vector-effect="none" fill-rule="evenodd"/>
   </g>
   <g transform="matrix(1,0,0,1,238.093,774.677)" font-size="29.1042" stroke-linecap="round" font-family="MS Shell Dlg 2" stroke-width="2.5" font-weight="400" fill="none" stroke="#000000" stroke-opacity="1" stroke-linejoin="bevel" font-style="normal">
    <path d="M162.75,361.719 C162.75,379.669 148.199,394.219 130.25,394.219 C112.301,394.219 97.75,379.669 97.75,361.719 C97.75,343.77 112.301,329.219 130.25,329.219 C148.199,329.219 162.75,343.77 162.75,361.719 " vector-effect="none" fill-rule="evenodd"/>
   </g>
   <g transform="matrix(1,0,0,1,238.093,774.677)" font-size="29.1042" stroke-linecap="round" font-family="MS Shell Dlg 2" stroke-width="2.5" font-weight="400" fill="none" stroke="#000000" stroke-opacity="1" stroke-linejoin="bevel" font-style="normal">
    <path d="M-162.426,-712.332 C-162.426,-706.533 -167.127,-701.832 -172.926,-701.832 C-178.725,-701.832 -183.426,-706.533 -183.426,-712.332 C-183.426,-718.131 -178.725,-722.832 -172.926,-722.832 C-167.127,-722.832 -162.426,-718.131 -162.426,-712.332 " vector-effect="none" fill-rule="evenodd"/>
   </g>
   <g transform="matrix(1,0,0,1,238.093,774.677)" font-size="29.1042" stroke-linecap="round" font-family="MS Shell Dlg 2" stroke-width="2.5" font-weight="400" fill="none" stroke="#000000" stroke-opacity="1" stroke-linejoin="bevel" font-style="normal">
    <path d="M7.25,-447.906 C7.25,-410.626 -22.9708,-380.406 -60.25,-380.406 C-97.5292,-380.406 -127.75,-410.626 -127.75,-447.906 C-127.75,-485.185 -97.5292,-515.406 -60.25,-515.406 C-22.9708,-515.406 7.25,-485.185 7.25,-447.906 " vector-effect="none" fill-rule="evenodd"/>
   </g>
   <g transform="matrix(1,0,0,1,238.093,774.677)" font-size="29.1042" stroke-linecap="round" font-family="MS Shell Dlg 2" stroke-width="2.5" font-weight="400" fill="none" stroke="#000000" stroke-opacity="1" stroke-linejoin="bevel" font-style="normal">
    <path d="M-83.5,-257.981 L-83.5,179.219" vector-effect="none" fill-rule="evenodd"/>
   </g>
   <g transform="matrix(1,0,0,1,238.093,774.677)" font-size="29.1042" stroke-linecap="round" font-family="MS Shell Dlg 2" stroke-width="2.5" font-weight="400" fill="none" stroke="#000000" stroke-opacity="1" stroke-linejoin="bevel" font-style="normal">
    <path d="M-83.5,179.219 L153.5,179.219" vector-effect="none" fill-rule="evenodd"/>
   </g>
   <g transform="matrix(1,0,0,1,238.093,774.677)" font-size="29.1042" stroke-linecap="round" font-family="MS Shell Dlg 2" stroke-width="2.5" font-weight="400" fill="none" stroke="#000000" stroke-opacity="1" stroke-linejoin="bevel" font-style="normal">
    <path d="M153.5,179.219 L153.5,-257.981" vector-effect="none" fill-rule="evenodd"/>
   </g>
   <g transform="matrix(1,0,0,1,238.093,774.677)" font-size="29.1042" stroke-linecap="round" font-family="MS Shell Dlg 2" stroke-width="2.5" font-weight="400" fill="none" stroke="#000000" stroke-opacity="1" stroke-linejoin="bevel" font-style="normal">
    <path d="M153.5,-257.981 L-83.5,-257.981" vector-effect="none" fill-rule="evenodd"/>
   </g>
   <g transform="matrix(1,0,0,1,238.093,774.677)" font-size="29.1042" stroke-linecap="round" font-family="MS Shell Dlg 2" stroke-width="2.5" font-weight="400" fill="none" stroke="#000000" stroke-opacity="1" stroke-linejoin="bevel" font-style="normal">
    <path d="M197.75,-447.906 C197.75,-410.626 167.529,-380.406 130.25,-380.406 C92.9708,-380.406 62.75,-410.626 62.75,-447.906 C62.75,-485.185 92.9708,-515.406 130.25,-515.406 C167.529,-515.406 197.75,-485.185 197.75,-447.906 " vector-effect="none" fill-rule="evenodd"/>
   </g>
  </g>
 </g>
</svg>
